<?xml version="1.0" encoding="iso-8859-1"?>
<!-- Generator: Adobe Illustrator 19.0.0, SVG Export Plug-In . SVG Version: 6.00 Build 0)  -->
<svg version="1.1" id="Capa_1" xmlns="http://www.w3.org/2000/svg" xmlns:xlink="http://www.w3.org/1999/xlink" x="0px" y="0px"
	 viewBox="0 0 512 512" style="enable-background:new 0 0 512 512;" xml:space="preserve">
<circle style="fill:#B9EAFF;" cx="256" cy="256" r="256"/>
<path style="fill:#35CCFF;" d="M310.352,506.198C425.625,481.273,512,378.732,512,256c0-13.414-1.037-26.585-3.025-39.442
	l-66.088-66.088l-60.104,7.502l16.055,16.055l-155.219,83.009L125.003,138.421l-38.21,25.222l-5.604,42.732l80.391,80.391
	l-44.08,26.581L310.352,506.198z"/>
<polygon style="fill:#FF9451;" points="394.5,313.347 256,384.233 117.5,313.347 117.5,173.732 394.5,173.732 "/>
<polygon style="fill:#FFB344;" points="256,173.732 394.5,173.732 394.5,313.347 256,384.233 "/>
<polygon style="fill:#FF6838;" points="256,244.617 117.5,173.732 256,102.846 394.5,173.732 "/>
<polygon style="fill:#AE4E32;" points="256,244.617 394.5,173.732 256,102.846 "/>
<polygon style="fill:#005C83;" points="386.997,138.421 382.782,157.972 404.635,162.683 256,238.756 107.365,162.683 
	129.218,157.972 125.003,138.421 69.113,150.47 81.189,206.375 100.738,202.152 95.785,179.224 246,256.105 246,408.298 
	229.72,392.016 215.577,406.157 256,446.587 296.423,406.156 282.28,392.016 266,408.298 266,256.105 416.215,179.224 
	411.262,202.152 430.811,206.375 442.887,150.47 "/>
<polygon style="fill:#00263F;" points="256,446.587 256,446.587 296.423,406.156 282.28,392.016 266,408.298 266,256.105 
	416.215,179.224 411.262,202.152 430.811,206.375 442.887,150.47 386.997,138.421 382.782,157.972 404.635,162.683 256,238.756 "/>
<g>
</g>
<g>
</g>
<g>
</g>
<g>
</g>
<g>
</g>
<g>
</g>
<g>
</g>
<g>
</g>
<g>
</g>
<g>
</g>
<g>
</g>
<g>
</g>
<g>
</g>
<g>
</g>
<g>
</g>
</svg>
