<?xml version="1.0" encoding="UTF-8" standalone="no"?>
<svg width="67px" height="56px" viewBox="0 0 67 56" version="1.1" xmlns="http://www.w3.org/2000/svg" xmlns:xlink="http://www.w3.org/1999/xlink">
    <!-- Generator: Sketch 46.2 (44496) - http://www.bohemiancoding.com/sketch -->
    <title>ABS_EBS_amber warning signals</title>
    <desc>Created with Sketch.</desc>
    <defs></defs>
    <g id="Page-1" stroke="none" stroke-width="1" fill="none" fill-rule="evenodd">
        <g id="Desktop" transform="translate(-143.000000, -91.000000)" fill-rule="nonzero">
            <g id="ABS_EBS_amber-warning-signals" transform="translate(143.000000, 91.000000)">
                <g id="noun_95608_cc" transform="translate(0.500000, 0.500000)" fill="#4A4A4A">
                    <g id="Group">
                        <path d="M32.8846154,0.07232441 C48.0601505,0.07232441 60.4076087,12.4197826 60.4076087,27.5953177 C60.4076087,42.7708528 48.0601505,55.118311 32.8846154,55.118311 C17.7090803,55.118311 5.36162207,42.7708528 5.36162207,27.5953177 C5.36162207,12.4197826 17.7090803,0.07232441 32.8846154,0.07232441 Z" id="Shape"></path>
                        <path d="M9.29347826,9.1155936 L7.04445652,7.35126254 C2.47492475,13.174699 0.0600501672,20.1762625 0.0600501672,27.5953177 C0.0600501672,34.6469231 2.26188963,41.365393 6.42679766,47.0286957 L8.7301505,45.3329933 C4.92840301,40.1658194 2.91958194,34.0321237 2.91958194,27.5953177 C2.91958194,20.821087 5.12428094,14.4314632 9.29347826,9.1155936 Z" id="Shape"></path>
                        <path d="M58.7219147,7.34840301 L56.4714632,9.1127341 C60.6435201,14.4300334 62.8482191,20.821087 62.8482191,27.5953177 C62.8482191,34.0321237 60.839398,40.1672492 57.0362207,45.3344231 L59.3395736,47.0301254 C63.5059114,41.3668227 65.7077508,34.6469231 65.7077508,27.5953177 C65.7077508,20.1762625 63.2928763,13.174699 58.7219147,7.34840301 Z" id="Shape"></path>
                    </g>
                </g>
                <g id="noun_126097_cc" transform="translate(18.038462, 14.846154)" fill="#FFFFFF">
                    <path d="M30.3520023,1.25125766 C29.8982617,0.469221623 29.0556007,0 28.1157095,0 L2.57659816,0 C1.63670701,0 0.826456015,0.469221623 0.340305418,1.25125766 C-0.113435139,2.0332937 -0.113435139,2.97173694 0.340305418,3.72249154 L13.1098611,25.0564346 C13.5636017,25.8384707 14.4062627,26.3076923 15.3461538,26.3076923 C16.286045,26.3076923 17.096296,25.8384707 17.5824466,25.0564346 L30.3520023,3.72249154 C30.8057428,2.97173694 30.8057428,2.0332937 30.3520023,1.25125766 Z M29.5417513,2.84661118 C29.5093412,2.90917406 29.5093412,2.97173694 29.4769312,3.03429983 C29.4445212,3.09686271 29.4121111,3.15942559 29.3797011,3.22198848 L26.2035172,8.57111497 L23.0273333,13.9202415 L16.6101454,24.5559316 C16.5777354,24.6184945 16.5453253,24.6810573 16.4805052,24.7123388 C16.3832751,24.8374646 16.253635,24.9625903 16.0915848,25.0251532 C16.0267647,25.0564346 15.9295346,25.1189975 15.8647145,25.150279 C15.7026643,25.2128419 15.508204,25.2441233 15.3137438,25.2441233 C15.1841036,25.2441233 15.0544635,25.2441233 14.9572334,25.2128419 C14.8275932,25.1815604 14.7303631,25.150279 14.6007229,25.0877161 C14.3738527,24.9625903 14.1793924,24.8061831 14.0497523,24.5559316 L7.69738445,13.88896 L1.31260661,3.22198848 C0.761635935,2.28354523 1.44224677,1.09485045 2.57659816,1.09485045 L15.3461538,1.09485045 L28.1157095,1.09485045 L28.1157095,1.09485045 C28.1805296,1.09485045 28.2453497,1.09485045 28.3101698,1.09485045 C28.4398099,1.12613189 28.5694501,1.15741334 28.6990902,1.18869478 C28.8287304,1.25125766 28.9259605,1.31382054 29.0231906,1.37638343 C29.0880107,1.40766487 29.1204208,1.43894631 29.1528308,1.50150919 C29.2500609,1.59535352 29.314881,1.68919784 29.3797011,1.78304217 C29.4445212,1.87688649 29.4769312,2.00201226 29.5093412,2.12713802 C29.5417513,2.25226379 29.5741613,2.37738955 29.5741613,2.47123388 C29.5741613,2.59635965 29.5741613,2.72148541 29.5417513,2.84661118 Z" id="Shape"></path>
                    <path d="M3.28846154,2.19230769 L9.59134615,13.1538462 L15.8942308,24.1153846 L22.1971154,13.1538462 L28.5,2.19230769 L15.8612314,2.19230769 L3.28846154,2.19230769 Z M17.1152084,17.4055944 C16.7522151,17.770979 16.3562223,17.9370629 15.8612314,17.9370629 C15.3662404,17.9370629 14.9372483,17.770979 14.6072543,17.4055944 C14.244261,17.0402098 14.079264,16.6416084 14.079264,16.1433566 C14.079264,15.6451049 14.244261,15.2132867 14.6072543,14.8811189 C14.9702477,14.5157343 15.3662404,14.3496503 15.8612314,14.3496503 C16.3562223,14.3496503 16.7852145,14.5157343 17.1152084,14.8811189 C17.4782018,15.2465035 17.6431988,15.6451049 17.6431988,16.1433566 C17.6431988,16.6416084 17.4782018,17.0734266 17.1152084,17.4055944 Z M17.3132048,13.2534965 L14.409258,13.2534965 L14.409258,4.01923077 L17.3132048,4.01923077 L17.3132048,13.2534965 L17.3132048,13.2534965 Z" id="Shape"></path>
                </g>
            </g>
        </g>
    </g>
</svg>