<?xml version="1.0" encoding="UTF-8" standalone="no"?>
<svg width="47px" height="58px" viewBox="0 0 47 58" version="1.1" xmlns="http://www.w3.org/2000/svg" xmlns:xlink="http://www.w3.org/1999/xlink">
    <!-- Generator: Sketch 46.2 (44496) - http://www.bohemiancoding.com/sketch -->
    <title>Battery Voltage</title>
    <desc>Created with Sketch.</desc>
    <defs></defs>
    <g id="Page-1" stroke="none" stroke-width="1" fill="none" fill-rule="evenodd">
        <g id="Desktop" transform="translate(-780.000000, -105.000000)" fill-rule="nonzero" fill="#4A4A4A">
            <g id="Battery-Voltage" transform="translate(778.000000, 104.000000)">
                <g id="noun_1169709_cc" transform="translate(27.500000, 14.500000)">
                    <path d="M10.9305485,6.37704664 C11.0027851,6.29937314 11.020297,6.18781523 10.9754228,6.09293887 C10.9305485,5.99806251 10.8309496,5.93707056 10.7220475,5.93707056 L7.04290678,5.93707056 C6.98489861,5.93707056 6.93126842,5.90683524 6.90281158,5.85835447 C6.87435474,5.80987369 6.87599648,5.75044564 6.90718955,5.70352876 L10.1709699,0.708966193 C10.2645491,0.566130357 10.2694743,0.385761017 10.1830093,0.238754791 C10.0970915,0.0912272674 9.93401197,0 9.75725124,0 L5.3103232,0 C5.12808999,0 4.96063245,0.0974828515 4.87690368,0.251787258 L0.020634981,9.2582644 C-0.00891634981,9.31300076 -0.00672736235,9.37920569 0.0272019434,9.43237815 C0.061678496,9.48555062 0.121875651,9.51787114 0.186998029,9.51787114 L3.22421814,9.51787114 C3.31670286,9.51787114 3.40316787,9.56166022 3.45515632,9.63516334 C3.50659752,9.70814515 3.51699521,9.80093631 3.48197141,9.88278021 L0.0709816927,17.8873213 C0.0551115336,17.9243335 0.069887199,17.96708 0.105458245,17.9879319 C0.141029292,18.0087839 0.187545275,18.002007 0.215454866,17.972293 L10.9305485,6.37704664 Z" id="Shape"></path>
                </g>
                <g id="batte_low-copy" transform="translate(0.500000, 0.500000)">
                    <g id="Group-7">
                        <g id="Group-10">
                            <g id="chasis">
                                <g id="Page-1">
                                    <g id="Artboard">
                                        <g id="chasis">
                                            <g id="Page-1">
                                                <g id="Dashboard_d2">
                                                    <g id="Group-5">
                                                        <g id="Group-7-Copy" transform="translate(0.467252, 0.000000)">
                                                            <g id="Group-6">
                                                                <g id="chasis">
                                                                    <g id="noun_782065_cc-copy" transform="translate(24.319210, 29.500000) scale(-1, 1) translate(-24.319210, -29.500000) translate(0.819210, 0.000000)">
                                                                        <g id="Group">
                                                                            <g id="Shape" transform="translate(0.000000, 0.618312)">
                                                                                <g id="Group-13-Copy">
                                                                                    <path d="M32.0620717,40.9041113 C30.8610117,40.9041113 29.9201506,41.9066631 29.9201506,43.186296 C29.9201506,44.4562515 30.868699,45.4508236 32.0794518,45.4508236 C33.3104256,45.4508236 34.2038258,44.4985267 34.2038258,43.186296 C34.2039929,41.8638785 33.3032396,40.9041113 32.0620717,40.9041113 Z" id="Shape"></path>
                                                                                    <path d="M30.2174493,37.9263374 C30.2593954,38.7439986 30.9492487,39.3889933 31.7552474,39.3889933 L32.3692303,39.3889933 C33.173725,39.3889933 33.8644139,38.745187 33.9090338,37.9293934 L34.1134162,34.212227 C34.1359768,33.8025475 33.9910876,33.3780971 33.7161823,33.0826797 C33.44111,32.7872622 33.0518977,32.5977876 32.6479792,32.5977876 L31.4942128,32.5977876 C31.0907957,32.5977876 30.7015833,32.7918463 30.4263439,33.0865846 C30.1509373,33.3813229 30.0052125,33.787437 30.0261019,34.1966072 L30.2174493,37.9263374 Z" id="Shape"></path>
                                                                                    <path d="M46.4830476,38.9472254 C46.4830476,31.6388693 41.0623177,25.596394 34.0917573,24.7418906 L34.0917573,9.80853846 C34.0917573,7.48951148 32.2182239,5.60274474 29.9153704,5.60274474 L25.903091,5.60274474 L25.903091,1.69780144 C25.903091,0.761633724 25.1534103,0 24.2319346,0 L9.69287413,0 C8.7713985,0 8.02171775,0.761633724 8.02171775,1.69780144 L8.02171775,5.60274474 L4.11706086,5.60274474 C1.80852544,5.60274474 4.61852778e-14,7.45012248 4.61852778e-14,9.80853846 L4.61852778e-14,53.0795548 C4.61852778e-14,55.4539301 1.84696203,57.3856886 4.11706086,57.3856886 L29.9152033,57.3856886 C32.1941592,57.3856886 34.0514824,55.4934888 34.0897519,53.1528998 C41.061315,52.2992452 46.4830476,46.2562606 46.4830476,38.9472254 Z M32.394698,47.3761304 C27.8199074,47.3761304 24.098075,43.5949568 24.098075,38.9472254 C24.098075,34.299494 27.8199074,30.5183204 32.394698,30.5183204 C36.9694886,30.5183204 40.6911538,34.299494 40.6911538,38.9472254 C40.691321,43.5949568 36.9694886,47.3761304 32.394698,47.3761304 Z M29.0782882,10.696149 L29.0782882,25.0386662 C23.1264647,26.5036991 18.6379058,31.8161198 18.3243968,38.2292252 C13.2136664,38.2341488 7.99514636,38.2475614 5.01363626,38.2562202 L5.01363626,10.696149 L29.0782882,10.696149 Z" id="Shape"></path>
                                                                                </g>
                                                                            </g>
                                                                        </g>
                                                                    </g>
                                                                </g>
                                                            </g>
                                                        </g>
                                                    </g>
                                                </g>
                                            </g>
                                        </g>
                                    </g>
                                </g>
                            </g>
                        </g>
                    </g>
                </g>
            </g>
        </g>
    </g>
</svg>