<?xml version="1.0" encoding="UTF-8" standalone="no"?>
<svg width="74px" height="37px" viewBox="0 0 74 37" version="1.1" xmlns="http://www.w3.org/2000/svg" xmlns:xlink="http://www.w3.org/1999/xlink">
    <!-- Generator: Sketch 46.2 (44496) - http://www.bohemiancoding.com/sketch -->
    <title>Body</title>
    <desc>Created with Sketch.</desc>
    <defs></defs>
    <g id="Page-1" stroke="none" stroke-width="1" fill="none" fill-rule="evenodd">
        <g id="Desktop" transform="translate(-781.000000, -214.000000)" fill-rule="nonzero" fill="#4A4A4A">
            <g id="Body" transform="translate(781.000000, 214.000000)">
                <path d="M71.6117493,23.0305508 C71.6117493,14.1001754 65.3367405,9.74977919 59.2113054,9.74977919 C53.6515847,9.74977919 48.5595199,9.74977919 48.5595199,9.74977919 L48.5595199,37.0002861 L51.6232424,37.0002861 C52.0402294,32.6059454 55.5429412,29.176454 59.8027245,29.176454 C64.0627194,29.176454 67.5653254,32.6059454 67.9829471,37.0002861 L73.3393575,37.0002861 L73.3393575,30.0451614 L71.6117493,30.0451614 C71.6117493,28.1978855 71.6117493,25.8926225 71.6117493,23.0305508 Z M58.4002858,20.6411502 L51.1014269,20.6411502 L51.1014269,12.6497932 L58.4002858,12.6497932 L58.4002858,20.6411502 Z M60.5703741,20.7155342 L60.5703741,12.6745522 C67.5942035,12.6745522 68.6867052,20.7155342 68.6867052,20.7155342 L60.5703741,20.7155342 Z M0,0 L46.9626565,0 L46.9626565,37.0001789 L19.2951153,37.0001789 C18.8773879,32.6058383 15.3748876,29.1763469 11.114787,29.1763469 C8.9605856,29.1763469 7.00006874,30.0533593 5.53421254,31.4886578 C4.10136813,32.8916326 3.14115527,34.828031 2.93467018,37.0001789 L0,37.0001789 L0,0 Z" id="Shape"></path>
            </g>
        </g>
    </g>
</svg>