<?xml version="1.0" encoding="UTF-8" standalone="no"?>
<svg width="74px" height="49px" viewBox="0 0 74 49" version="1.1" xmlns="http://www.w3.org/2000/svg" xmlns:xlink="http://www.w3.org/1999/xlink">
    <!-- Generator: Sketch 46.2 (44496) - http://www.bohemiancoding.com/sketch -->
    <title>Chasis</title>
    <desc>Created with Sketch.</desc>
    <defs></defs>
    <g id="Page-1" stroke="none" stroke-width="1" fill="none" fill-rule="evenodd">
        <g id="Desktop" transform="translate(-641.000000, -209.000000)" fill-rule="nonzero" fill="#4A4A4A">
            <g id="Chasis" transform="translate(640.000000, 209.000000)">
                <path d="M56.3230438,42.3483864 L42.2591924,42.3483864 C41.823653,40.7893578 40.4293182,39.6812966 38.8617481,39.6812966 L29.4882696,39.6812966 C27.9206993,39.6812966 26.5290687,40.789181 26.0908252,42.3483864 L16.803542,42.3483864 C16.5300834,39.6095236 14.3292317,37.5 11.6750945,37.5 C8.82169407,37.5 6.5,39.9298502 6.5,42.9188577 C6.5,45.9048598 8.82034202,48.3332958 11.6750945,48.3332958 C14.1438275,48.3332958 16.227893,46.5370275 16.7266423,44.0209084 L26.0112213,44.0209084 C26.2983697,45.7970237 27.750506,47.103256 29.4882696,47.103256 L38.8617481,47.103256 C40.6010327,47.103256 42.0502958,45.7984378 42.3374442,44.0209084 L56.3352126,44.0209084 C56.7459075,46.5958954 58.8644512,48.5 61.3701975,48.5 C64.2016265,48.5 66.4999973,46.0959597 66.4999973,43.1400102 C66.5028703,40.1755753 64.2031476,37.7687066 61.3717186,37.7687066 C58.8178044,37.7687066 56.6911482,39.7157688 56.3230438,42.3483864 Z M57.8094892,43.1371817 C57.8094892,41.0766264 59.4057911,39.4067562 61.3717186,39.4067562 C63.336294,39.4067562 64.9354689,41.0764496 64.9354689,43.1371817 C64.9353003,45.1892517 63.336294,46.8603593 61.3717186,46.8603593 C59.4057911,46.8603593 57.8094892,45.1890749 57.8094892,43.1371817 Z M29.4882696,41.3209372 L38.8617481,41.3209372 C39.5692249,41.3209372 40.2080838,41.7190473 40.55709,42.3469722 L27.7915754,42.3469722 C28.1392296,41.7190473 28.7765673,41.3209372 29.4882696,41.3209372 Z M29.4896216,45.4593726 C28.6268242,45.4593726 27.8754046,44.8600861 27.6171568,44.0180799 L40.737086,44.0180799 C40.4788382,44.8600861 39.7245455,45.4593726 38.8631,45.4593726 L29.4896216,45.4593726 Z M15.2854918,42.9174434 C15.2854918,44.9981519 13.6643453,46.6894125 11.6750945,46.6894125 C9.68584359,46.6894125 8.06875334,44.9981519 8.06875334,42.9174434 C8.06875334,40.8337297 9.68584359,39.1410549 11.6750945,39.1410549 C13.6643453,39.1410549 15.2854918,40.8353207 15.2854918,42.9174434 Z" id="Shape"></path>
                <g id="noun_1168331_cc" transform="translate(0.500000, 0.500000)">
                    <path d="M72.2723918,23.0305508 C72.2723918,14.1001754 65.997383,9.74977919 59.8719479,9.74977919 C54.3122272,9.74977919 49.2201624,9.74977919 49.2201624,9.74977919 L49.2201624,37.0002861 L52.2838849,37.0002861 C52.7008719,32.6059454 56.2035837,29.176454 60.463367,29.176454 C64.7233619,29.176454 68.2259679,32.6059454 68.6435896,37.0002861 L74,37.0002861 L74,30.0451614 L72.2723918,30.0451614 C72.2723918,28.1978855 72.2723918,25.8926225 72.2723918,23.0305508 Z M59.0609283,20.6411502 L51.7620694,20.6411502 L51.7620694,12.6497932 L59.0609283,12.6497932 L59.0609283,20.6411502 Z M61.2310166,20.7155342 L61.2310166,12.6745522 C68.254846,12.6745522 69.3473477,20.7155342 69.3473477,20.7155342 L61.2310166,20.7155342 Z M0.660642506,0 L47.623299,0 L47.623299,37.0001789 L19.9557578,37.0001789 C19.5380304,32.6058383 16.0355301,29.1763469 11.7754295,29.1763469 C9.62122811,29.1763469 7.66071125,30.0533593 6.19485505,31.4886578 C4.76201064,32.8916326 3.80179778,34.828031 3.59531269,37.0001789 L0.660642506,37.0001789 L0.660642506,0 Z" id="Shape"></path>
                </g>
            </g>
        </g>
    </g>
</svg>