<?xml version="1.0" encoding="UTF-8" standalone="no"?>
<svg width="61px" height="57px" viewBox="0 0 61 57" version="1.1" xmlns="http://www.w3.org/2000/svg" xmlns:xlink="http://www.w3.org/1999/xlink">
    <!-- Generator: Sketch 46.2 (44496) - http://www.bohemiancoding.com/sketch -->
    <title>CO2 emission alert</title>
    <desc>Created with Sketch.</desc>
    <defs></defs>
    <g id="Page-1" stroke="none" stroke-width="1" fill="none" fill-rule="evenodd">
        <g id="Desktop" transform="translate(-641.000000, -107.000000)" fill-rule="nonzero" fill="#4A4A4A">
            <g id="CO2-emission-alert" transform="translate(641.000000, 107.000000)">
                <path d="M47.90025,15.6050455 C55.3015833,16.1465455 61,22.3051364 61,29.7954545 C61,37.6536818 54.7297083,44.0454545 47.0208333,44.0454545 C46.3193333,44.0454545 45.75,43.4650909 45.75,42.75 C45.75,33.4641818 38.3385,25.9090909 29.2291667,25.9090909 C20.1198333,25.9090909 12.7083333,33.4641818 12.7083333,42.75 C12.7083333,43.4650909 12.139,44.0454545 11.4375,44.0454545 C5.131625,44.0454545 0,38.8144091 0,32.3863636 C0,26.3754545 4.48604167,21.4138636 10.2225833,20.7920455 C10.1844583,20.3179091 10.1666667,19.8696818 10.1666667,19.4318182 C10.1666667,8.71581818 18.7168333,0 29.2291667,0 C38.2902083,0 46.1337917,6.63531818 47.90025,15.6050455 Z M18.8045113,16.2067133 C18.8045113,17.3053007 19.1687018,18.2125076 19.8970937,18.9283612 C20.6254857,19.6442149 21.5235865,20.0021364 22.5914233,20.0021364 C23.3976046,20.0021364 24.1136102,19.7983692 24.7394616,19.3908287 C25.3653129,18.9832883 25.8125954,18.4074245 26.0813225,17.6632202 L24.2886387,17.6632202 C23.9491939,18.315285 23.3834611,18.6413124 22.5914233,18.6413124 C21.9196055,18.6413124 21.3733197,18.4198264 20.9525496,17.9768476 C20.5317795,17.5338689 20.3213976,16.9456019 20.3213976,16.2120291 C20.3213976,15.4784562 20.5317795,14.8901893 20.9525496,14.4472105 C21.3733197,14.0042318 21.9196055,13.7827457 22.5914233,13.7827457 C23.3905329,13.7827457 23.9562657,14.1087732 24.2886387,14.7608379 L26.0813225,14.7608379 C25.8125954,14.0166336 25.3653129,13.438998 24.7394616,13.0279137 C24.1136102,12.6168294 23.3976046,12.4112903 22.5914233,12.4112903 C21.5306583,12.4112903 20.6343254,12.7692118 19.9023975,13.4850655 C19.1704697,14.2009191 18.8045113,15.108126 18.8045113,16.2067133 Z M33.0080831,16.2067133 C33.0080831,16.94383 32.7994691,17.5338689 32.3822349,17.9768476 C31.9650007,18.4198264 31.4204829,18.6413124 30.748665,18.6413124 C30.0768472,18.6413124 29.5305615,18.4198264 29.1097914,17.9768476 C28.6890213,17.5338689 28.4786394,16.9456019 28.4786394,16.2120291 C28.4786394,15.4784562 28.6890213,14.8901893 29.1097914,14.4472105 C29.5305615,14.0042318 30.0768472,13.7827457 30.748665,13.7827457 C31.4204829,13.7827457 31.9650007,14.0024599 32.3822349,14.4418948 C32.7994691,14.8813297 33.0080831,15.4695967 33.0080831,16.2067133 Z M28.0543355,18.9389927 C28.7827275,19.6548463 29.6808283,20.0127678 30.748665,20.0127678 C31.8165018,20.0127678 32.7146026,19.6548463 33.4429946,18.9389927 C34.1713865,18.223139 34.535577,17.3141602 34.535577,16.2120291 C34.535577,15.1098979 34.1713865,14.2009191 33.4429946,13.4850655 C32.7146026,12.7692118 31.8182697,12.4112903 30.7539688,12.4112903 C29.689668,12.4112903 28.7915671,12.7692118 28.0596393,13.4850655 C27.3277115,14.2009191 26.9617531,15.1098979 26.9617531,16.2120291 C26.9617531,17.3141602 27.3259436,18.223139 28.0543355,18.9389927 Z M35.2834126,19.858612 L39.2055714,19.858612 L39.2055714,18.9416505 L36.8904635,18.9416505 C36.964717,18.8725458 37.0986366,18.7516145 37.2922262,18.5788527 C37.4858158,18.406091 37.6303429,18.2718705 37.7258117,18.1761871 C37.8212806,18.0805036 37.9525482,17.947612 38.1196187,17.7775082 C38.2866892,17.6074043 38.415305,17.4572368 38.5054701,17.327001 C38.5956351,17.1967653 38.6884506,17.0465977 38.7839195,16.8764939 C38.9748572,16.5575492 39.0703246,16.2120309 39.0703246,15.8399288 C39.0703246,15.3402487 38.9059085,14.9256268 38.5770713,14.5960506 C38.2482342,14.2664744 37.794764,14.1016888 37.2166471,14.1016888 C36.6385302,14.1016888 36.1704746,14.2638166 35.8124665,14.5880771 C35.4544583,14.9123375 35.272805,15.3854317 35.2675012,16.0073739 L36.349476,16.0073739 C36.3547799,15.7096922 36.4290323,15.4758029 36.5722356,15.3056991 C36.7154388,15.1355952 36.9143293,15.0505446 37.1689129,15.0505446 C37.6886877,15.0505446 37.9485712,15.3322748 37.9485712,15.8957438 C37.9485712,16.182794 37.8186295,16.5123653 37.5587421,16.8844675 C37.4579694,17.0279926 37.3028348,17.2047384 37.0933338,17.4147104 C36.8838327,17.6246823 36.7074831,17.7934547 36.5642799,17.9210326 C36.4210766,18.0486105 36.2062749,18.2359877 35.9198684,18.4831698 C35.6334618,18.730352 35.421312,18.9150713 35.2834126,19.0373335 L35.2834126,19.858612 Z" id="Combined-Shape"></path>
                <path d="M29.2291667,28.5 C21.5202917,28.5 15.25,34.8917727 15.25,42.75 C15.25,50.6082273 21.5202917,57 29.2291667,57 C36.9380417,57 43.2083333,50.6082273 43.2083333,42.75 C43.2083333,34.8917727 36.9380417,28.5 29.2291667,28.5 Z M30.11875,51.4554545 C29.89,51.6886364 29.5595833,51.8181818 29.2291667,51.8181818 C28.89875,51.8181818 28.5683333,51.6886364 28.3395833,51.4295455 C28.0854167,51.1963636 27.9583333,50.8595455 27.9583333,50.5227273 C27.9583333,50.1859091 28.0854167,49.8490909 28.3395833,49.6159091 C28.7970833,49.1236364 29.6866667,49.1236364 30.1441667,49.6159091 C30.3729167,49.8490909 30.5,50.1859091 30.5,50.5227273 C30.5,50.8595455 30.3729167,51.1963636 30.11875,51.4554545 Z M30.5,45.3409091 C30.5,46.056 29.9306667,46.6363636 29.2291667,46.6363636 C28.5276667,46.6363636 27.9583333,46.056 27.9583333,45.3409091 L27.9583333,34.9772727 C27.9583333,34.2621818 28.5276667,33.6818182 29.2291667,33.6818182 C29.9306667,33.6818182 30.5,34.2621818 30.5,34.9772727 L30.5,45.3409091 Z" id="Shape"></path>
            </g>
        </g>
    </g>
</svg>