<?xml version="1.0" encoding="UTF-8" standalone="no"?>
<svg width="57px" height="58px" viewBox="0 0 57 58" version="1.1" xmlns="http://www.w3.org/2000/svg" xmlns:xlink="http://www.w3.org/1999/xlink">
    <!-- Generator: Sketch 46.2 (44496) - http://www.bohemiancoding.com/sketch -->
    <title>compliance alert</title>
    <desc>Created with Sketch.</desc>
    <defs></defs>
    <g id="Page-1" stroke="none" stroke-width="1" fill="none" fill-rule="evenodd">
        <g id="Desktop" transform="translate(-517.000000, -210.000000)" fill-rule="nonzero">
            <g id="compliance-alert" transform="translate(517.000000, 210.000000)">
                <rect id="Rectangle-path" fill="#4A4A4A" x="8.4718481" y="12.9837125" width="16.6504304" height="2.7110625"></rect>
                <path d="M8.4718481,22.748525 L31.0235443,22.748525 C31.0696203,22.6751375 31.1128608,22.600325 31.1617722,22.529075 C31.8380253,21.5365625 32.6844051,20.70935 33.7165063,20.038175 L8.4718481,20.038175 L8.4718481,22.748525 Z" id="Shape" fill="#4A4A4A"></path>
                <path d="M8.4718481,29.545775 L29.2457215,29.545775 C29.2861266,28.6287875 29.365519,27.72035 29.5193418,26.8347125 L8.47255696,26.8347125 L8.47255696,29.545775 L8.4718481,29.545775 Z" id="Shape" fill="#4A4A4A"></path>
                <path d="M8.4718481,36.3423125 L29.2925063,36.3423125 C29.2287089,35.445275 29.2088608,34.53755 29.2031899,33.63125 L8.4718481,33.63125 L8.4718481,36.3423125 L8.4718481,36.3423125 Z" id="Shape" fill="#4A4A4A"></path>
                <path d="M8.4718481,43.13885 L31.4502785,43.13885 C31.1497215,42.737 30.872557,42.310925 30.6343797,41.846375 C30.399038,41.3882375 30.2062278,40.9137125 30.0417722,40.429925 L8.4718481,40.429925 L8.4718481,43.13885 L8.4718481,43.13885 Z" id="Shape" fill="#4A4A4A"></path>
                <path d="M8.4718481,49.9353875 L36.1358481,49.9353875 C35.9926582,49.6917125 35.8742785,49.43165 35.800557,49.148075 C35.6318481,48.4904375 35.6928101,47.8206875 35.9338228,47.2250375 L8.47113924,47.2250375 L8.47113924,49.9353875 L8.4718481,49.9353875 Z" id="Shape" fill="#4A4A4A"></path>
                <path d="M42.3277468,54.78965 L42.327038,54.78965 L42.327038,50.8203125 C43.2740759,50.5053875 44.1821266,50.0807375 45.0235443,49.5542 L45.0235443,56.144825 C45.0235443,56.89295 44.4203038,57.5 43.6752911,57.5 L1.95316456,57.5 C1.20886076,57.5 0.604911392,56.8936625 0.604911392,56.144825 L0.604911392,1.855175 C0.604911392,1.10705 1.2081519,0.5 1.95316456,0.5 L31.2574684,0.5 C31.3467848,0.5 31.4368101,0.5092625 31.5225823,0.527075 C31.5792911,0.538475 31.6324557,0.5591375 31.687038,0.5776625 C31.7153924,0.58835 31.7458734,0.5933375 31.7742278,0.60545 C31.8330633,0.629675 31.8883544,0.66245 31.9429367,0.695225 C31.9627848,0.70805 31.9861772,0.7158875 32.0060253,0.7301375 C32.0762025,0.777875 32.1435443,0.8327375 32.2045063,0.8933 C32.2059241,0.894725 32.2073418,0.8954375 32.2087595,0.8968625 L44.6237468,13.3763 C44.8697215,13.622825 45.0242532,13.9626875 45.0242532,14.3396 C45.0242532,14.343875 45.0228354,14.346725 45.0228354,14.3502875 L45.0228354,17.83655 C44.5840506,17.820875 44.1374684,17.8101875 43.6745823,17.8101875 C43.2116962,17.8101875 42.7644051,17.820875 42.327038,17.83655 L42.327038,15.694775 L31.2567595,15.694775 C30.5117468,15.694775 29.9077975,15.0884375 29.9077975,14.3396 L29.9077975,3.21035 L3.30141772,3.21035 L3.30141772,54.78965 L42.3277468,54.78965 Z" id="Shape" fill="#4A4A4A"></path>
                <path d="M38.7494177,49.46015 C38.2610127,49.46015 37.8321519,49.128125 37.709519,48.6500375 C37.5840506,48.1634 37.8094684,47.6553875 38.2525063,47.4224 C39.2356962,46.90655 39.9757468,46.13135 40.2826835,45.2984375 C40.3082025,45.2271875 40.3301772,45.13955 40.346481,45.0504875 C31.1731139,44.7526625 31.1731139,38.23685 31.1731139,32.4720125 C31.1731139,25.951925 31.1731139,19.7923625 43.676,19.7923625 C56.1788861,19.7923625 56.1788861,25.951925 56.1788861,32.4720125 C56.1788861,38.2511 56.1795949,44.7854375 46.9360506,45.0533375 C45.1702785,47.6710625 42.0356962,49.38035 38.7763544,49.46015 C38.7664304,49.46015 38.7586329,49.46015 38.7494177,49.46015 Z" id="Shape" fill="#4A4A4A"></path>
                <path d="M44.7648101,40.3551125 C44.4571646,40.6301375 44.0970633,40.76765 43.6859241,40.76765 C43.2676962,40.76765 42.9033418,40.6315625 42.5907342,40.3601 C42.2802532,40.0872125 42.1221772,39.70745 42.1221772,39.21725 C42.1221772,38.791175 42.2731646,38.4270875 42.5715949,38.1278375 C42.8693165,37.8285875 43.2336709,37.67825 43.6653671,37.67825 C44.0970633,37.67825 44.4670886,37.8285875 44.7718987,38.1278375 C45.076,38.4270875 45.2284051,38.7918875 45.2284051,39.21725 C45.2276962,39.700325 45.0745823,40.0786625 44.7648101,40.3551125 Z" id="Shape" fill="#FFFFFF"></path>
                <path d="M45.1553924,28.8952625 L44.7137722,33.9896375 C44.6655696,34.595975 44.5642025,35.060525 44.4054177,35.384 C44.2480506,35.7081875 43.9878987,35.869925 43.6228354,35.869925 C43.253519,35.869925 42.9962025,35.713175 42.8530127,35.4003875 C42.7076962,35.0876 42.6056203,34.610225 42.5439494,33.9682625 L42.2143291,29.0192375 C42.1533671,28.055225 42.1207595,27.362675 42.1207595,26.9423 C42.1207595,26.370875 42.2717468,25.9241375 42.5701772,25.604225 C42.8678987,25.2836 43.2591899,25.124 43.7454684,25.124 C44.3359494,25.124 44.7293671,25.3292 44.928557,25.7388875 C45.1277468,26.148575 45.2262785,26.738525 45.2262785,27.5101625 C45.2276962,27.96545 45.2028861,28.42715 45.1553924,28.8952625 Z" id="Shape" fill="#FFFFFF"></path>
            </g>
        </g>
    </g>
</svg>