<?xml version="1.0" encoding="UTF-8" standalone="no"?>
<svg width="39px" height="68px" viewBox="0 0 39 68" version="1.1" xmlns="http://www.w3.org/2000/svg" xmlns:xlink="http://www.w3.org/1999/xlink">
    <!-- Generator: Sketch 46.2 (44496) - http://www.bohemiancoding.com/sketch -->
    <title>Engine coolant temprature</title>
    <desc>Created with Sketch.</desc>
    <defs></defs>
    <g id="Page-1" stroke="none" stroke-width="1" fill="none" fill-rule="evenodd">
        <g id="Desktop" transform="translate(-519.000000, -95.000000)" fill-rule="nonzero" fill="#4A4A4A">
            <g id="Engine-coolant-temprature" transform="translate(519.000000, 95.000000)">
                <path d="M38.7952809,9.08842692 L38.7952809,11.9651863 L27.717788,11.9651863 L27.717788,9.08842692 L38.7952809,9.08842692 Z M34.1499308,15.3580345 L27.717788,15.3580345 L27.717788,18.2347939 L34.1499308,18.2347939 L34.1499308,15.3580345 Z M27.717788,24.5044015 L38.7952809,24.5044015 L38.7952809,21.6278659 L27.717788,21.6278659 L27.717788,24.5044015 Z M34.1499308,27.8990401 L27.717788,27.8990401 L27.717788,30.7757995 L34.1499308,30.7757995 L34.1499308,27.8990401 Z M27.717788,37.0454071 L38.7952809,37.0454071 L38.7952809,34.1686477 L27.717788,34.1686477 L27.717788,37.0454071 Z M29.4445318,53.4367136 C29.4445318,61.4669767 22.9523398,68 14.9722659,68 C6.99219193,68 0.5,61.4669767 0.5,53.4367136 C0.5,48.2328542 3.21577389,43.5034565 7.64672658,40.8872035 L7.64672658,7.87161188 C7.64694898,3.80668424 10.9329664,0.5 14.9722659,0.5 C19.0115653,0.5 22.2978052,3.80668424 22.2978052,7.87161188 L22.2978052,40.8874273 C26.7287579,43.5007709 29.4445318,48.2315114 29.4445318,53.4367136 Z M26.5857522,53.4367136 C26.5857522,49.0210872 24.1473159,45.0295668 20.2207753,43.023176 L19.4390256,42.6232407 L19.4390256,7.87295469 C19.4390256,5.39322127 17.4351665,3.37810215 14.9722659,3.37810215 C12.5095876,3.37810215 10.5055062,5.39322127 10.5055062,7.87295469 L10.5055062,42.6232407 L9.7237565,43.023176 C5.79721583,45.0311334 3.35877959,49.02243 3.35877959,53.4367136 C3.35877959,59.8804396 8.5688131,65.1232407 14.9722659,65.1232407 C21.3757187,65.1232407 26.5857522,59.8804396 26.5857522,53.4367136 Z M24.2044737,53.4367136 C24.2044737,58.5586612 20.0635357,62.7256428 14.9722659,62.7256428 C9.88233047,62.7256428 5.74139246,58.5586612 5.74139246,53.4367136 C5.74139246,49.2381758 8.56013935,45.5516984 12.5965475,44.4716268 L13.1267584,44.3292883 L13.1267584,12.3548267 L16.8188854,12.3548267 L16.8188854,44.3277217 L17.3490962,44.4716268 C21.3872837,45.5516984 24.2044737,49.2397424 24.2044737,53.4367136 Z M15.4297507,47.2447655 C15.2095708,46.260929 14.2263232,45.6136917 13.2241713,45.8437609 C9.72509092,46.6404983 7.28087218,49.7200229 7.28087218,53.3333168 C7.28087218,54.3558711 8.10843705,55.1888646 9.12482282,55.1888646 C10.1412086,55.1888646 10.9687735,54.3560949 10.9687735,53.3333168 C10.9687735,51.4965684 12.2580488,49.868404 14.0375023,49.4642164 C15.0265324,49.2352663 15.6525994,48.2400159 15.4297507,47.2447655 Z" id="Shape"></path>
            </g>
        </g>
    </g>
</svg>