<?xml version="1.0" encoding="UTF-8" standalone="no"?>
<svg width="61px" height="61px" viewBox="0 0 61 61" version="1.1" xmlns="http://www.w3.org/2000/svg" xmlns:xlink="http://www.w3.org/1999/xlink">
    <!-- Generator: Sketch 46.2 (44496) - http://www.bohemiancoding.com/sketch -->
    <title>fuel_alert </title>
    <desc>Created with Sketch.</desc>
    <defs></defs>
    <g id="Page-1" stroke="none" stroke-width="1" fill="none" fill-rule="evenodd">
        <g id="Desktop" transform="translate(-398.000000, -193.000000)" fill-rule="nonzero" fill="#4A4A4A">
            <g id="fuel_alert-" transform="translate(398.000000, 193.000000)">
                <g id="fuel_alert-copy" transform="translate(30.500000, 30.500000) scale(-1, 1) translate(-30.500000, -30.500000) translate(0.500000, 0.500000)">
                    <g id="gauge">
                        <g id="Layer_1">
                            <path d="M30,0 C13.419375,0 0,13.4176172 0,30 C0,46.580625 13.4176172,60 30,60 C46.580625,60 60,46.5823828 60,30 C60,13.419375 46.5823828,0 30,0 Z M30,56.0000391 C15.6636328,56.0000391 3.99996094,44.3364844 3.99996094,30 C3.99996094,15.6635156 15.6636328,3.99996094 30,3.99996094 C44.3363672,3.99996094 56.0000391,15.6636328 56.0000391,30 C56.0000391,44.3363672 44.3363672,56.0000391 30,56.0000391 Z" id="Shape"></path>
                            <path d="M37.8331641,27.9999609 L53.2466016,27.9999609 C52.2288281,16.0667578 42.1923047,6.66667969 30,6.66667969 C17.8076953,6.66667969 7.77117187,16.0667578 6.75328125,27.9999609 L25.0775391,27.9999609 C25.8132422,23.8413281 28.7667187,23.4567188 37.38375,20.0171484 C39.0126562,19.3676953 40.6325391,20.9883984 39.9825,22.61625 L37.8331641,27.9999609 Z" id="Shape"></path>
                            <path d="M30.2388281,27.1761328 C28.9403906,27.6938672 28.5405469,29.4001172 29.5701563,30.4298438 C30.2424609,31.1016797 32.0426953,31.7247656 33.0229688,29.2606641 L33.0385547,29.2216406 L33.0385547,29.2215234 L34.5407813,25.4589844 L30.2388281,27.1761328 Z" id="Shape"></path>
                            <path d="M36.1142578,32.0000391 C33.4530469,36.3883594 27.8925,35.671875 25.7776172,32.0000391 L6.75328125,32.0000391 C7.77128906,43.9332422 17.8076953,53.3333203 30,53.3333203 C42.1923047,53.3333203 52.2288281,43.9332422 53.2467187,32.0000391 L36.1142578,32.0000391 Z" id="Shape"></path>
                        </g>
                    </g>
                </g>
            </g>
        </g>
    </g>
</svg>