<?xml version="1.0" encoding="UTF-8" standalone="no"?>
<svg width="60px" height="56px" viewBox="0 0 60 56" version="1.1" xmlns="http://www.w3.org/2000/svg" xmlns:xlink="http://www.w3.org/1999/xlink">
    <!-- Generator: Sketch 46.2 (44496) - http://www.bohemiancoding.com/sketch -->
    <title>Low Kmpl alert</title>
    <desc>Created with Sketch.</desc>
    <defs></defs>
    <g id="Page-1" stroke="none" stroke-width="1" fill="none" fill-rule="evenodd">
        <g id="Desktop" transform="translate(-282.000000, -185.000000)" fill-rule="nonzero" fill="#4A4A4A">
            <g id="Low-Kmpl-alert" transform="translate(282.000000, 185.000000)">
                <path d="M30.0025773,25.5 C27.5189784,25.5 25.5057404,27.5695052 25.5057404,30.1217745 C25.5057404,30.4570609 25.5414714,30.7839199 25.6070759,31.0987399 L19.5,40.5 L28.8767573,34.5966732 C29.2364105,34.6917814 29.6136364,34.7423452 30.0025773,34.7423452 C32.4861762,34.7423452 34.5,32.673442 34.5,30.1211726 C34.5,27.5689032 32.4861762,25.5 30.0025773,25.5 Z" id="Shape"></path>
                <path d="M50.85945,9.11516659 C45.28808,3.55898711 37.87945,0.5 30,0.5 C22.12055,0.5 14.71192,3.55898711 9.14055,9.11516659 C3.56859,14.6701695 0.5,22.0570351 0.5,29.9133376 C0.5,35.0341997 1.84107,40.0785871 4.37866,44.5005883 C6.83719,48.7855233 10.36893,52.4163057 14.59097,54.999385 C15.13613,55.3329322 15.75209,55.5 16.36805,55.5 C16.98342,55.5 17.59938,55.3335205 18.14513,54.999385 C21.70224,52.8233863 25.80215,51.6727365 30.00059,51.6727365 C34.19962,51.6727365 38.29835,52.8233863 41.85605,54.999385 C42.94637,55.6664795 44.31989,55.6664795 45.40962,54.999385 C49.63166,52.4163057 53.1634,48.7861116 55.62193,44.5005883 C58.15893,40.0785871 59.5,35.0341997 59.5,29.9133376 C59.5,22.0570351 56.43141,14.6701695 50.85945,9.11516659 Z M43.47206,48.1378416 C39.32141,46.0124338 34.70761,44.8982566 30,44.8982566 C25.29239,44.8982566 20.67859,46.0130221 16.52853,48.1390181 C14.60513,46.7224718 12.91242,45.0076742 11.5212,43.0705118 L12.47759,42.5193058 C13.57912,41.8857426 13.95672,40.4809615 13.3207,39.3826675 C12.68468,38.2843735 11.27635,37.9078828 10.17423,38.5420343 L9.23554,39.0820632 C7.96114,36.2113215 7.29385,33.0823306 7.29385,29.9133376 C7.29385,26.5702177 8.02486,23.395342 9.33466,20.5369538 L10.28869,21.086395 C10.65154,21.2952297 11.04743,21.3940585 11.43801,21.3940585 C12.23392,21.3940585 13.00859,20.9822718 13.43457,20.2457618 C14.07059,19.1474678 13.69299,17.7426868 12.59146,17.1091235 L11.57843,16.5755655 C15.30841,11.4935291 21.15,8.01393123 27.64,7.37977967 L27.64,8.47983849 C27.64,9.74755335 28.72796,10.7758436 30,10.7758436 C31.27204,10.7758436 32.36,9.74755335 32.36,8.47983849 L32.36,7.40272207 C39.44,8.10275951 44.7618,11.6376544 48.44163,16.7608696 L47.50766,17.3067811 C46.40613,17.9409327 46.0362,19.3457137 46.67222,20.4440077 C47.09879,21.1805177 47.877,21.5923044 48.67291,21.5923044 C49.06349,21.5923044 49.46115,21.4928873 49.82341,21.2846409 L50.75915,20.7475533 C52.00936,23.5512327 52.70556,26.652575 52.70556,29.9133376 C52.70556,33.1599818 52.00464,36.3636825 50.66947,39.2920744 L49.71072,38.7402802 C48.60978,38.1067169 47.20086,38.4826194 46.56484,39.5809134 C45.92882,40.6792074 46.30642,42.0839884 47.40795,42.71814 L48.3431,43.2564041 C46.97725,45.1170918 45.33292,46.7671801 43.47206,48.1378416 Z" id="Shape"></path>
            </g>
        </g>
    </g>
</svg>