<?xml version="1.0" encoding="UTF-8" standalone="no"?>
<svg width="47px" height="61px" viewBox="0 0 47 61" version="1.1" xmlns="http://www.w3.org/2000/svg" xmlns:xlink="http://www.w3.org/1999/xlink">
    <!-- Generator: Sketch 46.2 (44496) - http://www.bohemiancoding.com/sketch -->
    <title>Power Train</title>
    <desc>Created with Sketch.</desc>
    <defs></defs>
    <g id="Page-1" stroke="none" stroke-width="1" fill="none" fill-rule="evenodd">
        <g id="Desktop" transform="translate(-397.000000, -93.000000)" fill-rule="nonzero" fill="#4A4A4A">
            <g id="Power-Train" transform="translate(397.000000, 93.000000)">
                <polygon id="power_train-copy-2" points="46.1522656 19.9167969 46.1522656 0.5 31.4564844 0.5 31.4564844 8.25183594 15.1957813 8.25183594 15.1957813 0.5 0.5 0.5 0.5 19.9167969 15.1957813 19.9167969 15.1957813 12.1649609 21.3695703 12.1649609 21.3695703 48.8350391 15.1957813 48.8350391 15.1957813 41.0832031 0.5 41.0832031 0.5 60.5 15.1957813 60.5 15.1957813 52.7481641 31.4564844 52.7481641 31.4564844 60.5 46.1522656 60.5 46.1522656 41.0832031 31.4564844 41.0832031 31.4564844 48.8350391 25.2826953 48.8350391 25.2826953 12.1649609 31.4564844 12.1649609 31.4564844 19.9167969"></polygon>
            </g>
        </g>
    </g>
</svg>