<?xml version="1.0" encoding="UTF-8" standalone="no"?>
<svg width="90px" height="43px" viewBox="0 0 90 43" version="1.1" xmlns="http://www.w3.org/2000/svg" xmlns:xlink="http://www.w3.org/1999/xlink">
    <!-- Generator: Sketch 46.2 (44496) - http://www.bohemiancoding.com/sketch -->
    <title>Truck AMC alert</title>
    <desc>Created with Sketch.</desc>
    <defs></defs>
    <g id="Page-1" stroke="none" stroke-width="1" fill="none" fill-rule="evenodd">
        <g id="Desktop" transform="translate(-127.000000, -198.000000)" fill-rule="nonzero" fill="#4A4A4A">
            <g id="Truck-AMC-alert" transform="translate(127.000000, 198.000000)">
                <path d="M87.6470992,28.9638371 C87.6470992,27.2137863 87.6470992,25.0298529 87.6470992,22.3184165 C87.6470992,13.8580609 81.6434421,9.73663292 75.7828907,9.73663292 C70.4635904,9.73663292 65.591723,9.73663292 65.591723,9.73663292 L65.591723,35.5529026 L68.5229601,35.5529026 C68.9219153,31.389843 72.2731585,28.1408512 76.3487349,28.1408512 C80.4245138,28.1408512 83.7756558,31.389843 84.1752181,35.5529026 L89.3,35.5529026 L89.3,28.9638371 L87.6470992,28.9638371 L87.6470992,28.9638371 Z M75.0069422,20.0547739 L68.0237096,20.0547739 L68.0237096,12.4840146 L75.0069422,12.4840146 L75.0069422,20.0547739 Z M77.0831888,20.125243 L77.0831888,20.125243 L77.0831888,12.5074705 C83.8032851,12.5074705 84.8485435,20.125243 84.8485435,20.125243 L77.0831888,20.125243 Z M76.3488361,30.2752328 C73.1290599,30.2752328 70.5189502,33.0119528 70.5189502,36.3876672 C70.5189502,39.7626708 73.1290599,42.5 76.3488361,42.5 C79.5687136,42.5 82.1795317,39.7626708 82.1795317,36.3876672 C82.1795317,33.0119528 79.5687136,30.2752328 76.3488361,30.2752328 Z M76.3488361,39.2006441 C74.8668727,39.2006441 73.6649471,37.9417448 73.6649471,36.3868549 C73.6649471,34.8322696 74.8660631,33.5723549 76.3488361,33.5723549 C77.8316092,33.5723549 79.0335348,34.8322696 79.0335348,36.3868549 C79.0335348,37.9416432 77.8307995,39.2006441 76.3488361,39.2006441 Z M29.7662217,30.2752328 C26.5464455,30.2752328 23.9363358,33.0119528 23.9363358,36.3876672 C23.9363358,39.7626708 26.5463443,42.5 29.7662217,42.5 C32.9862004,42.5 35.5970185,39.7626708 35.5970185,36.3876672 C35.5970185,33.0119528 32.9869088,30.2752328 29.7662217,30.2752328 Z M29.7662217,39.2006441 C28.2842583,39.2006441 27.0824339,37.9417448 27.0824339,36.3868549 C27.0824339,34.8322696 28.2834487,33.5723549 29.7662217,33.5723549 C31.249096,33.5723549 32.450212,34.8322696 32.450212,36.3868549 C32.450212,37.9416432 31.2491972,39.2006441 29.7662217,39.2006441 Z M19.1320742,0.5 L64.0639131,0.5 L64.0639131,35.5528011 L37.5928061,35.5528011 C37.1931426,31.3897415 33.8421018,28.1407497 29.7662217,28.1407497 C25.6905441,28.1407497 22.3395033,31.3897415 21.9398397,35.5528011 L19.1320742,35.5528011 L19.1320742,0.5 Z M16.6146694,12.3088572 C17.1219153,12.3088572 17.5331163,11.7565784 17.5331163,11.0753431 C17.5331163,10.3941077 17.1219153,9.84172735 16.6146694,9.84172735 L6.55830849,9.84172735 C6.05106267,9.84172735 5.63986159,10.3940062 5.63986159,11.0753431 C5.63986159,11.7566799 6.05106267,12.3088572 6.55830849,12.3088572 L16.6146694,12.3088572 Z M16.6146694,18.6877339 C17.1219153,18.6877339 17.5331163,18.1353535 17.5331163,17.4541182 C17.5331163,16.7727813 17.1219153,16.2205025 16.6146694,16.2205025 L1.41844689,16.2205025 C0.911201072,16.2205025 0.5,16.7727813 0.5,17.4541182 C0.5,18.1353535 0.911201072,18.6877339 1.41844689,18.6877339 L16.6146694,18.6877339 Z M16.6146694,25.0662044 C17.1219153,25.0662044 17.5331163,24.5139256 17.5331163,23.8325887 C17.5331163,23.1512518 17.1219153,22.5990745 16.6146694,22.5990745 L6.55830849,22.5990745 C6.05106267,22.5990745 5.63986159,23.1512518 5.63986159,23.8325887 C5.63986159,24.5139256 6.05106267,25.0662044 6.55830849,25.0662044 L16.6146694,25.0662044 Z" id="Shape"></path>
            </g>
        </g>
    </g>
</svg>