<?xml version="1.0" encoding="UTF-8" standalone="no"?>
<svg width="61px" height="61px" viewBox="0 0 61 61" version="1.1" xmlns="http://www.w3.org/2000/svg" xmlns:xlink="http://www.w3.org/1999/xlink">
    <!-- Generator: Sketch 46.2 (44496) - http://www.bohemiancoding.com/sketch -->
    <title>Tyre AMC Alert</title>
    <desc>Created with Sketch.</desc>
    <defs></defs>
    <g id="Page-1" stroke="none" stroke-width="1" fill="none" fill-rule="evenodd" opacity="0.98999999">
        <g id="Desktop" transform="translate(-271.000000, -91.000000)" fill-rule="nonzero" fill="#4A4A4A">
            <g id="Tyre-AMC-Alert" transform="translate(271.000000, 91.000000)">
                <g id="Page-1">
                    <g id="Tyre-AMC-Alert" transform="translate(0.500000, 0.500000)">
                        <g id="Group">
                            <path d="M29.9994253,0.238786813 C13.4652747,0.238786813 0,13.5565582 0,29.9091429 C0,46.2621758 13.4652747,59.5794725 29.9994247,59.5794725 C46.5336,59.5794725 60,46.2621758 60,29.9091429 C60,13.5565582 46.5336,0.238786813 29.9994247,0.238786813 L29.9994253,0.238786813 Z M29.9994253,5.93820659 C43.4192747,5.93820659 54.2373753,16.636589 54.2373753,29.9091429 C54.2373753,43.1816703 43.4192753,53.88 29.9994247,53.88 C16.5796,53.88 5.76262533,43.1816703 5.76262533,29.9091429 C5.76262533,16.636589 16.5796,5.93820659 29.9994247,5.93820659 L29.9994253,5.93820659 Z M29.9994253,9.39109451 C24.4973582,9.39109853 19.2206454,11.5528226 15.3301143,15.4007076 C11.4395831,19.2485926 9.25392901,24.4674366 9.25397533,29.9091429 C9.25393608,35.3508444 11.4395932,40.5696816 15.3301235,44.4175609 C19.2206537,48.2654401 24.4973623,50.4271606 29.9994247,50.4271648 C35.5014915,50.4271675 40.7782068,48.26545 44.6687427,44.41757 C48.5592785,40.5696899 50.7449393,35.3508489 50.7449,29.9091429 C50.7449463,24.4674323 48.5592887,19.2485844 44.6687521,15.4006987 C40.7782155,11.552813 35.5014962,9.39109188 29.9994247,9.39109451 L29.9994253,9.39109451 Z M30.4609,13.8216132 C33.5453,13.8785143 36.4627,14.5529868 36.8200253,15.6117297 C37.1711747,16.6521692 32.5554,22.8849165 31.0833,23.3581582 C29.1748247,23.9713451 28.0416747,23.2394769 25.7348747,19.8963692 C22.6438247,15.4168945 22.632,15.2883231 25.2452747,14.4481582 C26.6992247,13.9810945 28.6102747,13.7892264 30.4609,13.8216198 L30.4609,13.8216132 Z M18.1342753,19.1437319 C19.2431747,19.1437319 23.8102247,25.4029385 23.8102247,26.9334264 C23.8102247,28.9183516 22.7552,29.7578242 18.8276,30.8941978 C13.5648,32.4172747 13.4375,32.3885934 13.4375,29.670989 C13.4375,25.638811 16.3287253,19.1578286 18.1342753,19.1437319 L18.1342753,19.1437319 Z M41.8769753,19.4238659 C42.4071253,19.3571077 42.8270753,19.8894462 43.5337247,20.8510088 C45.9301747,24.1132615 47.4429253,31.0363516 45.9907253,32.0975604 C45.0988753,32.7493187 37.6793,30.3336264 36.7694,29.0951868 C35.5898,27.4897451 35.9445,26.1980967 38.4464,22.9951846 C40.3321753,20.5810088 41.1953253,19.5089275 41.8769753,19.4238659 Z M29.9994253,26.4903495 C30.9164553,26.4903503 31.7959239,26.8506524 32.4443488,27.4919899 C33.0927737,28.1333273 33.4570366,29.0031623 33.457,29.9101319 C33.4570242,30.8170935 33.0927559,31.6869166 32.4443323,32.328244 C31.7959087,32.9695715 30.9164473,33.3298673 29.9994253,33.3298681 C29.0824077,33.3298609 28.2029525,32.9695622 27.5545343,32.3282354 C26.9061161,31.6869086 26.5418511,30.8170893 26.5418753,29.9101319 C26.5418387,29.0031665 26.9060982,28.1333353 27.5545178,27.4919985 C28.2029374,26.8506618 29.0823996,26.4903567 29.9994253,26.4903495 L29.9994253,26.4903495 Z M24.6588753,34.8247253 C24.7941253,34.8247253 24.9102,34.857033 25.0021753,34.8814286 C26.9107,35.4946154 27.3917253,36.7455165 27.2712,40.791033 C27.10995,46.2123297 27.04245,46.3240879 24.4292753,45.4844176 C20.5519,44.2384615 15.2130753,39.5161978 15.7572,37.8136484 C16.0705253,36.833011 22.6274253,34.6977363 24.6588753,34.8243297 L24.6588753,34.8247253 Z M35.2004247,34.9459121 C36.1676,34.8990989 37.4687,35.2228352 39.3952253,35.9052527 C44.5581753,37.7322198 44.6444,37.8293407 43.0295,40.0284396 C40.6334753,43.2904615 34.4434253,46.8538681 32.9741753,45.8156044 C32.0718253,45.1782198 32.1004253,37.4523297 33.0101753,36.2138242 C33.5998253,35.4107473 34.2332253,34.9923956 35.2004,34.9459121 L35.2004247,34.9459121 Z" id="Shape"></path>
                        </g>
                    </g>
                </g>
            </g>
        </g>
    </g>
</svg>