<?xml version="1.0" encoding="UTF-8"?>
<svg width="79px" height="62px" viewBox="0 0 79 62" version="1.1" xmlns="http://www.w3.org/2000/svg" xmlns:xlink="http://www.w3.org/1999/xlink">
    <!-- Generator: Sketch 41.2 (35397) - http://www.bohemiancoding.com/sketch -->
    <title>accelater</title>
    <desc>Created with Sketch.</desc>
    <defs></defs>
    <g id="Page-1" stroke="none" stroke-width="1" fill="none" fill-rule="evenodd">
        <g id="vehicle_diagnostic" transform="translate(-100.000000, -790.000000)" fill="#3EB64D">
            <g id="accelater" transform="translate(100.000000, 790.000000)">
                <g id="Group">
                    <g transform="translate(0.000000, 0.116140)" id="Shape">
                        <path d="M64.6556765,31.1238864 C60.7680965,31.1238864 57.6383841,34.220711 57.6383841,38.0674665 L57.6383841,54.7320168 C57.6383841,58.5787724 60.7680965,61.6755969 64.6556765,61.6755969 L70.269511,61.6755969 C74.1570909,61.6755969 77.2868033,58.5787724 77.2868033,54.7320168 L77.2868033,38.0674665 C77.2868033,34.220711 74.1570909,31.1238864 70.269511,31.1238864 L64.6556765,31.1238864 Z M63.2522186,36.6787715 L66.0591354,36.6787715 L66.0591354,39.4561616 L63.2522186,39.4561616 L63.2522186,36.6787715 Z M68.8660521,36.6787715 L71.6729699,36.6787715 L71.6729699,39.4561616 L68.8660521,39.4561616 L68.8660521,36.6787715 Z M63.2522186,42.2336566 L66.0591354,42.2336566 L66.0591354,45.0110467 L63.2522186,45.0110467 L63.2522186,42.2336566 Z M68.8660521,42.2336566 L71.6729699,42.2336566 L71.6729699,45.0110467 L68.8660521,45.0110467 L68.8660521,42.2336566 Z M63.2522186,47.7884367 L66.0591354,47.7884367 L66.0591354,50.5659317 L63.2522186,50.5659317 L63.2522186,47.7884367 Z M68.8660521,47.7884367 L71.6729699,47.7884367 L71.6729699,50.5659317 L68.8660521,50.5659317 L68.8660521,47.7884367 Z M63.2522186,53.3433218 L66.0591354,53.3433218 L66.0591354,56.1207118 L63.2522186,56.1207118 L63.2522186,53.3433218 Z M68.8660521,53.3433218 L71.6729699,53.3433218 L71.6729699,56.1207118 L68.8660521,56.1207118 L68.8660521,53.3433218 Z"></path>
                        <path d="M35.1830472,36.6787715 C32.0729823,36.6787715 29.5692127,39.1562522 29.5692127,42.2336566 L29.5692127,56.1207118 C29.5692127,59.1981163 32.0729823,61.6755969 35.1830472,61.6755969 L43.6037984,61.6755969 C46.7138622,61.6755969 49.2176318,59.1981163 49.2176318,56.1207118 L49.2176318,42.2336566 C49.2176318,39.1562522 46.7138622,36.6787715 43.6037984,36.6787715 L35.1830472,36.6787715 Z M35.1830472,42.2336566 L37.9899639,42.2336566 L37.9899639,45.0110467 L35.1830472,45.0110467 L35.1830472,42.2336566 Z M40.7968806,42.2336566 L43.6037984,42.2336566 L43.6037984,45.0110467 L40.7968806,45.0110467 L40.7968806,42.2336566 Z M35.1830472,47.7884367 L37.9899639,47.7884367 L37.9899639,50.5659317 L35.1830472,50.5659317 L35.1830472,47.7884367 Z M40.7968806,47.7884367 L43.6037984,47.7884367 L43.6037984,50.5659317 L40.7968806,50.5659317 L40.7968806,47.7884367 Z M35.1830472,53.3433218 L37.9899639,53.3433218 L37.9899639,56.1207118 L35.1830472,56.1207118 L35.1830472,53.3433218 Z M40.7968806,53.3433218 L43.6037984,53.3433218 L43.6037984,56.1207118 L40.7968806,56.1207118 L40.7968806,53.3433218 Z"></path>
                        <path d="M7.1138757,36.6787715 C4.00381098,36.6787715 1.50004087,39.1562522 1.50004087,42.2336566 L1.50004087,56.1207118 C1.50004087,59.1981163 4.00381098,61.6755969 7.1138757,61.6755969 L15.5346269,61.6755969 C18.6446907,61.6755969 21.1484604,59.1981163 21.1484604,56.1207118 L21.1484604,42.2336566 C21.1484604,39.1562522 18.6446907,36.6787715 15.5346269,36.6787715 L7.1138757,36.6787715 Z M7.1138757,42.2336566 L9.92079242,42.2336566 L9.92079242,45.0110467 L7.1138757,45.0110467 L7.1138757,42.2336566 Z M12.7277091,42.2336566 L15.5346269,42.2336566 L15.5346269,45.0110467 L12.7277091,45.0110467 L12.7277091,42.2336566 Z M7.1138757,47.7884367 L9.92079242,47.7884367 L9.92079242,50.5659317 L7.1138757,50.5659317 L7.1138757,47.7884367 Z M12.7277091,47.7884367 L15.5346269,47.7884367 L15.5346269,50.5659317 L12.7277091,50.5659317 L12.7277091,47.7884367 Z M7.1138757,53.3433218 L9.92079242,53.3433218 L9.92079242,56.1207118 L7.1138757,56.1207118 L7.1138757,53.3433218 Z M12.7277091,53.3433218 L15.5346269,53.3433218 L15.5346269,56.1207118 L12.7277091,56.1207118 L12.7277091,53.3433218 Z"></path>
                        <path d="M19.7449474,1.9584566 L19.7449474,6.81894168 C19.7449421,7.82773745 19.3751239,8.79874274 18.7033203,9.55864623 L11.658618,17.527293 C10.539571,18.7927491 9.9207468,20.4188943 9.92074044,22.1003605 L9.92074044,34.5931571 L12.7276582,34.5931571 L12.7276582,22.1003605 C12.7276635,21.090515 13.0974817,20.1149959 13.7692853,19.3554073 L20.8139876,11.3920092 C21.9330346,10.1265531 22.5518588,8.50040792 22.5518652,6.81894168 L22.5518652,1.9584566 L19.7449474,1.9584566 Z"></path>
                        <path d="M45.0072021,1.9584566 L45.0072021,8.51153512 C45.0071682,9.37966633 44.7333885,10.2296371 44.2232421,10.936424 L39.2946907,17.7606492 C38.4447651,18.9379275 37.9899681,20.3497167 37.9899119,21.7964621 L37.9899119,34.5931571 L40.7968297,34.5931571 L40.7968297,21.7964621 C40.7968636,20.9283309 41.0706433,20.0783601 41.5807897,19.3717832 L46.5093411,12.547348 C47.3592667,11.3700697 47.8140626,9.95859543 47.8141188,8.51153512 L47.8141188,1.9584566 L45.0072021,1.9584566 Z"></path>
                        <polygon points="66.0590802 1.9584566 66.0590802 29.038377 68.865998 29.038377 68.865998 1.9584566"></polygon>
                        <polygon points="0.0965276641 0.569761572 0.0965276641 3.34715163 78.6902081 3.34715163 78.6902081 0.569761572"></polygon>
                    </g>
                </g>
            </g>
        </g>
    </g>
</svg>