<?xml version="1.0" encoding="UTF-8"?>
<svg width="34px" height="29px" viewBox="0 0 34 29" version="1.1" xmlns="http://www.w3.org/2000/svg" xmlns:xlink="http://www.w3.org/1999/xlink">
    <!-- Generator: Sketch 41.2 (35397) - http://www.bohemiancoding.com/sketch -->
    <title>acceleration</title>
    <desc>Created with Sketch.</desc>
    <defs></defs>
    <g id="Page-1" stroke="none" stroke-width="1" fill="none" fill-rule="evenodd">
        <g id="vehicle_diagnostic-copy-8" transform="translate(-999.000000, -471.000000)" fill="#3EB64D">
            <g id="acceleration" transform="translate(999.000000, 471.000000)">
                <g id="Group-2-Copy" transform="translate(11.000000, 25.000000)">
                    <g id="meter-2">
                        <g id="Layer_1">
                            <g id="XMLID_40_">
                                <g id="Group" transform="translate(0.453041, 0.446928)">
                                    <path d="M10.2123992,1.44375785 L10.2123992,3.03992832 L0.504375734,3.03992832 L0.504375734,1.44375785 C0.504375734,1.09260034 0.795616438,0.805289658 1.1515773,0.805289658 L4.06398434,0.805289658 L6.65279061,0.805289658 L9.56519765,0.805289658 C9.92115851,0.805289658 10.2123992,1.09260034 10.2123992,1.44375785 Z" id="Shape"></path>
                                </g>
                            </g>
                        </g>
                    </g>
                </g>
                <g id="noun_950526_cc">
                    <g id="Group">
                        <g transform="translate(0.000000, 0.051889)" id="Shape">
                            <path d="M27.8264937,13.9054899 C26.153358,13.9054899 24.8063932,15.2890852 24.8063932,17.0077337 L24.8063932,24.4530999 C24.8063932,26.1717484 26.153358,27.5553437 27.8264937,27.5553437 L30.2425743,27.5553437 C31.91571,27.5553437 33.2626748,26.1717484 33.2626748,24.4530999 L33.2626748,17.0077337 C33.2626748,15.2890852 31.91571,13.9054899 30.2425743,13.9054899 L27.8264937,13.9054899 Z M27.2224738,16.3872943 L28.430514,16.3872943 L28.430514,17.628173 L27.2224738,17.628173 L27.2224738,16.3872943 Z M29.6385541,16.3872943 L30.8465946,16.3872943 L30.8465946,17.628173 L29.6385541,17.628173 L29.6385541,16.3872943 Z M27.2224738,18.8690987 L28.430514,18.8690987 L28.430514,20.1099774 L27.2224738,20.1099774 L27.2224738,18.8690987 Z M29.6385541,18.8690987 L30.8465946,18.8690987 L30.8465946,20.1099774 L29.6385541,20.1099774 L29.6385541,18.8690987 Z M27.2224738,21.3508562 L28.430514,21.3508562 L28.430514,22.5917818 L27.2224738,22.5917818 L27.2224738,21.3508562 Z M29.6385541,21.3508562 L30.8465946,21.3508562 L30.8465946,22.5917818 L29.6385541,22.5917818 L29.6385541,21.3508562 Z M27.2224738,23.8326606 L28.430514,23.8326606 L28.430514,25.0735393 L27.2224738,25.0735393 L27.2224738,23.8326606 Z M29.6385541,23.8326606 L30.8465946,23.8326606 L30.8465946,25.0735393 L29.6385541,25.0735393 L29.6385541,23.8326606 Z"></path>
                            <path d="M15.1420709,16.3872943 C13.803562,16.3872943 12.7259903,17.4941799 12.7259903,18.8690987 L12.7259903,25.0735393 C12.7259903,26.4484581 13.803562,27.5553437 15.1420709,27.5553437 L18.7661917,27.5553437 C20.1047002,27.5553437 21.1822719,26.4484581 21.1822719,25.0735393 L21.1822719,18.8690987 C21.1822719,17.4941799 20.1047002,16.3872943 18.7661917,16.3872943 L15.1420709,16.3872943 Z M15.1420709,18.8690987 L16.350111,18.8690987 L16.350111,20.1099774 L15.1420709,20.1099774 L15.1420709,18.8690987 Z M17.5581511,18.8690987 L18.7661917,18.8690987 L18.7661917,20.1099774 L17.5581511,20.1099774 L17.5581511,18.8690987 Z M15.1420709,21.3508562 L16.350111,21.3508562 L16.350111,22.5917818 L15.1420709,22.5917818 L15.1420709,21.3508562 Z M17.5581511,21.3508562 L18.7661917,21.3508562 L18.7661917,22.5917818 L17.5581511,22.5917818 L17.5581511,21.3508562 Z M15.1420709,23.8326606 L16.350111,23.8326606 L16.350111,25.0735393 L15.1420709,25.0735393 L15.1420709,23.8326606 Z M17.5581511,23.8326606 L18.7661917,23.8326606 L18.7661917,25.0735393 L17.5581511,25.0735393 L17.5581511,23.8326606 Z"></path>
                            <path d="M3.06166802,16.3872943 C1.72315915,16.3872943 0.645587211,17.4941799 0.645587211,18.8690987 L0.645587211,25.0735393 C0.645587211,26.4484581 1.72315915,27.5553437 3.06166802,27.5553437 L6.6857888,27.5553437 C8.02429726,27.5553437 9.10186902,26.4484581 9.10186902,25.0735393 L9.10186902,18.8690987 C9.10186902,17.4941799 8.02429726,16.3872943 6.6857888,16.3872943 L3.06166802,16.3872943 Z M3.06166802,18.8690987 L4.26970813,18.8690987 L4.26970813,20.1099774 L3.06166802,20.1099774 L3.06166802,18.8690987 Z M5.47774824,18.8690987 L6.6857888,18.8690987 L6.6857888,20.1099774 L5.47774824,20.1099774 L5.47774824,18.8690987 Z M3.06166802,21.3508562 L4.26970813,21.3508562 L4.26970813,22.5917818 L3.06166802,22.5917818 L3.06166802,21.3508562 Z M5.47774824,21.3508562 L6.6857888,21.3508562 L6.6857888,22.5917818 L5.47774824,22.5917818 L5.47774824,21.3508562 Z M3.06166802,23.8326606 L4.26970813,23.8326606 L4.26970813,25.0735393 L3.06166802,25.0735393 L3.06166802,23.8326606 Z M5.47774824,23.8326606 L6.6857888,23.8326606 L6.6857888,25.0735393 L5.47774824,25.0735393 L5.47774824,23.8326606 Z"></path>
                            <path d="M8.49782545,0.874996716 L8.49782545,3.04655798 C8.49782317,3.49726645 8.33866092,3.93109094 8.04953027,4.27059965 L5.01763306,7.83082138 C4.53601788,8.39620022 4.2696885,9.12272727 4.26968576,9.87397059 L4.26968576,15.4554862 L5.47772632,15.4554862 L5.47772632,9.87397059 C5.47772861,9.42279312 5.63689086,8.98695193 5.9260215,8.64758393 L8.95791871,5.08970719 C9.43953389,4.52432835 9.70586328,3.7978013 9.70586602,3.04655798 L9.70586602,0.874996716 L8.49782545,0.874996716 Z"></path>
                            <path d="M19.3701883,0.874996716 L19.3701883,3.80277269 C19.3701736,4.19063524 19.2523444,4.57038409 19.0327877,4.88616143 L16.911639,7.93507996 C16.5458483,8.46106285 16.3501129,9.09182021 16.3500887,9.73819525 L16.3500887,15.4554862 L17.5581292,15.4554862 L17.5581292,9.73819525 C17.5581438,9.35033271 17.6759731,8.97058385 17.8955297,8.65490032 L20.0166784,5.60588798 C20.3824692,5.0799051 20.5782042,4.44928844 20.5782284,3.80277269 L20.5782284,0.874996716 L19.3701883,0.874996716 Z"></path>
                            <polygon points="28.4304902 0.874996716 28.4304902 12.9737287 29.6385308 12.9737287 29.6385308 0.874996716"></polygon>
                            <polygon points="0.0415435516 0.254557341 0.0415435516 1.49543609 33.8666718 1.49543609 33.8666718 0.254557341"></polygon>
                        </g>
                    </g>
                </g>
            </g>
        </g>
    </g>
</svg>