<?xml version="1.0" encoding="UTF-8"?>
<svg width="31px" height="31px" viewBox="0 0 31 31" version="1.1" xmlns="http://www.w3.org/2000/svg" xmlns:xlink="http://www.w3.org/1999/xlink">
    <!-- Generator: Sketch 41.2 (35397) - http://www.bohemiancoding.com/sketch -->
    <title>arking_break</title>
    <desc>Created with Sketch.</desc>
    <defs></defs>
    <g id="Page-1" stroke="none" stroke-width="1" fill="none" fill-rule="evenodd">
        <g id="vehicle_diagnostic-copy-8" transform="translate(-699.000000, -470.000000)">
            <g id="arking_break" transform="translate(699.000000, 470.000000)">
                <ellipse id="Oval-3" fill="#3EB64D" cx="17.0755323" cy="17.3038312" rx="13.9023633" ry="13.6626674"></ellipse>
                <path d="M17.0696657,4.7316053 C10.0018409,4.7316053 4.27318296,10.3614933 4.27318296,17.3074591 C4.27318296,24.2534248 10.0018409,29.8833128 17.0696657,29.8833128 C24.1374905,29.8833128 29.8661485,24.2534248 29.8661485,17.3074591 C29.9033476,10.3614933 24.1746896,4.7316053 17.0696657,4.7316053 Z M25.4394582,24.2534248 L23.8026988,22.6448854 L22.5007311,23.9244054 L24.1374905,25.5329448 C22.463532,26.9586957 20.3431846,27.8726385 17.9996427,28.0554271 L17.9996427,25.7522911 L16.1396888,25.7522911 L16.1396888,28.0554271 C13.833346,27.8726385 11.7129985,26.9586957 10.0018409,25.5695025 L11.6386004,23.9609631 L10.3366326,22.6814431 L8.69987322,24.2534248 C7.28630826,22.6083276 6.35633131,20.5245379 6.17033593,18.2214019 L8.51387783,18.2214019 L8.51387783,16.3935162 L6.17033593,16.3935162 C6.35633131,14.1269379 7.28630826,12.0431482 8.69987322,10.3614933 L10.3366326,11.9700328 L11.6386004,10.6905128 L10.0018409,9.08197332 C11.6757994,7.69278017 13.7961469,6.77883731 16.1396888,6.59604874 L16.1396888,8.89918475 L17.9996427,8.89918475 L17.9996427,6.59604874 C20.3059855,6.77883731 22.4263329,7.69278017 24.1374905,9.08197332 L22.5007311,10.6905128 L23.8026988,11.9700328 L25.4394582,10.3614933 C26.8530232,12.0065905 27.7830001,14.0903802 27.9689955,16.3935162 L25.6254536,16.3935162 L25.6254536,18.2214019 L27.9689955,18.2214019 C27.7830001,20.5245379 26.8902223,22.6083276 25.4394582,24.2534248 Z" id="Shape" fill="#202634"></path>
                <polygon id="Shape" fill="#3EB64D" points="7.19898073 7.19773934 7.19898073 2.00059992 6.11633309 3.06458122 3.28479311 0.240938534 0.120130781 3.35103772 2.99331105 6.13375804 1.91066341 7.19773934"></polygon>
                <path d="M17.442493,16.1188133 L17.3175721,16.1188133 L13.2368233,12.1084223 L11.779413,13.5407048 L15.8601618,17.5510958 L15.8601618,17.6738629 C15.8601618,18.5332324 16.5680468,19.2698349 17.4841333,19.2698349 C18.3585795,19.2698349 19.1081048,18.5741548 19.1081048,17.6738629 C19.0664645,16.8144934 18.3585795,16.1188133 17.442493,16.1188133 Z" id="Shape" fill="#202634"></path>
            </g>
        </g>
    </g>
</svg>