<?xml version="1.0" encoding="UTF-8"?>
<svg width="27px" height="33px" viewBox="0 0 27 33" version="1.1" xmlns="http://www.w3.org/2000/svg" xmlns:xlink="http://www.w3.org/1999/xlink">
    <!-- Generator: Sketch 41.2 (35397) - http://www.bohemiancoding.com/sketch -->
    <title>batte_low</title>
    <desc>Created with Sketch.</desc>
    <defs></defs>
    <g id="Page-1" stroke="none" stroke-width="1" fill="none" fill-rule="evenodd">
        <g id="Dashboard_d3-Copy" transform="translate(-482.000000, -293.000000)" fill="#F24444">
            <g id="batte_low" transform="translate(481.000000, 293.000000)">
                <g id="Group-7">
                    <g id="Group-10">
                        <g id="chasis">
                            <g id="Page-1">
                                <g>
                                    <g id="Artboard">
                                        <g id="chasis">
                                            <g id="Page-1">
                                                <g id="Dashboard_d2">
                                                    <g id="Group-5">
                                                        <g id="Group-7-Copy" transform="translate(0.264776, 0.000000)">
                                                            <g id="Group-6">
                                                                <g id="chasis">
                                                                    <g id="noun_782065_cc-copy" transform="translate(13.597552, 17.000000) scale(-1, 1) translate(-13.597552, -17.000000) translate(0.097552, 0.000000)">
                                                                        <g id="Group">
                                                                            <g id="Shape" transform="translate(0.000000, 0.350377)">
                                                                                <g id="Group-13-Copy">
                                                                                    <path d="M18.1685073,23.1789964 C17.4879066,23.1789964 16.954752,23.7471091 16.954752,24.4722344 C16.954752,25.1918758 17.4922628,25.7554667 18.178356,25.7554667 C18.8759078,25.7554667 19.3821679,25.2158318 19.3821679,24.4722344 C19.3822626,23.7228645 18.8718358,23.1789964 18.1685073,23.1789964 Z" id="Shape"></path>
                                                                                    <path d="M17.1232213,21.4915912 C17.1469907,21.9549325 17.5379076,22.3204296 17.9946402,22.3204296 L18.3425638,22.3204296 C18.7984441,22.3204296 19.1898345,21.955606 19.2151191,21.4933229 L19.3309358,19.3869286 C19.3437202,19.1547769 19.2616163,18.914255 19.1058367,18.7468518 C18.9499623,18.5794486 18.7294087,18.4720796 18.5005215,18.4720796 L17.8467206,18.4720796 C17.6181175,18.4720796 17.3975639,18.5820462 17.2415949,18.7490646 C17.0855311,18.916083 17.0029537,19.1462143 17.0147911,19.3780774 L17.1232213,21.4915912 Z" id="Shape"></path>
                                                                                    <path d="M26.3403937,22.0700944 C26.3403937,17.9286926 23.2686467,14.5046233 19.3186625,14.0204046 L19.3186625,5.55817179 C19.3186625,4.2440565 18.2569935,3.17488869 16.9520432,3.17488869 L14.6784182,3.17488869 L14.6784182,0.962087481 C14.6784182,0.431592444 14.2535992,0 13.7314296,0 L5.49262867,0 C4.97045915,0 4.54564006,0.431592444 4.54564006,0.962087481 L4.54564006,3.17488869 L2.33300115,3.17488869 C1.02483108,3.17488869 3.90798505e-14,4.22173607 3.90798505e-14,5.55817179 L3.90798505e-14,30.0784144 C3.90798505e-14,31.4238937 1.04661182,32.5185568 2.33300115,32.5185568 L16.9519485,32.5185568 C18.2433569,32.5185568 19.29584,31.4463103 19.3175261,30.1199765 C23.2680785,29.636239 26.3403937,26.211881 26.3403937,22.0700944 Z M18.3569955,26.8464739 C15.7646142,26.8464739 13.6555758,24.7038089 13.6555758,22.0700944 C13.6555758,19.4363799 15.7646142,17.2937149 18.3569955,17.2937149 C20.9493769,17.2937149 23.0583205,19.4363799 23.0583205,22.0700944 C23.0584152,24.7038089 20.9493769,26.8464739 18.3569955,26.8464739 Z M16.4776966,6.06115113 L16.4776966,14.1885775 C13.1049967,15.0187628 10.5614799,18.0291346 10.3838249,21.6632276 C7.48774429,21.6660176 4.53058294,21.6736181 2.84106055,21.6785248 L2.84106055,6.06115113 L16.4776966,6.06115113 Z" id="Shape"></path>
                                                                                </g>
                                                                            </g>
                                                                        </g>
                                                                    </g>
                                                                </g>
                                                            </g>
                                                        </g>
                                                    </g>
                                                </g>
                                            </g>
                                        </g>
                                    </g>
                                </g>
                            </g>
                        </g>
                    </g>
                </g>
            </g>
        </g>
    </g>
</svg>