<?xml version="1.0" encoding="UTF-8"?>
<svg width="54px" height="26px" viewBox="0 0 54 26" version="1.1" xmlns="http://www.w3.org/2000/svg" xmlns:xlink="http://www.w3.org/1999/xlink">
    <!-- Generator: Sketch 41.2 (35397) - http://www.bohemiancoding.com/sketch -->
    <title>Blinker</title>
    <desc>Created with Sketch.</desc>
    <defs></defs>
    <g id="Page-1" stroke="none" stroke-width="1" fill="none" fill-rule="evenodd">
        <g id="vehicle_diagnostic-copy-12" transform="translate(-85.000000, -101.000000)" fill="#F8B039">
            <g id="Blinker" transform="translate(85.000000, 101.000000)">
                <path d="M43.6450177,8.11040438 C43.6190143,8.08030426 43.5969508,8.05099621 43.5662195,8.02168815 L42.2132542,6.70916348 C43.3353407,6.45331229 44.5433173,5.50832621 44.5433173,4.53878475 C44.5433173,3.40923727 42.9839007,3.00843011 41.6529989,3.00843011 C40.2614225,3.00843011 40.0998861,3.96688203 40.0833385,4.64413526 L36.5925777,1.26103758 C35.8833938,0.555268433 34.5383083,0 33.5328431,0 L26.7341334,0 L26.7325574,0 L19.9322717,0 C18.9275945,0 17.583297,0.555268433 16.8733251,1.26103758 L13.3833523,4.64413526 C13.3652287,3.96688203 13.2036924,3.00843011 11.8136919,3.00843011 C10.4812142,3.00843011 8.92258553,3.40923727 8.92258553,4.53878475 C8.92258553,5.50832621 10.1313501,6.45331229 11.2534366,6.70916348 L9.90047134,8.02168815 C9.86974004,8.05099621 9.84846452,8.08030426 9.82167313,8.11040438 C8.37414998,9.35401557 7.42857143,11.6606371 7.42857143,13.3343635 L7.42857143,18.3080161 C7.42857143,19.5151903 7.90214868,20.610677 8.66727932,21.4273414 L8.66727932,23.356127 C8.66727932,24.4840902 9.60655401,25.4037288 10.7617358,25.4037288 L13.2943103,25.4037288 C14.4494921,25.4037288 15.3879789,24.4856744 15.3879789,23.356127 L15.3879789,22.862643 L26.7325574,22.862643 L26.7341334,22.862643 L38.077924,22.862643 L38.077924,23.356127 C38.077924,24.4856744 39.0156227,25.4037288 40.1723805,25.4037288 L42.704167,25.4037288 C43.8601368,25.4037288 44.7978356,24.4840902 44.7978356,23.356127 L44.7978356,21.4273414 C45.5637541,20.610677 46.0365434,19.5151903 46.0365434,18.3080161 L46.0365434,13.3343635 C46.0381194,11.6606371 45.0925409,9.35401557 43.6450177,8.11040438 L43.6450177,8.11040438 Z M18.155372,2.76446053 C18.6462849,2.35335593 19.5043974,2.04126497 19.9322717,2.04126497 L26.7325574,2.04126497 L26.7341334,2.04126497 L33.5344191,2.04126497 C33.9622934,2.04126497 34.8204059,2.35335593 35.3113188,2.76446053 L39.8887069,7.22403436 L26.7341334,7.22403436 L26.7325574,7.22403436 L13.5787719,7.22403436 L18.155372,2.76446053 L18.155372,2.76446053 Z M8.9990198,12.5818599 C8.9990198,11.3572593 9.95247816,10.3631625 11.1297234,10.3631625 C12.3061808,10.3631625 16.1507455,12.6317628 16.1507455,13.8563633 C16.1507455,15.0809639 12.3061808,14.7973888 11.1297234,14.7973888 C9.95247816,14.7973888 8.9990198,13.8072525 8.9990198,12.5818599 L8.9990198,12.5818599 Z M15.3887668,20.6819668 L14.982956,20.6819668 L14.5771452,20.6819668 L12.1698598,20.6859274 C11.501651,20.4768106 11.0304377,20.232841 10.6971213,19.9706529 C10.5284931,19.8383707 10.399264,19.7005437 10.2984023,19.5635089 C10.1967526,19.4248898 10.1226823,19.2886471 10.0746154,19.1524043 C9.77518219,18.3016792 10.3937481,17.5198676 10.3937481,17.5198676 L14.5022869,17.5198676 L17.2413128,20.6803826 L15.3887668,20.6819668 L15.3887668,20.6819668 L15.3887668,20.6819668 Z M32.6408474,20.683551 L26.7341334,20.683551 L26.7325574,20.683551 L20.8258434,20.683551 C19.5942274,20.683551 18.5942781,19.6783647 18.5942781,18.4410904 L26.7325574,18.4410904 L26.7341334,18.4410904 L34.8724127,18.4410904 C34.8724127,19.6799489 33.8724634,20.683551 32.6408474,20.683551 L32.6408474,20.683551 Z M33.1593396,16.9107358 L26.7341334,16.9107358 L26.7325574,16.9107358 L20.3073512,16.9107358 C18.9677816,16.9107358 17.8803663,15.2504752 17.8803663,13.2028734 L26.7325574,13.2028734 L26.7341334,13.2028734 L35.5863246,13.2028734 C35.5863246,15.2512673 34.4989092,16.9107358 33.1593396,16.9107358 L33.1593396,16.9107358 Z M43.3928634,19.1539885 C43.3440085,19.2902313 43.2699382,19.426474 43.1682885,19.564301 C43.0682148,19.7013359 42.9389857,19.8391628 42.7695695,19.971445 C42.4370411,20.2336331 41.9650398,20.4791869 41.296831,20.6867195 L38.8895456,20.6827589 L38.4837348,20.6827589 L38.077924,20.6827589 L36.2238021,20.6827589 L38.9644039,17.5222439 L43.0721547,17.5222439 C43.0721547,17.5214518 43.6915086,18.3016792 43.3928634,19.1539885 L43.3928634,19.1539885 Z M42.3369674,14.7973888 C41.161298,14.7973888 37.3167333,15.0793797 37.3167333,13.8563633 C37.3167333,12.633347 41.161298,10.3631625 42.3369674,10.3631625 C43.5142127,10.3631625 44.467671,11.3572593 44.467671,12.5818599 C44.467671,13.8056683 43.5142127,14.7973888 42.3369674,14.7973888 Z M6.2916196,16.9757042 C6.28869701,16.4841725 5.8809948,16.0876607 5.3783082,16.0876607 L5.37319365,16.0876607 L1.22968247,16.1098083 C0.72553458,16.112666 0.318563018,16.5141788 0.321485614,17.0078538 C0.324408211,17.4993855 0.732110422,17.8958972 1.23479702,17.8958972 L1.23991156,17.8958972 L5.38342274,17.8737497 C5.88830129,17.870892 6.2945422,17.4686648 6.2916196,16.9757042 Z M5.42653104,18.8953926 L1.78132256,20.821511 C1.33781855,21.0558459 1.17269184,21.5973881 1.41234476,22.0317649 C1.57747146,22.330399 1.89165058,22.5004347 2.21678944,22.5004347 C2.36364991,22.5004347 2.51197169,22.4661417 2.65006437,22.3932693 L6.29527285,20.467151 C6.73877687,20.2328161 6.90390357,19.6912739 6.66425066,19.2568971 C6.42386709,18.8225202 5.87003506,18.6603433 5.42653104,18.8953926 Z M1.415998,13.1613325 L5.06120648,15.0874509 C5.19929916,15.1603233 5.34835158,15.1946163 5.49448141,15.1946163 C5.81888962,15.1946163 6.13379939,15.025295 6.29892609,14.7259465 C6.53857901,14.2922841 6.3734523,13.7500275 5.92994829,13.5156926 L2.28473981,11.5895742 C1.83977449,11.3552394 1.28667311,11.5159874 1.04702019,11.9503642 C0.806636632,12.3854555 0.971763334,12.9269977 1.415998,13.1613325 Z M47.1743917,16.9757042 C47.1773143,16.4841725 47.5850165,16.0876607 48.0877031,16.0876607 L48.0928176,16.0876607 L52.2363288,16.1098083 C52.7404767,16.112666 53.1474483,16.5141788 53.1445257,17.0078538 C53.1416031,17.4993855 52.7339009,17.8958972 52.2312143,17.8958972 L52.2260997,17.8958972 L48.0825886,17.8737497 C47.57771,17.870892 47.1714691,17.4686648 47.1743917,16.9757042 Z M47.5411135,18.8953926 L51.186322,20.821511 C51.629826,21.0558459 51.7949527,21.5973881 51.5552998,22.0317649 C51.3901731,22.330399 51.075994,22.5004347 50.7508551,22.5004347 C50.6039947,22.5004347 50.4556729,22.4661417 50.3175802,22.3932693 L46.6723717,20.467151 C46.2288677,20.2328161 46.063741,19.6912739 46.3033939,19.2568971 C46.5437775,18.8225202 47.0976095,18.6603433 47.5411135,18.8953926 Z M51.5521165,13.1613325 L47.9069081,15.0874509 C47.7688154,15.1603233 47.6197629,15.1946163 47.4736331,15.1946163 C47.1492249,15.1946163 46.8343151,15.025295 46.6691884,14.7259465 C46.4295355,14.2922841 46.5946622,13.7500275 47.0381662,13.5156926 L50.6833747,11.5895742 C51.12834,11.3552394 51.6814414,11.5159874 51.9210943,11.9503642 C52.1614779,12.3854555 51.9963512,12.9269977 51.5521165,13.1613325 Z" id="Combined-Shape"></path>
            </g>
        </g>
    </g>
</svg>