<?xml version="1.0" encoding="UTF-8"?>
<svg width="66px" height="21px" viewBox="0 0 66 21" version="1.1" xmlns="http://www.w3.org/2000/svg" xmlns:xlink="http://www.w3.org/1999/xlink">
    <!-- Generator: Sketch 41.2 (35397) - http://www.bohemiancoding.com/sketch -->
    <title>body</title>
    <desc>Created with Sketch.</desc>
    <defs></defs>
    <g id="Page-1" stroke="none" stroke-width="1" fill="none" fill-rule="evenodd">
        <g id="Dashboard_d3-Copy" transform="translate(-758.000000, -145.000000)" fill="#F24444">
            <g id="body" transform="translate(758.000000, 145.000000)">
                <g id="Page-1">
                    <g>
                        <g>
                            <g id="Artboard">
                                <g id="body">
                                    <g id="Group">
                                        <path d="M64.8329395,11.4190861 L64.8329395,7.57460034 C64.8329395,6.95611539 64.4021271,6.43224683 63.8165961,6.33693476 C62.411455,6.10735088 59.9206145,5.67392443 58.8015698,5.31424307 C57.1970286,4.79802731 50.9976024,2.05971826 48.8508777,1.5455896 C46.7034862,1.03146094 37.0215513,-1.7138052 27.748421,1.63951026 C26.1792246,2.20651277 19.1201751,5.72679828 14.9694407,7.55720761 C13.747028,7.58503599 1.6476104,10.2162059 1.00339293,12.0194826 C0.359175471,13.823455 0.15710726,14.6986564 0.0384005224,15.1564327 C-0.0803062152,15.6142089 0.0384005224,17.8049953 0.937370645,19.3306843 C1.85367996,19.8712498 3.61760873,20.2344098 5.65696379,20.4779078 C5.63362257,20.3478102 5.60828072,20.2197999 5.5922753,20.088311 C5.55693005,19.8072447 5.54025772,19.5505282 5.54025772,19.3056388 C5.54025772,15.8653597 8.22249647,13.0658283 11.5209432,13.0658283 C14.81939,13.0658283 17.5016288,15.864664 17.5016288,19.3056388 C17.5016288,19.4823488 17.4902916,19.6576673 17.4776207,19.830203 C17.4462767,20.2163213 17.3795876,20.5913083 17.2828882,20.952381 L17.2988937,20.952381 L46.9862483,20.3290261 C46.9729105,20.2490197 46.9555713,20.1697089 46.9455679,20.088311 C46.9102227,19.8086361 46.8935503,19.5512239 46.8935503,19.3056388 C46.8935503,15.8653597 49.5757891,13.0665241 52.874236,13.0665241 C56.1726824,13.0665241 58.8555882,15.864664 58.8555882,19.3056388 C58.8555882,19.3188572 58.8542546,19.3299886 58.8535878,19.3425113 L58.9802968,19.33138 L64.0560106,18.3344296 C64.0560106,18.3344296 65.9999997,17.2546898 65.9999997,14.2840141 C66.000667,12.302636 64.8329395,11.4190861 64.8329395,11.4190861 L64.8329395,11.4190861 Z M35.7314635,7.51133348 L24.370298,7.85714289 C24.5794118,6.16478293 23.5714287,5.78500405 23.5714287,5.78500405 C28.0878763,1.7093447 37.1904763,1.57142858 37.1904763,1.57142858 L35.7314635,7.51133348 L35.7314635,7.51133348 Z M47.7132774,6.98806719 L38.2380954,7.33333336 L39.0968033,1.57437538 C43.9938776,1.50518649 46.7914017,2.67732776 46.7914017,2.67732776 L48.1904764,5.12607197 L47.7132774,6.98806719 L47.7132774,6.98806719 Z M53.4028824,6.80952384 L50.5344349,6.80952384 L47.6666668,2.61904763 C49.8181725,3.53017792 51.5401924,4.42829206 52.5656572,4.99594069 C53.1881399,5.34014545 53.5279226,6.07555779 53.4028824,6.80952384 L53.4028824,6.80952384 Z" id="body"></path>
                                    </g>
                                </g>
                            </g>
                        </g>
                    </g>
                </g>
            </g>
        </g>
    </g>
</svg>