<?xml version="1.0" encoding="UTF-8"?>
<svg width="59px" height="39px" viewBox="0 0 59 39" version="1.1" xmlns="http://www.w3.org/2000/svg" xmlns:xlink="http://www.w3.org/1999/xlink">
    <!-- Generator: Sketch 41.2 (35397) - http://www.bohemiancoding.com/sketch -->
    <title>border_cross copy</title>
    <desc>Created with Sketch.</desc>
    <defs></defs>
    <g id="Page-1" stroke="none" stroke-width="1" fill="none" fill-rule="evenodd">
        <g id="Dashboard_d3-Copy" transform="translate(-461.000000, -514.000000)" fill="#F24444">
            <g id="border_cross-copy" transform="translate(460.000000, 514.000000)">
                <g id="border_cross">
                    <g id="Page-1">
                        <g id="Artboard">
                            <g id="border_cross">
                                <g id="Page-1">
                                    <g id="Dashboard_d2">
                                        <g id="border_cross">
                                            <g id="Group-24">
                                                <g id="noun_27831" transform="translate(10.493965, 0.000000)">
                                                    <g id="Group">
                                                        <g id="Shape">
                                                            <path d="M3.17194152,4.6150041 C2.80861654,4.6150041 2.44672197,4.46165672 2.19139319,4.16144144 L0.515663999,2.19024375 C0.0529252925,1.64596857 0.115863478,0.826676028 0.656559709,0.360874381 C1.19725594,-0.105647206 2.01116112,-0.0415724816 2.47389982,0.502702703 L4.15034422,2.47390039 C4.61236772,3.01817558 4.54942954,3.83746812 4.00873331,4.30398971 C3.76699345,4.51349245 3.46875228,4.6150041 3.17194152,4.6150041 L3.17194152,4.6150041 Z"></path>
                                                            <path d="M32.3924246,38.9820943 C32.0290997,38.9820943 31.6672051,38.828027 31.4125915,38.5285317 L27.7600311,34.2319254 C27.2980076,33.6869303 27.3602306,32.8676378 27.9009269,32.4025561 C28.4423383,31.9360345 29.2562435,31.9993893 29.7182669,32.5443844 L33.3708273,36.8409906 C33.8328508,37.3859857 33.7706279,38.2045583 33.2299316,38.66964 C32.9867614,38.8798627 32.6885202,38.9820943 32.3924246,38.9820943 L32.3924246,38.9820943 Z M25.0880191,30.3903218 C24.7239789,30.3903218 24.3627995,30.2362545 24.1074708,29.9360392 L20.4549104,25.6394329 C19.9928869,25.0951578 20.0551099,24.2758652 20.5958061,23.8100636 C21.1372175,23.343542 21.9504075,23.4068968 22.4131462,23.9518919 L26.0657066,28.2477782 C26.5277301,28.7920533 26.4655071,29.6113459 25.9248108,30.0771475 C25.6816406,30.2873702 25.3833994,30.3903218 25.0880191,30.3903218 L25.0880191,30.3903218 Z M17.7828983,21.7985492 C17.4188581,21.7985492 17.0576787,21.6452018 16.80235,21.3442666 L13.1497896,17.0491003 C12.6870509,16.5048251 12.749989,15.6855325 13.2906853,15.2197309 C13.8320967,14.7539293 14.6452867,14.817284 15.1080254,15.3615592 L18.7605858,19.6574455 C19.2226093,20.2017207 19.1603863,21.0210132 18.6196901,21.4868149 C18.3765198,21.6955977 18.0782787,21.7985492 17.7828983,21.7985492 L17.7828983,21.7985492 Z M10.4763471,13.2067766 C10.1130221,13.2067766 9.75112752,13.0534293 9.49651398,12.753214 L5.84395358,8.4573277 C5.38121488,7.91305252 5.44415306,7.09376001 5.98484928,6.62795835 C6.52554554,6.1621567 7.33945071,6.2255115 7.80218941,6.76978668 L11.4547498,11.0656729 C11.9167733,11.6099481 11.8545503,12.4292407 11.3131389,12.8950423 C11.0706838,13.105265 10.7731579,13.2067766 10.4763471,13.2067766 L10.4763471,13.2067766 Z"></path>
                                                        </g>
                                                    </g>
                                                </g>
                                                <g id="noun_556991_cc" transform="translate(29.878378, 19.483584) scale(-1, 1) translate(-29.878378, -19.483584) translate(0.378378, 8.983584)">
                                                    <g id="013-Pickup-Truck">
                                                        <g id="Group" transform="translate(0.000000, 0.000000)">
                                                            <g id="Shape">
                                                                <path d="M46.974783,18.9566411 C45.6099057,18.9566411 44.4996169,17.8438415 44.4996169,16.4758775 C44.4996169,15.1079135 45.6099057,13.9951139 46.974783,13.9951139 C48.3396603,13.9951139 49.4499491,15.1079135 49.4499491,16.4758775 C49.4499491,17.8438415 48.3396603,18.9566411 46.974783,18.9566411 M46.974783,12.5775346 C44.8298748,12.5775346 43.0852363,14.3261186 43.0852363,16.4758775 C43.0852363,18.6256364 44.8298748,20.3742204 46.974783,20.3742204 C49.1196912,20.3742204 50.8643297,18.6256364 50.8643297,16.4758775 C50.8643297,14.3261186 49.1196912,12.5775346 46.974783,12.5775346"></path>
                                                                <path d="M10.3679422,19.2725253 C8.93547812,19.2725253 7.77020944,18.1046214 7.77020944,16.6689179 C7.77020944,15.2332143 8.93547812,14.0653104 10.3679422,14.0653104 C11.8004063,14.0653104 12.965675,15.2332143 12.965675,16.6689179 C12.965675,18.1046214 11.8004063,19.2725253 10.3679422,19.2725253 M10.3679422,12.5775346 C8.11682124,12.5775346 6.28579074,14.412706 6.28579074,16.6689179 C6.28579074,18.9251297 8.11682124,20.7603011 10.3679422,20.7603011 C12.6190632,20.7603011 14.4500937,18.9251297 14.4500937,16.6689179 C14.4500937,14.412706 12.6190632,12.5775346 10.3679422,12.5775346"></path>
                                                                <path d="M57.3460887,10.0813582 L57.3460887,6.7984659 C57.3460887,6.27032774 56.9650263,5.82298467 56.447112,5.74159555 C55.2042354,5.54554877 53.0010347,5.17543623 52.0112166,4.86829629 C50.591966,4.42748808 45.1084442,2.08918475 43.2096215,1.6501588 C41.3102088,1.21113285 32.7463352,-1.1331113 24.5440578,1.73035975 C23.1560709,2.21453587 16.9121941,5.2205864 13.2407828,6.78361385 C12.1595334,6.80737711 1.4573458,9.05419194 0.887522001,10.5940502 C0.317698204,12.1345026 0.138964652,12.8818567 0.0339660638,13.2727621 C-0.0710325242,13.6636674 0.0339660638,15.5344289 0.829123913,16.8372488 C1.63961863,17.2988499 3.19985046,17.6089602 5.0037026,17.8168886 C4.98305682,17.7057955 4.96064139,17.5964845 4.94648427,17.4842032 C4.91522065,17.2441944 4.90047365,17.0249785 4.90047365,16.8158619 C4.90047365,13.8781307 7.27296987,11.4875482 10.1905149,11.4875482 C13.1080599,11.4875482 15.4805561,13.8775366 15.4805561,16.8158619 C15.4805561,16.9667585 15.4705282,17.1164669 15.4593205,17.2637991 C15.4315961,17.5935141 15.3726081,17.9137238 15.2870756,18.222052 L15.3012327,18.222052 L41.5603178,17.6897552 C41.5485202,17.6214359 41.5331833,17.5537107 41.5243351,17.4842032 C41.4930715,17.2453826 41.4783245,17.0255725 41.4783245,16.8158619 C41.4783245,13.8781307 43.8508207,11.4881423 46.7683657,11.4881423 C49.6859107,11.4881423 52.0589968,13.8775366 52.0589968,16.8158619 C52.0589968,16.8271495 52.0578171,16.8366547 52.0572272,16.8473482 L52.1693043,16.8378429 L56.6588788,15.9865247 C56.6588788,15.9865247 58.3783784,15.0645108 58.3783784,12.5277843 C58.3789679,10.8358413 57.3460887,10.0813582 57.3460887,10.0813582 L57.3460887,10.0813582 Z M31.2975906,6.96896715 L21.4908405,7.27135446 C21.6713436,5.79149836 20.8012711,5.45940701 20.8012711,5.45940701 C24.6997861,1.89551431 32.5569838,1.77491584 32.5569838,1.77491584 L31.2975906,6.96896715 L31.2975906,6.96896715 Z M42.3035662,6.51687141 L33.3668886,6.81925872 L34.1767935,1.77550992 C38.7955516,1.71491364 41.4340835,2.74148584 41.4340835,2.74148584 L42.7536444,4.88611872 L42.3035662,6.51687141 L42.3035662,6.51687141 Z M47.3417288,6.4859792 L44.8518466,6.4859792 L42.3625542,3.04327905 C44.2301133,3.79182127 45.7248685,4.52967004 46.614997,4.99602373 C47.1553268,5.27880635 47.4502666,5.88298686 47.3417288,6.4859792 L47.3417288,6.4859792 Z" id="body"></path>
                                                            </g>
                                                        </g>
                                                    </g>
                                                </g>
                                            </g>
                                        </g>
                                    </g>
                                </g>
                            </g>
                        </g>
                    </g>
                </g>
            </g>
        </g>
    </g>
</svg>