<?xml version="1.0" encoding="UTF-8"?>
<svg width="30px" height="30px" viewBox="0 0 30 30" version="1.1" xmlns="http://www.w3.org/2000/svg" xmlns:xlink="http://www.w3.org/1999/xlink">
    <!-- Generator: Sketch 41.2 (35397) - http://www.bohemiancoding.com/sketch -->
    <title>break_pedal</title>
    <desc>Created with Sketch.</desc>
    <defs></defs>
    <g id="Page-1" stroke="none" stroke-width="1" fill="none" fill-rule="evenodd">
        <g id="vehicle_diagnostic-copy-8" transform="translate(-700.000000, -234.000000)" fill="#F24444">
            <g id="Group-9" transform="translate(644.000000, 234.000000)">
                <g id="break" transform="translate(56.000000, 0.000000)">
                    <g id="Layer_1">
                        <g id="break_pedal">
                            <path d="M20.0918129,2.57046784 C19.720117,2.19877193 19.3174854,1.87099415 18.895731,1.57567251 L15.7115789,4.7602924 C15.6104094,4.86093567 15.4782456,4.91152047 15.3466082,4.91152047 C15.2144444,4.91152047 15.0822807,4.86093567 14.9816374,4.7602924 C14.7797661,4.55894737 14.7797661,4.23216374 14.9816374,4.03035088 L17.994386,1.01760234 C17.6676023,0.844152047 17.3279532,0.699064327 16.9825731,0.569005848 L12.061345,5.49023392 C11.9607018,5.59140351 11.828538,5.64146199 11.6963743,5.64146199 C11.5642105,5.64146199 11.4325731,5.59140351 11.3314035,5.49023392 C11.1300585,5.28888889 11.1300585,4.96210526 11.3314035,4.7602924 L15.861345,0.230877193 C15.2201754,0.0837426901 14.5604094,0.000116959064 13.8862573,0.000116959064 C11.5420468,0.000116959064 9.33877193,0.912807018 7.68111111,2.57046784 L2.57093567,7.68064327 C0.913216374,9.33830409 0,11.5421053 0,13.8863158 C0,14.3736257 0.0485380117,14.8526901 0.125964912,15.3245614 L4.41795322,11.0330994 C4.61929825,10.8312281 4.94608187,10.8312281 5.14789474,11.0330994 C5.34923977,11.2344444 5.34923977,11.5612281 5.14789474,11.7630409 L0.400584795,16.5102924 C0.512631579,16.8695906 0.654035088,17.2175439 0.811520468,17.5587719 L3.32298246,15.0478363 C3.52432749,14.8459649 3.85111111,14.8459649 4.05292398,15.0478363 C4.25426901,15.2497076 4.25426901,15.5759649 4.05292398,15.7777778 L1.3225731,18.5076023 C1.6751462,19.0739181 2.0871345,19.6081871 2.57081871,20.0914035 C2.67146199,20.1925731 2.80362573,20.2426316 2.93578947,20.2426316 C3.0674269,20.2426316 3.19959064,20.1925731 3.30076023,20.0914035 L20.0918129,3.30040936 C20.2936257,3.09859649 20.2936257,2.77233918 20.0918129,2.57046784 Z" id="Shape"></path>
                            <path d="M20.9596491,3.86181287 C20.9162573,3.91912281 20.8744444,3.97795322 20.8218129,4.03064327 L14.2460234,10.6059064 C14.7999415,10.4252047 15.39,10.3245614 16.0032749,10.3245614 C19.1342105,10.3245614 21.6818129,12.8721637 21.6818129,16.0030994 C21.6818129,19.1340351 19.1342105,21.6816374 16.0032749,21.6816374 C12.8723392,21.6816374 10.3247368,19.1340351 10.3247368,16.0030994 C10.3247368,15.3898246 10.4253801,14.7997661 10.6060819,14.245848 L4.03081871,20.8216374 C3.97865497,20.8738012 3.91982456,20.9166082 3.8619883,20.96 C5.71526316,26.2669006 10.7408187,29.9414035 16.5195322,29.9414035 C23.9207602,29.9414035 29.9415789,23.9205848 29.9415789,16.5193567 C29.9415789,10.7406433 26.2670175,5.71461988 20.9596491,3.86181287 Z M9.06766082,23.668655 C8.86578947,23.8705263 8.53906433,23.8705263 8.3377193,23.668655 C8.13584795,23.4673099 8.13584795,23.1405263 8.3377193,22.9387135 C8.53906433,22.7368421 8.86584795,22.7368421 9.06766082,22.9387135 C9.26947368,23.1405848 9.26953216,23.4673099 9.06766082,23.668655 Z M10.8930994,21.8438012 C10.6912281,22.0451462 10.3645029,22.0451462 10.1626316,21.8438012 C9.96128655,21.6419298 9.96128655,21.3152047 10.1626316,21.1133333 C10.3645029,20.9119883 10.6912281,20.9119883 10.8930994,21.1133333 C11.0944444,21.3151462 11.0944444,21.6419298 10.8930994,21.8438012 Z M16.0032749,26.8440351 C15.7183041,26.8440351 15.4870175,26.6127485 15.4870175,26.3277778 C15.4870175,26.042807 15.7183041,25.8115205 16.0032749,25.8115205 C16.2882456,25.8115205 16.5195322,26.042807 16.5195322,26.3277778 C16.5195322,26.6127485 16.2882456,26.8440351 16.0032749,26.8440351 Z M16.0032749,24.2628655 C15.7183041,24.2628655 15.4870175,24.0315789 15.4870175,23.7466082 C15.4870175,23.4616374 15.7183041,23.2303509 16.0032749,23.2303509 C16.2882456,23.2303509 16.5195322,23.4616374 16.5195322,23.7466082 C16.5195322,24.0315789 16.2882456,24.2628655 16.0032749,24.2628655 Z M22.9388889,8.33760234 C23.1407602,8.13573099 23.4674854,8.13573099 23.6688304,8.33760234 C23.8707018,8.53894737 23.8707018,8.86573099 23.6688304,9.06754386 C23.4674854,9.2694152 23.1407018,9.2694152 22.9388889,9.06754386 C22.7370175,8.86567251 22.7370175,8.53888889 22.9388889,8.33760234 Z M21.8439181,21.8438012 C21.6420468,22.0451462 21.3153216,22.0451462 21.1134503,21.8438012 C20.9121053,21.6419298 20.9121053,21.3152047 21.1134503,21.1133333 C21.3153216,20.9119883 21.6420468,20.9119883 21.8439181,21.1133333 C22.0452632,21.3151462 22.0452632,21.6419298 21.8439181,21.8438012 Z M21.8439181,10.8923977 C21.6420468,11.094269 21.3153216,11.094269 21.1134503,10.8923977 C20.9121053,10.6910526 20.9121053,10.364269 21.1134503,10.1624561 C21.3153216,9.96111111 21.6420468,9.96111111 21.8439181,10.1624561 C22.0452632,10.3643275 22.0452632,10.6911111 21.8439181,10.8923977 Z M23.6688304,23.668655 C23.4674854,23.8705263 23.1407018,23.8705263 22.9388889,23.668655 C22.7370175,23.4673099 22.7370175,23.1405263 22.9388889,22.9387135 C23.1407602,22.7368421 23.4674854,22.7368421 23.6688304,22.9387135 C23.8706433,23.1405848 23.8706433,23.4673099 23.6688304,23.668655 Z M23.7467836,16.5193567 C23.4618129,16.5193567 23.2305263,16.2880702 23.2305263,16.0030994 C23.2305263,15.7181287 23.4618129,15.4868421 23.7467836,15.4868421 C24.0317544,15.4868421 24.2630409,15.7181287 24.2630409,16.0030994 C24.2629825,16.2880702 24.0317544,16.5193567 23.7467836,16.5193567 Z M26.3279532,16.5193567 C26.0429825,16.5193567 25.8116959,16.2880702 25.8116959,16.0030994 C25.8116959,15.7181287 26.0429825,15.4868421 26.3279532,15.4868421 C26.612924,15.4868421 26.8442105,15.7181287 26.8442105,16.0030994 C26.844152,16.2880702 26.612924,16.5193567 26.3279532,16.5193567 Z" id="Shape"></path>
                            <path d="M16.0032749,17.5518129 C16.8571345,17.5518129 17.5519883,16.8569591 17.5519883,16.0030994 C17.5519883,15.1492398 16.8571345,14.454386 16.0032749,14.454386 C15.1494152,14.454386 14.4545614,15.1492398 14.4545614,16.0030994 C14.4545614,16.8569591 15.1494152,17.5518129 16.0032749,17.5518129 Z" id="Shape"></path>
                            <path d="M16.0032749,20.6492398 C18.5653216,20.6492398 20.6493567,18.5652047 20.6493567,16.0031579 C20.6493567,13.4411111 18.5653216,11.357076 16.0032749,11.357076 C13.4412281,11.357076 11.357193,13.4411111 11.357193,16.0031579 C11.357193,18.5652047 13.4412281,20.6492398 16.0032749,20.6492398 Z M16.0032749,13.4219298 C17.4265497,13.4219298 18.5844444,14.5798246 18.5844444,16.0030994 C18.5844444,17.4263743 17.4265497,18.584269 16.0032749,18.584269 C14.58,18.584269 13.4221053,17.4263743 13.4221053,16.0030994 C13.4221053,14.5798246 14.58,13.4219298 16.0032749,13.4219298 Z" id="Shape"></path>
                        </g>
                    </g>
                </g>
            </g>
        </g>
    </g>
</svg>