<?xml version="1.0" encoding="UTF-8"?>
<svg width="74px" height="74px" viewBox="0 0 74 74" version="1.1" xmlns="http://www.w3.org/2000/svg" xmlns:xlink="http://www.w3.org/1999/xlink">
    <!-- Generator: Sketch 41.2 (35397) - http://www.bohemiancoding.com/sketch -->
    <title>break</title>
    <desc>Created with Sketch.</desc>
    <defs></defs>
    <g id="Page-1" stroke="none" stroke-width="1" fill="none" fill-rule="evenodd">
        <g id="Dashboard_d2" transform="translate(-1056.000000, -656.000000)" fill="#F24444">
            <g id="break" transform="translate(1056.000000, 656.000000)">
                <g id="Layer_1">
                    <g id="Group">
                        <path d="M49.5598051,6.34048733 C48.6429552,5.42363743 47.6497973,4.61511891 46.6094698,3.88665887 L38.7552281,11.7420546 C38.5056764,11.990308 38.1796725,12.1150838 37.8549669,12.1150838 C37.528963,12.1150838 37.2029591,11.990308 36.9547057,11.7420546 C36.4567563,11.2454035 36.4567563,10.4393372 36.9547057,9.94153216 L44.386152,2.51008577 C43.5800858,2.08224172 42.7422846,1.72435867 41.890347,1.40354776 L29.7513177,13.542577 C29.5030643,13.7921287 29.1770604,13.9156062 28.8510565,13.9156062 C28.5250526,13.9156062 28.200347,13.7921287 27.9507953,13.542577 C27.4541442,13.0459259 27.4541442,12.2398596 27.9507953,11.7420546 L39.1246511,0.569497076 C37.5430994,0.206565302 35.9156764,0.000288499025 34.252768,0.000288499025 C28.4703821,0.000288499025 23.0356374,2.25159064 18.9467407,6.34048733 L6.34164133,18.9455867 C2.25260039,23.0344834 0,28.4705263 0,34.2529123 C0,35.4549435 0.119727096,36.6366355 0.31071345,37.8005848 L10.8976179,27.2149786 C11.394269,26.7170292 12.2003353,26.7170292 12.6981404,27.2149786 C13.1947914,27.7116296 13.1947914,28.5176959 12.6981404,29.015501 L0.988109162,40.7253879 C1.26449123,41.6116569 1.61328655,42.4699415 2.00175049,43.3116374 L8.19669006,37.1179961 C8.69334113,36.6200468 9.49940741,36.6200468 9.99721248,37.1179961 C10.4938635,37.6159454 10.4938635,38.4207135 9.99721248,38.9185185 L3.26234698,45.6520858 C4.13202729,47.0489981 5.14826511,48.3668616 6.34135283,49.5587953 C6.58960624,49.808347 6.91561014,49.9318246 7.24161404,49.9318246 C7.56631969,49.9318246 7.89232359,49.808347 8.14187524,49.5587953 L49.5598051,8.14100975 C50.0576101,7.64320468 50.0576101,6.83843665 49.5598051,6.34048733 Z" id="Shape"></path>
                        <path d="M51.7004678,9.52580507 C51.5934347,9.66716959 51.4902963,9.8122846 51.3604717,9.94225341 L35.140191,26.1612359 C36.5065224,25.7155049 37.962,25.4672515 39.4747446,25.4672515 C47.1977193,25.4672515 53.4818051,31.7513372 53.4818051,39.4743119 C53.4818051,47.1972865 47.1977193,53.4813723 39.4747446,53.4813723 C31.75177,53.4813723 25.4676842,47.1972865 25.4676842,39.4743119 C25.4676842,37.9615673 25.7159376,36.5060897 26.1616686,35.1397583 L9.94268616,51.360039 C9.81401559,51.4887096 9.66890058,51.5943002 9.52623782,51.7013333 C14.0976491,64.7916881 26.4940195,73.855462 40.7481793,73.855462 C59.0045419,73.855462 73.8558947,59.0041092 73.8558947,40.7477466 C73.8558947,26.4935867 64.7919766,14.0960624 51.7004678,9.52580507 Z M22.3668967,58.3826823 C21.8689474,58.8806316 21.0630253,58.8806316 20.5663743,58.3826823 C20.068425,57.8860312 20.068425,57.0799649 20.5663743,56.5821598 C21.0630253,56.0842105 21.8690916,56.0842105 22.3668967,56.5821598 C22.8647018,57.0801092 22.864846,57.8860312 22.3668967,58.3826823 Z M26.8696452,53.8813762 C26.3716959,54.3780273 25.5657739,54.3780273 25.0678246,53.8813762 C24.5711735,53.3834269 24.5711735,52.5775049 25.0678246,52.0795556 C25.5657739,51.5829045 26.3716959,51.5829045 26.8696452,52.0795556 C27.3662963,52.5773606 27.3662963,53.3834269 26.8696452,53.8813762 Z M39.4747446,66.2152865 C38.7718168,66.2152865 38.2013099,65.6447797 38.2013099,64.9418519 C38.2013099,64.238924 38.7718168,63.6684172 39.4747446,63.6684172 C40.1776725,63.6684172 40.7481793,64.238924 40.7481793,64.9418519 C40.7481793,65.6447797 40.1776725,66.2152865 39.4747446,66.2152865 Z M39.4747446,59.8484016 C38.7718168,59.8484016 38.2013099,59.2778947 38.2013099,58.5749669 C38.2013099,57.872039 38.7718168,57.3015322 39.4747446,57.3015322 C40.1776725,57.3015322 40.7481793,57.872039 40.7481793,58.5749669 C40.7481793,59.2778947 40.1776725,59.8484016 39.4747446,59.8484016 Z M56.5825926,20.5660858 C57.0805419,20.0681365 57.8864639,20.0681365 58.383115,20.5660858 C58.8810643,21.0627368 58.8810643,21.8688031 58.383115,22.3666082 C57.8864639,22.8645575 57.0803977,22.8645575 56.5825926,22.3666082 C56.0846433,21.8686589 56.0846433,21.0625926 56.5825926,20.5660858 Z M53.8816647,53.8813762 C53.3837154,54.3780273 52.5777934,54.3780273 52.0798441,53.8813762 C51.583193,53.3834269 51.583193,52.5775049 52.0798441,52.0795556 C52.5777934,51.5829045 53.3837154,51.5829045 53.8816647,52.0795556 C54.3783158,52.5773606 54.3783158,53.3834269 53.8816647,53.8813762 Z M53.8816647,26.8679142 C53.3837154,27.3658635 52.5777934,27.3658635 52.0798441,26.8679142 C51.583193,26.3712632 51.583193,25.5651969 52.0798441,25.0673918 C52.5777934,24.5707407 53.3837154,24.5707407 53.8816647,25.0673918 C54.3783158,25.5653411 54.3783158,26.3714074 53.8816647,26.8679142 Z M58.383115,58.3826823 C57.8864639,58.8806316 57.0803977,58.8806316 56.5825926,58.3826823 C56.0846433,57.8860312 56.0846433,57.0799649 56.5825926,56.5821598 C57.0805419,56.0842105 57.8864639,56.0842105 58.383115,56.5821598 C58.8809201,57.0801092 58.8809201,57.8860312 58.383115,58.3826823 Z M58.5753996,40.7477466 C57.8724717,40.7477466 57.3019649,40.1772398 57.3019649,39.4743119 C57.3019649,38.771384 57.8724717,38.2008772 58.5753996,38.2008772 C59.2783275,38.2008772 59.8488343,38.771384 59.8488343,39.4743119 C59.8486901,40.1772398 59.2783275,40.7477466 58.5753996,40.7477466 Z M64.9422846,40.7477466 C64.2393567,40.7477466 63.6688499,40.1772398 63.6688499,39.4743119 C63.6688499,38.771384 64.2393567,38.2008772 64.9422846,38.2008772 C65.6452125,38.2008772 66.2157193,38.771384 66.2157193,39.4743119 C66.215575,40.1772398 65.6452125,40.7477466 64.9422846,40.7477466 Z" id="Shape"></path>
                        <path d="M39.4747446,43.2944717 C41.5809318,43.2944717 43.2949045,41.580499 43.2949045,39.4743119 C43.2949045,37.3681248 41.5809318,35.654152 39.4747446,35.654152 C37.3685575,35.654152 35.6545848,37.3681248 35.6545848,39.4743119 C35.6545848,41.580499 37.3685575,43.2944717 39.4747446,43.2944717 Z" id="Shape"></path>
                        <path d="M39.4747446,50.9347914 C45.79446,50.9347914 50.9350799,45.7941715 50.9350799,39.4744561 C50.9350799,33.1547407 45.79446,28.0141209 39.4747446,28.0141209 C33.1550292,28.0141209 28.0144094,33.1547407 28.0144094,39.4744561 C28.0144094,45.7941715 33.1550292,50.9347914 39.4747446,50.9347914 Z M39.4747446,33.1074269 C42.9854893,33.1074269 45.8416296,35.9635673 45.8416296,39.4743119 C45.8416296,42.9850565 42.9854893,45.8411969 39.4747446,45.8411969 C35.964,45.8411969 33.1078596,42.9850565 33.1078596,39.4743119 C33.1078596,35.9635673 35.964,33.1074269 39.4747446,33.1074269 Z" id="Shape"></path>
                    </g>
                </g>
            </g>
        </g>
    </g>
</svg>