<?xml version="1.0" encoding="UTF-8"?>
<svg width="94px" height="69px" viewBox="0 0 94 69" version="1.1" xmlns="http://www.w3.org/2000/svg" xmlns:xlink="http://www.w3.org/1999/xlink">
    <!-- Generator: Sketch 41.2 (35397) - http://www.bohemiancoding.com/sketch -->
    <title>cal_engine</title>
    <desc>Created with Sketch.</desc>
    <defs></defs>
    <g id="Page-1" stroke="none" stroke-width="1" fill="none" fill-rule="evenodd">
        <g id="vehicle_diagnostic" transform="translate(-493.000000, -180.000000)" fill="#F8B039">
            <g id="cal_engine" transform="translate(493.000000, 180.000000)">
                <path d="M73.0178823,0.0258926916 L73.0178823,8.78443081 C70.7379745,8.77014173 69.109469,10.7142432 68.7939297,12.986504 L60,12.986504 C60.1666287,5.89652471 65.8950596,0.192514311 73.0178823,0.0258926916 Z M73.6692845,0.0258926916 C80.7872216,0.197264375 86.4943518,5.90807586 86.666778,12.986504 L77.8524918,12.986504 C77.5776977,10.3902279 75.8964286,9.04102499 73.6692845,8.78443081 L73.6692845,0.0258926916 Z M67.1552623,4.88612194 L67.1552623,7.15422892 L64.8753546,7.15422892 L64.8753546,7.80225948 L67.1552623,7.80225948 L67.1552623,10.0703665 L67.8066646,10.0703665 L67.8066646,7.80225948 L70.0865723,7.80225948 L70.0865723,7.15422892 L67.8066646,7.15422892 L67.8066646,4.88612194 L67.1552623,4.88612194 Z M76.6005944,7.15422892 L76.6005944,7.80225948 L81.8118121,7.80225948 L81.8118121,7.15422892 L76.6005944,7.15422892 Z M60,13.6345249 L68.7939297,13.6345249 C68.783833,15.5744692 70.7379745,17.8425761 73.0178823,17.7960799 L73.0178823,26.5546343 C65.9034627,26.3791476 60.1731101,20.7082969 60,13.6345249 L60,13.6345249 Z M87.674432,13.6040674 L78.2291,13.6141119 C78.0585629,13.6141443 77.9033989,13.7684728 77.9033989,13.9381272 C77.9033989,16.2223377 75.9491922,17.8424141 74.0051474,17.8364198 C73.8346103,17.8364522 73.6794789,17.9908131 73.6794463,18.1604351 L73.6996398,27.5568783 C73.6996724,27.7265327 73.8548038,27.8808936 74.0253409,27.8808936 C81.7538048,27.8621007 88.0157342,21.6167386 87.9999703,13.9280179 C87.9482815,13.6991335 87.7939969,13.6777485 87.6742692,13.6040026 L87.674432,13.6040674 Z M87.3181802,14.252098 C87.1588798,21.3270041 81.4625954,27.0120142 74.3512049,27.2025676 L74.3310114,18.433904 C76.6007573,18.4905095 78.5549639,16.2224025 78.5142513,14.2622397 L87.3181802,14.252098 Z M65.8728142,17.07709 L65.4046189,17.5327527 L67.0127681,19.1426875 L65.4046189,20.7425129 L65.8728142,21.1981756 L67.4809634,19.5983502 L69.0891127,21.1981756 L69.557308,20.7425129 L67.9491588,19.1426875 L69.557308,17.5327527 L69.0891127,17.07709 L67.4809634,18.6769155 L65.8728142,17.07709 Z M77.9033989,18.1706416 L77.9033989,18.8186722 L83.1146166,18.8186722 L83.1146166,18.1706416 L77.9033989,18.1706416 Z M77.9033989,20.7627639 L77.9033989,21.4107944 L83.1146166,21.4107944 L83.1146166,20.7627639 L77.9033989,20.7627639 Z" id="Shape"></path>
                <g id="noun_950544_cc" transform="translate(0.000000, 11.000000)">
                    <g id="Group">
                        <g id="Shape">
                            <polygon points="0.154787902 19.9643657 0.154787902 51.6636393 3.29451375 51.6636393 3.29451375 19.9643657"></polygon>
                            <polygon points="0.939719424 34.2289969 0.939719424 37.3990082 11.1438279 37.3990082 11.1438279 34.2289969"></polygon>
                            <path d="M36.3658738,12.0395174 C35.814536,12.0395174 35.3005663,12.3282557 35.0167343,12.8074894 L30.7671148,19.9646054 L26.0575261,19.9646054 L26.0575261,51.663879 L28.5655395,51.663879 C29.9916023,51.663879 31.3708843,52.1514993 32.4842305,53.0507813 L36.8993131,56.6168792 C38.0126569,57.5166405 39.3919425,58.0037816 40.8180053,58.0037816 L71.5835506,58.0037816 C72.4504235,58.0037816 73.1625192,57.2945157 73.1534139,56.4188359 L73.1534139,21.5495511 C73.1534139,20.6749495 72.4504318,19.9557395 71.5835506,19.9646054 L62.1643733,19.9646054 L57.914755,12.8074894 C57.6321737,12.3306519 57.1169462,12.0395174 56.5656143,12.0395174 L52.745196,12.0395174 L40.1862921,12.0395174 L36.3658738,12.0395174 Z M15.0684855,19.9643657 C14.2016127,19.9643657 13.4986222,20.6736316 13.4986222,21.5493115 L13.4986222,50.0786936 C13.4986222,50.9544933 14.2016044,51.6636393 15.0684855,51.6636393 L22.9178007,51.6636393 L22.9178007,19.9643657 L15.0684855,19.9643657 Z M85.7123178,24.7192029 L81.0027291,31.0591055 L76.2931393,31.0591055 L76.2931393,46.9088022 L81.0027291,46.9088022 L85.7123178,53.2485851 L90.4219064,53.2485851 C92.1559773,53.2485851 93.5616318,51.8294542 93.5616318,50.0786936 L93.5616318,27.8892141 C93.5616318,26.1384535 92.1559773,24.7192029 90.4219064,24.7192029 L85.7123178,24.7192029 Z"></path>
                            <polygon points="35.4767034 0.152244866 35.4767034 4.9072018 43.3260187 4.9072018 43.3260187 9.66203893 49.6054706 9.66203893 49.6054706 4.9072018 57.4547846 4.9072018 57.4547846 0.152244866"></polygon>
                        </g>
                    </g>
                </g>
            </g>
        </g>
    </g>
</svg>