<?xml version="1.0" encoding="UTF-8"?>
<svg width="39px" height="28px" viewBox="0 0 39 28" version="1.1" xmlns="http://www.w3.org/2000/svg" xmlns:xlink="http://www.w3.org/1999/xlink">
    <!-- Generator: Sketch 41.2 (35397) - http://www.bohemiancoding.com/sketch -->
    <title>calculated_engine</title>
    <desc>Created with Sketch.</desc>
    <defs>
        <path d="M28.7164619,8.8817842e-16 L28.7164619,4.51889076 C27.5401636,4.51151844 26.6999505,5.51456048 26.5371508,6.68691349 L22,6.68691349 C22.0859706,3.02890099 25.0415042,0.0859669599 28.7164619,8.8817842e-16 Z M29.0525472,8.8817842e-16 C32.7249843,0.0884177137 35.6695279,3.0348607 35.7584897,6.68691349 L31.2108362,6.68691349 C31.0690587,5.34738764 30.2016226,4.65127827 29.0525472,4.51889076 L29.0525472,8.8817842e-16 Z M25.6916947,2.50759256 L25.6916947,3.67780242 L24.5153964,3.67780242 L24.5153964,4.0121481 L25.6916947,4.0121481 L25.6916947,5.18235796 L26.02778,5.18235796 L26.02778,4.0121481 L27.2040783,4.0121481 L27.2040783,3.67780242 L26.02778,3.67780242 L26.02778,2.50759256 L25.6916947,2.50759256 Z M30.5649308,3.67780242 L30.5649308,4.0121481 L33.2536128,4.0121481 L33.2536128,3.67780242 L30.5649308,3.67780242 Z M22,7.02125415 L26.5371508,7.02125415 C26.5319414,8.02215136 27.5401636,9.19236123 28.7164619,9.16837192 L28.7164619,13.687271 C25.0458397,13.5967302 22.0893147,10.6709047 22,7.02125415 L22,7.02125415 Z M36.27838,7.00553991 L31.4051439,7.01072226 C31.3171568,7.01073898 31.2371013,7.0903634 31.2371013,7.1778951 C31.2371013,8.35641345 30.2288455,9.19227764 29.2258327,9.18918494 C29.1378456,9.18920166 29.0578069,9.2688428 29.0577901,9.35635778 L29.0682087,14.2043701 C29.0682256,14.2919018 29.1482643,14.3715429 29.2362514,14.3715429 C33.2236844,14.3618469 36.4544718,11.1396072 36.4463386,7.17267931 C36.4196702,7.05458842 36.3400684,7.04355501 36.2782959,7.00550647 L36.27838,7.00553991 Z M36.094575,7.33988558 C36.0123853,10.9901212 33.0734375,13.9232522 29.404378,14.0215666 L29.3939594,9.49745165 C30.5650148,9.52665675 31.5732705,8.35644689 31.5522652,7.34511809 L36.094575,7.33988558 Z M25.0300269,8.7974154 L24.7884656,9.03251056 L25.6181761,9.86314223 L24.7884656,10.6885581 L25.0300269,10.9236533 L25.8597373,10.0982374 L26.6894478,10.9236533 L26.9310091,10.6885581 L26.1012986,9.86314223 L26.9310091,9.03251056 L26.6894478,8.7974154 L25.8597373,9.62283128 L25.0300269,8.7974154 Z M31.2371013,9.36162372 L31.2371013,9.6959694 L33.9257832,9.6959694 L33.9257832,9.36162372 L31.2371013,9.36162372 Z M31.2371013,10.6990064 L31.2371013,11.0333521 L33.9257832,11.0333521 L33.9257832,10.6990064 L31.2371013,10.6990064 Z" id="path-1"></path>
        <mask id="mask-2" maskContentUnits="userSpaceOnUse" maskUnits="objectBoundingBox" x="-2" y="-2" width="18.4463539" height="18.3715429">
            <rect x="20" y="-2" width="18.4463539" height="18.3715429" fill="white"></rect>
            <use xlink:href="#path-1" fill="black"></use>
        </mask>
    </defs>
    <g id="Page-1" stroke="none" stroke-width="1" fill="none" fill-rule="evenodd">
        <g id="vehicle_diagnostic-copy-8" transform="translate(-1149.000000, -233.000000)">
            <g id="calculated_engine" transform="translate(1149.000000, 236.000000)">
                <g id="Shape">
                    <use fill="#F8B039" fill-rule="evenodd" xlink:href="#path-1"></use>
                    <use stroke="#010101" mask="url(#mask-2)" stroke-width="4" xlink:href="#path-1"></use>
                </g>
                <g id="noun_950544_cc" transform="translate(0.000000, 3.000000)" fill="#F8B039">
                    <g id="Group">
                        <g id="Shape">
                            <polygon points="0.0576337933 7.43354044 0.0576337933 19.2364615 1.22668065 19.2364615 1.22668065 7.43354044"></polygon>
                            <polygon points="0.34989553 12.7448393 0.34989553 13.9251626 4.14929763 13.9251626 4.14929763 12.7448393"></polygon>
                            <path d="M13.5404849,4.48279903 C13.3351996,4.48279903 13.1438279,4.59030798 13.0381458,4.76874606 L11.4558406,7.43362966 L9.70227036,7.43362966 L9.70227036,19.2365507 L10.6361051,19.2365507 C11.167086,19.2365507 11.6806484,19.4181114 12.0951922,19.7529505 L13.7391059,21.0807529 C14.1536488,21.4157704 14.6672126,21.5971527 15.1981935,21.5971527 L26.6534497,21.5971527 C26.9762215,21.5971527 27.2413635,21.3330644 27.2379733,21.0070134 L27.2379733,8.02376902 C27.2379733,7.69811951 26.9762246,7.43032855 26.6534497,7.43362966 L23.1463092,7.43362966 L21.5640045,4.76874606 C21.4587881,4.59120017 21.266948,4.48279903 21.0616649,4.48279903 L19.6391687,4.48279903 L14.9629811,4.48279903 L13.5404849,4.48279903 Z M5.61060631,7.43354044 C5.28783451,7.43354044 5.02608275,7.6976288 5.02608275,8.0236798 L5.02608275,18.6463221 C5.02608275,18.9724177 5.28783141,19.2364615 5.61060631,19.2364615 L8.53322368,19.2364615 L8.53322368,7.43354044 L5.61060631,7.43354044 Z M31.9141609,9.20395852 L30.1605906,11.5645606 L28.4070199,11.5645606 L28.4070199,17.4660434 L30.1605906,17.4660434 L31.9141609,19.8266008 L33.6677311,19.8266008 C34.3133958,19.8266008 34.8367778,19.298201 34.8367778,18.6463221 L34.8367778,10.3842818 C34.8367778,9.73240291 34.3133958,9.20395852 33.6677311,9.20395852 L31.9141609,9.20395852 Z"></path>
                            <polygon points="13.2094109 0.0566869182 13.2094109 1.82714961 16.1320282 1.82714961 16.1320282 3.59756769 18.470122 3.59756769 18.470122 1.82714961 21.392739 1.82714961 21.392739 0.0566869182"></polygon>
                        </g>
                    </g>
                </g>
            </g>
        </g>
    </g>
</svg>