<?xml version="1.0" encoding="UTF-8"?>
<svg width="68px" height="30px" viewBox="0 0 68 30" version="1.1" xmlns="http://www.w3.org/2000/svg" xmlns:xlink="http://www.w3.org/1999/xlink">
    <!-- Generator: Sketch 41.2 (35397) - http://www.bohemiancoding.com/sketch -->
    <title>chasis</title>
    <desc>Created with Sketch.</desc>
    <defs></defs>
    <g id="Page-1" stroke="none" stroke-width="1" fill="none" fill-rule="evenodd">
        <g id="Dashboard_d3-Copy" transform="translate(-456.000000, -138.000000)" fill="#3EB64D">
            <g id="chasis" transform="translate(456.000000, 138.000000)">
                <g id="Page-1">
                    <g>
                        <g>
                            <g id="Artboard">
                                <g id="chasis">
                                    <g id="Page-1">
                                        <g id="Dashboard_d2">
                                            <g id="Group-5">
                                                <g id="Group-7-Copy" transform="translate(0.344717, 0.000000)">
                                                    <g id="Group-6">
                                                        <g id="chasis">
                                                            <path d="M56.9791311,21.0419459 C54.7341008,21.0419459 52.8646537,22.6672754 52.5410698,24.8648793 L40.1781753,24.8648793 C39.7953124,23.5634646 38.5696159,22.6384994 37.191636,22.6384994 L28.9518358,22.6384994 C27.5738558,22.6384994 26.3505365,23.563317 25.9652964,24.8648793 L15.6036299,24.8648793 C15.3632448,22.5785863 13.4285758,20.8176404 11.0954441,20.8176404 C8.58714909,20.8176404 6.54625304,22.8459821 6.54625304,25.3410858 C6.54625304,27.8336809 8.58596056,29.860842 11.0954441,29.860842 C13.2655954,29.860842 15.097603,28.3613891 15.5360309,26.2610336 L25.8953203,26.2610336 C26.1477394,27.7436636 27.4242466,28.834054 28.9518358,28.834054 L37.191636,28.834054 C38.7205623,28.834054 39.9945438,27.7448441 40.246963,26.2610336 L52.5517669,26.2610336 C52.9127902,28.4105298 54.7751059,30 56.9777939,30 C59.4667749,30 61.4871685,27.9932034 61.4871685,25.5256951 C61.489694,23.0511036 59.468112,21.0419459 56.9791311,21.0419459 L56.9791311,21.0419459 Z M56.9791311,28.6312936 C55.2509733,28.6312936 53.8477366,27.2361723 53.8477366,25.523334 C53.8477366,23.8032649 55.2509733,22.4093241 56.9791311,22.4093241 C58.7061002,22.4093241 60.1118624,23.8031173 60.1118624,25.523334 C60.1117143,27.2363199 58.7061002,28.6312936 56.9791311,28.6312936 L56.9791311,28.6312936 Z M27.4603489,24.8636988 C27.7659559,24.3395322 28.3262106,24.0072058 28.9518358,24.0072058 L37.191636,24.0072058 C37.8135469,24.0072058 38.3751387,24.3395322 38.6819343,24.8636988 L27.4603489,24.8636988 L27.4603489,24.8636988 Z M37.1928245,27.4618059 L28.9530243,27.4618059 C28.1945782,27.4618059 27.5340393,26.9615456 27.3070254,26.2586725 L38.8401606,26.2586725 C38.6131467,26.9615456 37.9500821,27.4618059 37.1928245,27.4618059 L37.1928245,27.4618059 Z M11.0954441,22.1875273 C12.8441043,22.1875273 14.2691808,23.6018326 14.2691808,25.3399053 C14.2691808,27.0767974 12.8441043,28.488594 11.0954441,28.488594 C9.34678378,28.488594 7.92527301,27.0767974 7.92527301,25.3399053 C7.92527301,23.6005045 9.34678378,22.1875273 11.0954441,22.1875273 L11.0954441,22.1875273 Z" id="Shape"></path>
                                                            <g id="noun_782065_cc-copy" transform="translate(34.180017, 11.000000) scale(-1, 1) translate(-34.180017, -11.000000) translate(0.180017, 0.000000)">
                                                                <g id="Group">
                                                                    <g id="Shape" transform="translate(0.000000, 0.451966)">
                                                                        <path d="M66.5576003,11.4209467 L66.5576003,7.65321944 C66.5576003,7.04708306 66.118885,6.533674 65.5226129,6.44026487 C64.0916946,6.21526489 61.5551597,5.79049217 60.4155866,5.43799217 C58.7816099,4.93208307 52.4684563,2.24844671 50.2823503,1.74458307 C48.0955651,1.24071944 38.2360165,-1.44973511 28.792772,1.83662853 C27.194789,2.39231035 20.0062422,5.84231035 15.7793631,7.636174 C14.5345255,7.66344669 2.21314579,10.2420831 1.55711025,12.0093558 C0.901074707,13.7773104 0.695299587,14.6350376 0.574415192,15.083674 C0.453530796,15.5323104 0.574415192,17.6793558 1.48987679,19.1745831 C2.42299567,19.7043558 4.21928345,20.0602649 6.29605019,20.2989012 C6.27228081,20.1714012 6.24647399,20.0459467 6.230175,19.9170831 C6.19418133,19.6416286 6.17720318,19.3900376 6.17720318,19.1500376 C6.17720318,15.7784467 8.90864723,13.0348104 12.2676035,13.0348104 C15.6265598,13.0348104 18.3580039,15.7777649 18.3580039,19.1500376 C18.3580039,19.3232194 18.3464587,19.4950376 18.3335553,19.6641286 C18.3016364,20.0425376 18.2337238,20.4100376 18.1352506,20.7639012 L18.1515496,20.7639012 L48.3835145,20.1529922 C48.3699319,20.0745831 48.3522747,19.9968558 48.3420878,19.9170831 C48.3060941,19.6429922 48.289116,19.3907194 48.289116,19.1500376 C48.289116,15.7784467 51.02056,13.0354922 54.3795163,13.0354922 C57.7384726,13.0354922 60.4705958,15.7777649 60.4705958,19.1500376 C60.4705958,19.1629922 60.4692375,19.1739012 60.4685584,19.186174 L60.5975923,19.1752649 L65.7664188,18.1982194 C65.7664188,18.1982194 67.7460706,17.1400376 67.7460706,14.228674 C67.7467496,12.2868558 66.5576003,11.4209467 66.5576003,11.4209467 L66.5576003,11.4209467 Z M36.5680835,7.84890125 L25.2776168,8.19594669 C25.4854293,6.49753763 24.4837187,6.11640126 24.4837187,6.11640126 C28.9720612,2.02617399 38.0180171,1.88776489 38.0180171,1.88776489 L36.5680835,7.84890125 L36.5680835,7.84890125 Z M49.239213,7.33003762 L38.9504569,7.67708306 L39.8828966,1.88844671 C45.2004518,1.81890126 48.2381815,2.99708307 48.2381815,2.99708307 L49.757386,5.45844671 L49.239213,7.33003762 L49.239213,7.33003762 Z M55.0396266,7.29458306 L52.1730365,7.29458306 L49.3071256,3.34344671 C51.4572379,4.20253762 53.1781427,5.04935581 54.2029436,5.58458307 C54.8250229,5.90912853 55.1645857,6.60253762 55.0396266,7.29458306 L55.0396266,7.29458306 Z" id="body"></path>
                                                                    </g>
                                                                </g>
                                                            </g>
                                                        </g>
                                                    </g>
                                                </g>
                                            </g>
                                        </g>
                                    </g>
                                </g>
                            </g>
                        </g>
                    </g>
                </g>
            </g>
        </g>
    </g>
</svg>