<?xml version="1.0" encoding="UTF-8"?>
<svg width="27px" height="27px" viewBox="0 0 27 27" version="1.1" xmlns="http://www.w3.org/2000/svg" xmlns:xlink="http://www.w3.org/1999/xlink">
    <!-- Generator: Sketch 41.2 (35397) - http://www.bohemiancoding.com/sketch -->
    <title>clutch_pedal</title>
    <desc>Created with Sketch.</desc>
    <defs></defs>
    <g id="Page-1" stroke="none" stroke-width="1" fill="none" fill-rule="evenodd">
        <g id="vehicle_diagnostic-copy-8" transform="translate(-246.000000, -234.000000)">
            <g id="Group-6" transform="translate(227.000000, 234.000000)">
                <g id="clutch_pedal" transform="translate(19.000000, 0.000000)">
                    <g id="noun_457486_cc-copy" fill="#F24444">
                        <g id="Group">
                            <path d="M13.4518914,1.49465461 C20.0582648,1.49465461 25.4091283,6.84551809 25.4091283,13.4518914 C25.4091283,20.0582648 20.0582648,25.4091283 13.4518914,25.4091283 C6.84551809,25.4091283 1.49465461,20.0582648 1.49465461,13.4518914 C1.49465461,6.84551809 6.84551809,1.49465461 13.4518914,1.49465461 L13.4518914,1.49465461 Z M13.4518914,0 C6.00851151,0 0,6.00851151 0,13.4518914 C0,20.8952714 6.00851151,26.9037829 13.4518914,26.9037829 C20.8952714,26.9037829 26.9037829,20.8952714 26.9037829,13.4518914 C26.9037829,6.00851151 20.8952714,0 13.4518914,0 L13.4518914,0 Z" id="Shape"></path>
                            <path d="M17.7202228,20.2197585 C16.5842853,19.1436071 14.521662,17.14077 13.3857245,16.0945117 L13.9238001,15.5564361 C13.3259383,14.9884673 13.893907,15.2276121 13.1465797,14.9585742 C11.4127804,14.3308193 10.1871636,13.1052025 9.05122613,11.7899065 C7.82560935,10.3849312 6.21138238,9.72728313 5.31458961,8.05326997 C5.13523106,7.69455287 5.16512415,7.60487359 5.58362744,7.45540813 C6.21138238,7.24615649 7.04838896,7.03690484 7.55657152,7.12658412 C8.06475409,7.21626339 8.84197448,7.72444596 9.46972942,7.90380451 C9.9181258,8.02337688 14.6412344,9.54792458 16.2255682,9.72728313 C16.4348199,9.75717622 16.5244992,9.81696241 16.5543922,10.0262141 C16.6141784,10.325145 16.8533232,10.982793 17.0326817,11.2219377 C17.7501159,12.1187305 18.0490469,12.9856302 19.6333807,14.0019953 C20.1714564,14.3308193 20.8291044,15.0781466 21.4269663,15.2873983 C21.3073939,16.1244048 20.9785699,16.9315183 20.380708,17.6190594 C19.6034876,18.4859591 18.6469087,19.3229657 17.7202228,20.2197585 Z" id="Shape"></path>
                        </g>
                    </g>
                    <g id="Group-11-Copy" transform="translate(4.263158, 10.338673)" fill="#F24444">
                        <polyline id="Path-2" transform="translate(3.923902, 4.219809) rotate(-7.000000) translate(-3.923902, -4.219809) " points="0.574160471 1.19193854 1.58830375 0.386565539 7.27364309 7.20928875 6.17297168 8.0530531"></polyline>
                        <polyline id="Path-2-Copy" transform="translate(2.208778, 5.713540) rotate(-7.000000) translate(-2.208778, -5.713540) " points="3.28535837 3.65397919 4.15951258 4.60947209 1.17653042 7.77309991 0.25804248 6.73396771"></polyline>
                    </g>
                    <path d="M5.92105263,22.9736842 L20.8421053,3.31578947" id="Line" stroke="#F24444" stroke-width="4" stroke-linecap="square"></path>
                </g>
            </g>
        </g>
    </g>
</svg>