<?xml version="1.0" encoding="UTF-8"?>
<svg width="20px" height="35px" viewBox="0 0 20 35" version="1.1" xmlns="http://www.w3.org/2000/svg" xmlns:xlink="http://www.w3.org/1999/xlink">
    <!-- Generator: Sketch 41.2 (35397) - http://www.bohemiancoding.com/sketch -->
    <title>coolant</title>
    <desc>Created with Sketch.</desc>
    <defs></defs>
    <g id="Page-1" stroke="none" stroke-width="1" fill="none" fill-rule="evenodd">
        <g id="Dashboard_d3-Copy" transform="translate(-183.000000, -518.000000)" fill="#F24444">
            <path d="M202.856812,522.453258 L202.856812,523.944911 L197.112927,523.944911 L197.112927,522.453258 L202.856812,522.453258 Z M200.448112,525.704166 L197.112927,525.704166 L197.112927,527.195819 L200.448112,527.195819 L200.448112,525.704166 Z M197.112927,530.446727 L202.856812,530.446727 L202.856812,528.95519 L197.112927,528.95519 L197.112927,530.446727 Z M200.448112,532.20691 L197.112927,532.20691 L197.112927,533.698563 L200.448112,533.698563 L200.448112,532.20691 Z M197.112927,536.94947 L202.856812,536.94947 L202.856812,535.457817 L197.112927,535.457817 L197.112927,536.94947 Z M198.008276,545.448666 C198.008276,549.612506 194.641954,553 190.504138,553 C186.366322,553 183,549.612506 183,545.448666 C183,542.750369 184.408179,540.298089 186.70571,538.941513 L186.70571,521.822317 C186.705825,519.714577 188.409686,518 190.504138,518 C192.598589,518 194.302566,519.714577 194.302566,521.822317 L194.302566,538.941629 C196.600097,540.296696 198.008276,542.749673 198.008276,545.448666 Z M196.525946,545.448666 C196.525946,543.159082 195.261571,541.089405 193.225587,540.049054 L192.820235,539.84168 L192.820235,521.823014 C192.820235,520.537226 191.781197,519.492349 190.504138,519.492349 C189.227194,519.492349 188.18804,520.537226 188.18804,521.823014 L188.18804,539.84168 L187.782689,540.049054 C185.746705,541.090217 184.48233,543.159779 184.48233,545.448666 C184.48233,548.789858 187.183829,551.508347 190.504138,551.508347 C193.824447,551.508347 196.525946,548.789858 196.525946,545.448666 Z M195.291209,545.448666 C195.291209,548.104491 193.144056,550.265148 190.504138,550.265148 C187.864912,550.265148 185.717759,548.104491 185.717759,545.448666 C185.717759,543.271647 187.179332,541.36014 189.272284,540.800103 L189.547208,540.726298 L189.547208,524.146947 L191.461644,524.146947 L191.461644,540.725485 L191.736568,540.800103 C193.830443,541.36014 195.291209,543.272459 195.291209,545.448666 Z M190.741352,542.238027 C190.627185,541.727889 190.117353,541.392285 189.597718,541.51158 C187.78338,541.924703 186.516008,543.521493 186.516008,545.395053 C186.516008,545.925266 186.945116,546.357189 187.47213,546.357189 C187.999145,546.357189 188.428253,545.925383 188.428253,545.395053 C188.428253,544.442665 189.096766,543.598432 190.019446,543.388853 C190.532276,543.270138 190.856903,542.754082 190.741352,542.238027 Z" id="coolant"></path>
        </g>
    </g>
</svg>