<?xml version="1.0" encoding="UTF-8"?>
<svg width="70px" height="71px" viewBox="0 0 70 71" version="1.1" xmlns="http://www.w3.org/2000/svg" xmlns:xlink="http://www.w3.org/1999/xlink">
    <!-- Generator: Sketch 41.2 (35397) - http://www.bohemiancoding.com/sketch -->
    <title>cruise_control</title>
    <desc>Created with Sketch.</desc>
    <defs></defs>
    <g id="Page-1" stroke="none" stroke-width="1" fill="none" fill-rule="evenodd">
        <g id="vehicle_diagnostic" transform="translate(-907.000000, -583.000000)">
            <g id="cruise_control" transform="translate(907.000000, 583.000000)">
                <ellipse id="Oval-3" fill="#3EB64D" cx="38.5576536" cy="39.6313553" rx="31.3924333" ry="31.2919157"></ellipse>
                <path d="M38.5444065,10.8369025 C22.5848021,10.8369025 9.64912281,23.7311621 9.64912281,39.6396643 C9.64912281,55.5481665 22.5848021,68.4424261 38.5444065,68.4424261 C54.5040108,68.4424261 67.4396901,55.5481665 67.4396901,39.6396643 C67.5236881,23.7311621 54.5880087,10.8369025 38.5444065,10.8369025 Z M57.4439379,55.5481665 L53.7480296,51.8640923 L50.8081024,54.7946058 L54.5040108,58.47868 C50.7241045,61.7441094 45.9362232,63.8373334 40.6443544,64.2559782 L40.6443544,58.9810538 L36.4444585,58.9810538 L36.4444585,64.2559782 C31.2365876,63.8373334 26.4487063,61.7441094 22.5848021,58.562409 L26.2807105,54.8783348 L23.3407834,51.9478212 L19.644875,55.5481665 C16.4529541,51.7803633 14.3530062,47.0078127 13.9330166,41.7328883 L19.2248854,41.7328883 L19.2248854,37.5464403 L13.9330166,37.5464403 C14.3530062,32.3552449 16.4529541,27.5826942 19.644875,23.7311621 L23.3407834,27.4152363 L26.2807105,24.4847228 L22.5848021,20.8006486 C26.3647084,17.6189481 31.1525897,15.5257242 36.4444585,15.1070794 L36.4444585,20.3820038 L40.6443544,20.3820038 L40.6443544,15.1070794 C45.8522253,15.5257242 50.6401066,17.6189481 54.5040108,20.8006486 L50.8081024,24.4847228 L53.7480296,27.4152363 L57.4439379,23.7311621 C60.6358588,27.4989653 62.7358067,32.2715159 63.1557963,37.5464403 L57.8639275,37.5464403 L57.8639275,41.7328883 L63.1557963,41.7328883 C62.7358067,47.0078127 60.7198567,51.7803633 57.4439379,55.5481665 Z" id="Shape" fill="#202634"></path>
                <polygon id="Shape" fill="#3EB64D" points="16.2557629 16.4851449 16.2557629 4.58201916 13.8110747 7.01887956 7.41727476 0.551826966 0.271263055 7.67495736 6.75908948 14.0482845 4.31440126 16.4851449"></polygon>
                <path d="M39.3862745,36.9172821 L39.1041951,36.9172821 L29.8896011,27.7321929 L26.5986746,31.0125819 L35.8132687,40.1976711 L35.8132687,40.4788473 C35.8132687,42.4470807 37.4117187,44.1341379 39.480301,44.1341379 C41.4548569,44.1341379 43.1473333,42.5408061 43.1473333,40.4788473 C43.0533068,38.5106139 41.4548569,36.9172821 39.3862745,36.9172821 Z" id="Shape" fill="#202634"></path>
            </g>
        </g>
    </g>
</svg>