<?xml version="1.0" encoding="UTF-8"?>
<svg width="86px" height="62px" viewBox="0 0 86 62" version="1.1" xmlns="http://www.w3.org/2000/svg" xmlns:xlink="http://www.w3.org/1999/xlink">
    <!-- Generator: Sketch 41.2 (35397) - http://www.bohemiancoding.com/sketch -->
    <title>distance_travel_since</title>
    <desc>Created with Sketch.</desc>
    <defs></defs>
    <g id="Page-1" stroke="none" stroke-width="1" fill="none" fill-rule="evenodd">
        <g id="vehicle_diagnostic" transform="translate(-497.000000, -789.000000)" fill="#F24444">
            <g id="distance_travel_since" transform="translate(497.000000, 789.000000)">
                <g id="distance-to-travel-between-two-points" transform="translate(49.961128, 0.000000)">
                    <g id="Capa_1">
                        <g id="Group">
                            <path d="M29.6290054,0 C26.5026269,0 23.9590013,2.53749183 23.9590013,5.65648693 C23.9590013,6.57053105 24.1777081,7.4344281 24.5652369,8.19942402 L29.6290054,18.6172222 L34.6935356,8.19777778 C35.0805566,7.4332884 35.2990096,6.56989788 35.2990096,5.65661356 C35.2990096,2.53749183 32.755257,0 29.6290054,0 Z M29.6290054,8.78687908 C27.8987713,8.78687908 26.4912029,7.3826348 26.4912029,5.65648693 C26.4912029,3.93046569 27.8987713,2.52609477 29.6290054,2.52609477 C31.3589857,2.52609477 32.7666811,3.93046569 32.7666811,5.65648693 C32.7666811,7.3826348 31.3589857,8.78687908 29.6290054,8.78687908 Z" id="Shape"></path>
                            <path d="M24.6906475,36.6968832 C24.4606435,35.6175817 24.1618414,34.5599346 23.7854828,33.5215359 C23.281048,32.1302083 22.6760817,30.7705392 22.2126466,29.3633824 C21.3465775,26.7330678 22.8407148,24.5379943 23.1214923,24.1389706 C23.6134876,23.4403309 24.1887514,22.799183 24.7957486,22.1986846 C25.9644277,21.0427696 27.2533132,20.0094363 28.6017305,19.0577819 C28.4346857,18.7995752 28.2728451,18.5385825 28.1187475,18.2727778 C26.1793266,19.0313154 16.2055063,22.5089379 16.4487114,30.1916953 C16.497454,31.7318178 17.0939157,33.1976062 17.4615159,34.6904943 C17.6385885,35.409902 17.7921783,36.1356413 17.8861093,36.8708783 C17.9266012,37.2018995 17.9514802,37.5348203 17.978644,37.8674877 C17.9794056,37.8649551 17.9791518,37.8631822 17.9776286,37.8617892 C17.9785171,37.8714134 18.0032692,38.9161438 17.9568114,39.3687337 C17.8112184,40.7856413 17.6015238,42.2172386 17.0027773,43.5170098 C16.4459189,44.7254779 15.6057443,45.7764134 14.5665376,46.6071324 C12.1908453,48.5058824 9.04314194,49.2649265 6.07301886,49.5701144 C5.93161465,49.5849306 5.79021044,49.597594 5.64880623,49.6098775 L0.345640631,60.5196487 C2.96225318,60.3574306 5.57213824,60.0001961 8.11842949,59.3750041 C11.1149548,58.639134 14.0351929,57.5276675 16.6518054,55.8801593 C19.2661332,54.234424 21.514384,52.0079453 23.0110599,49.2972181 C24.5767879,46.4617565 25.2040945,43.2139747 25.0705602,39.9956985 C25.0252448,38.8963889 24.9206514,37.7758047 24.6906475,36.6968832 Z" id="Shape"></path>
                        </g>
                    </g>
                </g>
                <path d="M55.0741908,23.5262765 L42.0209863,14.8723364 C41.4412212,14.4935349 40.7270015,14.4935349 40.1444899,14.8723364 L28.0231043,22.9009338 L15.8998462,14.8723364 C15.3202059,14.4935349 14.5959989,14.4935349 14.0194796,14.8723364 L0.916837863,23.5262765 C0.367658974,23.8894383 0,24.5449522 0,25.2564981 L0,59.8572345 C0,60.584297 0.383264194,61.2545885 0.956662383,61.6146717 C1.5334313,61.9689668 2.2527695,61.9630558 2.81730393,61.5872098 L14.9504246,53.5583661 L27.0826714,61.5872098 C27.665183,61.9689668 28.3860193,61.9689668 28.9657844,61.5872098 L41.0951599,53.5583661 L53.2236614,61.5872098 C53.5121707,61.7780883 53.8368841,61.8769757 54.1647186,61.8769757 C54.4712051,61.8769757 54.7525984,61.7849846 55.0347408,61.6146717 C55.6082638,61.2545885 55.9292319,60.5844202 55.9292319,59.8572345 L55.9292319,25.2564981 C55.9291071,24.5449522 55.6263658,23.8894383 55.0741908,23.5262765 Z M12.858701,50.2083862 L3.99493622,56.2923624 L3.99493622,26.5214686 L12.858701,20.4345369 L12.858701,50.2083862 Z M16.8536372,50.1490292 L16.8536372,35.0388382 C16.9993275,35.1319377 17.1420216,35.2267612 17.2767259,35.3222005 L18.441874,33.7217763 C17.9544918,33.3764709 17.4066862,33.0443422 16.8536372,32.7729253 L16.8536372,20.3751798 L25.9670854,26.4084193 L25.9670854,39.7790295 C25.2964355,39.550591 24.6455106,39.2408752 23.9829754,38.8330108 L22.9254409,40.5046142 C23.7803572,41.0308232 24.6259104,41.4241561 25.5101646,41.707149 L25.9670854,40.317307 L25.9670854,56.1794362 L16.8536372,50.1490292 Z M29.9620217,56.1793131 L29.9620217,42.2187034 C30.0055914,42.2161173 30.048537,42.215009 30.0922316,42.2120535 C30.4555211,42.1876703 30.8134424,42.1483862 31.1556337,42.095556 L30.846151,40.1489644 C30.5630099,40.1926817 30.2656368,40.2251927 29.9620217,40.2457583 L29.9620217,26.4084193 L39.0754699,20.3751798 L39.0754699,35.003618 L38.4707364,34.4652174 C38.0965857,34.8739438 37.7425345,35.2749118 37.4002184,35.6628263 C37.1747542,35.9181109 36.9535346,36.168716 36.7336882,36.4134099 L38.2285434,37.7203737 C38.452135,37.4714927 38.6773496,37.2165775 38.906559,36.9568596 C38.9618639,36.8941775 39.0195408,36.829402 39.0755948,36.7661042 L39.0755948,50.1491523 L29.9620217,56.1793131 Z M51.9341709,56.169215 L43.0704061,50.2041992 L43.0704061,33.3440831 C43.5429322,33.1328853 44.029066,32.975626 44.5234393,32.877108 L44.1281903,30.9457867 C43.7713926,31.0168428 43.4182153,31.1106811 43.0704061,31.226686 L43.0704061,20.4302267 L51.9341709,26.3980749 L51.9341709,56.169215 Z" id="Shape"></path>
                <path d="M12.1452303,33.9360529 C12.4221293,33.7888917 11.9763194,33.804162 12.2715702,33.709831 L11.65635,31.8352807 C11.2466194,31.9660633 10.8446289,32.1356373 10.4614895,32.3393231 C9.98409467,32.5932532 9.49459014,32.944716 9.04590887,33.355659 L10.4051859,34.7994396 C10.731772,34.5004376 11.814899,34.1117843 12.1452303,33.9360529 Z" id="Shape"></path>
                <path d="M33.0583469,39.4796581 L33.9303666,41.2523655 C34.7538228,40.8581705 35.5335844,40.3355328 36.3142199,39.6546506 L34.9910222,38.1784822 C34.3483368,38.7390494 33.7161381,39.1646469 33.0583469,39.4796581 Z" id="Shape"></path>
                <path d="M8.40984011,38.2332828 C8.64616556,37.5035111 8.85028183,36.8732425 9.299837,36.2254869 L7.65142644,35.1126035 C7.03670563,35.9985262 6.76742196,36.8297714 6.50700205,37.6335548 L6.47679035,37.7269005 L8.37912904,38.3277369 L8.40984011,38.2332828 Z" id="Shape"></path>
                <path d="M20.7625574,35.9854726 C20.6368418,35.8372031 20.5111261,35.6889335 20.3840372,35.5417723 L18.8637143,36.8199196 C18.9868083,36.9622781 19.108529,37.105868 19.2302497,37.2494579 C19.6788061,37.7784993 20.1425933,38.3256434 20.6796625,38.8268535 L22.0524225,37.3953876 C21.6001208,36.9733613 21.1932615,36.4934558 20.7625574,35.9854726 Z" id="Shape"></path>
                <polygon id="Shape" points="46.9599759 34.9884709 48.2513391 33.7147569 49.5427022 34.9884709 50.9549121 33.5950576 49.6637987 32.3214668 50.9549121 31.0477528 49.5427022 29.6543395 48.2513391 30.9280535 46.9599759 29.6543395 45.547766 31.0477528 46.8388794 32.3214668 45.547766 33.5950576"></polygon>
            </g>
        </g>
    </g>
</svg>