<?xml version="1.0" encoding="UTF-8"?>
<svg width="37px" height="28px" viewBox="0 0 37 28" version="1.1" xmlns="http://www.w3.org/2000/svg" xmlns:xlink="http://www.w3.org/1999/xlink">
    <!-- Generator: Sketch 41.2 (35397) - http://www.bohemiancoding.com/sketch -->
    <title>distance</title>
    <desc>Created with Sketch.</desc>
    <defs></defs>
    <g id="Page-1" stroke="none" stroke-width="1" fill="none" fill-rule="evenodd">
        <g id="vehicle_diagnostic-copy-8" transform="translate(-1148.000000, -349.000000)" fill="#F24444">
            <g id="distance" transform="translate(1148.000000, 349.000000)">
                <g id="Group-2" transform="translate(0.659574, 0.000000)">
                    <g id="distance-to-travel-between-two-points" transform="translate(20.728553, 0.000000)">
                        <g id="Capa_1">
                            <g id="Group">
                                <path d="M12.2928852,0 C10.9957707,0 9.94043669,1.14596405 9.94043669,2.55454248 C9.94043669,2.9673366 10.0311768,3.35748366 10.19196,3.70296569 L12.2928852,8.40777778 L14.3941265,3.70222222 C14.554699,3.35696895 14.6453338,2.96705065 14.6453338,2.55459967 C14.6453338,1.14596405 13.5899471,0 12.2928852,0 Z M12.2928852,3.96826797 C11.5750221,3.96826797 10.991031,3.33409314 10.991031,2.55454248 C10.991031,1.77504902 11.5750221,1.14081699 12.2928852,1.14081699 C13.010643,1.14081699 13.5946868,1.77504902 13.5946868,2.55454248 C13.5946868,3.33409314 13.010643,3.96826797 12.2928852,3.96826797 Z" id="Shape"></path>
                                <path d="M10.243992,16.5727859 C10.1485648,16.0853595 10.0245938,15.6077124 9.86844499,15.1387582 C9.65915823,14.5104167 9.40816157,13.8963725 9.21588528,13.2608824 C8.85655876,12.0729984 9.47646679,11.0816748 9.59295957,10.9014706 C9.79708526,10.5859559 10.0357585,10.2964052 10.2875978,10.0252124 C10.7724753,9.50318627 11.3072257,9.03651961 11.8666754,8.6067402 C11.7973696,8.49013072 11.730223,8.37226307 11.6662889,8.25222222 C10.8616355,8.59478758 6.72356114,10.1653268 6.82446538,13.6349592 C6.84468836,14.3304984 7.09215653,14.9924673 7.24467149,15.6666748 C7.31813778,15.9915686 7.38186123,16.3193219 7.42083259,16.6513644 C7.43763241,16.8008578 7.44795456,16.9512092 7.45922466,17.1014461 C7.45954064,17.1003023 7.45943531,17.0995016 7.45880334,17.0988725 C7.45917199,17.103219 7.46944147,17.5750327 7.45016645,17.7794281 C7.38976083,18.4193219 7.30275989,19.0658497 7.05434377,19.6528431 C6.82330677,20.1986029 6.4747237,20.673219 6.04356348,21.0483824 C5.05790392,21.9058824 3.75194187,22.2486765 2.51965676,22.3865033 C2.46098906,22.3931944 2.40232135,22.3989134 2.34365365,22.4044608 L0.143404092,27.3314542 C1.22901994,27.2581944 2.31184459,27.0968627 3.36828457,26.814518 C4.61152379,26.4821895 5.82311194,25.9802369 6.90872779,25.236201 C7.99339568,24.4929657 8.92618058,23.4874592 9.54714189,22.2632598 C10.1967524,20.9827288 10.4570179,19.5159886 10.4016154,18.0625735 C10.3828144,17.5661111 10.3394192,17.0600408 10.243992,16.5727859 Z" id="Shape"></path>
                            </g>
                        </g>
                    </g>
                    <path d="M22.8499302,10.6247701 L17.434239,6.71653904 C17.1936982,6.54546738 16.897373,6.54546738 16.6556926,6.71653904 L11.6266071,10.3423572 L6.59674468,6.71653904 C6.35625563,6.54546738 6.05578676,6.54546738 5.81659261,6.71653904 L0.380390177,10.6247701 C0.152539362,10.7887786 0,11.0848171 0,11.4061604 L0,27.0322995 C0,27.3606503 0.159013868,27.6633626 0.396913116,27.8259807 C0.636210859,27.985985 0.934659688,27.9833155 1.16888142,27.8135786 L6.20283574,24.1876492 L11.2364275,27.8135786 C11.4781078,27.985985 11.7771782,27.985985 12.0177191,27.8135786 L17.0501195,24.1876492 L22.0821574,27.8135786 C22.2018581,27.8997818 22.3365796,27.9444406 22.472596,27.9444406 C22.5997553,27.9444406 22.7165036,27.9028963 22.8335627,27.8259807 C23.0715137,27.6633626 23.2046813,27.3607059 23.2046813,27.0322995 L23.2046813,11.4061604 C23.2046295,11.0848171 23.0790241,10.7887786 22.8499302,10.6247701 Z M5.33499295,22.6747551 L1.65747354,25.4223572 L1.65747354,11.9774374 L5.33499295,9.22850053 L5.33499295,22.6747551 Z M6.99246649,22.6479487 L6.99246649,15.8239914 C7.05291248,15.8660364 7.11211536,15.9088599 7.1680033,15.9519615 L7.65141582,15.2291893 C7.44920404,15.0732449 7.22192298,14.9232513 6.99246649,14.8006759 L6.99246649,9.20169412 L10.773578,11.9263829 L10.773578,17.964723 C10.4953296,17.8615572 10.225265,17.7216856 9.95038341,17.5374888 L9.51161909,18.2924064 C9.86631842,18.5300492 10.2171331,18.7076834 10.5840045,18.8354866 L10.773578,18.207816 L10.773578,25.3713583 L6.99246649,22.6479487 Z M12.4310515,25.3713027 L12.4310515,19.0665112 C12.4491284,19.0653433 12.4669462,19.0648428 12.4850748,19.063508 C12.6358013,19.0524963 12.7843006,19.0347551 12.9262736,19.0108963 L12.7978712,18.1317904 C12.6803977,18.1515337 12.5570195,18.166216 12.4310515,18.1755037 L12.4310515,11.9263829 L16.2121631,9.20169412 L16.2121631,15.8080856 L15.961263,15.5649369 C15.8060302,15.749523 15.6591366,15.9306053 15.5171119,16.1057925 C15.4235682,16.2210824 15.3317856,16.3342588 15.2405728,16.4447658 L15.8607787,17.0350075 C15.9535454,16.9226096 16.0469855,16.8074866 16.142083,16.6901947 C16.1650286,16.6618866 16.1889584,16.6326332 16.2122148,16.6040471 L16.2122148,22.6480043 L12.4310515,25.3713027 Z M21.547156,25.3667422 L17.8696366,22.6728642 L17.8696366,15.0586182 C18.0656846,14.9632385 18.2673784,14.8922182 18.4724908,14.8477262 L18.3085045,13.9755166 C18.1604714,14.0076064 18.0139404,14.049985 17.8696366,14.1023743 L17.8696366,9.22655401 L21.547156,11.9217112 L21.547156,25.3667422 Z" id="Shape"></path>
                    <path d="M5.03897854,15.3259594 C5.15386217,15.2594995 4.96889849,15.2663957 5.09139614,15.2237947 L4.83614521,14.3772235 C4.66615058,14.4362866 4.49936731,14.5128684 4.34040524,14.6048556 C4.14233715,14.7195337 3.93924485,14.8782588 3.75308985,15.063846 L4.31704522,15.7158759 C4.45254368,15.5808428 4.90192619,15.4053219 5.03897854,15.3259594 Z" id="Shape"></path>
                    <path d="M13.7156971,17.829523 L14.0774925,18.6301005 C14.4191393,18.452077 14.7426574,18.2160471 15.0665381,17.9085519 L14.5175517,17.2418952 C14.2509057,17.4950545 13.9886105,17.6872599 13.7156971,17.829523 Z" id="Shape"></path>
                    <path d="M3.48918898,17.2666439 C3.5872389,16.9370695 3.67192544,16.6524321 3.85844301,16.3598973 L3.17452799,15.8573048 C2.91948425,16.2573989 2.80776017,16.6328 2.69971362,16.9957989 L2.68717897,17.0379551 L3.47644716,17.3093005 L3.48918898,17.2666439 Z" id="Shape"></path>
                    <path d="M8.61425255,16.2515037 C8.56209393,16.1845433 8.50993531,16.1175829 8.45720694,16.051123 L7.82643466,16.6283508 C7.87750557,16.6926417 7.92800671,16.7574888 7.97850786,16.8223358 C8.16461106,17.0612578 8.35703338,17.3083551 8.57985998,17.534708 L9.14940932,16.8882396 C8.96175224,16.6976471 8.79294892,16.4809155 8.61425255,16.2515037 Z" id="Shape"></path>
                    <polygon id="Shape" points="19.4833943 15.8012449 20.0191726 15.2260193 20.5549509 15.8012449 21.1408678 15.1719615 20.6051931 14.5967914 21.1408678 14.0215658 20.5549509 13.3922824 20.0191726 13.967508 19.4833943 13.3922824 18.8974774 14.0215658 19.4331521 14.5967914 18.8974774 15.1719615"></polygon>
                </g>
            </g>
        </g>
    </g>
</svg>