<?xml version="1.0" encoding="UTF-8"?>
<svg width="36px" height="34px" viewBox="0 0 36 34" version="1.1" xmlns="http://www.w3.org/2000/svg" xmlns:xlink="http://www.w3.org/1999/xlink">
    <!-- Generator: Sketch 41.2 (35397) - http://www.bohemiancoding.com/sketch -->
    <title>distance_indicator</title>
    <desc>Created with Sketch.</desc>
    <defs></defs>
    <g id="Page-1" stroke="none" stroke-width="1" fill="none" fill-rule="evenodd">
        <g id="vehicle_diagnostic-copy-8" transform="translate(-95.000000, -471.000000)" fill="#F24444">
            <g id="distance_indicator" transform="translate(96.000000, 472.000000)">
                <g id="distance-to-travel-between-two-points">
                    <g id="Capa_1">
                        <g id="Group">
                            <g id="Group-2">
                                <path d="M22.4387674,20.4898895 C22.4387674,17.5239026 20.0342187,15.110917 17.0785417,15.110917 C14.1229253,15.110917 11.7184375,17.5239026 11.7184375,20.4898895 C11.7184375,21.359057 11.9250955,22.1806014 12.2915017,22.9078752 L17.0785417,32.8143971 L21.8664323,22.9063508 C22.2322917,22.1793819 22.4387674,21.3583863 22.4387674,20.4898895 Z M17.0785417,23.4666084 C15.4429601,23.4666084 14.1122309,22.13121 14.1122309,20.4898895 C14.1122309,18.848569 15.4429601,17.5131706 17.0785417,17.5131706 C18.714184,17.5131706 20.0448524,18.848569 20.0448524,20.4898895 C20.0448524,22.13121 18.714184,23.4666084 17.0785417,23.4666084 Z" id="Shape"></path>
                                <path d="M32.266901,3.5122807 C30.7702865,3.5122807 29.5526389,4.73413974 29.5526389,6.2360056 C29.5526389,6.67613828 29.6573351,7.09212403 29.8428472,7.46048666 L32.266901,12.4768894 L34.6913194,7.45969396 C34.8765885,7.09157523 34.9811632,6.67583339 34.9811632,6.23606658 C34.9811632,4.73413974 33.7634549,3.5122807 32.266901,3.5122807 Z M32.266901,7.74335941 C31.4386285,7.74335941 30.7648177,7.06718439 30.7648177,6.2360056 C30.7648177,5.40488779 31.4386285,4.7286518 32.266901,4.7286518 C33.0950521,4.7286518 33.7689236,5.40488779 33.7689236,6.2360056 C33.7689236,7.06718439 33.0950521,7.74335941 32.266901,7.74335941 Z" id="Shape"></path>
                                <path d="M29.9028819,21.1826503 C29.7927778,20.6629425 29.6497396,20.1536618 29.4695747,19.6536496 C29.228099,18.9836943 28.9384983,18.3289832 28.7166493,17.6514057 C28.3020573,16.3848505 29.017309,15.3278735 29.1517187,15.1357346 C29.3872396,14.799324 29.6626215,14.490597 29.9531944,14.2014436 C30.5126476,13.6448447 31.1296441,13.1472716 31.7751389,12.6890287 C31.6951736,12.5646964 31.6176997,12.4390226 31.5439323,12.3110317 C30.6155208,12.6762845 25.8409983,14.3508375 25.9574219,18.0502569 C25.9807552,18.7918603 26.2662847,19.4976702 26.4422569,20.2165292 C26.5270226,20.5629401 26.6005469,20.9123998 26.6455122,21.2664328 C26.6648958,21.4258269 26.6768056,21.5861357 26.689809,21.7463226 C26.6901736,21.745103 26.6900521,21.7442493 26.6893229,21.7435786 C26.6897483,21.7482128 26.7015972,22.2512739 26.6793576,22.469206 C26.6096615,23.1514787 26.5092795,23.8408248 26.2226562,24.4666937 C25.9560851,25.0485981 25.5538889,25.5546471 25.0564149,25.9546568 C23.919158,26.8689474 22.4123351,27.2344441 20.9905208,27.3813989 C20.9228299,27.3885332 20.8551389,27.3946309 20.7874479,27.4005457 L18.2487934,32.6538444 C19.5013802,32.5757328 20.7507465,32.4037164 21.9696701,32.1026725 C23.4041233,31.7483346 24.8020573,31.2131386 26.0546441,30.4198266 C27.3061372,29.6273682 28.3823872,28.5552689 29.0988542,27.2499932 C29.8483767,25.8846551 30.1486719,24.3207755 30.0847483,22.7711036 C30.0630556,22.2417615 30.0129861,21.7021751 29.9028819,21.1826503 Z" id="Shape"></path>
                                <path d="M17.9063886,2.5773823 C15.5323225,2.5773823 13.5489536,4.32036295 13.5489536,6.52324297 C13.5489536,8.72630937 15.5323383,10.4691036 17.9063886,10.4691036 C18.3077893,10.4691036 18.6765193,10.2935382 18.9477517,10.0375333 C19.2189855,9.78145379 19.414777,9.45194248 19.5663638,9.08381424 C19.8695367,8.34759502 20.0026892,7.43689136 20.0026892,6.52324297 C20.0026892,5.60966914 19.8695375,4.70082923 19.5663638,3.96464729 C19.4147774,3.59636994 19.2189822,3.26700773 18.9477517,3.01092824 C18.6765178,2.75484875 18.3077893,2.5773823 17.9063886,2.5773823 L17.9063886,2.5773823 Z M17.9063886,3.56382883 C18.038137,3.56382883 18.136513,3.60445862 18.265147,3.72560249 C18.3937773,3.8471191 18.5321897,4.0573503 18.6471749,4.33631666 C18.8771493,4.89484579 19.0098095,5.71046083 19.0098095,6.52313115 C19.0098095,7.33587601 18.8771493,8.15335481 18.6471749,8.71188394 C18.532184,8.99107395 18.3937792,9.20119332 18.265147,9.32263539 C18.1365167,9.444152 18.0381407,9.48254529 17.9063886,9.48254529 C16.0152469,9.48254529 14.541836,8.13385997 14.541836,6.52316842 C14.541836,4.91266326 16.0152615,3.56375428 17.9063886,3.56375428 L17.9063886,3.56382883 Z" id="Shape" stroke="#F24444"></path>
                                <path d="M7.20575352,2.5773823 C6.80435319,2.5773823 6.43562318,2.75481147 6.16439118,3.01092824 C5.8931573,3.26700773 5.69736581,3.59648176 5.54577861,3.96464729 C5.24260573,4.70082923 5.10945326,5.60966914 5.10945326,6.52324297 C5.10945326,7.43689136 5.24260498,8.34759502 5.54577861,9.08381424 C5.69736506,9.45209158 5.8931603,9.78145379 6.16439118,10.0375333 C6.43562506,10.2936128 6.80435319,10.4691036 7.20575352,10.4691036 C9.57980378,10.4691036 11.5631889,8.72630937 11.5631889,6.52324297 C11.5631889,4.32036295 9.57981992,2.5773823 7.20575352,2.5773823 L7.20575352,2.5773823 Z M7.20575352,3.56382883 C9.09688095,3.56382883 10.5703069,4.91273781 10.5703069,6.52324297 C10.5703069,8.13393452 9.09689596,9.48261984 7.20575352,9.48261984 C7.07400513,9.48261984 6.9756291,9.44422655 6.84699506,9.32270994 C6.71836478,9.20119332 6.57995618,8.99133487 6.46496826,8.71195849 C6.23499393,8.15342936 6.10233375,7.33595056 6.10233375,6.5232057 C6.10233375,5.71053538 6.23499393,4.89492034 6.46496826,4.33639121 C6.57995543,4.0572012 6.71836403,3.8471191 6.84699506,3.72567704 C6.97562535,3.60416042 7.07400138,3.56390338 7.20575352,3.56390338 L7.20575352,3.56382883 Z" id="Shape" stroke="#F24444"></path>
                                <path d="M22.9871538,0.11119143 C22.8748673,0.109998398 22.76549,0.146659147 22.6768779,0.215188778 L20.7027488,1.68524161 C20.5593017,1.79074577 20.4837714,1.96454156 20.5048434,2.14062355 C20.5259154,2.31670554 20.640357,2.46805991 20.8047046,2.53720419 C20.9690522,2.60634847 21.1580924,2.58267481 21.30003,2.47517416 L23.2741594,1.00318302 C23.4472177,0.878021824 23.5200553,0.656753814 23.4548815,0.454180817 C23.3897076,0.251607819 23.2011967,0.113340479 22.9871549,0.11111688 L22.9871538,0.11119143 Z" id="Shape" stroke="#F24444"></path>
                                <path d="M20.9742405,10.4710792 C20.7641006,10.4806538 20.5828426,10.6207629 20.5218335,10.8207817 C20.4608243,11.0208004 20.5333081,11.2373083 20.7027477,11.3611698 L22.6768768,12.8331609 C22.818909,12.9391657 23.0070728,12.9618344 23.1704886,12.892628 C23.3339045,12.8234216 23.4477457,12.6728542 23.4691294,12.497643 C23.4905131,12.3224319 23.4161905,12.1491958 23.2741583,12.0431911 L21.3000288,10.5731755 C21.2070117,10.5019147 21.0915781,10.4657266 20.9742413,10.4710419 L20.9742405,10.4710792 Z" id="Shape" stroke="#F24444"></path>
                                <path d="M22.4926516,6.02998243 C22.3137611,6.02768962 22.1474631,6.12119632 22.057345,6.27474828 C21.967227,6.42830025 21.967227,6.61814843 22.057345,6.77170039 C22.1474631,6.92525235 22.3137611,7.01875905 22.4926516,7.01646624 L24.4629038,7.01646624 C24.6417943,7.01875905 24.8080923,6.92525235 24.8982103,6.77170039 C24.9883284,6.61814843 24.9883284,6.42830025 24.8982103,6.27474828 C24.8080923,6.12119632 24.6417943,6.02768962 24.4629038,6.02998243 L22.4926516,6.02998243 Z" id="Shape" stroke="#F24444"></path>
                                <path d="M2.1094747,0.113167007 C1.89933478,0.122741561 1.7180768,0.262850706 1.65706767,0.462869472 C1.59605854,0.662888237 1.66854228,0.879396046 1.83798192,1.00325757 L3.81405052,2.47524871 C3.95599062,2.58240248 4.14484584,2.60575483 4.30889178,2.53643689 C4.47293771,2.46711894 4.58700723,2.31576512 4.60777842,2.13985737 C4.6285496,1.96394961 4.55283585,1.79047483 4.40939211,1.68531616 L2.43526304,0.215263328 C2.3422459,0.144002537 2.22681227,0.107814384 2.10947545,0.113129732 L2.1094747,0.113167007 Z" id="Shape" stroke="#F24444"></path>
                                <path d="M4.12238872,10.4691036 C4.01076556,10.4683462 3.90214221,10.5049833 3.81405277,10.573101 L1.83798417,12.0431166 C1.61842143,12.2069855 1.5741366,12.5166684 1.73907123,12.7348125 C1.90400585,12.9529566 2.21570255,12.9969554 2.43526529,12.8330864 L4.40939436,11.3610952 C4.58245264,11.235934 4.65529025,11.014666 4.59011643,10.812093 C4.5249426,10.60952 4.33643165,10.4712527 4.12238985,10.4690291 L4.12238872,10.4691036 Z" id="Shape" stroke="#F24444"></path>
                                <path d="M0.649239542,6.02998243 C0.470349083,6.02768962 0.304051065,6.12119632 0.213933021,6.27474828 C0.123814977,6.42830025 0.123814977,6.61814843 0.213933021,6.77170039 C0.304051065,6.92525235 0.470349083,7.01875905 0.649239542,7.01646624 L2.61949053,7.01646624 C2.79838099,7.01875905 2.96467901,6.92525235 3.05479705,6.77170039 C3.14491509,6.61814843 3.14491509,6.42830025 3.05479705,6.27474828 C2.96467901,6.12119632 2.79838099,6.02768962 2.61949053,6.02998243 L0.649239542,6.02998243 Z" id="Shape" stroke="#F24444"></path>
                            </g>
                        </g>
                    </g>
                </g>
            </g>
        </g>
    </g>
</svg>