<?xml version="1.0" encoding="UTF-8"?>
<svg width="73px" height="68px" viewBox="0 0 73 68" version="1.1" xmlns="http://www.w3.org/2000/svg" xmlns:xlink="http://www.w3.org/1999/xlink">
    <!-- Generator: Sketch 41.2 (35397) - http://www.bohemiancoding.com/sketch -->
    <title>distance-to-travel-between-two-points</title>
    <desc>Created with Sketch.</desc>
    <defs></defs>
    <g id="Page-1" stroke="none" stroke-width="1" fill="none" fill-rule="evenodd">
        <g id="vehicle_diagnostic" transform="translate(-302.000000, -783.000000)" fill="#F24444">
            <g id="distance-to-travel-between-two-points" transform="translate(303.000000, 784.000000)">
                <g id="Capa_1">
                    <g id="Group">
                        <g id="Group-2">
                            <path d="M46.15975,41.6006847 C46.15975,35.5788325 41.21325,30.6797405 35.133,30.6797405 C29.052875,30.6797405 24.1065,35.5788325 24.1065,41.6006847 C24.1065,43.3653582 24.531625,45.0333423 25.285375,46.5099285 L35.133,66.6231699 L44.982375,46.5068335 C45.735,45.0308662 46.15975,43.3639964 46.15975,41.6006847 Z M35.133,47.6443261 C31.768375,47.6443261 29.030875,44.9330627 29.030875,41.6006847 C29.030875,38.2683068 31.768375,35.5570434 35.133,35.5570434 C38.49775,35.5570434 41.235125,38.2683068 41.235125,41.6006847 C41.235125,44.9330627 38.49775,47.6443261 35.133,47.6443261 Z" id="Shape"></path>
                            <path d="M66.377625,7.13099415 C63.298875,7.13099415 60.794,9.61173826 60.794,12.6609811 C60.794,13.5545838 61.009375,14.3991609 61.391,15.1470487 L66.377625,25.3318663 L71.365,15.1454392 C71.746125,14.3980467 71.96125,13.5539648 71.96125,12.6611049 C71.96125,9.61173826 69.45625,7.13099415 66.377625,7.13099415 Z M66.377625,15.7213661 C64.67375,15.7213661 63.287625,14.3485259 63.287625,12.6609811 C63.287625,10.9735601 64.67375,9.60059609 66.377625,9.60059609 C68.08125,9.60059609 69.4675,10.9735601 69.4675,12.6609811 C69.4675,14.3485259 68.08125,15.7213661 66.377625,15.7213661 Z" id="Shape"></path>
                            <path d="M61.5145,43.0071991 C61.288,41.9520348 60.99375,40.9180406 60.623125,39.9028644 C60.126375,38.542652 59.530625,37.2133901 59.07425,35.8377025 C58.221375,33.2662115 59.69275,31.120228 59.96925,30.7301279 C60.45375,30.0471124 61.02025,29.420303 61.618,28.833234 C62.768875,27.7031695 64.038125,26.6929453 65.366,25.7625734 C65.2015,25.5101412 65.042125,25.2549853 64.890375,24.9951249 C62.9805,25.7366988 53.158625,29.1365488 53.398125,36.6474912 C53.446125,38.153171 54.0335,39.5861789 54.3955,41.0456805 C54.569875,41.7489995 54.721125,42.4585087 54.813625,43.177303 C54.8535,43.5009214 54.878,43.8263968 54.90475,44.1516246 C54.9055,44.1491485 54.90525,44.1474153 54.90375,44.1460535 C54.904625,44.1554624 54.929,45.1768288 54.88325,45.6192971 C54.739875,47.0045174 54.533375,48.4040988 53.94375,49.6748024 C53.395375,50.8562447 52.568,51.8836773 51.544625,52.6958183 C49.205125,54.5521053 46.105375,55.2941743 43.1805,55.5925371 C43.04125,55.607022 42.902,55.6194021 42.76275,55.6314109 L37.540375,66.2971993 C40.117125,66.1386089 42.68725,65.7893635 45.19475,65.1781532 C48.145625,64.4587398 51.021375,63.3721299 53.598125,61.7614661 C56.172625,60.1525355 58.386625,57.9758491 59.8605,55.3257438 C61.402375,52.5536937 62.020125,49.3785442 61.888625,46.2322407 C61.844,45.1575157 61.741,44.0619919 61.5145,43.0071991 Z" id="Shape"></path>
                            <path d="M36.8359993,5.2328671 C31.9522064,5.2328671 27.8721331,8.77164598 27.8721331,13.24416 C27.8721331,17.7170524 31.9522388,21.2554528 36.8359993,21.2554528 C37.6617379,21.2554528 38.4202682,20.8990019 38.978232,20.3792342 C39.5361988,19.8593153 39.9389699,19.1903075 40.2508056,18.4428956 C40.8744756,16.9481475 41.1483892,15.0991431 41.1483892,13.24416 C41.1483892,11.3893282 40.8744771,9.54410783 40.2508056,8.0494354 C39.9389707,7.30172079 39.5361919,6.63301569 38.978232,6.11309673 C38.4202651,5.59317776 37.6617379,5.2328671 36.8359993,5.2328671 L36.8359993,5.2328671 Z M36.8359993,7.23565248 C37.1070246,7.23565248 37.3093981,7.31814326 37.5740167,7.56410202 C37.8386276,7.81081757 38.1233616,8.23765061 38.3599027,8.80403686 C38.8329928,9.93802024 39.1058937,11.5939659 39.1058937,13.2439329 C39.1058937,14.8940513 38.8329928,16.553781 38.3599027,17.6877644 C38.12335,18.2546047 37.8386315,18.6812107 37.5740167,18.9277749 C37.3094059,19.1744904 37.1070323,19.2524404 36.8359993,19.2524404 C32.9456507,19.2524404 29.914634,16.5142005 29.914634,13.2440086 C29.914634,9.97419509 32.9456808,7.23550112 36.8359993,7.23550112 L36.8359993,7.23565248 Z" id="Shape" stroke="#F24444"></path>
                            <path d="M14.8232644,5.2328671 C13.9975266,5.2328671 13.2389963,5.59310208 12.6810333,6.11309673 C12.1230664,6.63301569 11.7202954,7.30194783 11.4084589,8.0494354 C10.7847889,9.54410783 10.5108753,11.3893282 10.5108753,13.24416 C10.5108753,15.0991431 10.7847874,16.9481475 11.4084589,18.4428956 C11.7202938,19.1906102 12.1230726,19.8593153 12.6810333,20.3792342 C13.2390001,20.8991532 13.9975266,21.2554528 14.8232644,21.2554528 C19.7070249,21.2554528 23.7871314,17.7170524 23.7871314,13.24416 C23.7871314,8.77164598 19.7070581,5.2328671 14.8232644,5.2328671 L14.8232644,5.2328671 Z M14.8232644,7.23565248 C18.7135837,7.23565248 21.7446313,9.97434645 21.7446313,13.24416 C21.7446313,16.5143519 18.7136145,19.2525918 14.8232644,19.2525918 C14.5522391,19.2525918 14.3498656,19.1746418 14.085247,18.9279262 C13.8206361,18.6812107 13.5359099,18.2551344 13.2993633,17.6879157 C12.8262732,16.5539323 12.5533723,14.8942027 12.5533723,13.2440843 C12.5533723,11.5941173 12.8262732,9.9381716 13.2993633,8.80418822 C13.5359083,8.23734789 13.8206346,7.81081757 14.085247,7.56425338 C14.3498579,7.31753783 14.5522314,7.23580384 14.8232644,7.23580384 L14.8232644,7.23565248 Z" id="Shape" stroke="#F24444"></path>
                            <path d="M47.2878592,0.225752297 C47.0568699,0.22333008 46.8318652,0.297762511 46.6495774,0.436898428 L42.5885119,3.42155115 C42.2934206,3.63575656 42.138044,3.98861468 42.1813921,4.34611448 C42.2247403,4.70361428 42.4601629,5.01090952 42.7982495,5.15129335 C43.136336,5.29167719 43.5252186,5.24361248 43.8172045,5.02535359 L47.8782708,2.03676553 C48.2342764,1.78265037 48.3841138,1.33340926 48.2500419,0.922124688 C48.11597,0.510840118 47.7281761,0.230115518 47.2878615,0.225600938 L47.2878592,0.225752297 Z" id="Shape" stroke="#F24444"></path>
                            <path d="M43.147009,21.2594639 C42.7147212,21.2789031 42.3418476,21.5633671 42.2163431,21.9694658 C42.0908386,22.3755645 42.239948,22.815141 42.5885096,23.0666174 L46.6495751,26.0552055 C46.9417556,26.2704273 47.3288354,26.3164516 47.6650052,26.1759416 C48.001175,26.0354317 48.2353627,25.7297342 48.2793519,25.3740025 C48.3233412,25.0182708 48.170449,24.6665491 47.8782685,24.4513274 L43.8172022,21.4667503 C43.6258526,21.3220693 43.3883892,21.2485964 43.1470106,21.2593882 L43.147009,21.2594639 Z" id="Shape" stroke="#F24444"></path>
                            <path d="M46.2705975,12.2426916 C45.9025943,12.2380365 45.5604955,12.4278834 45.3751098,12.7396405 C45.1897241,13.0513975 45.1897241,13.4368468 45.3751098,13.7486038 C45.5604955,14.0603608 45.9025943,14.2502078 46.2705975,14.2455527 L50.3236879,14.2455527 C50.6916911,14.2502078 51.0337899,14.0603608 51.2191756,13.7486038 C51.4045612,13.4368468 51.4045612,13.0513975 51.2191756,12.7396405 C51.0337899,12.4278834 50.6916911,12.2380365 50.3236879,12.2426916 L46.2705975,12.2426916 Z" id="Shape" stroke="#F24444"></path>
                            <path d="M4.33949082,0.229763317 C3.90720298,0.249202564 3.53432942,0.533666585 3.40882493,0.939765291 C3.28332043,1.345864 3.43242983,1.78544046 3.78099138,2.03691689 L7.84604678,5.02550495 C8.13803785,5.24305958 8.52654002,5.29047193 8.86400595,5.1497355 C9.20147187,5.00899907 9.43612916,4.70170495 9.47885846,4.3445589 C9.52158776,3.98741284 9.36583375,3.63520646 9.07074949,3.42170251 L5.00968397,0.437049787 C4.81833442,0.292368786 4.58087096,0.21889587 4.33949236,0.229687637 L4.33949082,0.229763317 Z" id="Shape" stroke="#F24444"></path>
                            <path d="M8.48034252,21.2554528 C8.25071772,21.253915 8.02726398,21.3282995 7.84605141,21.466599 L3.78099601,24.451176 C3.32932409,24.7838797 3.23822386,25.4126297 3.57751795,25.8555284 C3.91681204,26.2984271 4.55801668,26.3877578 5.0096886,26.0550541 L9.07075412,23.0664661 C9.42675971,22.8123509 9.57659709,22.3631098 9.44252522,21.9518252 C9.30845335,21.5405407 8.92065938,21.2598161 8.48034483,21.2553015 L8.48034252,21.2554528 Z" id="Shape" stroke="#F24444"></path>
                            <path d="M1.33557849,12.2426916 C0.967575257,12.2380365 0.625476476,12.4278834 0.440090786,12.7396405 C0.254705096,13.0513975 0.254705096,13.4368468 0.440090786,13.7486038 C0.625476476,14.0603608 0.967575257,14.2502078 1.33557849,14.2455527 L5.38866623,14.2455527 C5.75666946,14.2502078 6.09876824,14.0603608 6.28415393,13.7486038 C6.46953962,13.4368468 6.46953962,13.0513975 6.28415393,12.7396405 C6.09876824,12.4278834 5.75666946,12.2380365 5.38866623,12.2426916 L1.33557849,12.2426916 Z" id="Shape" stroke="#F24444"></path>
                        </g>
                    </g>
                </g>
            </g>
        </g>
    </g>
</svg>