<?xml version="1.0" encoding="UTF-8"?>
<svg width="28px" height="30px" viewBox="0 0 28 30" version="1.1" xmlns="http://www.w3.org/2000/svg" xmlns:xlink="http://www.w3.org/1999/xlink">
    <!-- Generator: Sketch 41.2 (35397) - http://www.bohemiancoding.com/sketch -->
    <title>door_lock</title>
    <desc>Created with Sketch.</desc>
    <defs></defs>
    <g id="Page-1" stroke="none" stroke-width="1" fill="none" fill-rule="evenodd">
        <g id="vehicle_diagnostic-copy-8" transform="translate(-851.000000, -234.000000)" fill="#3EB64D">
            <g id="Group-10" transform="translate(794.000000, 234.000000)">
                <path d="M79.4591642,16.9778034 L79.4591642,11.7609179 L82.3201573,14.6281739 C82.5634619,14.8720111 82.8828577,14.9945745 83.2023119,14.9945745 C83.5217077,14.9945745 83.841162,14.8720111 84.0844666,14.6281739 C84.572304,14.1392686 84.572304,13.3489664 84.0844666,12.8600611 L79.4591642,8.2246336 L79.4591642,7.78695752 C79.4591642,5.76621525 78.9825562,3.74049072 78.0804576,1.9311131 C77.9431894,1.65726515 77.7124009,1.44343867 77.4279217,1.32966751 L77.2856821,1.27216648 C73.0546969,-0.424670891 68.394478,-0.423439982 64.1634343,1.27216648 L64.022423,1.32966751 C63.7379437,1.44343867 63.5070968,1.65726515 63.369887,1.9311131 C62.4677884,3.74049072 61.9911804,5.76621525 61.9911804,7.78695752 L61.9911804,8.2246336 L57.3658781,12.8600611 C56.8780406,13.3489664 56.8780406,14.1392686 57.3658781,14.6281739 C57.6091827,14.8720111 57.9285784,14.9945745 58.2480327,14.9945745 C58.5674285,14.9945745 58.8868828,14.8720111 59.1301874,14.6281739 L61.9911804,11.7609179 L61.9911804,16.9778034 L57.3658781,21.6132308 C56.8780406,22.1021362 56.8780406,22.8924383 57.3658781,23.3813437 C57.6091827,23.6251809 57.9285784,23.7477443 58.2480327,23.7477443 C58.5674285,23.7477443 58.8868828,23.6251809 59.1301874,23.3813437 L61.9911804,20.5140877 L61.9911804,27.499086 C61.9911804,28.8783488 63.1103816,30 64.4866318,30 L76.9637714,30 C78.3400215,30 79.4592227,28.8783488 79.4592227,27.499086 L79.4592227,20.5140291 L82.3202158,23.3812851 C82.5635204,23.6251223 82.8829161,23.7476856 83.2023704,23.7476856 C83.5217662,23.7476856 83.8412204,23.6251223 84.084525,23.3812851 C84.5723625,22.8923797 84.5723625,22.1020775 84.084525,21.6131722 L79.4591642,16.9778034 Z M66.5877659,6.30523616 L68.5666628,5.64376911 C69.9578855,5.17983364 71.4900612,5.17983364 72.8837403,5.64376911 L74.8626373,6.30523616 C75.4814849,6.51279086 75.8370839,7.16177298 75.6786435,7.79574973 L74.4309471,12.7975192 C74.3385966,13.1651506 74.0853492,13.4715298 73.7422079,13.630317 C73.5762811,13.7065748 73.3990665,13.7440882 73.2206821,13.7440882 C73.0297816,13.7440882 72.8376528,13.700303 72.6629531,13.6127912 C71.448945,13.003843 70.0015751,13.003843 68.787567,13.6127912 C68.4506837,13.7816016 68.0526818,13.7891043 67.7083122,13.630317 C67.3651708,13.4715298 67.1119235,13.1651506 67.019573,12.7975192 L65.7717596,7.79574973 C65.6132607,7.16177298 65.9688598,6.51279086 66.5877659,6.30523616 Z M75.7160165,23.7476856 C75.7160165,24.1490792 75.5238877,24.5267338 75.1982338,24.7617788 C74.9823595,24.9181043 74.7265972,24.9981133 74.46832,24.9981133 C74.3360817,24.9981133 74.2025566,24.9768362 74.0740613,24.9343405 C71.9142651,24.212852 69.536138,24.212852 67.3763418,24.9343405 C66.995769,25.0581348 66.5778231,24.9968824 66.2521693,24.7617788 C65.9265154,24.5266752 65.7343867,24.1490792 65.7343867,23.7476856 L65.7343867,19.9963439 C65.7343867,18.6170811 66.8535878,17.4954299 68.229838,17.4954299 L73.2206821,17.4954299 C74.5969323,17.4954299 75.7161334,18.6170811 75.7161334,19.9963439 L75.7161334,23.7476856 L75.7160165,23.7476856 Z" id="door_lock"></path>
            </g>
        </g>
    </g>
</svg>