<?xml version="1.0" encoding="UTF-8"?>
<svg width="46px" height="21px" viewBox="0 0 46 21" version="1.1" xmlns="http://www.w3.org/2000/svg" xmlns:xlink="http://www.w3.org/1999/xlink">
    <!-- Generator: Sketch 41.2 (35397) - http://www.bohemiancoding.com/sketch -->
    <title>door_driver</title>
    <desc>Created with Sketch.</desc>
    <defs></defs>
    <g id="Page-1" stroke="none" stroke-width="1" fill="none" fill-rule="evenodd">
        <g id="vehicle_diagnostic-copy-8" transform="translate(-384.000000, -472.000000)">
            <g id="door_driver" transform="translate(383.000000, 472.000000)">
                <g id="Group-Copy-2" transform="translate(1.000000, 2.000000)" fill="#F24444">
                    <path d="M9.16110969,0.00480342045 C4.90207315,0.00465578544 1.20427046,2.9200557 0.236253528,7.04128617 L0.0708630539,7.7469613 L1.89909339,11.1009177 L14.095815,11.1009177 L14.095815,0.00480342045 L9.16110969,0.00480342045 Z M9.02922262,1.29516632 C9.06778218,1.29486579 9.10634352,1.29486579 9.14490308,1.29516632 L12.537487,1.29516632 C12.6809258,1.29516639 12.7972064,1.41070712 12.7972082,1.553235 L12.7972082,7.23082395 L1.88891232,7.23082395 L2.00864491,6.77217607 C2.8449331,3.58672487 5.71653212,1.34648576 9.029224,1.29516632 L9.02922262,1.29516632 Z M9.68055188,8.26311817 L11.4986012,8.26311817 L11.4986012,9.29539288 L9.68055188,9.29539288 C9.39278058,9.29539288 9.16110929,9.06520085 9.16110929,8.77925552 C9.16110929,8.4933102 9.39278058,8.26311817 9.68055188,8.26311817 L9.68055188,8.26311817 Z M12.0180438,8.26311817 L12.2777652,8.26311817 C12.5655365,8.26311817 12.7972078,8.4933102 12.7972078,8.77925552 C12.7972078,9.06520085 12.5655365,9.29539288 12.2777652,9.29539288 L12.0180438,9.29539288 L12.0180438,8.26311817 Z" id="Shape"></path>
                    <polygon id="Shape" points="2.18012067 11.6170746 3.4472491 13.9406876 14.0958238 13.9406876 14.0958238 12.6493493 7.86251176 12.6493493 7.86251176 12.133212 14.0958238 12.133212 14.0958238 11.6170746"></polygon>
                </g>
                <g id="Group-2-Copy-2">
                    <g id="Group-28">
                        <g id="Group-6">
                            <g id="noun_950537_cc" transform="translate(0.000000, 5.555556)">
                                <g id="Group"></g>
                            </g>
                            <g id="Group-7" transform="translate(15.000000, 0.000000)" fill="#F24444">
                                <g id="noun_225527_cc" transform="translate(0.485377, 0.000000)">
                                    <g id="Group">
                                        <g transform="translate(0.016511, 0.000000)" id="healty_veh">
                                            <g>
                                                <g id="Page-1">
                                                    <g>
                                                        <g id="Artboard">
                                                            <g id="healty_veh">
                                                                <g id="Page-1">
                                                                    <g id="Dashboard_d2">
                                                                        <g id="healty_veh">
                                                                            <g id="noun_225527_cc-copy">
                                                                                <g id="Group">
                                                                                    <g id="Shape">
                                                                                        <path d="M29.2517451,6.94641374 C29.2307423,6.92210211 29.2129218,6.89843022 29.1881003,6.87475833 L28.0953207,5.81464225 C29.0016214,5.60799321 29.9772948,4.84473522 29.9772948,4.06164404 C29.9772948,3.14931723 28.7177659,2.82558837 27.6428068,2.82558837 C26.5188412,2.82558837 26.3883696,3.59972262 26.3750042,4.14673484 L23.5555435,1.41423286 C22.9827411,0.844188555 21.8963259,0.395702513 21.0842195,0.395702513 L15.5929539,0.395702513 L15.591681,0.395702513 L10.0991425,0.395702513 C9.28767251,0.395702513 8.20189377,0.844188555 7.6284549,1.41423286 L4.8096307,4.14673484 C4.79499242,3.59972262 4.66452078,2.82558837 3.5418281,2.82558837 C2.46559606,2.82558837 1.2067037,3.14931723 1.2067037,4.06164404 C1.2067037,4.84473522 2.18301355,5.60799321 3.08931421,5.81464225 L1.99653455,6.87475833 C1.97171311,6.89843022 1.95452904,6.92210211 1.93288984,6.94641374 C0.763736519,7.95086893 0,9.81390937 0,11.1657653 L0,15.1829462 C0,16.1579716 0.382504706,17.0427878 1.00049484,17.7024014 L1.00049484,19.2602666 C1.00049484,20.1713138 1.75913978,20.9140988 2.69217122,20.9140988 L4.73771219,20.9140988 C5.67074363,20.9140988 6.42875215,20.1725934 6.42875215,19.2602666 L6.42875215,18.8616834 L15.591681,18.8616834 L15.5929539,18.8616834 L24.7552463,18.8616834 L24.7552463,19.2602666 C24.7552463,20.1725934 25.5126184,20.9140988 26.4469227,20.9140988 L28.4918272,20.9140988 C29.4254951,20.9140988 30.1828672,20.1713138 30.1828672,19.2602666 L30.1828672,17.7024014 C30.8014937,17.0427878 31.183362,16.1579716 31.183362,15.1829462 L31.183362,11.1657653 C31.1846349,9.81390937 30.4208984,7.95086893 29.2517451,6.94641374 L29.2517451,6.94641374 Z M8.66395434,2.62853601 C9.06046089,2.29649 9.75355175,2.04441653 10.0991425,2.04441653 L15.591681,2.04441653 L15.5929539,2.04441653 L21.0854924,2.04441653 C21.4310831,2.04441653 22.124174,2.29649 22.5206806,2.62853601 L26.2178017,6.23049949 L15.5929539,6.23049949 L15.591681,6.23049949 L4.96746962,6.23049949 L8.66395434,2.62853601 L8.66395434,2.62853601 Z M1.26843907,10.5579739 C1.26843907,9.56887348 2.03854006,8.76594912 2.98939202,8.76594912 C3.93960754,8.76594912 7.04483293,10.5982801 7.04483293,11.5873806 C7.04483293,12.576481 3.93960754,12.3474397 2.98939202,12.3474397 C2.03854006,12.3474397 1.26843907,11.5477142 1.26843907,10.5579739 L1.26843907,10.5579739 Z M6.42938856,17.100368 L6.10161834,17.100368 L5.77384808,17.100368 L3.82950219,17.1035669 C3.28979505,16.9346649 2.90919968,16.7376126 2.63998256,16.5258452 C2.50378288,16.4190019 2.39940556,16.3076802 2.31794033,16.1969982 C2.23583866,16.0850366 2.17601263,15.9749944 2.13718936,15.8649522 C1.89533946,15.177828 2.39495043,14.5463648 2.39495043,14.5463648 L5.71338559,14.5463648 L7.92567571,17.0990885 L6.42938856,17.100368 L6.42938856,17.100368 L6.42938856,17.100368 Z M20.3637614,17.1016476 L15.5929539,17.1016476 L15.591681,17.1016476 L10.8208735,17.1016476 C9.82610675,17.1016476 9.01845538,16.2897663 9.01845538,15.2904293 L15.591681,15.2904293 L15.5929539,15.2904293 L22.1661795,15.2904293 C22.1661795,16.2910458 21.3585282,17.1016476 20.3637614,17.1016476 L20.3637614,17.1016476 Z M20.7825435,14.0543737 L15.5929539,14.0543737 L15.591681,14.0543737 L10.4020914,14.0543737 C9.32013132,14.0543737 8.4418343,12.713394 8.4418343,11.0595618 L15.591681,11.0595618 L15.5929539,11.0595618 L22.7428006,11.0595618 C22.7428006,12.7140338 21.8645036,14.0543737 20.7825435,14.0543737 L20.7825435,14.0543737 Z M29.048082,15.8662317 C29.0086223,15.9762739 28.9487963,16.0863162 28.8666946,16.1976379 C28.7858658,16.3083199 28.6814885,16.4196417 28.5446523,16.526485 C28.2760717,16.7382524 27.8948398,16.9365842 27.3551327,17.1042067 L25.4107868,17.1010078 L25.0830166,17.1010078 L24.7552463,17.1010078 L23.2576863,17.1010078 L25.4712493,14.5482841 L28.789048,14.5482841 C28.789048,14.5476443 29.2892954,15.177828 29.048082,15.8662317 L29.048082,15.8662317 Z M28.1952429,12.3474397 C27.2456638,12.3474397 24.1404384,12.5752015 24.1404384,11.5873806 C24.1404384,10.5995597 27.2456638,8.76594912 28.1952429,8.76594912 C29.1460948,8.76594912 29.9161958,9.56887348 29.9161958,10.5579739 C29.9161958,11.5464346 29.1460948,12.3474397 28.1952429,12.3474397 L28.1952429,12.3474397 Z"></path>
                                                                                    </g>
                                                                                </g>
                                                                            </g>
                                                                        </g>
                                                                    </g>
                                                                </g>
                                                            </g>
                                                        </g>
                                                    </g>
                                                </g>
                                            </g>
                                        </g>
                                    </g>
                                </g>
                            </g>
                        </g>
                    </g>
                </g>
            </g>
        </g>
    </g>
</svg>