<?xml version="1.0" encoding="UTF-8"?>
<svg width="5px" height="20px" viewBox="0 0 5 20" version="1.1" xmlns="http://www.w3.org/2000/svg" xmlns:xlink="http://www.w3.org/1999/xlink">
    <!-- Generator: Sketch 41.2 (35397) - http://www.bohemiancoding.com/sketch -->
    <title>...</title>
    <desc>Created with Sketch.</desc>
    <defs></defs>
    <g id="Page-1" stroke="none" stroke-width="1" fill="none" fill-rule="evenodd" opacity="0.600000024">
        <g id="Dashboard_d2" transform="translate(-1225.000000, -30.000000)" fill="#FFFFFF">
            <g id="header" transform="translate(2.000000, 0.000000)">
                <path d="M1216,39.9927273 C1216,41.0981818 1216.88727,42 1217.99273,42 C1219.08364,42 1219.98545,41.0981818 1219.98545,39.9927273 C1219.98545,38.9018182 1219.08364,38 1217.99273,38 C1216.88727,38 1216,38.9018182 1216,39.9927273 Z M1223.42414,39.9927273 C1223.42414,41.0981818 1224.31141,42 1225.41687,42 C1226.50778,42 1227.40959,41.0981818 1227.40959,39.9927273 C1227.40959,38.9018182 1226.50778,38 1225.41687,38 C1224.31141,38 1223.42414,38.9018182 1223.42414,39.9927273 Z M1230.84828,39.9927273 C1230.84828,41.0981818 1231.73555,42 1232.84101,42 C1233.93192,42 1234.83373,41.0981818 1234.83373,39.9927273 C1234.83373,38.9018182 1233.93192,38 1232.84101,38 C1231.73555,38 1230.84828,38.9018182 1230.84828,39.9927273 Z" id="..." transform="translate(1225.416867, 40.000000) rotate(90.000000) translate(-1225.416867, -40.000000) "></path>
            </g>
        </g>
    </g>
</svg>