<?xml version="1.0" encoding="UTF-8"?>
<svg width="84px" height="65px" viewBox="0 0 84 65" version="1.1" xmlns="http://www.w3.org/2000/svg" xmlns:xlink="http://www.w3.org/1999/xlink">
    <!-- Generator: Sketch 41.2 (35397) - http://www.bohemiancoding.com/sketch -->
    <title>dr_door</title>
    <desc>Created with Sketch.</desc>
    <defs></defs>
    <g id="Page-1" stroke="none" stroke-width="1" fill="none" fill-rule="evenodd">
        <g id="vehicle_diagnostic" transform="translate(-498.000000, -587.000000)">
            <g id="dr_door" transform="translate(498.000000, 587.000000)">
                <g id="Group-28">
                    <g id="noun_225527_cc" transform="translate(28.275789, 0.000000)" fill="#F24444">
                        <g id="Group">
                            <g transform="translate(0.034620, 0.000000)" id="Shape">
                                <path d="M48.8681287,0.182328191 L5.59327485,0.182328191 C2.61812865,0.182328191 0.183918129,2.60729313 0.183918129,5.57113916 L0.183918129,33.0540751 L3.97046784,30.8985507 L5.05233918,23.8930965 C5.59327485,19.5820477 9.6502924,16.3487611 13.9777778,16.3487611 L41.0245614,16.3487611 C45.3520468,16.3487611 49.1385965,19.5820477 49.95,23.8930965 L51.0318713,30.8985507 L54.8184211,33.0540751 L54.8184211,5.57113916 C54.2774854,2.60729313 51.8432749,0.182328191 48.8681287,0.182328191 Z"></path>
                                <path d="M46.9748538,24.4319776 C46.4339181,21.4681315 43.7292398,19.0431666 40.7540936,19.0431666 L13.7073099,19.0431666 C10.7321637,19.0431666 8.02748538,21.4681315 7.48654971,24.4319776 L6.40467836,32.515194 L0.183918129,36.2873617 L0.183918129,54.0704379 L2.88859649,54.0704379 L2.88859649,59.4592489 C2.88859649,62.4230949 5.32280702,64.8480598 8.29795322,64.8480598 C11.2730994,64.8480598 13.7073099,62.4230949 13.7073099,59.4592489 L13.7073099,54.0704379 L40.7540936,54.0704379 L40.7540936,59.4592489 C40.7540936,62.4230949 43.1883041,64.8480598 46.1634503,64.8480598 C49.1385965,64.8480598 51.572807,62.4230949 51.572807,59.4592489 L51.572807,54.0704379 L54.2774854,54.0704379 L54.2774854,36.2873617 L48.0567251,32.515194 L46.9748538,24.4319776 Z M6.94561404,48.6816269 C4.78187135,48.6816269 2.88859649,46.7955431 2.88859649,44.6400187 C2.88859649,42.4844943 4.78187135,40.5984105 6.94561404,40.5984105 C9.10935673,40.5984105 11.0026316,42.4844943 11.0026316,44.6400187 C11.0026316,46.7955431 9.10935673,48.6816269 6.94561404,48.6816269 Z M40.7540936,48.6816269 L13.7073099,48.6816269 L13.7073099,43.292816 C13.7073099,40.3289699 16.1415205,37.904005 19.1166667,37.904005 L35.3447368,37.904005 C38.319883,37.904005 40.7540936,40.3289699 40.7540936,43.292816 L40.7540936,48.6816269 Z M9.10935673,32.515194 L10.1912281,24.7014181 C10.4616959,23.0847748 12.0845029,21.7375721 13.7073099,21.7375721 L40.7540936,21.7375721 C42.3769006,21.7375721 43.9997076,23.0847748 44.2701754,24.7014181 L45.3520468,32.515194 L9.10935673,32.515194 Z M51.572807,44.6400187 C51.572807,46.7955431 49.6795322,48.6816269 47.5157895,48.6816269 C45.3520468,48.6816269 43.4587719,46.7955431 43.4587719,44.6400187 C43.4587719,42.4844943 45.3520468,40.5984105 47.5157895,40.5984105 C49.6795322,40.5984105 51.572807,42.4844943 51.572807,44.6400187 Z"></path>
                            </g>
                        </g>
                    </g>
                    <g id="noun_950537_cc" transform="translate(0.000000, 24.229391)">
                        <g id="Group">
                            <g transform="translate(0.000000, 0.129564)" id="Shape">
                                <path d="M17.8321313,0.0093865405 C9.54190215,0.0090980415 2.34411656,5.7061882 0.459868301,13.7596362 L0.137935177,15.1386219 L3.69659177,21.6927115 L27.4375521,21.6927115 L27.4375521,0.0093865405 L17.8321313,0.0093865405 Z M17.5754127,2.53093212 C17.650469,2.53034485 17.7255288,2.53034485 17.8005851,2.53093212 L24.4042613,2.53093212 C24.6834654,2.53093227 24.9098059,2.75671466 24.9098095,3.03523361 L24.9098095,14.1300189 L3.67677428,14.1300189 L3.90983419,13.2337583 C5.537672,7.00895094 11.1272493,2.63121733 17.5754154,2.53093212 L17.5754127,2.53093212 Z M18.8432273,16.147263 L22.3820666,16.147263 L22.3820666,18.164469 L18.8432273,18.164469 C18.2830795,18.164469 17.8321306,17.7146423 17.8321306,17.155866 C17.8321306,16.5970897 18.2830795,16.147263 18.8432273,16.147263 L18.8432273,16.147263 Z M23.3931634,16.147263 L23.8987119,16.147263 C24.4588597,16.147263 24.9098087,16.5970897 24.9098087,17.155866 C24.9098087,17.7146423 24.4588597,18.164469 23.8987119,18.164469 L23.3931634,18.164469 L23.3931634,16.147263 Z" fill="#F24444"></path>
                                <polygon fill="#DE273D" points="4.24361234 22.7013526 6.71008217 27.2420102 27.4375692 27.2420102 27.4375692 24.7185586 15.304406 24.7185586 15.304406 23.7099556 27.4375692 23.7099556 27.4375692 22.7013526"></polygon>
                            </g>
                        </g>
                    </g>
                </g>
            </g>
        </g>
    </g>
</svg>