<?xml version="1.0" encoding="UTF-8"?>
<svg width="19px" height="32px" viewBox="0 0 19 32" version="1.1" xmlns="http://www.w3.org/2000/svg" xmlns:xlink="http://www.w3.org/1999/xlink">
    <!-- Generator: Sketch 41.2 (35397) - http://www.bohemiancoding.com/sketch -->
    <title>engine_coolant</title>
    <desc>Created with Sketch.</desc>
    <defs></defs>
    <g id="Page-1" stroke="none" stroke-width="1" fill="none" fill-rule="evenodd">
        <g id="vehicle_diagnostic-copy-8" transform="translate(-1006.000000, -350.000000)" fill="#F24444">
            <g id="Group-35" transform="translate(945.000000, 350.000000)">
                <path d="M79.268981,4.07155054 L79.268981,5.43534756 L73.9844001,5.43534756 L73.9844001,4.07155054 L79.268981,4.07155054 Z M77.0528904,7.04380896 L73.9844001,7.04380896 L73.9844001,8.40760597 L77.0528904,8.40760597 L77.0528904,7.04380896 Z M73.9844001,11.3798644 L79.268981,11.3798644 L79.268981,10.0161735 L73.9844001,10.0161735 L73.9844001,11.3798644 Z M77.0528904,12.9891746 L73.9844001,12.9891746 L73.9844001,14.3529716 L77.0528904,14.3529716 L77.0528904,12.9891746 Z M73.9844001,17.32523 L79.268981,17.32523 L79.268981,15.961433 L73.9844001,15.961433 L73.9844001,17.32523 Z M74.808153,25.0959235 C74.808153,28.902863 71.7110161,32 67.9040765,32 C64.097137,32 61,28.902863 61,25.0959235 C61,22.6289087 62.2955753,20.3868238 64.4093864,19.1465261 L64.4093864,3.49469007 C64.4094925,1.56761327 65.9771058,0 67.9040765,0 C69.8310472,0 71.3987666,1.56761327 71.3987666,3.49469007 L71.3987666,19.1466322 C73.5125777,20.3855506 74.808153,22.6282721 74.808153,25.0959235 Z M73.444356,25.0959235 C73.444356,23.0025895 72.2810862,21.1103132 70.4079077,20.1591353 L70.0349696,19.9695363 L70.0349696,3.49532667 C70.0349696,2.31974934 69.0790173,1.36443361 67.9040765,1.36443361 C66.7292419,1.36443361 65.7731835,2.31974934 65.7731835,3.49532667 L65.7731835,19.9695363 L65.4002454,20.1591353 C63.5270669,21.1110559 62.363797,23.0032261 62.363797,25.0959235 C62.363797,28.1507269 64.8492731,30.636203 67.9040765,30.636203 C70.95888,30.636203 73.444356,28.1507269 73.444356,25.0959235 Z M72.3083536,25.0959235 C72.3083536,27.524106 70.3328957,29.499564 67.9040765,29.499564 C65.475894,29.499564 63.500436,27.524106 63.500436,25.0959235 C63.500436,23.1055055 64.8451352,21.3578422 66.7707266,20.8458083 L67.0236667,20.7783293 L67.0236667,5.62006598 L68.7850168,5.62006598 L68.7850168,20.7775866 L69.0379569,20.8458083 C70.9643971,21.3578422 72.3083536,23.1062482 72.3083536,25.0959235 Z M68.1223222,22.1604814 C68.0172842,21.6940701 67.5482204,21.3872316 67.0701381,21.4963015 C65.4008819,21.874014 64.2348535,23.3339368 64.2348535,25.0469057 C64.2348535,25.5316722 64.629648,25.9265728 65.1145206,25.9265728 C65.5993932,25.9265728 65.9941878,25.5317783 65.9941878,25.0469057 C65.9941878,24.1761509 66.6092439,23.4042804 67.4581423,23.2126656 C67.9299647,23.1041263 68.2286335,22.6323038 68.1223222,22.1604814 Z" id="engine_coolant"></path>
            </g>
        </g>
    </g>
</svg>