<?xml version="1.0" encoding="UTF-8"?>
<svg width="95px" height="62px" viewBox="0 0 95 62" version="1.1" xmlns="http://www.w3.org/2000/svg" xmlns:xlink="http://www.w3.org/1999/xlink">
    <!-- Generator: Sketch 41.2 (35397) - http://www.bohemiancoding.com/sketch -->
    <title>engine-with-lighting-bolt</title>
    <desc>Created with Sketch.</desc>
    <defs></defs>
    <g id="Page-1" stroke="none" stroke-width="1" fill="none" fill-rule="evenodd">
        <g id="vehicle_diagnostic" transform="translate(-91.000000, -387.000000)" fill="#3EB64D">
            <g id="engine-with-lighting-bolt" transform="translate(91.000000, 387.000000)">
                <g id="Capa_1">
                    <g id="Group">
                        <path d="M88.9410152,23.6462161 C85.606803,23.6462161 82.894697,26.3630326 82.894697,29.7002676 L82.894697,31.4868885 L74.3265606,31.4868885 L74.3369242,19.2718765 C74.3369242,18.2059554 73.9212273,17.2017015 73.169,16.4418113 C72.4115909,15.6871081 71.4083333,15.2727273 70.3431818,15.2727273 L36.8542424,15.2727273 C35.4352879,15.2727273 34.1127727,16.0378045 33.3982576,17.2708611 L25.2029242,31.4854477 L23.5280455,31.4854477 L23.5280455,27.210813 C23.5280455,25.243801 21.9306061,23.6447753 19.9655455,23.6447753 C18.0022121,23.6447753 16.4065,25.24553 16.4065,27.210813 L16.4065,31.4854477 L14.9636515,31.4854477 L14.9636515,27.210813 C14.9636515,25.243801 13.3662121,23.6447753 11.4046061,23.6447753 C9.43781818,23.6447753 7.84037879,25.24553 7.84037879,27.210813 L7.84037879,31.4854477 L6.30483333,31.4854477 C2.82898485,31.4851595 0,34.3152247 0,37.7936604 C0,41.2720961 2.82725758,44.1038902 6.3039697,44.1038902 L7.83951515,44.1038902 L7.83951515,50.0153002 C7.83951515,51.9840412 9.43868182,53.5813379 11.4037424,53.5813379 C13.3670758,53.5813379 14.9627879,51.9823122 14.9627879,50.0153002 L14.9627879,44.1038902 L16.4056364,44.1038902 L16.4056364,50.0153002 C16.4056364,51.9840412 18.0030758,53.5813379 19.9646818,53.5813379 C21.9314697,53.5813379 23.5271818,51.9823122 23.5271818,50.0153002 L23.5271818,44.1038902 L24.2537879,44.1038902 L33.3973939,59.9555403 C34.1119091,61.1883087 35.4347121,61.9536741 36.8533788,61.9536741 L59.1720455,61.9536741 C60.5979091,61.9536741 61.9238788,61.1885969 62.6314848,59.9555403 L71.7768182,44.1038902 L82.8958485,44.1038902 L82.8958485,49.0231492 C82.8958485,52.3606724 85.6065152,55.0772007 88.9421667,55.0772007 C92.2778182,55.0772007 94.9884848,52.3603842 94.9884848,49.0231492 L94.9884848,29.6965214 C94.9856061,26.3630326 92.2749394,23.6462161 88.9410152,23.6462161 Z M52.3118939,34.7950189 L61.3541667,34.8053928 L36.1653485,52.3814202 L35.4660909,51.5422847 L35.584697,51.4218319 L47.2532879,39.7416535 L38.1183182,39.7416535 L57.8172879,24.8444048 L64.8927727,24.8444048 L52.3118939,34.7950189 Z" id="Shape"></path>
                        <path d="M42.3645303,8.26571527 L47.2771818,8.26571527 L47.2771818,11.3021063 C47.2771818,13.4117599 48.9932273,15.1277804 51.0990606,15.1277804 C53.2031667,15.1277804 54.9174848,13.4117599 54.9174848,11.3021063 L54.9174848,8.26571527 L59.8353182,8.26571527 C62.0358636,8.26571527 63.8273333,6.47563636 63.8273333,4.27492281 C63.8273333,2.07219211 62.0358636,0.278943396 59.8353182,0.278943396 L42.3642424,0.278943396 C40.163697,0.278943396 38.3722273,2.07219211 38.3722273,4.27492281 C38.3725152,6.47592453 40.1639848,8.26571527 42.3645303,8.26571527 Z" id="Shape"></path>
                    </g>
                </g>
            </g>
        </g>
    </g>
</svg>