<?xml version="1.0" encoding="UTF-8"?>
<svg width="37px" height="24px" viewBox="0 0 37 24" version="1.1" xmlns="http://www.w3.org/2000/svg" xmlns:xlink="http://www.w3.org/1999/xlink">
    <!-- Generator: Sketch 41.2 (35397) - http://www.bohemiancoding.com/sketch -->
    <title>engine_speed</title>
    <desc>Created with Sketch.</desc>
    <defs></defs>
    <g id="Page-1" stroke="none" stroke-width="1" fill="none" fill-rule="evenodd">
        <g id="vehicle_diagnostic-copy-8" transform="translate(-547.000000, -349.000000)" fill="#3EB64D">
            <g id="Group-17" transform="translate(495.000000, 349.000000)">
                <g id="Capa_1" transform="translate(52.000000, 0.000000)">
                    <g id="engine_speed">
                        <path d="M34.6401848,9.15337398 C33.341597,9.15337398 32.285303,10.2050449 32.285303,11.4968778 L32.285303,12.188473 L28.9482394,12.188473 L28.9522758,7.46008123 C28.9522758,7.04746661 28.7903727,6.65872318 28.4974,6.36457212 C28.2024091,6.07242893 27.8116667,5.91202346 27.3968182,5.91202346 L14.3537576,5.91202346 C13.8011121,5.91202346 13.2860273,6.20818237 13.0077424,6.68549461 L9.81587576,12.1879152 L9.16355455,12.1879152 L9.16355455,10.5332179 C9.16355455,9.77179395 8.54139394,9.15281625 7.77605455,9.15281625 C7.01138788,9.15281625 6.3899,9.77246323 6.3899,10.5332179 L6.3899,12.1879152 L5.82794848,12.1879152 L5.82794848,10.5332179 C5.82794848,9.77179395 5.20578788,9.15281625 4.44179394,9.15281625 C3.67578182,9.15281625 3.05362121,9.77246323 3.05362121,10.5332179 L3.05362121,12.1879152 L2.45556667,12.1879152 C1.10181515,12.1878037 0,13.2833128 0,14.629804 C0,15.9762952 1.10114242,17.0724736 2.4552303,17.0724736 L3.05328485,17.0724736 L3.05328485,19.3607614 C3.05328485,20.1228546 3.67611818,20.7411631 4.44145758,20.7411631 C5.20612424,20.7411631 5.82761212,20.1221854 5.82761212,19.3607614 L5.82761212,17.0724736 L6.38956364,17.0724736 L6.38956364,19.3607614 C6.38956364,20.1228546 7.01172424,20.7411631 7.77571818,20.7411631 C8.5417303,20.7411631 9.16321818,20.1221854 9.16321818,19.3607614 L9.16321818,17.0724736 L9.44621212,17.0724736 L13.0074061,23.2085962 C13.2856909,23.6857969 13.8008879,23.9820674 14.3534212,23.9820674 L23.0459545,23.9820674 C23.6012909,23.9820674 24.1177212,23.6859085 24.3933152,23.2085962 L27.9551818,17.0724736 L32.2857515,17.0724736 L32.2857515,18.9767029 C32.2857515,20.2686474 33.3414848,21.3202067 34.6406333,21.3202067 C35.9397818,21.3202067 36.9955152,20.2685358 36.9955152,18.9767029 L36.9955152,11.4954277 C36.9943939,10.2050449 35.9386606,9.15337398 34.6401848,9.15337398 Z M20.3741061,13.4690396 L23.8958333,13.4730553 L14.0854515,20.2766788 L13.8131091,19.9518522 L13.859303,19.9052253 L18.4039121,15.3838659 L14.8460818,15.3838659 L22.5183121,9.61718896 L25.2740273,9.61718896 L20.3741061,13.4690396 Z" id="Shape"></path>
                        <path d="M16.4998697,3.19963172 L18.4132182,3.19963172 L18.4132182,4.37500891 C18.4132182,5.19164898 19.0815727,5.85591501 19.9017394,5.85591501 C20.7212333,5.85591501 21.3889152,5.19164898 21.3889152,4.37500891 L21.3889152,3.19963172 L23.3042818,3.19963172 C24.1613364,3.19963172 24.8590667,2.50669795 24.8590667,1.65480883 C24.8590667,0.802138881 24.1613364,0.107978089 23.3042818,0.107978089 L16.4997576,0.107978089 C15.642703,0.107978089 14.9449727,0.802138881 14.9449727,1.65480883 C14.9450848,2.50680949 15.6428152,3.19963172 16.4998697,3.19963172 Z" id="Shape"></path>
                    </g>
                </g>
            </g>
        </g>
    </g>
</svg>