<?xml version="1.0" encoding="UTF-8"?>
<svg width="30px" height="30px" viewBox="0 0 30 30" version="1.1" xmlns="http://www.w3.org/2000/svg" xmlns:xlink="http://www.w3.org/1999/xlink">
    <!-- Generator: Sketch 41.2 (35397) - http://www.bohemiancoding.com/sketch -->
    <title>fuel_level</title>
    <desc>Created with Sketch.</desc>
    <defs></defs>
    <g id="Page-1" stroke="none" stroke-width="1" fill="none" fill-rule="evenodd">
        <g id="vehicle_diagnostic-copy-8" transform="translate(-1000.000000, -234.000000)" fill="#F24444">
            <g id="Group-11" transform="translate(926.000000, 234.000000)">
                <g id="fuel_level" transform="translate(74.000000, 0.000000)">
                    <g id="Layer_1">
                        <path d="M15,0 C6.7096875,0 0,6.70880859 0,15 C0,23.2903125 6.70880859,30 15,30 C23.2903125,30 30,23.2911914 30,15 C30,6.7096875 23.2911914,0 15,0 Z M15,28.0000195 C7.83181641,28.0000195 1.99998047,22.1682422 1.99998047,15 C1.99998047,7.83175781 7.83181641,1.99998047 15,1.99998047 C22.1681836,1.99998047 28.0000195,7.83181641 28.0000195,15 C28.0000195,22.1681836 22.1681836,28.0000195 15,28.0000195 Z" id="Shape"></path>
                        <path d="M18.916582,13.9999805 L26.6233008,13.9999805 C26.1144141,8.03337891 21.0961523,3.33333984 15,3.33333984 C8.90384766,3.33333984 3.88558594,8.03337891 3.37664062,13.9999805 L12.5387695,13.9999805 C12.9066211,11.9206641 14.3833594,11.7283594 18.691875,10.0085742 C19.5063281,9.68384766 20.3162695,10.4941992 19.99125,11.308125 L18.916582,13.9999805 Z" id="Shape"></path>
                        <path d="M15.1194141,13.5880664 C14.4701953,13.8469336 14.2702734,14.7000586 14.7850781,15.2149219 C15.1212305,15.5508398 16.0213477,15.8623828 16.5114844,14.630332 L16.5192773,14.6108203 L16.5192773,14.6107617 L17.2703906,12.7294922 L15.1194141,13.5880664 Z" id="Shape"></path>
                        <path d="M18.0571289,16.0000195 C16.7265234,18.1941797 13.94625,17.8359375 12.8888086,16.0000195 L3.37664062,16.0000195 C3.88564453,21.9666211 8.90384766,26.6666602 15,26.6666602 C21.0961523,26.6666602 26.1144141,21.9666211 26.6233594,16.0000195 L18.0571289,16.0000195 Z" id="Shape"></path>
                    </g>
                </g>
            </g>
        </g>
    </g>
</svg>