<?xml version="1.0" encoding="UTF-8"?>
<svg width="34px" height="34px" viewBox="0 0 34 34" version="1.1" xmlns="http://www.w3.org/2000/svg" xmlns:xlink="http://www.w3.org/1999/xlink">
    <!-- Generator: Sketch 41.2 (35397) - http://www.bohemiancoding.com/sketch -->
    <title>fuel_alert</title>
    <desc>Created with Sketch.</desc>
    <defs></defs>
    <g id="Page-1" stroke="none" stroke-width="1" fill="none" fill-rule="evenodd">
        <g id="Dashboard_d3-Copy" transform="translate(-171.000000, -405.000000)" fill="#3EB64D">
            <g id="fuel_alert" transform="translate(171.000000, 405.000000)">
                <g id="gauge">
                    <g id="Layer_1">
                        <path d="M17,0 C7.6043125,0 0,7.60331641 0,17 C0,26.3956875 7.60331641,34 17,34 C26.3956875,34 34,26.3966836 34,17 C34,7.6043125 26.3966836,0 17,0 Z M17,31.7333555 C8.87605859,31.7333555 2.26664453,25.1240078 2.26664453,17 C2.26664453,8.87599219 8.87605859,2.26664453 17,2.26664453 C25.1239414,2.26664453 31.7333555,8.87605859 31.7333555,17 C31.7333555,25.1239414 25.1239414,31.7333555 17,31.7333555 Z" id="Shape"></path>
                        <path d="M21.438793,15.8666445 L30.1730742,15.8666445 C29.5963359,9.10449609 23.9089727,3.77778516 17,3.77778516 C10.0910273,3.77778516 4.40366406,9.10449609 3.82685937,15.8666445 L14.2106055,15.8666445 C14.6275039,13.5100859 16.3011406,13.2921406 21.184125,11.3430508 C22.1071719,10.9750273 23.0251055,11.8934258 22.65675,12.815875 L21.438793,15.8666445 Z" id="Shape"></path>
                        <path d="M17.1353359,15.3998086 C16.3995547,15.6931914 16.1729766,16.6600664 16.7564219,17.2435781 C17.1373945,17.6242852 18.1575273,17.9773672 18.7130156,16.581043 L18.7218477,16.5589297 L18.7218477,16.5588633 L19.5731094,14.4267578 L17.1353359,15.3998086 Z" id="Shape"></path>
                        <path d="M20.4647461,18.1333555 C18.9567266,20.6200703 15.80575,20.2140625 14.6073164,18.1333555 L3.82685937,18.1333555 C4.40373047,24.8955039 10.0910273,30.2222148 17,30.2222148 C23.9089727,30.2222148 29.5963359,24.8955039 30.1731406,18.1333555 L20.4647461,18.1333555 Z" id="Shape"></path>
                    </g>
                </g>
            </g>
        </g>
    </g>
</svg>