<?xml version="1.0" encoding="UTF-8"?>
<svg width="21px" height="26px" viewBox="0 0 21 26" version="1.1" xmlns="http://www.w3.org/2000/svg" xmlns:xlink="http://www.w3.org/1999/xlink">
    <!-- Generator: Sketch 41.2 (35397) - http://www.bohemiancoding.com/sketch -->
    <title>gas-station</title>
    <desc>Created with Sketch.</desc>
    <defs></defs>
    <g id="Page-1" stroke="none" stroke-width="1" fill="none" fill-rule="evenodd">
        <g id="vehicle_diagnostic-copy-8" transform="translate(-405.000000, -234.000000)" fill="#F8B039">
            <g id="Group-7" transform="translate(343.000000, 234.000000)">
                <g id="gas-station" transform="translate(62.000000, 0.000000)">
                    <g id="Capa_1">
                        <path d="M20.541371,6.90212172 L20.2562746,6.90212172 L19.5323261,4.83648542 C19.4634027,4.63996045 19.307968,4.48698025 19.1118593,4.4230013 L18.1789997,4.11810297 C17.8307304,4.00424933 17.4579056,4.1975881 17.3456635,4.54968472 C17.2332956,4.9018663 17.4242833,5.27949501 17.7720909,5.39309375 L18.3937874,5.59633099 L18.8514024,6.90207924 L18.654748,6.90207924 C18.5245825,6.90207924 18.406422,6.97931279 18.3529454,7.09958131 L17.8162909,8.30570764 C17.7945477,8.35460522 17.7846835,8.40817591 17.7876637,8.46170411 L17.9895231,12.1464835 C17.9993033,12.3239763 18.1442861,12.4628947 18.3199948,12.4628947 L18.5263035,12.4628947 L18.5263035,20.4509167 C18.5263035,21.3422887 18.0262095,22.1171307 17.2952931,22.5046154 L17.2952931,17.5220319 C17.2952931,17.0315267 17.1204659,16.5817623 16.8310041,16.2323846 L16.8310041,2.49658081 C16.831046,1.11997141 15.7245345,0 14.364366,0 L2.96235656,0 C1.60218812,0 0.495676564,1.11997141 0.495676564,2.49658081 L0.495676564,16.2321722 C0.20613077,16.5815075 0.0312615643,17.0313568 0.0312615643,17.521947 L0.0312615643,23.9894282 C0.0312615643,25.0977593 0.922187846,25.9994122 2.01732409,25.9994122 L15.3093146,25.9994122 C16.2990508,25.9994122 17.1217671,25.2629321 17.2710314,24.3030355 C18.9458049,23.8418008 20.1813066,22.2900777 20.1813066,20.4509167 L20.1813066,12.4629797 L20.541329,12.4629797 C20.7240896,12.4629797 20.8723044,12.3130157 20.8723044,12.1280036 L20.8723044,7.23718278 C20.8723464,7.05217062 20.7241735,6.90212172 20.541371,6.90212172 Z M8.66331933,18.2675184 C7.11291871,18.2675184 5.85605154,16.9954589 5.85605154,15.4263179 C5.85605154,13.8572194 8.66331933,10.854967 8.66331933,10.854967 C8.66331933,10.854967 11.4705032,13.8572619 11.4705032,15.4263179 C11.4705032,16.9954589 10.213594,18.2675184 8.66331933,18.2675184 Z M14.1832425,7.16878563 L3.14356404,7.16878563 L3.14356404,2.67989366 L14.1832425,2.67989366 L14.1832425,7.16878563 Z" id="Shape"></path>
                    </g>
                </g>
            </g>
        </g>
    </g>
</svg>