<?xml version="1.0" encoding="UTF-8"?>
<svg width="33px" height="39px" viewBox="0 0 33 39" version="1.1" xmlns="http://www.w3.org/2000/svg" xmlns:xlink="http://www.w3.org/1999/xlink">
    <!-- Generator: Sketch 41.2 (35397) - http://www.bohemiancoding.com/sketch -->
    <title>gps_tamping</title>
    <desc>Created with Sketch.</desc>
    <defs>
        <path d="M20.2283874,0 C17.8615476,0 15.9428571,1.85971629 15.9428571,4.15377746 C15.9428571,4.53843515 15.9970466,4.91076061 16.0980012,5.26427422 C16.1384199,5.40584091 16.1862016,5.54442159 16.2412537,5.67950864 L16.3711668,5.96571761 L20.2284183,12.8742676 L24.0906296,5.95589364 L24.207727,5.69796218 C24.2660139,5.55705241 24.3164757,5.41232055 24.3587429,5.26427422 C24.4596974,4.91076061 24.5138869,4.53843515 24.5138869,4.15377746 C24.5138869,1.85971629 22.5951965,0 20.2283874,0 Z M20.2283874,6.18247201 C19.0527309,6.18247201 18.0963893,5.25549536 18.0963893,4.11600445 C18.0963893,2.97651354 19.0527617,2.04953689 20.2283874,2.04953689 C21.4040132,2.04953689 22.3603856,2.97651354 22.3603856,4.11600445 C22.3603856,5.25549536 21.4040132,6.18247201 20.2283874,6.18247201 Z" id="path-1"></path>
        <mask id="mask-2" maskContentUnits="userSpaceOnUse" maskUnits="objectBoundingBox" x="-1" y="-1" width="10.5710298" height="14.8742676">
            <rect x="14.9428571" y="-1" width="10.5710298" height="14.8742676" fill="white"></rect>
            <use xlink:href="#path-1" fill="black"></use>
        </mask>
        <rect id="path-3" x="13.7955343" y="2.53384721" width="2.54767735" height="37.022042"></rect>
        <mask id="mask-4" maskContentUnits="userSpaceOnUse" maskUnits="objectBoundingBox" x="-1" y="-1" width="4.54767735" height="39.022042">
            <rect x="12.7955343" y="1.53384721" width="4.54767735" height="39.022042" fill="white"></rect>
            <use xlink:href="#path-3" fill="black"></use>
        </mask>
    </defs>
    <g id="Page-1" stroke="none" stroke-width="1" fill="none" fill-rule="evenodd">
        <g id="Dashboard_d3-Copy" transform="translate(-782.000000, -515.000000)">
            <g id="gps_tamping" transform="translate(783.000000, 516.000000)">
                <g id="Group-17-Copy-16">
                    <g id="Group-7">
                        <g id="Group-10">
                            <g id="body">
                                <g id="Page-1">
                                    <g>
                                        <g id="Artboard">
                                            <g id="body">
                                                <g id="Group">
                                                    <g id="Group-9-Copy">
                                                        <g id="towing">
                                                            <g id="body">
                                                                <g id="Page-1">
                                                                    <g id="Artboard">
                                                                        <g id="body">
                                                                            <g id="Group">
                                                                                <g id="Group-31">
                                                                                    <g id="noun_605474_cc" transform="translate(8.960790, 17.700716)" fill="#202634">
                                                                                        <g id="Group">
                                                                                            <g id="Shape">
                                                                                                <path d="M1.95829544,0.916720865 L1.16945616,0.152127882 C0.604647226,1.16241008 0.283852584,2.31847467 0.283852584,3.54692073 C0.283852584,3.60910762 0.292266869,3.67027506 0.294370441,3.73246196 C0.620424012,3.6193022 0.967513298,3.54692073 1.3356383,3.54692073 C1.3356383,2.60494217 1.5638758,1.71495594 1.95829544,0.916720865 Z"></path>
                                                                                            </g>
                                                                                        </g>
                                                                                    </g>
                                                                                    <g id="noun_605474_cc" transform="translate(0.000000, 6.438678)" fill="#F24444">
                                                                                        <g id="Group">
                                                                                            <g>
                                                                                                <path d="M15.2785714,0 C11.9796732,0 8.93287143,1.02428632 6.43609821,2.74706186 L7.34899286,3.63189715 C9.60640179,2.12261743 12.3361732,1.2340799 15.2785714,1.2340799 C22.9993429,1.2340799 29.2839286,7.32426423 29.2839286,14.8089588 C29.2839286,17.2536711 28.6053054,19.5416553 27.4339482,21.5248217 C27.807,21.7444879 28.1329429,22.0258581 28.4092304,22.3516552 C29.7639304,20.1414181 30.5571429,17.5671274 30.5571429,14.8089588 C30.5571429,6.63071132 23.7161625,0 15.2785714,0 Z" id="Shape" stroke="#F24444" stroke-width="2"></path>
                                                                                                <path d="M15.2785714,29.6179177 C18.1242054,29.6179177 20.7788571,28.8490859 23.0617304,27.5360249 C22.7230554,27.2682295 22.4353089,26.951071 22.2074036,26.5894856 C20.1626214,27.7248391 17.7995357,28.3838378 15.2785714,28.3838378 C7.55652679,28.3838378 1.27321429,22.2936535 1.27321429,14.8089588 C1.27321429,11.9570002 2.19120179,9.30989879 3.74706964,7.12434328 L2.834175,6.23827391 C1.05676786,8.65953868 0,11.6114578 0,14.8089588 C0,22.9872064 6.84098036,29.6179177 15.2785714,29.6179177 Z" id="Shape" stroke="#F24444" stroke-width="2"></path>
                                                                                                <path d="M8.39302857,11.6250327 L7.43811786,10.6994728 C6.75440179,11.9224459 6.36607143,13.3218926 6.36607143,14.8089588 C6.36607143,14.8842377 6.37625714,14.9582825 6.37880357,15.0335614 C6.7735,14.8965785 7.19366071,14.8089588 7.63928571,14.8089588 C7.63928571,13.668669 7.91557321,12.5913173 8.39302857,11.6250327 Z" id="Shape"></path>
                                                                                                <path d="M15.5102964,6.18150623 C15.4326304,6.18027215 15.3562375,6.17039952 15.2785714,6.17039952 C13.7443482,6.17039952 12.29925,6.54679389 11.0387679,7.20949479 L11.9936786,8.13382064 C12.9906054,7.67104068 14.1021214,7.40447942 15.2785714,7.40447942 C15.2785714,6.97378553 15.3689696,6.56653916 15.5102964,6.18150623 Z" id="Shape"></path>
                                                                                                <path d="M23.119025,18.9184449 C23.8027411,17.6954717 24.1910714,16.2960251 24.1910714,14.8089588 C24.1910714,12.787536 23.4704321,10.9339479 22.2710643,9.4629247 C22.0291536,9.81216931 21.7184893,10.1095826 21.372175,10.3613349 C22.3385446,11.6015852 22.9178571,13.1404828 22.9178571,14.8089588 C22.9178571,15.9492487 22.6415696,17.0266004 22.1641143,17.992885 L23.119025,18.9184449 Z" id="Shape"></path>
                                                                                                <path d="M19.518375,22.4084229 L18.5634643,21.482863 C17.5678107,21.946877 16.4562946,22.2134383 15.2785714,22.2134383 C13.5546393,22.2134383 11.9694875,21.6506978 10.6899071,20.7152653 C10.4301714,21.050935 10.1233268,21.3520505 9.76300714,21.5865257 C11.2794054,22.7490289 13.1930464,23.4475182 15.2785714,23.4475182 C16.8127946,23.4475182 18.2578929,23.0711238 19.518375,22.4084229 Z" id="Shape"></path>
                                                                                                <ellipse id="Oval" cx="19.0982143" cy="7.40447942" rx="2.54642857" ry="2.46815981"></ellipse>
                                                                                                <ellipse id="Oval" cx="7.63928571" cy="18.5111985" rx="2.54642857" ry="2.46815981"></ellipse>
                                                                                            </g>
                                                                                        </g>
                                                                                    </g>
                                                                                    <g id="Shape">
                                                                                        <use fill="#F24444" fill-rule="evenodd" xlink:href="#path-1"></use>
                                                                                        <use stroke="#202634" mask="url(#mask-2)" stroke-width="2" xlink:href="#path-1"></use>
                                                                                    </g>
                                                                                    <ellipse id="Oval-2" fill="#F24444" cx="15.2785714" cy="21.2476366" rx="5.97857143" ry="5.79480998"></ellipse>
                                                                                    <g id="Rectangle-path" transform="translate(15.069373, 21.044868) rotate(-45.000000) translate(-15.069373, -21.044868) ">
                                                                                        <use fill="#F24444" fill-rule="evenodd" xlink:href="#path-3"></use>
                                                                                        <use stroke="#202634" mask="url(#mask-4)" stroke-width="2" xlink:href="#path-3"></use>
                                                                                    </g>
                                                                                </g>
                                                                            </g>
                                                                        </g>
                                                                    </g>
                                                                </g>
                                                            </g>
                                                        </g>
                                                    </g>
                                                </g>
                                            </g>
                                        </g>
                                    </g>
                                </g>
                            </g>
                        </g>
                    </g>
                </g>
            </g>
        </g>
    </g>
</svg>