<?xml version="1.0" encoding="UTF-8"?>
<svg width="29px" height="19px" viewBox="0 0 29 19" version="1.1" xmlns="http://www.w3.org/2000/svg" xmlns:xlink="http://www.w3.org/1999/xlink">
    <!-- Generator: Sketch 41.2 (35397) - http://www.bohemiancoding.com/sketch -->
    <title>head_light</title>
    <desc>Created with Sketch.</desc>
    <defs></defs>
    <g id="Page-1" stroke="none" stroke-width="1" fill="none" fill-rule="evenodd">
        <g id="vehicle_diagnostic-copy-8" transform="translate(-400.000000, -350.000000)" fill="#3EB64D">
            <g id="Group-16" transform="translate(343.000000, 350.000000)">
                <g id="Capa_1" transform="translate(57.000000, 0.000000)">
                    <g id="head_light">
                        <path d="M19.5567444,0 L14.7652938,0 C11.9791136,0 10.52124,4.71449494 10.52124,9.37150435 C10.52124,14.0285138 11.979211,18.7429114 14.7652938,18.7429114 L19.5567444,18.7429114 C24.7320255,18.7429114 28.9425672,14.5386857 28.9425672,9.37150435 C28.9425672,4.20422569 24.7320255,0 19.5567444,0 Z" id="XMLID_117_"></path>
                        <path d="M2.47833652,8.46846589 L0.991334609,8.46846589 C0.443937875,8.46846589 0,8.91162005 0,9.45817036 C0,10.0047207 0.443937875,10.4479721 0.991334609,10.4479721 L2.47833652,10.4479721 C3.02573326,10.4479721 3.46967113,10.0047207 3.46967113,9.45817036 C3.46957371,8.91162005 3.02573326,8.46846589 2.47833652,8.46846589 Z" id="XMLID_116_"></path>
                        <path d="M7.76535702,8.46846589 L6.27845252,8.46846589 C5.73095837,8.46846589 5.28711791,8.91162005 5.28711791,9.45817036 C5.28711791,10.0047207 5.73095837,10.4479721 6.27845252,10.4479721 L7.76535702,10.4479721 C8.31285117,10.4479721 8.75678905,10.0047207 8.75678905,9.45817036 C8.75678905,8.91162005 8.31285117,8.46846589 7.76535702,8.46846589 Z" id="XMLID_115_"></path>
                        <path d="M2.31905664,15.1923284 L0.84754433,15.4073885 C0.30589531,15.4860785 -0.0685828975,15.9887609 0.0107160777,16.5299614 C0.0827086363,17.0220415 0.506383382,17.3761952 0.989873326,17.3761952 C1.03780342,17.3761952 1.08622061,17.3728881 1.13512489,17.3657875 L2.60653978,17.1506301 C3.1481888,17.0718429 3.52276443,16.5691605 3.44356287,16.02796 C3.36397164,15.4876348 2.85924438,15.1139302 2.31905664,15.1923284 Z" id="XMLID_114_"></path>
                        <path d="M7.62166416,14.4175868 L6.15015185,14.6326469 C5.60850283,14.7114342 5.2339272,15.2140192 5.31322618,15.755317 C5.38531615,16.2472999 5.80889348,16.6015508 6.29238342,16.6015508 C6.34031352,16.6015508 6.38882812,16.5981465 6.43763499,16.5909486 L7.9091473,16.3759858 C8.45079632,16.2971012 8.82527452,15.7944189 8.74597555,15.2532183 C8.66716367,14.7123096 8.16331318,14.3369514 7.62166416,14.4175868 Z" id="XMLID_113_"></path>
                        <path d="M0.847446911,3.50895222 L2.31895922,3.72391506 C2.3678635,3.73121018 2.41628069,3.73461457 2.46411336,3.73461457 C2.94770073,3.73461457 3.37118064,3.38026632 3.44346545,2.8882835 C3.52276443,2.34708294 3.14809138,1.84459515 2.60644236,1.76561332 L1.13502747,1.55055322 C0.59337845,1.4718632 0.0900150529,1.84547056 0.0106186588,2.38618478 C-0.0686803164,2.9274826 0.30589531,3.43006767 0.847446911,3.50895222 Z" id="XMLID_112_"></path>
                        <path d="M6.15015185,4.28359658 L7.62166416,4.49865669 C7.67047102,4.50595181 7.71898563,4.5093562 7.76672088,4.5093562 C8.25030825,4.5093562 8.67378815,4.15510522 8.74597555,3.66302513 C8.82527452,3.12182457 8.45079632,2.61914224 7.9091473,2.54025769 L6.43763499,2.32529485 C5.89734983,2.24358952 5.39262257,2.62011493 5.31322618,3.16092641 C5.2339272,3.70222424 5.60850283,4.20471203 6.15015185,4.28359658 Z" id="XMLID_111_"></path>
                    </g>
                </g>
            </g>
        </g>
    </g>
</svg>