<?xml version="1.0" encoding="UTF-8"?>
<svg width="39px" height="26px" viewBox="0 0 39 26" version="1.1" xmlns="http://www.w3.org/2000/svg" xmlns:xlink="http://www.w3.org/1999/xlink">
    <!-- Generator: Sketch 41.2 (35397) - http://www.bohemiancoding.com/sketch -->
    <title>headLight</title>
    <desc>Created with Sketch.</desc>
    <defs></defs>
    <g id="Page-1" stroke="none" stroke-width="1" fill="none" fill-rule="evenodd">
        <g id="Dashboard_d3-Copy" transform="translate(-472.000000, -414.000000)" fill="#3EB64D">
            <g id="headLight" transform="translate(491.500000, 427.000000) scale(-1, 1) translate(-491.500000, -427.000000) translate(471.000000, 414.000000)">
                <g id="Group-7">
                    <g id="Group-10">
                        <g id="chasis">
                            <g id="Page-1">
                                <g>
                                    <g id="Artboard">
                                        <g id="chasis">
                                            <g id="Page-1">
                                                <g id="Dashboard_d2">
                                                    <g id="Group-5">
                                                        <g id="Group-7-Copy" transform="translate(0.264805, 0.000000)">
                                                            <g id="Group-6">
                                                                <g id="chasis">
                                                                    <g id="noun_782065_cc-copy" transform="translate(19.909875, 13.000000) scale(-1, 1) translate(-19.909875, -13.000000) translate(0.409875, 0.000000)">
                                                                        <g id="Group">
                                                                            <g id="Shape" transform="translate(0.000000, 0.344287)">
                                                                                <g id="Group-13-Copy">
                                                                                    <g id="XMLID_110_">
                                                                                        <path d="M26.1182101,0.11417393 L19.6993921,0.11417393 C15.9669142,0.11417393 14.0138886,6.32505631 14.0138886,12.4602072 C14.0138886,18.595358 15.9670447,24.8061123 19.6993921,24.8061123 L26.1182101,24.8061123 C33.0512226,24.8061123 38.691832,19.2674593 38.691832,12.4602072 C38.691832,5.65282687 33.0512226,0.11417393 26.1182101,0.11417393 Z" id="XMLID_117_"></path>
                                                                                        <path d="M3.32007827,11.1563691 L1.32803131,11.1563691 C0.594716851,11.1563691 0,11.740181 0,12.4602072 C0,13.1802333 0.594716851,13.7641734 1.32803131,13.7641734 L3.32007827,13.7641734 C4.05339273,13.7641734 4.64810958,13.1802333 4.64810958,12.4602072 C4.64797908,11.740181 4.05339273,11.1563691 3.32007827,11.1563691 Z" id="XMLID_116_"></path>
                                                                                        <path d="M10.4027814,11.1563691 L8.41086496,11.1563691 C7.67741999,11.1563691 7.08283365,11.740181 7.08283365,12.4602072 C7.08283365,13.1802333 7.67741999,13.7641734 8.41086496,13.7641734 L10.4027814,13.7641734 C11.1362264,13.7641734 11.7309432,13.1802333 11.7309432,12.4602072 C11.7309432,11.740181 11.1362264,11.1563691 10.4027814,11.1563691 Z" id="XMLID_115_"></path>
                                                                                        <path d="M3.1067006,20.0143952 L1.13540413,20.2977157 C0.409789535,20.401382 -0.0918763799,21.0636164 0.0143556844,21.7765948 C0.110799782,22.4248618 0.678371339,22.8914244 1.32607372,22.8914244 C1.39028278,22.8914244 1.45514437,22.8870676 1.52065849,22.8777133 L3.49182446,22.5942647 C4.21743905,22.4904702 4.71923547,21.8282358 4.61313391,21.1152574 C4.50651033,20.4034323 3.8303576,19.9111132 3.1067006,20.0143952 Z" id="XMLID_114_"></path>
                                                                                        <path d="M10.2102847,18.9937494 L8.23898826,19.2770699 C7.51337367,19.3808644 7.01157725,20.0429707 7.11780932,20.7560772 C7.21438392,21.4042161 7.78182497,21.8709068 8.42952735,21.8709068 C8.49373641,21.8709068 8.55872851,21.8664219 8.62411212,21.8569394 L10.5954086,21.5737471 C11.3210232,21.4698244 11.8226891,20.80759 11.716457,20.0946116 C11.6108775,19.3820177 10.9358993,18.8875203 10.2102847,18.9937494 Z" id="XMLID_113_"></path>
                                                                                        <path d="M1.13527362,4.62269867 L3.10657009,4.90589102 C3.17208422,4.91550162 3.23694581,4.91998657 3.30102436,4.91998657 C3.94885725,4.91998657 4.51616779,4.45316768 4.61300341,3.80502881 C4.71923547,3.09205042 4.21730854,2.43007228 3.49169395,2.32602152 L1.52052799,2.04270103 C0.794913395,1.93903469 0.120587749,2.43122555 0.0142251781,3.14356324 C-0.0920068861,3.85666977 0.409789535,4.51877605 1.13527362,4.62269867 Z" id="XMLID_112_"></path>
                                                                                        <path d="M8.23898826,5.64321627 L10.2102847,5.92653676 C10.2756684,5.93614736 10.3406605,5.94063231 10.4046085,5.94063231 C11.0524414,5.94063231 11.6197519,5.47394156 11.716457,4.82567455 C11.8226891,4.11269616 11.3210232,3.45046174 10.5954086,3.34653911 L8.62411212,3.06334676 C7.90032462,2.95570804 7.22417189,3.45174315 7.11780932,4.16420897 C7.01157725,4.8773155 7.51337367,5.53929364 8.23898826,5.64321627 Z" id="XMLID_111_"></path>
                                                                                    </g>
                                                                                </g>
                                                                            </g>
                                                                        </g>
                                                                    </g>
                                                                </g>
                                                            </g>
                                                        </g>
                                                    </g>
                                                </g>
                                            </g>
                                        </g>
                                    </g>
                                </g>
                            </g>
                        </g>
                    </g>
                </g>
            </g>
        </g>
    </g>
</svg>