<?xml version="1.0" encoding="UTF-8"?>
<svg width="51px" height="40px" viewBox="0 0 51 40" version="1.1" xmlns="http://www.w3.org/2000/svg" xmlns:xlink="http://www.w3.org/1999/xlink">
    <!-- Generator: Sketch 41.2 (35397) - http://www.bohemiancoding.com/sketch -->
    <title>healty_veh copy</title>
    <desc>Created with Sketch.</desc>
    <defs></defs>
    <g id="Page-1" stroke="none" stroke-width="1" fill="none" fill-rule="evenodd">
        <g id="Dashboard_d3-Copy" transform="translate(-162.000000, -287.000000)">
            <g id="healty_veh-copy" transform="translate(162.000000, 287.000000)">
                <g id="healty_veh">
                    <g id="Page-1">
                        <g id="Artboard">
                            <g id="healty_veh">
                                <g id="Page-1">
                                    <g id="Dashboard_d2">
                                        <g id="healty_veh">
                                            <g id="noun_827164_cc-copy" transform="translate(38.043299, 0.000000)">
                                                <g id="Group">
                                                    <rect id="Rectangle-path" fill="#575A62" x="0.176094238" y="5.82265577" width="1.65849777" height="7.59456817"></rect>
                                                    <path d="M2.57805652,6.86618423 L2.57805652,12.2577479 L4.35093345,12.2577479 C5.03720838,12.2577479 6.29537907,13.1853287 7.43917067,13.1853287 C8.64015178,13.1853287 10.4130287,13.3012763 11.042114,12.7795121 C11.4996307,12.3736955 11.6140099,12.0838265 11.6140099,11.7939575 C11.6140099,11.4461146 11.4424411,11.330167 11.5568203,10.9243504 C11.6711995,10.46056 11.9571473,10.5765076 12.1287161,9.88082193 C12.1859056,9.59095296 11.9571473,9.18513631 12.0143369,8.89526734 C12.0715265,8.5474245 12.4718535,8.31552928 12.4718535,7.73579127 C12.5290432,7.04010559 12.0143369,7.27200087 12.0143369,6.69226281 C12.0143369,6.054551 12.5862327,6.17049861 12.5862327,5.53278674 C12.5862327,4.89507493 11.8999577,4.37331071 9.32642678,4.66317972 C8.4685831,4.77912733 8.18263518,4.66317972 8.4685831,3.61965128 C8.69734134,2.57612283 9.32642678,0.373118328 7.32479155,0.373118328 C6.81008529,0.373118328 7.0960332,1.41664678 6.98165408,2.05435861 C6.8672749,2.69207043 4.75126049,5.06899634 3.6646585,5.82265577 C2.6352461,6.5763152 2.57805652,6.86618423 2.57805652,6.86618423 L2.57805652,6.86618423 Z" id="Shape" fill="#3EB64D"></path>
                                                </g>
                                            </g>
                                            <g id="noun_225527_cc-copy" transform="translate(0.000000, 11.952032)" fill="#3EB64D">
                                                <g id="Group">
                                                    <g id="Shape">
                                                        <path d="M38.564713,9.21208991 C38.5370235,9.17984868 38.5135295,9.14845585 38.4808055,9.11706302 L37.0401142,7.71117431 C38.2349566,7.43712361 39.5212582,6.42491767 39.5212582,5.38640966 C39.5212582,4.17651389 37.8607293,3.74719604 36.4435321,3.74719604 C34.9617262,3.74719604 34.7897158,4.77382569 34.7720953,5.49925408 L31.0549943,1.87550595 C30.299827,1.11953321 28.8675265,0.524766773 27.7968672,0.524766773 L20.5573305,0.524766773 L20.5556524,0.524766773 L13.3144376,0.524766773 C12.2446173,0.524766773 10.8131559,1.11953321 10.0571495,1.87550595 L6.3408876,5.49925408 C6.32158889,4.77382569 6.14957859,3.74719604 4.66945079,3.74719604 C3.25057545,3.74719604 1.59088566,4.17651389 1.59088566,5.38640966 C1.59088566,6.42491767 2.87802627,7.43712361 4.07286867,7.71117431 L2.63217738,9.11706302 C2.59945347,9.14845585 2.57679845,9.17984868 2.54826991,9.21208991 C1.00688966,10.5441631 0,13.0148619 0,14.8076457 L0,20.13509 C0,21.4281343 0.504283904,22.6015465 1.31902545,23.4763029 L1.31902545,25.542289 C1.31902545,26.7504879 2.31920251,27.7355432 3.54928605,27.7355432 L6.24607217,27.7355432 C7.4761557,27.7355432 8.47549372,26.7521848 8.47549372,25.542289 L8.47549372,25.013702 L20.5556524,25.013702 L20.5573305,25.013702 L32.6366501,25.013702 L32.6366501,25.542289 C32.6366501,26.7521848 33.635149,27.7355432 34.8669107,27.7355432 L37.5628578,27.7355432 C38.7937804,27.7355432 39.7922793,26.7504879 39.7922793,25.542289 L39.7922793,23.4763029 C40.6078599,22.6015465 41.1113047,21.4281343 41.1113047,20.13509 L41.1113047,14.8076457 C41.1129829,13.0148619 40.1060933,10.5441631 38.564713,9.21208991 L38.564713,9.21208991 Z M11.4223241,3.48587213 C11.9450677,3.04552437 12.85882,2.71123339 13.3144376,2.71123339 L20.5556524,2.71123339 L20.5573305,2.71123339 L27.7985453,2.71123339 C28.2541629,2.71123339 29.1679152,3.04552437 29.6906588,3.48587213 L34.5648438,8.26266958 L20.5573305,8.26266958 L20.5556524,8.26266958 L6.54897818,8.26266958 L11.4223241,3.48587213 L11.4223241,3.48587213 Z M1.67227591,14.0016142 C1.67227591,12.6899039 2.68755632,11.6250938 3.94113393,11.6250938 C5.19387249,11.6250938 9.28771803,14.0550668 9.28771803,15.3667771 C9.28771803,16.6784874 5.19387249,16.3747408 3.94113393,16.3747408 C2.68755632,16.3747408 1.67227591,15.3141729 1.67227591,14.0016142 L1.67227591,14.0016142 Z M8.47633275,22.6779074 L8.04420932,22.6779074 L7.61208583,22.6779074 L5.04871256,22.6821497 C4.3371772,22.4581578 3.83541052,22.1968339 3.48048192,21.9159955 C3.30091993,21.7743036 3.16331168,21.6266726 3.05591011,21.47989 C2.94766948,21.3314105 2.86879645,21.1854764 2.8176129,21.0395423 C2.4987645,20.1283024 3.15743815,19.290878 3.15743815,19.290878 L7.53237371,19.290878 L10.4489974,22.6762105 L8.47633275,22.6779074 L8.47633275,22.6779074 L8.47633275,22.6779074 Z M26.8470346,22.6796043 L20.5573305,22.6796043 L20.5556524,22.6796043 L14.2659483,22.6796043 C12.9544745,22.6796043 11.8896887,21.6029159 11.8896887,20.2776303 L20.5556524,20.2776303 L20.5573305,20.2776303 L29.2232942,20.2776303 C29.2232942,21.6046128 28.1585084,22.6796043 26.8470346,22.6796043 L26.8470346,22.6796043 Z M27.3991457,18.6384167 L20.5573305,18.6384167 L20.5556524,18.6384167 L13.7138372,18.6384167 C12.2874101,18.6384167 11.129487,16.8600566 11.129487,14.6668023 L20.5556524,14.6668023 L20.5573305,14.6668023 L29.9834959,14.6668023 C29.9834959,16.860905 28.8255728,18.6384167 27.3991457,18.6384167 L27.3991457,18.6384167 Z M38.2962091,21.0412392 C38.2441864,21.1871733 38.1653134,21.3331074 38.0570728,21.4807385 C37.9505103,21.6275211 37.812902,21.7751521 37.632501,21.9168439 C37.2784114,22.1976823 36.7758057,22.4607031 36.0642704,22.6829981 L33.5008971,22.6787559 L33.0687736,22.6787559 L32.6366501,22.6787559 L30.6623073,22.6787559 L33.5806092,19.2934234 L37.9547057,19.2934234 C37.9547057,19.2925749 38.6142184,20.1283024 38.2962091,21.0412392 L38.2962091,21.0412392 Z M37.1718489,16.3747408 C35.9199495,16.3747408 31.826104,16.6767905 31.826104,15.3667771 C31.826104,14.0567637 35.9199495,11.6250938 37.1718489,11.6250938 C38.4254266,11.6250938 39.440707,12.6899039 39.440707,14.0016142 C39.440707,15.312476 38.4254266,16.3747408 37.1718489,16.3747408 L37.1718489,16.3747408 Z"></path>
                                                    </g>
                                                </g>
                                            </g>
                                        </g>
                                    </g>
                                </g>
                            </g>
                        </g>
                    </g>
                </g>
            </g>
        </g>
    </g>
</svg>