<?xml version="1.0" encoding="UTF-8"?>
<svg width="17px" height="23px" viewBox="0 0 17 23" version="1.1" xmlns="http://www.w3.org/2000/svg" xmlns:xlink="http://www.w3.org/1999/xlink">
    <!-- Generator: Sketch 41.2 (35397) - http://www.bohemiancoding.com/sketch -->
    <title>home</title>
    <desc>Created with Sketch.</desc>
    <defs></defs>
    <g id="Page-1" stroke="none" stroke-width="1" fill="none" fill-rule="evenodd" opacity="0.5">
        <g id="Dashboard_d2" transform="translate(-38.000000, -24.000000)" fill="#FFFFFF">
            <g id="header" transform="translate(2.000000, 0.000000)">
                <g id="home" transform="translate(36.000000, 24.000000)">
                    <g id="Group">
                        <ellipse id="Oval" cx="4.60416667" cy="21.9545455" rx="1.0625" ry="1.04545455"></ellipse>
                        <ellipse id="Oval" cx="1.0625" cy="18.469697" rx="1.0625" ry="1.04545455"></ellipse>
                        <ellipse id="Oval" cx="1.0625" cy="14.9848485" rx="1.0625" ry="1.04545455"></ellipse>
                        <ellipse id="Oval" cx="1.0625" cy="11.5" rx="1.0625" ry="1.04545455"></ellipse>
                        <ellipse id="Oval" cx="8.14583333" cy="21.9545455" rx="1.0625" ry="1.04545455"></ellipse>
                        <ellipse id="Oval" cx="4.60416667" cy="18.469697" rx="1.0625" ry="1.04545455"></ellipse>
                        <ellipse id="Oval" cx="4.60416667" cy="14.9848485" rx="1.0625" ry="1.04545455"></ellipse>
                        <ellipse id="Oval" cx="4.60416667" cy="11.5" rx="1.0625" ry="1.04545455"></ellipse>
                        <ellipse id="Oval" cx="1.0625" cy="21.9545455" rx="1.0625" ry="1.04545455"></ellipse>
                        <ellipse id="Oval" cx="11.6875" cy="21.9545455" rx="1.0625" ry="1.04545455"></ellipse>
                        <ellipse id="Oval" cx="8.14583333" cy="18.469697" rx="1.0625" ry="1.04545455"></ellipse>
                        <ellipse id="Oval" cx="8.14583333" cy="14.9848485" rx="1.0625" ry="1.04545455"></ellipse>
                        <ellipse id="Oval" cx="8.14583333" cy="11.5" rx="1.0625" ry="1.04545455"></ellipse>
                        <ellipse id="Oval" cx="15.2291667" cy="21.9545455" rx="1.0625" ry="1.04545455"></ellipse>
                        <ellipse id="Oval" cx="4.60416667" cy="8.01515152" rx="1.0625" ry="1.04545455"></ellipse>
                        <ellipse id="Oval" cx="4.60416667" cy="4.53030303" rx="1.0625" ry="1.04545455"></ellipse>
                        <ellipse id="Oval" cx="8.14583333" cy="8.01515152" rx="1.0625" ry="1.04545455"></ellipse>
                        <ellipse id="Oval" cx="8.14583333" cy="4.53030303" rx="1.0625" ry="1.04545455"></ellipse>
                        <ellipse id="Oval" cx="8.14583333" cy="1.04545455" rx="1.0625" ry="1.04545455"></ellipse>
                        <ellipse id="Oval" cx="1.0625" cy="8.01515152" rx="1.0625" ry="1.04545455"></ellipse>
                        <ellipse id="Oval" cx="11.6875" cy="8.01515152" rx="1.0625" ry="1.04545455"></ellipse>
                        <ellipse id="Oval" cx="11.6875" cy="4.53030303" rx="1.0625" ry="1.04545455"></ellipse>
                        <ellipse id="Oval" cx="15.2291667" cy="8.01515152" rx="1.0625" ry="1.04545455"></ellipse>
                        <ellipse id="Oval" cx="15.2291667" cy="18.469697" rx="1.0625" ry="1.04545455"></ellipse>
                        <ellipse id="Oval" cx="15.2291667" cy="14.9848485" rx="1.0625" ry="1.04545455"></ellipse>
                        <ellipse id="Oval" cx="15.2291667" cy="11.5" rx="1.0625" ry="1.04545455"></ellipse>
                        <ellipse id="Oval" cx="11.6875" cy="18.469697" rx="1.0625" ry="1.04545455"></ellipse>
                        <ellipse id="Oval" cx="11.6875" cy="14.9848485" rx="1.0625" ry="1.04545455"></ellipse>
                        <ellipse id="Oval" cx="11.6875" cy="11.5" rx="1.0625" ry="1.04545455"></ellipse>
                    </g>
                </g>
            </g>
        </g>
    </g>
</svg>