<?xml version="1.0" encoding="UTF-8"?>
<svg width="24px" height="31px" viewBox="0 0 24 31" version="1.1" xmlns="http://www.w3.org/2000/svg" xmlns:xlink="http://www.w3.org/1999/xlink">
    <!-- Generator: Sketch 41.2 (35397) - http://www.bohemiancoding.com/sketch -->
    <title>intake_maniold</title>
    <desc>Created with Sketch.</desc>
    <defs></defs>
    <g id="Page-1" stroke="none" stroke-width="1" fill="none" fill-rule="evenodd">
        <g id="vehicle_diagnostic-copy-8" transform="translate(-854.000000, -472.000000)">
            <g id="intake_maniold" transform="translate(854.000000, 472.000000)">
                <g id="meter-2">
                    <g id="Layer_1">
                        <g id="XMLID_40_">
                            <g id="Group" transform="translate(0.453041, 0.446928)">
                                <polygon id="Shape" fill="#202634" points="11.3583875 6.7358394 13.2999922 13.9186065 12.6527906 15.9936281 11.3583875 15.9936281 10.0639843 15.9936281 9.41678278 13.9186065"></polygon>
                                <path d="M11.3583875,6.7358394 L9.41678278,13.9186065 L10.0639843,15.9936281 L11.3583875,15.9936281 L12.6527906,15.9936281 L13.2999922,13.9186065 L11.3583875,6.7358394 Z M11.3583875,2.58579617 C16.1865112,2.58579617 20.0956086,6.44214403 20.0956086,11.2051167 C20.0956086,15.9680894 16.1865112,19.8244373 11.3583875,19.8244373 C6.5302638,19.8244373 2.62116634,15.9680894 2.62116634,11.2051167 C2.62116634,6.44214403 6.5302638,2.58579617 11.3583875,2.58579617 Z" id="Shape" fill="#3EB64D"></path>
                                <path d="M16.2123992,28.4437578 L16.2123992,30.0399283 L6.50437573,30.0399283 L6.50437573,28.4437578 C6.50437573,28.0926003 6.79561644,27.8052897 7.1515773,27.8052897 L10.0639843,27.8052897 L12.6527906,27.8052897 L15.5651977,27.8052897 C15.9211585,27.8052897 16.2123992,28.0926003 16.2123992,28.4437578 Z" id="Shape" fill="#3EB64D"></path>
                                <path d="M22.6844149,11.2051167 C22.6844149,16.9449458 18.2963883,21.6632257 12.6527906,22.3016939 L12.6527906,27.8052897 L10.0639843,27.8052897 L10.0639843,22.3016939 C4.42038669,21.6632257 0.0323600783,16.9449458 0.0323600783,11.2051167 C0.0323600783,5.03751402 5.10642035,0.0319234095 11.3583875,0.0319234095 C17.6103546,0.0319234095 22.6844149,5.03751402 22.6844149,11.2051167 Z M11.3583875,19.8244373 C16.1865112,19.8244373 20.0956086,15.9680894 20.0956086,11.2051167 C20.0956086,6.44214403 16.1865112,2.58579617 11.3583875,2.58579617 C6.5302638,2.58579617 2.62116634,6.44214403 2.62116634,11.2051167 C2.62116634,15.9680894 6.5302638,19.8244373 11.3583875,19.8244373 Z" id="Shape" fill="#3EB64D"></path>
                            </g>
                            <g id="Group">
                                <path d="M21.0340509,11.6520445 C21.0340509,6.63528066 16.8968149,2.55387276 11.8114286,2.55387276 C6.72604227,2.55387276 2.58880626,6.63528066 2.58880626,11.6520445 C2.58880626,16.6688083 6.72604227,20.7502162 11.8114286,20.7502162 C16.8968149,20.7502162 21.0340509,16.6688083 21.0340509,11.6520445 Z M3.57430009,12.1308956 L5.6630137,12.1308956 L5.6630137,11.1731933 L3.57430009,11.1731933 C3.67616961,9.44888228 4.3244067,7.86707734 5.3506095,6.59409946 L6.61420584,7.84064476 L7.30069254,7.16342155 L5.99917019,5.87946202 C7.38431098,4.52195095 9.25368798,3.64520643 11.3260274,3.52606827 L11.3260274,5.58659666 L11.74056,5.58659666 L9.36494193,14.3749836 L10.1585405,16.919407 L13.4643166,16.919407 L14.2579799,14.3749836 L11.8822971,5.58659666 L12.2968297,5.58659666 L12.2968297,3.52606827 C14.3691692,3.64527028 16.2385462,4.5220148 17.6237517,5.87939817 L16.3222293,7.1633577 L17.008716,7.84058091 L18.2723124,6.59403562 C19.2984504,7.86701349 19.9467523,9.44881843 20.0486218,11.1731295 L17.9598434,11.1731295 L17.9598434,12.1308318 L20.0485571,12.1308318 C19.7964073,16.3974593 16.1984844,19.79245 11.8114286,19.79245 C7.42437276,19.79245 3.82644982,16.3975231 3.57430009,12.1308956 Z M11.8114286,9.04115649 L13.2480866,14.3560849 L12.7473468,15.9617047 L10.8755104,15.9617047 L10.3747705,14.3560849 L11.8114286,9.04115649 Z" id="Shape" fill="#202634"></path>
                                <path d="M23.6228571,11.6520445 C23.6228571,5.22707522 18.3242826,0 11.8114286,0 C5.2985745,0 0,5.22707522 0,11.6520445 C0,17.4314585 4.28253276,22.3085255 10.0316243,23.1679037 L10.0316243,27.7733662 L7.6046184,27.7733662 C6.9801336,27.7733662 6.47201566,28.2746276 6.47201566,28.8906856 L6.47201566,30.0080049 L3.721409,30.0080049 L3.721409,30.9657072 L19.9014481,30.9657072 L19.9014481,30.0080049 L17.1508415,30.0080049 L17.1508415,28.8906856 C17.1508415,28.2746276 16.6427235,27.7733662 16.0182387,27.7733662 L13.5912329,27.7733662 L13.5912329,23.1679037 C19.3403244,22.3085255 23.6228571,17.4314585 23.6228571,11.6520445 Z M0.970802348,11.6520445 C0.970802348,5.75521611 5.83393963,0.957702284 11.8114286,0.957702284 C17.7889175,0.957702284 22.6520548,5.75521611 22.6520548,11.6520445 C22.6520548,17.0876434 18.5243326,21.6535848 13.0505607,22.2728989 L12.6204305,22.3214864 L12.6204305,27.7733662 L11.0024266,27.7733662 L11.0024266,22.3214864 L10.5723612,22.2728351 C5.09852449,21.6535848 0.970802348,17.0876434 0.970802348,11.6520445 Z M16.0182387,28.7310685 C16.1059346,28.7310685 16.1800391,28.8041731 16.1800391,28.8906856 L16.1800391,30.0080049 L7.442818,30.0080049 L7.442818,28.8906856 C7.442818,28.8041731 7.51692258,28.7310685 7.6046184,28.7310685 L16.0182387,28.7310685 Z" id="Shape"></path>
                            </g>
                        </g>
                    </g>
                </g>
            </g>
        </g>
    </g>
</svg>