<?xml version="1.0" encoding="UTF-8"?>
<svg width="41px" height="70px" viewBox="0 0 41 70" version="1.1" xmlns="http://www.w3.org/2000/svg" xmlns:xlink="http://www.w3.org/1999/xlink">
    <!-- Generator: Sketch 41.2 (35397) - http://www.bohemiancoding.com/sketch -->
    <title>intake_air</title>
    <desc>Created with Sketch.</desc>
    <defs></defs>
    <g id="Page-1" stroke="none" stroke-width="1" fill="none" fill-rule="evenodd">
        <g id="vehicle_diagnostic" transform="translate(-932.000000, -784.000000)" fill="#F24444">
            <g id="intake_air" transform="translate(932.000000, 784.000000)">
                <path d="M40.5168818,0 L40.5168818,2.97217312 L29,2.97217312 L29,0 L40.5168818,0 Z M35.6872739,6.47755234 L29,6.47755234 L29,9.44972547 L35.6872739,9.44972547 L35.6872739,6.47755234 Z M29,15.9272778 L40.5168818,15.9272778 L40.5168818,12.9553359 L29,12.9553359 L29,15.9272778 Z M35.6872739,19.4345068 L29,19.4345068 L29,22.40668 L35.6872739,22.40668 L35.6872739,19.4345068 Z M29,28.8842323 L40.5168818,28.8842323 L40.5168818,25.9120592 L29,25.9120592 L29,28.8842323 Z" id="Shape-Copy"></path>
                <g id="noun_950144_cc">
                    <g id="Group">
                        <g transform="translate(0.443182, 0.000000)" id="Shape">
                            <path d="M4.32866638,0.00833745324 C2.1859803,0.00833745324 0.420556449,1.7605037 0.420556449,3.88653576 C0.420556449,6.01276327 2.1859803,7.76463636 4.32866638,7.76463636 L19.9611071,7.76463636 C22.1035332,7.76463636 23.869217,6.01276327 23.869217,3.88653576 C23.869217,1.7605037 22.1035332,0.00833745324 19.9611071,0.00833745324 L4.32866638,0.00833745324 Z M4.32866638,2.59383557 L19.9611071,2.59383557 C20.7052112,2.59383557 21.2638107,3.14789182 21.2638107,3.88653576 C21.2638107,4.62527743 20.7052083,5.17923596 19.9611071,5.17923596 L4.32866638,5.17923596 C3.58430622,5.17923596 3.02596373,4.62517971 3.02596373,3.88653576 C3.02596373,3.1477941 3.58430031,2.59383557 4.32866638,2.59383557 L4.32866638,2.59383557 Z"></path>
                            <path d="M4.32866638,23.2772342 C2.1859803,23.2772342 0.420556449,25.0294004 0.420556449,27.1554325 C0.420556449,29.28166 2.1859803,31.0335331 4.32866638,31.0335331 L19.9611071,31.0335331 C22.1035332,31.0335331 23.869217,29.28166 23.869217,27.1554325 C23.869217,25.0294004 22.1035332,23.2772342 19.9611071,23.2772342 L4.32866638,23.2772342 Z M4.32866638,25.8627323 L19.9611071,25.8627323 C20.7052112,25.8627323 21.2638107,26.4167885 21.2638107,27.1554325 C21.2638107,27.8941741 20.7052083,28.4481327 19.9611071,28.4481327 L4.32866638,28.4481327 C3.58430622,28.4481327 3.02596373,27.8940764 3.02596373,27.1554325 C3.02596373,26.4166908 3.58430031,25.8627323 4.32866638,25.8627323 L4.32866638,25.8627323 Z"></path>
                            <path d="M5.63137002,5.17923596 C3.48868394,5.17923596 1.72326009,6.93140221 1.72326009,9.05743427 L1.72326009,12.9355349 C1.72326009,15.0617624 3.48868394,16.8137332 5.63137002,16.8137332 L18.6584034,16.8137332 C20.8008296,16.8137332 22.5665134,15.0617624 22.5665134,12.9355349 L22.5665134,9.05743427 C22.5665134,6.93140221 20.8008296,5.17923596 18.6584034,5.17923596 L5.63137002,5.17923596 Z M5.63137002,7.76463636 L18.6584034,7.76463636 C19.4025076,7.76463636 19.9611071,8.31869261 19.9611071,9.05743427 L19.9611071,12.9355349 C19.9611071,13.6742765 19.4025046,14.2282351 18.6584034,14.2282351 L5.63137002,14.2282351 C4.88700986,14.2282351 4.32866638,13.6741788 4.32866638,12.9355349 L4.32866638,9.05743427 C4.32866638,8.31869261 4.88700297,7.76463636 5.63137002,7.76463636 L5.63137002,7.76463636 Z"></path>
                            <path d="M5.63137002,14.2282351 C3.48868394,14.2282351 1.72326009,15.9804013 1.72326009,18.1064334 L1.72326009,21.984534 C1.72326009,24.1108592 3.48868394,25.8627323 5.63137002,25.8627323 L18.6584034,25.8627323 C20.8008296,25.8627323 22.5665134,24.1108592 22.5665134,21.984534 L22.5665134,18.1064334 C22.5665134,15.9804013 20.8008296,14.2282351 18.6584034,14.2282351 L5.63137002,14.2282351 Z M5.63137002,16.8137332 L18.6584034,16.8137332 C19.4025076,16.8137332 19.9611071,17.3677894 19.9611071,18.1064334 L19.9611071,21.984534 C19.9611071,22.7232756 19.4025046,23.2772342 18.6584034,23.2772342 L5.63137002,23.2772342 C4.88700986,23.2772342 4.32866638,22.7231779 4.32866638,21.984534 L4.32866638,18.1064334 C4.32866638,17.3676917 4.88700297,16.8137332 5.63137002,16.8137332 L5.63137002,16.8137332 Z"></path>
                            <path d="M6.93407366,28.4481327 C6.21464659,28.4482038 5.63145104,29.0269211 5.63137002,29.7408329 L5.63137002,34.9117314 C5.63145104,35.6256432 6.21464659,36.2043604 6.93407366,36.2044316 L17.3556998,36.2044316 C18.0751269,36.2043604 18.6583224,35.6256432 18.6584034,34.9117314 L18.6584034,29.7408329 C18.6583224,29.0269211 18.0751269,28.4482038 17.3556998,28.4481327 L6.93407366,28.4481327 Z M8.23677729,31.0335331 L16.0529972,31.0335331 L16.0529972,33.6190312 L8.23677729,33.6190312 L8.23677729,31.0335331 Z"></path>
                            <path d="M8.23677729,49.131629 C6.81578803,49.131629 5.63137002,50.3071663 5.63137002,51.7170294 L5.63137002,54.3024298 C5.63137002,55.712586 6.81578803,56.8879279 8.23677729,56.8879279 L16.0529972,56.8879279 C17.4737255,56.8879279 18.6584034,55.712586 18.6584034,54.3024298 L18.6584034,51.7170294 C18.6584034,50.3071663 17.4737255,49.131629 16.0529972,49.131629 L8.23677729,49.131629 Z M8.23677729,51.7170294 L16.0529972,51.7170294 L16.0529972,54.3024298 L8.23677729,54.3024298 L8.23677729,51.7170294 Z"></path>
                            <polygon points="6.93407366 34.9117314 6.93407366 50.4243292 9.53947995 50.4243292 9.53947995 34.9117314"></polygon>
                            <polygon points="14.7502935 34.9117314 14.7502935 50.4243292 17.3556998 50.4243292 17.3556998 34.9117314"></polygon>
                            <polygon points="8.23677729 38.789832 8.23677729 41.3753301 16.0529972 41.3753301 16.0529972 38.789832"></polygon>
                            <polygon points="8.23677729 43.9607305 8.23677729 46.5461309 16.0529972 46.5461309 16.0529972 43.9607305"></polygon>
                            <polygon points="8.23677729 55.5952277 8.23677729 69.8150276 16.0529972 69.8150276 16.0529972 55.5952277 13.4475899 55.5952277 13.4475899 67.2296272 10.8421836 67.2296272 10.8421836 55.5952277"></polygon>
                        </g>
                    </g>
                </g>
                <rect id="Rectangle-3" x="4" y="6" width="17" height="19"></rect>
                <rect id="Rectangle-4" x="9" y="35" width="7" height="17"></rect>
            </g>
        </g>
    </g>
</svg>