<?xml version="1.0" encoding="UTF-8"?>
<svg width="51px" height="68px" viewBox="0 0 51 68" version="1.1" xmlns="http://www.w3.org/2000/svg" xmlns:xlink="http://www.w3.org/1999/xlink">
    <!-- Generator: Sketch 41.2 (35397) - http://www.bohemiancoding.com/sketch -->
    <title>intake_mainfold</title>
    <desc>Created with Sketch.</desc>
    <defs></defs>
    <g id="Page-1" stroke="none" stroke-width="1" fill="none" fill-rule="evenodd">
        <g id="vehicle_diagnostic" transform="translate(-1118.000000, -585.000000)">
            <g id="intake_mainfold" transform="translate(1117.000000, 584.000000)">
                <g id="meter-2">
                    <g id="Layer_1">
                        <g id="XMLID_40_">
                            <g id="Group" transform="translate(1.016438, 1.010243)">
                                <polygon id="Shape" fill="#202634" points="25.4835616 15.2258036 29.839726 31.4618502 28.3876712 36.1522636 25.4835616 36.1522636 22.5794521 36.1522636 21.1273973 31.4618502"></polygon>
                                <path d="M25.4835616,15.2258036 L21.1273973,31.4618502 L22.5794521,36.1522636 L25.4835616,36.1522636 L28.3876712,36.1522636 L29.839726,31.4618502 L25.4835616,15.2258036 Z M25.4835616,5.84497675 C36.3158904,5.84497675 45.0863014,14.5619297 45.0863014,25.3282326 C45.0863014,36.0945355 36.3158904,44.8114885 25.4835616,44.8114885 C14.6512329,44.8114885 5.88082192,36.0945355 5.88082192,25.3282326 C5.88082192,14.5619297 14.6512329,5.84497675 25.4835616,5.84497675 Z" id="Shape" fill="#3EB64D"></path>
                                <path d="M36.3739726,64.2947443 L36.3739726,67.9027546 L14.5931507,67.9027546 L14.5931507,64.2947443 C14.5931507,63.500982 15.2465753,62.8515402 16.0452055,62.8515402 L22.5794521,62.8515402 L28.3876712,62.8515402 L34.9219178,62.8515402 C35.7205479,62.8515402 36.3739726,63.500982 36.3739726,64.2947443 Z" id="Shape" fill="#3EB64D"></path>
                                <path d="M50.8945205,25.3282326 C50.8945205,38.3026378 41.049589,48.9679164 28.3876712,50.4111205 L28.3876712,62.8515402 L22.5794521,62.8515402 L22.5794521,50.4111205 C9.91753425,48.9679164 0.0726027397,38.3026378 0.0726027397,25.3282326 C0.0726027397,11.3868806 11.4567123,0.0721602068 25.4835616,0.0721602068 C39.510411,0.0721602068 50.8945205,11.3868806 50.8945205,25.3282326 Z M25.4835616,44.8114885 C36.3158904,44.8114885 45.0863014,36.0945355 45.0863014,25.3282326 C45.0863014,14.5619297 36.3158904,5.84497675 25.4835616,5.84497675 C14.6512329,5.84497675 5.88082192,14.5619297 5.88082192,25.3282326 C5.88082192,36.0945355 14.6512329,44.8114885 25.4835616,44.8114885 Z" id="Shape" fill="#3EB64D"></path>
                            </g>
                            <g id="Group">
                                <path d="M47.1917808,26.3384755 C47.1917808,14.998499 37.9095205,5.77281655 26.5,5.77281655 C15.0904795,5.77281655 5.80821918,14.998499 5.80821918,26.3384755 C5.80821918,37.678452 15.0904795,46.9041345 26.5,46.9041345 C37.9095205,46.9041345 47.1917808,37.678452 47.1917808,26.3384755 Z M8.01926301,27.4208786 L12.7054795,27.4208786 L12.7054795,25.2560724 L8.01926301,25.2560724 C8.24781644,21.358411 9.70219452,17.7828727 12.0045726,14.9054123 L14.8395644,17.7231241 L16.3797589,16.1923175 L13.4596767,13.2900339 C16.5673644,10.2214933 20.7614795,8.23968538 25.4109589,7.97038349 L25.4109589,12.6280362 L26.341,12.6280362 L21.0110877,32.4934525 L22.7915973,38.2449096 L30.2084027,38.2449096 L31.9890575,32.4934525 L26.659,12.6280362 L27.5890411,12.6280362 L27.5890411,7.97038349 C32.2385205,8.2398297 36.4326356,10.2216376 39.5404685,13.2898896 L36.6203863,16.1921731 L38.1605808,17.7229798 L40.9955726,14.905268 C43.2978055,17.7827284 44.7523288,21.3582667 44.9808822,25.2559281 L40.2945205,25.2559281 L40.2945205,27.4207343 L44.980737,27.4207343 C44.4150164,37.0650902 36.3427534,44.7391839 26.5,44.7391839 C16.6572466,44.7391839 8.58498356,37.0652346 8.01926301,27.4208786 Z M26.5,20.4367808 L29.7232712,32.4507337 L28.5998164,36.0801034 L24.4001836,36.0801034 L23.2767288,32.4507337 L26.5,20.4367808 Z" id="Shape" fill="#202634"></path>
                                <path d="M53,26.3384755 C53,11.8153679 41.1121726,0 26.5,0 C11.8878274,0 0,11.8153679 0,26.3384755 C0,39.4023593 9.60824658,50.4265628 22.5068493,52.3691156 L22.5068493,62.77938 L17.0616438,62.77938 C15.6605562,62.77938 14.5205479,63.9124395 14.5205479,65.3049872 L14.5205479,67.8305944 L8.34931507,67.8305944 L8.34931507,69.9954006 L44.6506849,69.9954006 L44.6506849,67.8305944 L38.4794521,67.8305944 L38.4794521,65.3049872 C38.4794521,63.9124395 37.3394438,62.77938 35.9383562,62.77938 L30.4931507,62.77938 L30.4931507,52.3691156 C43.3917534,50.4265628 53,39.4023593 53,26.3384755 Z M2.17808219,26.3384755 C2.17808219,13.0091864 13.0889671,2.16480621 26.5,2.16480621 C39.9110329,2.16480621 50.8219178,13.0091864 50.8219178,26.3384755 C50.8219178,38.6251939 41.5610027,48.946124 29.2801041,50.346032 L28.3150685,50.4558598 L28.3150685,62.77938 L24.6849315,62.77938 L24.6849315,50.4558598 L23.7200411,50.3458877 C11.4389973,48.946124 2.17808219,38.6251939 2.17808219,26.3384755 Z M35.9383562,64.9441862 C36.1351096,64.9441862 36.3013699,65.109433 36.3013699,65.3049872 L36.3013699,67.8305944 L16.6986301,67.8305944 L16.6986301,65.3049872 C16.6986301,65.109433 16.8648904,64.9441862 17.0616438,64.9441862 L35.9383562,64.9441862 Z" id="Shape"></path>
                            </g>
                        </g>
                    </g>
                </g>
            </g>
        </g>
    </g>
</svg>