<?xml version="1.0" encoding="UTF-8"?>
<svg width="18px" height="31px" viewBox="0 0 18 31" version="1.1" xmlns="http://www.w3.org/2000/svg" xmlns:xlink="http://www.w3.org/1999/xlink">
    <!-- Generator: Sketch 41.2 (35397) - http://www.bohemiancoding.com/sketch -->
    <title>intake</title>
    <desc>Created with Sketch.</desc>
    <defs></defs>
    <g id="Page-1" stroke="none" stroke-width="1" fill="none" fill-rule="evenodd">
        <g id="vehicle_diagnostic-copy-8" transform="translate(-856.000000, -351.000000)" fill="#F24444">
            <g id="Group-34" transform="translate(794.000000, 351.000000)">
                <g id="Group-5" transform="translate(62.000000, 0.000000)">
                    <g id="intake">
                        <g id="Group-12">
                            <path d="M17.7878993,0 L17.7878993,1.3162481 L12.7317073,1.3162481 L12.7317073,0 L17.7878993,0 Z M15.6675837,2.86863032 L12.7317073,2.86863032 L12.7317073,4.18487842 L15.6675837,4.18487842 L15.6675837,2.86863032 Z M12.7317073,7.05350874 L17.7878993,7.05350874 L17.7878993,5.73736305 L12.7317073,5.73736305 L12.7317073,7.05350874 Z M15.6675837,8.60671017 L12.7317073,8.60671017 L12.7317073,9.92295827 L15.6675837,9.92295827 L15.6675837,8.60671017 Z M12.7317073,12.7915886 L17.7878993,12.7915886 L17.7878993,11.4753405 L12.7317073,11.4753405 L12.7317073,12.7915886 Z" id="Shape-Copy"></path>
                            <g id="noun_950144_cc">
                                <g id="Group">
                                    <g transform="translate(0.194568, 0.000000)" id="Shape">
                                        <path d="M1.90039012,0.00369230072 C0.95969867,0.00369230072 0.184634538,0.779651638 0.184634538,1.72118012 C0.184634538,2.66279516 0.95969867,3.43862467 1.90039012,3.43862467 L8.76341287,3.43862467 C9.70399018,3.43862467 10.4791684,2.66279516 10.4791684,1.72118012 C10.4791684,0.779651638 9.70399018,0.00369230072 8.76341287,0.00369230072 L1.90039012,0.00369230072 Z M1.90039012,1.14869861 L8.76341287,1.14869861 C9.09009273,1.14869861 9.33533154,1.39406638 9.33533154,1.72118012 C9.33533154,2.04833715 9.09009143,2.29366164 8.76341287,2.29366164 L1.90039012,2.29366164 C1.57359785,2.29366164 1.32847188,2.04829387 1.32847188,1.72118012 C1.32847188,1.3940231 1.57359526,1.14869861 1.90039012,1.14869861 L1.90039012,1.14869861 Z"></path>
                                        <path d="M1.90039012,10.3084894 C0.95969867,10.3084894 0.184634538,11.0844488 0.184634538,12.0259772 C0.184634538,12.9675923 0.95969867,13.7434218 1.90039012,13.7434218 L8.76341287,13.7434218 C9.70399018,13.7434218 10.4791684,12.9675923 10.4791684,12.0259772 C10.4791684,11.0844488 9.70399018,10.3084894 8.76341287,10.3084894 L1.90039012,10.3084894 Z M1.90039012,11.4534957 L8.76341287,11.4534957 C9.09009273,11.4534957 9.33533154,11.6988635 9.33533154,12.0259772 C9.33533154,12.3531343 9.09009143,12.5984588 8.76341287,12.5984588 L1.90039012,12.5984588 C1.57359785,12.5984588 1.32847188,12.353091 1.32847188,12.0259772 C1.32847188,11.6988202 1.57359526,11.4534957 1.90039012,11.4534957 L1.90039012,11.4534957 Z"></path>
                                        <path d="M2.47230879,2.29366164 C1.53161734,2.29366164 0.756553209,3.06962098 0.756553209,4.01114946 L0.756553209,5.72859401 C0.756553209,6.67020905 1.53161734,7.44608184 2.47230879,7.44608184 L8.1914942,7.44608184 C9.13207151,7.44608184 9.90724978,6.67020905 9.90724978,5.72859401 L9.90724978,4.01114946 C9.90724978,3.06962098 9.13207151,2.29366164 8.1914942,2.29366164 L2.47230879,2.29366164 Z M2.47230879,3.43862467 L8.1914942,3.43862467 C8.51817406,3.43862467 8.76341287,3.68399244 8.76341287,4.01114946 L8.76341287,5.72859401 C8.76341287,6.05575104 8.51817276,6.30107553 8.1914942,6.30107553 L2.47230879,6.30107553 C2.14551652,6.30107553 1.90039012,6.05570776 1.90039012,5.72859401 L1.90039012,4.01114946 C1.90039012,3.68399244 2.1455135,3.43862467 2.47230879,3.43862467 L2.47230879,3.43862467 Z"></path>
                                        <path d="M2.47230879,6.30107553 C1.53161734,6.30107553 0.756553209,7.07703487 0.756553209,8.01856335 L0.756553209,9.7360079 C0.756553209,10.6776662 1.53161734,11.4534957 2.47230879,11.4534957 L8.1914942,11.4534957 C9.13207151,11.4534957 9.90724978,10.6776662 9.90724978,9.7360079 L9.90724978,8.01856335 C9.90724978,7.07703487 9.13207151,6.30107553 8.1914942,6.30107553 L2.47230879,6.30107553 Z M2.47230879,7.44608184 L8.1914942,7.44608184 C8.51817406,7.44608184 8.76341287,7.6914496 8.76341287,8.01856335 L8.76341287,9.7360079 C8.76341287,10.0631649 8.51817276,10.3084894 8.1914942,10.3084894 L2.47230879,10.3084894 C2.14551652,10.3084894 1.90039012,10.0631217 1.90039012,9.7360079 L1.90039012,8.01856335 C1.90039012,7.69140633 2.1455135,7.44608184 2.47230879,7.44608184 L2.47230879,7.44608184 Z"></path>
                                        <path d="M3.04422746,12.5984588 C2.72838143,12.5984903 2.47234436,12.8547793 2.47230879,13.1709403 L2.47230879,15.4609096 C2.47234436,15.7770706 2.72838143,16.0333596 3.04422746,16.0333911 L7.61957553,16.0333911 C7.93542156,16.0333596 8.19145863,15.7770706 8.1914942,15.4609096 L8.1914942,13.1709403 C8.19145863,12.8547793 7.93542156,12.5984903 7.61957553,12.5984588 L3.04422746,12.5984588 Z M3.61614613,13.7434218 L7.04765729,13.7434218 L7.04765729,14.8884281 L3.61614613,14.8884281 L3.61614613,13.7434218 Z"></path>
                                        <path d="M3.61614613,21.7582928 C2.99229718,21.7582928 2.47230879,22.2788879 2.47230879,22.9032559 L2.47230879,24.0482189 C2.47230879,24.6727167 2.99229718,25.1932252 3.61614613,25.1932252 L7.04765729,25.1932252 C7.67139167,25.1932252 8.1914942,24.6727167 8.1914942,24.0482189 L8.1914942,22.9032559 C8.1914942,22.2788879 7.67139167,21.7582928 7.04765729,21.7582928 L3.61614613,21.7582928 Z M3.61614613,22.9032559 L7.04765729,22.9032559 L7.04765729,24.0482189 L3.61614613,24.0482189 L3.61614613,22.9032559 Z"></path>
                                        <polygon points="3.04422746 15.4609096 3.04422746 22.3307744 4.18806437 22.3307744 4.18806437 15.4609096"></polygon>
                                        <polygon points="6.47573862 15.4609096 6.47573862 22.3307744 7.61957553 22.3307744 7.61957553 15.4609096"></polygon>
                                        <polygon points="3.61614613 17.1783542 3.61614613 18.3233605 7.04765729 18.3233605 7.04765729 17.1783542"></polygon>
                                        <polygon points="3.61614613 19.4683235 3.61614613 20.6132865 7.04765729 20.6132865 7.04765729 19.4683235"></polygon>
                                        <polygon points="3.61614613 24.6207437 3.61614613 30.9180837 7.04765729 30.9180837 7.04765729 24.6207437 5.90381995 24.6207437 5.90381995 29.7731206 4.75998304 29.7731206 4.75998304 24.6207437"></polygon>
                                    </g>
                                </g>
                            </g>
                        </g>
                        <rect id="Rectangle-3" x="1.75609756" y="2.65714286" width="7.46341463" height="8.41428571"></rect>
                        <rect id="Rectangle-4" x="3.95121951" y="15.5" width="3.07317073" height="7.52857143"></rect>
                    </g>
                </g>
            </g>
        </g>
    </g>
</svg>