<?xml version="1.0" encoding="UTF-8"?>
<svg width="40px" height="26px" viewBox="0 0 40 26" version="1.1" xmlns="http://www.w3.org/2000/svg" xmlns:xlink="http://www.w3.org/1999/xlink">
    <!-- Generator: Sketch 41.2 (35397) - http://www.bohemiancoding.com/sketch -->
    <title>minisplit</title>
    <desc>Created with Sketch.</desc>
    <defs></defs>
    <g id="Page-1" stroke="none" stroke-width="1" fill="none" fill-rule="evenodd">
        <g id="vehicle_diagnostic-copy-8" transform="translate(-544.000000, -472.000000)" fill="#3EB64D">
            <g id="minisplit" transform="translate(544.000000, 472.000000)">
                <g id="Capa_1">
                    <g id="Group">
                        <path d="M3.72434101,13.9558997 L5.28742337,13.9558997 C5.28742337,13.9558997 5.47725628,13.1534542 5.71291094,12.1634814 C5.9474746,11.1739664 7.80606041,10.3710631 9.8624278,10.3710631 L30.3453682,10.3710631 C32.402359,10.3710631 34.1845753,11.1739664 34.3264045,12.1634814 L34.5824763,13.9558997 L36.0023268,13.9558997 C38.0586942,13.9558997 39.7266678,12.3230855 39.7266678,10.3098765 L39.7266678,3.50411901 C39.7266678,1.82308791 38.5585252,0.422355821 36.977831,0 C37.0672925,0.344384786 37.1196602,0.702502239 37.1196602,1.07282651 L37.1196602,2.53123581 C37.1196602,4.94421809 35.1150371,6.9064637 32.6504822,6.9064637 L7.07602972,6.9064637 C4.61131894,6.9064637 2.60700754,4.94421809 2.60700754,2.53123581 L2.60700754,1.07282651 C2.60700754,0.702502239 2.65890767,0.344384786 2.74852501,1.08418302e-15 C1.1678309,0.422203236 0,1.82308791 0,3.50411901 L0,10.3098765 C0,12.3236959 1.66750605,13.9558997 3.72434101,13.9558997 Z" id="Shape"></path>
                        <path d="M6.91377435,5.59087414 L32.4860448,5.59087414 C34.1300166,5.59087414 35.465393,4.28260868 35.465393,2.67390296 L35.465393,1.21564625 C35.465393,0.780168104 35.3620603,0.371087195 35.1860986,0 L4.21372063,0 C4.03838235,0.371087195 3.93442623,0.780015519 3.93442623,1.21564625 L3.93442623,2.67405555 C3.93442623,4.28260868 5.27136116,5.59087414 6.91377435,5.59087414 Z M5.43578951,1.29132851 L33.553816,1.29132851 C33.7597021,1.29132851 33.9263125,1.45474725 33.9263125,1.65600713 C33.9263125,1.857267 33.759858,2.02068574 33.553816,2.02068574 L5.43578951,2.02068574 C5.23037097,2.02068574 5.06329307,1.857267 5.06329307,1.65600713 C5.06329307,1.45474725 5.22959169,1.29132851 5.43578951,1.29132851 Z M5.43578951,3.57034099 L33.553816,3.57034099 C33.7597021,3.57034099 33.9263125,3.73375973 33.9263125,3.93486702 C33.9263125,4.13612689 33.759858,4.29954563 33.553816,4.29954563 L5.43578951,4.29954563 C5.23037097,4.29954563 5.06329307,4.13612689 5.06329307,3.93486702 C5.06329307,3.73360715 5.22959169,3.57034099 5.43578951,3.57034099 Z" id="Shape"></path>
                        <path d="M33.1964836,12.5712142 C33.0875401,11.8331596 31.3315077,11.2345679 29.2737376,11.2345679 L10.7776527,11.2345679 C8.72144112,11.2345679 6.94187442,11.833007 6.80534435,12.5712142 C6.6683467,13.3097266 6.55737705,13.9078605 6.55737705,13.9078605 L33.394421,13.9078605 L33.1964836,12.5712142 Z" id="Shape"></path>
                        <path d="M8.78943218,25.5014044 C8.93017038,25.6210312 9.10363839,25.6794714 9.27648297,25.6794714 C9.48517449,25.6794714 9.69293088,25.5938711 9.83990332,25.4281635 C9.95523695,25.2970929 12.641887,22.2064797 10.60469,19.696911 C9.47473212,18.3039608 10.3096541,17.4948015 10.4915383,17.3438947 C10.8071472,17.0919766 10.8584239,16.6374253 10.6039107,16.3241679 C10.3475271,16.0093846 9.87902324,15.9573531 9.55718008,16.2080505 C8.77680782,16.8168655 7.74675385,18.5189533 9.43826176,20.60403 C10.7064641,22.1663498 8.7327005,24.451008 8.71337433,24.4729802 C8.44530157,24.7766248 8.47881067,25.2372795 8.78943218,25.5014044 Z" id="Shape"></path>
                        <path d="M15.3466978,25.5014044 C15.487436,25.6210312 15.660904,25.6794714 15.8337485,25.6794714 C16.0425959,25.6794714 16.2501965,25.5938711 16.3971689,25.4281635 C16.5125025,25.2970929 19.1991526,22.2064797 17.1621114,19.696911 C16.0321536,18.3039608 16.8670755,17.4948015 17.0489597,17.3438947 C17.3647245,17.0919766 17.4160012,16.6374253 17.1613321,16.3241679 C16.9049486,16.0093846 16.4366005,15.9573531 16.1146015,16.2080505 C15.3340734,16.8168655 14.3041753,18.5189533 15.9956832,20.60403 C17.2638855,22.1663498 15.2901219,24.451008 15.2707958,24.4729802 C15.0025672,24.7766248 15.0360762,25.2372795 15.3466978,25.5014044 Z" id="Shape"></path>
                        <path d="M21.9046973,25.5014044 C22.0449679,25.6210312 22.2189035,25.6794714 22.3912805,25.6794714 C22.599972,25.6794714 22.8080401,25.5938711 22.9550126,25.4281635 C23.0698786,25.2970929 25.7569963,22.2064797 23.7194875,19.696911 C22.5898414,18.3039608 23.4247633,17.4948015 23.6066476,17.3438947 C23.9222565,17.0919766 23.9732215,16.6374253 23.7187082,16.3241679 C23.4624805,16.0093846 22.9942883,15.9573531 22.6719776,16.2080505 C21.8914495,16.8168655 20.8613955,18.5189533 22.553371,20.60403 C23.8211058,22.1663498 21.8478098,24.451008 21.8281719,24.4729802 C21.5597874,24.7766248 21.5932965,25.2372795 21.9046973,25.5014044 Z" id="Shape"></path>
                        <path d="M28.4620068,25.5014044 C28.6024333,25.6210312 28.7763689,25.6794714 28.9487459,25.6794714 C29.1574374,25.6794714 29.3655055,25.5938711 29.5123221,25.4281635 C29.6271882,25.2970929 32.3143058,22.2064797 30.276797,19.696911 C29.1471509,18.3039608 29.9822287,17.4948015 30.1639571,17.3438947 C30.4797219,17.0919766 30.5306869,16.6374253 30.2760177,16.3241679 C30.0199459,16.0093846 29.5515979,15.9573531 29.2292872,16.2080505 C28.448759,16.8168655 27.4188609,18.5189533 29.1106805,20.60403 C30.3785712,22.1663498 28.4052751,24.451008 28.3854814,24.4729802 C28.1172528,24.7766248 28.1507619,25.2372795 28.4620068,25.5014044 Z" id="Shape"></path>
                    </g>
                </g>
            </g>
        </g>
    </g>
</svg>