<?xml version="1.0" encoding="UTF-8"?>
<svg width="40px" height="40px" viewBox="0 0 40 40" version="1.1" xmlns="http://www.w3.org/2000/svg" xmlns:xlink="http://www.w3.org/1999/xlink">
    <!-- Generator: Sketch 41.2 (35397) - http://www.bohemiancoding.com/sketch -->
    <title>network</title>
    <desc>Created with Sketch.</desc>
    <defs></defs>
    <g id="Page-1" stroke="none" stroke-width="1" fill="none" fill-rule="evenodd">
        <g id="Dashboard_d3-Copy" transform="translate(-1072.000000, -129.000000)" fill="#F24444">
            <path d="M1107.63636,129 C1105.22982,129 1103.27273,130.957091 1103.27273,133.363636 C1103.27273,134.116364 1103.464,134.824727 1103.80073,135.443636 L1096.65236,142.592 C1095.66691,141.824727 1094.43345,141.363636 1093.09091,141.363636 C1091.74836,141.363636 1090.51491,141.824727 1089.52873,142.591273 L1083.95127,137.013818 C1084.20727,136.581091 1084.36364,136.083636 1084.36364,135.545455 C1084.36364,133.941091 1083.05891,132.636364 1081.45455,132.636364 C1079.85018,132.636364 1078.54545,133.941091 1078.54545,135.545455 C1078.54545,137.149818 1079.85018,138.454545 1081.45455,138.454545 C1081.99273,138.454545 1082.49018,138.298182 1082.92291,138.042182 L1088.50036,143.619636 C1087.73382,144.605818 1087.27273,145.839273 1087.27273,147.181818 C1087.27273,148.524364 1087.73382,149.757818 1088.50036,150.743273 L1079.29018,159.954182 C1078.51491,159.250909 1077.49018,158.818182 1076.36364,158.818182 C1073.95709,158.818182 1072,160.775273 1072,163.181818 C1072,165.588364 1073.95709,167.545455 1076.36364,167.545455 C1078.77018,167.545455 1080.72727,165.588364 1080.72727,163.181818 C1080.72727,162.429091 1080.536,161.720727 1080.19927,161.101818 L1089.52945,151.771636 C1090.33382,152.397091 1091.304,152.816 1092.36436,152.949091 L1092.36436,160.338182 C1090.304,160.685818 1088.728,162.477818 1088.728,164.636364 C1088.728,167.042909 1090.68509,169 1093.09164,169 C1095.49818,169 1097.45527,167.042909 1097.45527,164.636364 C1097.45527,162.478545 1095.87927,160.686545 1093.81891,160.338182 L1093.81891,152.949091 C1094.87927,152.816 1095.84945,152.397091 1096.65382,151.771636 L1102.23127,157.349091 C1101.97455,157.782545 1101.81818,158.28 1101.81818,158.818182 C1101.81818,160.422545 1103.12291,161.727273 1104.72727,161.727273 C1106.33164,161.727273 1107.63636,160.422545 1107.63636,158.818182 C1107.63636,157.213818 1106.33164,155.909091 1104.72727,155.909091 C1104.18909,155.909091 1103.69164,156.065455 1103.25891,156.321455 L1097.68145,150.744 C1098.448,149.757818 1098.90909,148.524364 1098.90909,147.181818 C1098.90909,145.839273 1098.448,144.605818 1097.68145,143.620364 L1104.71055,136.591273 C1105.48509,137.294545 1106.50982,137.727273 1107.63636,137.727273 C1110.04291,137.727273 1112,135.770182 1112,133.363636 C1112,130.957091 1110.04291,129 1107.63636,129 Z" id="network"></path>
        </g>
    </g>
</svg>