<?xml version="1.0" encoding="UTF-8"?>
<svg width="38px" height="29px" viewBox="0 0 38 29" version="1.1" xmlns="http://www.w3.org/2000/svg" xmlns:xlink="http://www.w3.org/1999/xlink">
    <!-- Generator: Sketch 41.2 (35397) - http://www.bohemiancoding.com/sketch -->
    <title>non_commu_&lt;</title>
    <desc>Created with Sketch.</desc>
    <defs></defs>
    <g id="Page-1" stroke="none" stroke-width="1" fill="none" fill-rule="evenodd">
        <g id="Dashboard_d3-Copy" transform="translate(-772.000000, -297.000000)" fill="#F8B039">
            <g id="non_commu_&lt;" transform="translate(772.000000, 297.000000)">
                <g id="Group-7">
                    <g id="Group-10">
                        <g id="body">
                            <g id="Page-1">
                                <g>
                                    <g id="Artboard">
                                        <g id="body">
                                            <g id="Group">
                                                <g id="Group-9-Copy">
                                                    <g id="Group-14">
                                                        <path d="M13.492577,12.869504 C11.7690951,12.869504 10.372024,14.309296 10.372024,16.087112 L10.372024,25.4713573 C10.372024,27.2476267 11.7691701,28.6888107 13.492577,28.6888107 L13.9572924,28.6888107 C15.6807743,28.6888107 17.0778454,27.2483227 17.0778454,25.4713573 L17.0778454,16.087112 C17.0778454,14.3100693 15.6807743,12.869504 13.9572924,12.869504 L13.492577,12.869504 L13.492577,12.869504 Z" id="Shape"></path>
                                                        <path d="M23.7207397,28.6888107 L24.185455,28.6888107 C25.9089369,28.6888107 27.3060081,27.2483227 27.3060081,25.4713573 L27.3060081,10.7242 C27.3060081,8.94793067 25.9088619,7.50666933 24.185455,7.50666933 L23.7207397,7.50666933 C21.9972578,7.50666933 20.6001867,8.94723467 20.6001867,10.7242 L20.6001867,25.4713573 C20.6008617,27.2475493 21.9979328,28.6888107 23.7207397,28.6888107 Z" id="Shape"></path>
                                                        <path d="M34.4142927,0 L33.9488274,0 C32.2260955,0 30.8289494,1.440488 30.8289494,3.21753067 L30.8289494,25.4720533 C30.8289494,27.2483227 32.2260955,28.6895067 33.9488274,28.6895067 L34.4142927,28.6895067 C36.1377746,28.6895067 37.5348458,27.2490187 37.5348458,25.4720533 L37.5348458,3.21675733 C37.5348458,1.440488 36.1377746,0 34.4142927,0 Z" id="Shape"></path>
                                                        <path d="M7.46582805,25.4713573 L7.46582805,19.929496 C7.46582805,18.1532267 6.0679319,16.7120427 4.34527502,16.7120427 L3.88048468,16.7120427 C2.15700278,16.7120427 0.759931657,18.1525307 0.759931657,19.929496 L0.759931657,25.4713573 C0.759931657,27.2476267 2.15775281,28.6888107 3.88048468,28.6888107 L4.34527502,28.6888107 C6.0679319,28.6888107 7.46582805,27.2475493 7.46582805,25.4713573 Z" id="Shape"></path>
                                                        <path d="M1.72093838,13.106144 L4.04541512,10.7094293 L6.36914184,13.106144 C6.75427956,13.5032507 7.37822515,13.5032507 7.76336287,13.106144 C8.14925061,12.7090373 8.14850058,12.065624 7.76336287,11.6685947 L5.43963615,9.272576 L7.76336287,6.87663467 C8.14850058,6.479528 8.14850058,5.836192 7.76336287,5.43908533 C7.37822515,5.04197867 6.75420455,5.04197867 6.36914184,5.43908533 L4.04541512,7.83502667 L1.72093838,5.439008 C1.33580067,5.04190133 0.711780068,5.04190133 0.326717355,5.439008 C-0.05842036,5.83611467 -0.05842036,6.47875467 0.326717355,6.87586133 L2.6511941,9.272576 L0.327392377,11.6685173 C-0.0577453377,12.065624 -0.0577453377,12.70896 0.327392377,13.1060667 C0.71185507,13.5031733 1.33655069,13.5031733 1.72093838,13.106144 Z" id="Shape"></path>
                                                    </g>
                                                </g>
                                            </g>
                                        </g>
                                    </g>
                                </g>
                            </g>
                        </g>
                    </g>
                </g>
            </g>
        </g>
    </g>
</svg>