<?xml version="1.0" encoding="UTF-8"?>
<svg width="80px" height="65px" viewBox="0 0 80 65" version="1.1" xmlns="http://www.w3.org/2000/svg" xmlns:xlink="http://www.w3.org/1999/xlink">
    <!-- Generator: Sketch 41.2 (35397) - http://www.bohemiancoding.com/sketch -->
    <title>noun_696897_cc</title>
    <desc>Created with Sketch.</desc>
    <defs></defs>
    <g id="Page-1" stroke="none" stroke-width="1" fill="none" fill-rule="evenodd">
        <g id="vehicle_diagnostic" transform="translate(-501.000000, -387.000000)">
            <g id="noun_696897_cc" transform="translate(501.000000, 387.000000)">
                <g id="14--Dashboard--(car,-part,-vehicle)">
                    <g id="Group">
                        <g id="Shape">
                            <g>
                                <path d="M49.48228,35.1579945 C48.79468,35.4867088 48.10708,35.8154231 47.42308,36.1513619 C45.90748,36.8930761 45.11668,38.5860149 45.49948,40.2657088 C45.79228,41.5540761 46.85308,42.6184843 48.13588,42.9110761 C49.81228,43.2951782 51.49708,42.5016884 52.23748,40.9821374 C52.57228,40.2958108 52.89988,39.6058721 53.22628,38.9171374 C54.24388,36.7738721 55.29628,34.5571578 56.55028,32.4608516 L57.50188,30.8690557 L55.91668,31.8238925 C53.82628,33.0809537 51.61828,34.1369333 49.48228,35.1579945" fill="#000000"></path>
                                <path d="M62.2006,50.2361068 C60.877,50.2361068 59.8006,51.316168 59.8006,52.64427 C59.8006,53.9723721 60.877,55.0524333 62.2006,55.0524333 C63.5242,55.0524333 64.6006,53.9723721 64.6006,52.64427 C64.6006,51.316168 63.5242,50.2361068 62.2006,50.2361068" fill="#000000"></path>
                                <path d="M35.8006,50.2361068 C34.477,50.2361068 33.4006,51.316168 33.4006,52.64427 C33.4006,53.9723721 34.477,55.0524333 35.8006,55.0524333 C37.1242,55.0524333 38.2006,53.9723721 38.2006,52.64427 C38.2006,51.316168 37.1242,50.2361068 35.8006,50.2361068" fill="#000000"></path>
                                <path d="M54.9132248,59.6635255 C51.9966806,59.6635255 49.62484,57.2836174 49.62484,54.357153 C49.62484,51.4306886 51.9966806,49.0507805 54.9132248,49.0507805 C57.829769,49.0507805 60.2016095,51.4306886 60.2016095,54.357153 C60.2016095,57.2836174 57.829769,59.6635255 54.9132248,59.6635255 L54.9132248,59.6635255 Z M46.312989,42.6725208 C45.1825968,44.9940588 42.8596738,46.3949411 40.3543015,46.3949411 C39.8505828,46.3949411 39.3402537,46.3378976 38.8299246,46.2211574 C36.4091664,45.6679681 34.4881607,43.7404283 33.9342024,41.3101097 C33.2387798,38.250986 34.6930856,35.1640038 37.4708097,33.8015926 C38.2323371,33.42882 38.9978308,33.0626803 39.7646466,32.6965406 C42.0611277,31.5994481 44.4356124,30.4638844 46.62897,29.1439242 L52.910249,25.3618072 C53.432477,25.0487313 54.0974914,25.13098 54.5258506,25.5607962 C54.9555318,25.9906124 55.0375018,26.6592153 54.724165,27.181893 L50.9548688,33.4858635 C49.639383,35.6853549 48.5076687,38.0692427 47.4129731,40.3748615 C47.0493966,41.1416324 46.6844981,41.9097298 46.312989,42.6725208 L46.312989,42.6725208 Z M31.1154933,22.5189182 L31.1154933,17.2125457 C31.1154933,16.4802663 31.7077924,15.8859526 32.4375895,15.8859526 L48.3027438,15.8859526 C49.0325409,15.8859526 49.62484,16.4802663 49.62484,17.2125457 L49.62484,22.5189182 C49.62484,23.2511976 49.0325409,23.8455113 48.3027438,23.8455113 L32.4375895,23.8455113 C31.7077924,23.8455113 31.1154933,23.2511976 31.1154933,22.5189182 L31.1154933,22.5189182 Z M25.8271085,59.6635255 C22.9105643,59.6635255 20.5387238,57.2836174 20.5387238,54.357153 C20.5387238,51.4306886 22.9105643,49.0507805 25.8271085,49.0507805 C28.7436527,49.0507805 31.1154933,51.4306886 31.1154933,54.357153 C31.1154933,57.2836174 28.7436527,59.6635255 25.8271085,59.6635255 L25.8271085,59.6635255 Z M70.282593,53.8397817 C69.6189007,53.5359919 69.3267174,52.7493222 69.6307996,52.0820458 C69.9348817,51.4160961 70.7202068,51.122919 71.382577,51.4280354 L77.3320099,54.158164 C78.9370347,50.0231733 79.8320938,45.6308235 79.9788465,41.0912218 L68.1341867,41.0912218 C67.4043896,41.0912218 66.8120905,40.4969081 66.8120905,39.7646287 C66.8120905,39.0323493 67.4043896,38.4380356 68.1341867,38.4380356 L80,38.4380356 C79.8519252,33.9408849 78.9595103,29.6307839 77.4377776,25.6271259 L71.5491611,28.4487894 C71.3653898,28.5363446 71.1710416,28.577469 70.9806598,28.577469 C70.4875179,28.577469 70.0128854,28.2988844 69.7868069,27.8226375 C69.472148,27.1619941 69.7511103,26.370018 70.4108363,26.0542888 L76.4105088,23.1795616 C74.5807277,19.1918226 72.1136962,15.5596107 69.1389798,12.4116052 L64.7126017,17.2138723 C64.4521488,17.4964366 64.0965049,17.6397087 63.740861,17.6397087 C63.4209137,17.6397087 63.0983223,17.5229685 62.8444798,17.2868349 C62.3077088,16.7893625 62.2746564,15.9509557 62.7717645,15.4123588 L67.2602811,10.5437621 C64.2683774,7.7685293 60.8507588,5.45362431 57.1184812,3.7011948 L54.4015735,9.74382645 C54.1807835,10.2346659 53.6995404,10.5251898 53.1958218,10.5251898 C53.0133725,10.5251898 52.8282791,10.4880452 52.6524403,10.4084496 C51.9874259,10.107313 51.6899542,9.32064325 51.9913922,8.65336691 L54.6858242,2.6598192 C50.6322773,1.0798468 46.2601052,0.151231615 41.6922628,0 L41.6922628,11.9061732 C41.6922628,12.6384526 41.0999637,13.2327664 40.3701666,13.2327664 C39.6403695,13.2327664 39.0480704,12.6384526 39.0480704,11.9061732 L39.0480704,0 C34.7658009,0.141945464 30.6501154,0.957800231 26.8120702,2.36398894 L29.1376374,8.58571066 C29.394124,9.2715593 29.0477348,10.0356769 28.362889,10.293036 C28.210848,10.3500795 28.0535185,10.377938 27.8988333,10.377938 C27.3647064,10.377938 26.8609877,10.0489429 26.6613512,9.51697903 L24.3622259,3.36424015 C20.2624056,5.18697909 16.5261618,7.68495393 13.2949587,10.7215256 L17.9328722,15.3752142 C18.4498118,15.8939121 18.4498118,16.7336456 17.9328722,17.2510169 C17.6750634,17.5110292 17.3366068,17.6397087 16.9981501,17.6397087 C16.6596935,17.6397087 16.322559,17.5110292 16.0634281,17.2510169 L11.4255147,12.5973282 C8.58300789,15.643186 6.21248941,19.1361057 4.42898165,22.9593471 L10.4511298,25.685496 C11.1174663,25.9866326 11.4136158,26.7733023 11.1135,27.4405786 C10.8927099,27.9314181 10.4101448,28.221942 9.90642617,28.221942 C9.725299,28.221942 9.54020553,28.1847974 9.36436674,28.1038752 L3.39113614,25.4002784 C1.81651957,29.4676129 0.891052239,33.8546564 0.740333273,38.4380356 L12.6061466,38.4380356 C13.3359437,38.4380356 13.9282428,39.0323493 13.9282428,39.7646287 C13.9282428,40.4969081 13.3359437,41.0912218 12.6061466,41.0912218 L0.761486812,41.0912218 C0.902951104,45.4543866 1.72926122,49.6835655 3.21794154,53.6766107 L9.23480131,51.0605691 C9.90378198,50.7700452 10.6824966,51.0778148 10.9733578,51.7503975 C11.264219,52.4229802 10.9561706,53.203017 10.2858678,53.4948675 L4.21215787,56.1361144 C5.54086455,59.0758447 7.23050348,61.8696498 9.28371887,64.4684458 C9.53491714,64.7841749 9.91700294,64.969898 10.3202423,64.969898 L70.420091,64.969898 C70.8233303,64.969898 71.2054161,64.7841749 71.4566144,64.4684458 C73.4000958,62.0089421 75.0024764,59.3676952 76.2981307,56.600422 L70.282593,53.8397817 Z" fill="#F8B039"></path>
                                <polygon fill="#000000" points="43 22.5422292 55 22.5422292 55 20.1340659 43 20.1340659"></polygon>
                            </g>
                        </g>
                    </g>
                </g>
            </g>
        </g>
    </g>
</svg>