<?xml version="1.0" encoding="UTF-8"?>
<svg width="26px" height="25px" viewBox="0 0 26 25" version="1.1" xmlns="http://www.w3.org/2000/svg" xmlns:xlink="http://www.w3.org/1999/xlink">
    <!-- Generator: Sketch 41.2 (35397) - http://www.bohemiancoding.com/sketch -->
    <title>odometer</title>
    <desc>Created with Sketch.</desc>
    <defs></defs>
    <g id="Page-1" stroke="none" stroke-width="1" fill="none" fill-rule="evenodd">
        <g id="vehicle_diagnostic-copy-8" transform="translate(-703.000000, -349.000000)" fill="#F24444">
            <g id="Group-33" transform="translate(670.000000, 349.000000)">
                <path d="M56.8369177,17.9706322 C57.6386832,16.3190305 58.0888617,14.4665219 58.0888617,12.5107177 C58.0888617,10.5549135 57.6386832,8.70240489 56.8369177,7.05085216 L54.2035182,8.57127638 L53.2856187,6.98151478 L55.9162741,5.46265862 C53.818365,2.38510792 50.3881002,0.285287798 46.4623304,0 L46.4623304,3.04207348 L44.6265803,3.04207348 L44.6265803,0 C40.7007125,0.285287798 37.2704967,2.38510792 35.1724896,5.46260962 L37.803194,6.98146578 L36.8853434,8.57122738 L34.251846,7.05080316 C33.4501295,8.70245389 33,10.5549625 33,12.5107177 C33,14.4664729 33.4501295,16.3190305 34.251895,17.9705832 L36.8853434,16.450159 L37.803243,18.0399206 L35.1725386,19.5588258 C37.2704477,22.6363275 40.7007125,24.7361476 44.6265803,25.0214844 L44.6265803,21.9794109 L46.4623304,21.9794109 L46.4623304,25.0214844 C50.3881492,24.7361966 53.818365,22.6363275 55.9163231,19.5588258 L53.2856677,18.0399206 L54.2035672,16.450159 L56.8369177,17.9706322 Z M42.053845,4.7051416 L45.5363456,10.6751636 C45.5390407,10.6751146 45.5417358,10.6749186 45.5444308,10.6749186 C46.5582757,10.6749186 47.3801809,11.4968729 47.3801809,12.5106687 C47.3801809,13.5244645 46.5582757,14.3465167 45.5444308,14.3465167 C44.530586,14.3465167 43.7086808,13.5245625 43.7086808,12.5107667 C43.7086808,12.1792703 43.7969818,11.8685996 43.9507001,11.6001684 L40.4681995,5.63009737 L42.053845,4.7051416 Z M47.9921139,19.5478494 L43.0967478,19.5478494 L43.0967478,17.7120993 L47.9921139,17.7120993 L47.9921139,19.5478494 Z" id="odometer"></path>
            </g>
        </g>
    </g>
</svg>