<?xml version="1.0" encoding="UTF-8"?>
<svg width="35px" height="34px" viewBox="0 0 35 34" version="1.1" xmlns="http://www.w3.org/2000/svg" xmlns:xlink="http://www.w3.org/1999/xlink">
    <!-- Generator: Sketch 41.2 (35397) - http://www.bohemiancoding.com/sketch -->
    <title>parking_break</title>
    <desc>Created with Sketch.</desc>
    <defs></defs>
    <g id="Page-1" stroke="none" stroke-width="1" fill="none" fill-rule="evenodd">
        <g id="vehicle_diagnostic-copy-8" transform="translate(-244.000000, -351.000000)" fill="#F24444">
            <g id="Group-15" transform="translate(191.000000, 351.000000)">
                <g id="noun_174297_cc" transform="translate(53.000000, 0.000000)">
                    <g id="Group">
                        <g id="parking_break">
                            <path d="M27.2536765,9.92835878 C27.2536765,9.60619965 27.022584,9.3719021 26.7048319,9.3719021 L26.3581933,9.3719021 C25.6938025,9.3719021 25.2316176,10.1333691 25.2316176,10.1333691 C25.2027311,10.2212307 25.1160714,10.3090923 25.0294118,10.4555283 C24.9427521,10.1626563 24.884979,9.92835878 24.8272059,9.69406123 C24.5383403,8.66900944 24.105042,7.73181923 23.4984244,6.85320341 C23.0940126,6.23817233 22.487395,6.03316198 21.7941176,5.9160132 C20.5808824,5.71100284 19.3676471,5.68171565 18.1255252,5.68171565 C16.9122899,5.68171565 15.6701681,5.68171565 14.4569328,5.9160132 C13.792542,6.03316198 13.1859244,6.26745953 12.7526261,6.85320341 C12.1460084,7.73181923 11.7127101,8.66900944 11.4238445,9.69406123 C11.3660714,9.92835878 11.3082983,10.1626563 11.2216387,10.4555283 C11.134979,10.3090923 11.0772059,10.2212307 11.0194328,10.1333691 C11.0194328,10.1333691 10.5572479,9.3719021 9.89285714,9.3719021 L9.54621849,9.3719021 C9.22846639,9.3719021 9.0262605,9.60619965 8.99737395,9.92835878 L8.99737395,10.6312514 C8.99737395,10.9826978 9.22846639,11.2169953 9.57510504,11.2169953 L10.5861345,11.2169953 L10.9905462,11.2169953 C10.9905462,11.2462825 11.0194328,11.2462825 11.0194328,11.2755697 C10.9905462,11.3048569 10.9327731,11.3048569 10.9038866,11.3634313 C10.0372899,12.2127599 9.57510504,13.2378117 9.6039916,14.4385867 C9.6039916,15.1707665 9.69065126,15.9029464 9.74842437,16.6351262 C9.80619748,17.1915829 9.95063025,17.7480396 10.1817227,18.2459219 C10.2972689,18.4509323 10.4128151,18.6266554 10.6727941,18.6852298 C10.7883403,18.714517 10.8172269,18.7730914 10.7883403,18.8902402 L10.7883403,19.7981432 C10.7883403,20.2081639 11.0194328,20.4717486 11.4527311,20.4717486 L12.5215336,20.4717486 C12.9837185,20.4717486 13.2148109,20.2374511 13.2148109,19.768856 L13.2148109,19.0366761 C14.832458,19.1538249 16.450105,19.2123993 18.0966387,19.2123993 C19.7431723,19.2123993 21.3319328,19.1538249 22.9784664,19.0366761 L22.9784664,19.768856 C22.9784664,20.2374511 23.2095588,20.4717486 23.6717437,20.4717486 L24.7405462,20.4717486 C25.144958,20.4717486 25.404937,20.2081639 25.404937,19.7981432 L25.404937,18.8902402 C25.404937,18.8023786 25.404937,18.714517 25.5204832,18.6852298 C25.7804622,18.6266554 25.8960084,18.4802194 26.0115546,18.2459219 C26.2715336,17.7187524 26.3870798,17.1915829 26.4448529,16.6351262 C26.5315126,15.9029464 26.5892857,15.1707665 26.5892857,14.4385867 C26.6181723,13.2085245 26.1271008,12.1834727 25.2893908,11.3634313 C25.2605042,11.3341441 25.2027311,11.3048569 25.1738445,11.2755697 C25.1738445,11.2462825 25.2027311,11.2462825 25.2027311,11.2169953 L25.6071429,11.2169953 L26.6181723,11.2169953 C26.9648109,11.2169953 27.1959034,10.9826978 27.1959034,10.6312514 C27.2536765,10.3969539 27.2536765,10.1626563 27.2536765,9.92835878 Z M12.2904412,10.6312514 C12.5504202,9.54762526 12.9548319,8.49328628 13.532563,7.52680887 C13.5614496,7.46823448 13.5903361,7.43894729 13.6481092,7.4096601 L13.6481092,7.4096601 L13.6481092,7.4096601 C13.6769958,7.3803729 13.7347689,7.35108571 13.792542,7.32179851 C14.1391807,7.17536254 15.2368697,6.82391621 18.1544118,6.82391621 C21.0719538,6.85320341 22.1407563,7.17536254 22.5162815,7.32179851 C22.5740546,7.35108571 22.6318277,7.35108571 22.6607143,7.4096601 L22.6607143,7.4096601 L22.6607143,7.4096601 C22.6896008,7.43894729 22.7473739,7.49752168 22.7762605,7.52680887 C23.3539916,8.49328628 23.7584034,9.54762526 24.0183824,10.6312514 C24.0472689,10.719113 24.0472689,10.7776874 24.0472689,10.8362618 C22.0829832,10.6605386 20.1186975,10.5726771 18.1544118,10.5726771 C16.1901261,10.5726771 14.2258403,10.6605386 12.2615546,10.8362618 C12.2904412,10.8069746 12.2904412,10.719113 12.2904412,10.6312514 Z M12.6081933,15.3172025 C11.8860294,15.3172025 11.3371849,14.7314586 11.3371849,14.028566 C11.3371849,13.3256733 11.914916,12.7399294 12.6081933,12.7399294 C13.3014706,12.7399294 13.8792017,13.3256733 13.8792017,14.028566 C13.8792017,14.7314586 13.3303571,15.3172025 12.6081933,15.3172025 Z M23.7006303,15.3172025 C22.9784664,15.3172025 22.4296218,14.7314586 22.4296218,14.028566 C22.4296218,13.3256733 23.0073529,12.7399294 23.7006303,12.7399294 C24.4227941,12.7399294 24.9716387,13.3256733 24.9716387,14.028566 C24.9716387,14.7314586 24.3939076,15.3172025 23.7006303,15.3172025 Z M31.7888655,21.1453541 L31.0667017,21.1453541 C30.7778361,21.1453541 30.5467437,20.9110566 30.5467437,20.6181846 L30.5467437,4.9202486 C30.5467437,3.19230415 29.1601891,1.78651884 27.4558824,1.78651884 L8.85294118,1.78651884 C7.14863445,1.78651884 5.76207983,3.19230415 5.76207983,4.9202486 L5.76207983,20.6181846 C5.76207983,20.9110566 5.53098739,21.1453541 5.24212185,21.1453541 L4.51995798,21.1453541 C4.23109244,21.1453541 4,20.9110566 4,20.6181846 L4,4.9202486 C4,2.19653955 6.1664916,0 8.85294118,0 L27.4558824,0 C30.1423319,0 32.3088235,2.19653955 32.3088235,4.9202486 L32.3088235,20.6181846 C32.3088235,20.9110566 32.0777311,21.1453541 31.7888655,21.1453541 Z" id="Shape"></path>
                            <path d="M34.3823529,29.0436891 C33.7647059,29.0436891 33.5073529,28.8349513 33.1470588,28.6262135 C32.7352941,28.3652912 32.2720588,28 31.3455882,28 C30.4191176,28 29.9044118,28.3131067 29.5441176,28.6262135 C29.1838235,28.8871357 28.9264706,29.0436891 28.3088235,29.0436891 C27.6911765,29.0436891 27.4338235,28.8349513 27.0735294,28.6262135 C26.6617647,28.3652912 26.1985294,28 25.2720588,28 C24.3455882,28 23.8308824,28.3131067 23.4705882,28.6262135 C23.0073529,28.8349513 22.6985294,29.0436891 22.1323529,29.0436891 C21.5147059,29.0436891 21.2573529,28.8349513 20.8970588,28.6262135 C20.4852941,28.3131067 19.9705882,28 19.0441176,28 C18.1176471,28 17.6029412,28.3131067 17.2426471,28.6262135 C16.8823529,28.8349513 16.5735294,29.0436891 15.9558824,29.0436891 C15.3382353,29.0436891 15.0808824,28.8349513 14.7205882,28.6262135 C14.3088235,28.3652912 13.8455882,28 12.9191176,28 C11.9926471,28 11.4779412,28.3131067 11.1176471,28.6262135 C10.7573529,28.8871357 10.5,29.0436891 9.88235294,29.0436891 C9.26470588,29.0436891 9.00735294,28.8349513 8.64705882,28.6262135 C8.18382353,28.3131067 7.72058824,28 6.79411765,28 C5.86764706,28 5.35294118,28.3131067 4.99264706,28.6262135 C4.63235294,28.8349513 4.32352941,29.0436891 3.70588235,29.0436891 C3.08823529,29.0436891 2.83088235,28.8349513 2.47058824,28.6262135 C2.05882353,28.3131067 1.59558824,28 0.669117647,28 C0.360294118,28 0.154411765,28.2087378 0.154411765,28.5218445 C0.154411765,28.8349513 0.360294118,29.0436891 0.669117647,29.0436891 C1.28676471,29.0436891 1.54411765,29.2524269 1.90441176,29.4611647 C2.31617647,29.722087 2.77941176,30.0873782 3.70588235,30.0873782 C4.63235294,30.0873782 5.14705882,29.7742715 5.50735294,29.4611647 C5.86764706,29.2002425 6.125,29.0436891 6.74264706,29.0436891 C7.36029412,29.0436891 7.61764706,29.2524269 7.97794118,29.4611647 C8.38970588,29.722087 8.85294118,30.0873782 9.77941176,30.0873782 C10.7058824,30.0873782 11.2205882,29.7742715 11.5808824,29.4611647 C11.9411765,29.2002425 12.1985294,29.0436891 12.8161765,29.0436891 C13.4338235,29.0436891 13.6911765,29.2524269 14.0514706,29.4611647 C14.4632353,29.722087 14.9264706,30.0873782 15.8529412,30.0873782 C16.7794118,30.0873782 17.2941176,29.7742715 17.6544118,29.4611647 C18.0147059,29.2002425 18.2720588,29.0436891 18.8897059,29.0436891 C19.5073529,29.0436891 19.7647059,29.2524269 20.125,29.4611647 C20.5367647,29.722087 21,30.0873782 21.9264706,30.0873782 C22.8529412,30.0873782 23.3676471,29.7742715 23.7279412,29.4611647 C24.0882353,29.2002425 24.3455882,29.0436891 24.9632353,29.0436891 C25.5808824,29.0436891 25.8382353,29.2524269 26.1985294,29.4611647 C26.6102941,29.722087 27.0735294,30.0873782 28,30.0873782 C28.9264706,30.0873782 29.4411765,29.7742715 29.8014706,29.4611647 C30.1617647,29.2002425 30.4191176,29.0436891 31.0367647,29.0436891 C31.6544118,29.0436891 31.9117647,29.2524269 32.2720588,29.4611647 C32.9411765,29.722087 33.4558824,30.0873782 34.3823529,30.0873782 C34.6911765,30.0873782 34.8970588,29.8786404 34.8970588,29.5655336 C34.8970588,29.2524269 34.6397059,29.0436891 34.3823529,29.0436891 Z" id="Shape"></path>
                            <path d="M34.3823529,32.1747564 C33.7647059,32.1747564 33.5073529,31.9660186 33.1470588,31.7572807 C32.7352941,31.4963585 32.2720588,31.1310673 31.3455882,31.1310673 C30.4191176,31.1310673 29.9044118,31.444174 29.5441176,31.7572807 C29.1838235,32.018203 28.9264706,32.1747564 28.3088235,32.1747564 C27.6911765,32.1747564 27.4338235,31.9660186 27.0735294,31.7572807 C26.6617647,31.4963585 26.1985294,31.1310673 25.2720588,31.1310673 C24.3455882,31.1310673 23.8308824,31.444174 23.4705882,31.7572807 C23.0073529,31.9660186 22.6985294,32.1747564 22.1323529,32.1747564 C21.5147059,32.1747564 21.2573529,31.9660186 20.8970588,31.7572807 C20.4852941,31.444174 19.9705882,31.1310673 19.0441176,31.1310673 C18.1176471,31.1310673 17.6029412,31.444174 17.2426471,31.7572807 C16.8823529,31.9660186 16.5735294,32.1747564 15.9558824,32.1747564 C15.3382353,32.1747564 15.0808824,31.9660186 14.7205882,31.7572807 C14.3088235,31.4963585 13.8455882,31.1310673 12.9191176,31.1310673 C11.9926471,31.1310673 11.4779412,31.444174 11.1176471,31.7572807 C10.7573529,32.018203 10.5,32.1747564 9.88235294,32.1747564 C9.26470588,32.1747564 9.00735294,31.9660186 8.64705882,31.7572807 C8.18382353,31.444174 7.72058824,31.1310673 6.79411765,31.1310673 C5.86764706,31.1310673 5.35294118,31.444174 4.99264706,31.7572807 C4.63235294,31.9660186 4.32352941,32.1747564 3.70588235,32.1747564 C3.08823529,32.1747564 2.83088235,31.9660186 2.47058824,31.7572807 C2.05882353,31.444174 1.59558824,31.1310673 0.669117647,31.1310673 C0.360294118,31.1310673 0.154411765,31.3398051 0.154411765,31.6529118 C0.154411765,31.9660186 0.360294118,32.1747564 0.669117647,32.1747564 C1.28676471,32.1747564 1.54411765,32.3834942 1.90441176,32.592232 C2.31617647,32.8531543 2.77941176,33.2184455 3.70588235,33.2184455 C4.63235294,33.2184455 5.14705882,32.9053388 5.50735294,32.592232 C5.86764706,32.3313098 6.125,32.1747564 6.74264706,32.1747564 C7.36029412,32.1747564 7.61764706,32.3834942 7.97794118,32.592232 C8.38970588,32.8531543 8.85294118,33.2184455 9.77941176,33.2184455 C10.7058824,33.2184455 11.2205882,32.9053388 11.5808824,32.592232 C11.9411765,32.3313098 12.1985294,32.1747564 12.8161765,32.1747564 C13.4338235,32.1747564 13.6911765,32.3834942 14.0514706,32.592232 C14.4632353,32.8531543 14.9264706,33.2184455 15.8529412,33.2184455 C16.7794118,33.2184455 17.2941176,32.9053388 17.6544118,32.592232 C18.0147059,32.3313098 18.2720588,32.1747564 18.8897059,32.1747564 C19.5073529,32.1747564 19.7647059,32.3834942 20.125,32.592232 C20.5367647,32.8531543 21,33.2184455 21.9264706,33.2184455 C22.8529412,33.2184455 23.3676471,32.9053388 23.7279412,32.592232 C24.0882353,32.3313098 24.3455882,32.1747564 24.9632353,32.1747564 C25.5808824,32.1747564 25.8382353,32.3834942 26.1985294,32.592232 C26.6102941,32.8531543 27.0735294,33.2184455 28,33.2184455 C28.9264706,33.2184455 29.4411765,32.9053388 29.8014706,32.592232 C30.1617647,32.3313098 30.4191176,32.1747564 31.0367647,32.1747564 C31.6544118,32.1747564 31.9117647,32.3834942 32.2720588,32.592232 C32.9411765,32.8531543 33.4558824,33.2184455 34.3823529,33.2184455 C34.6911765,33.2184455 34.8970588,33.0097077 34.8970588,32.6966009 C34.8970588,32.3834942 34.6397059,32.1747564 34.3823529,32.1747564 Z" id="Shape"></path>
                        </g>
                    </g>
                </g>
            </g>
        </g>
    </g>
</svg>