<?xml version="1.0" encoding="UTF-8"?>
<svg width="31px" height="40px" viewBox="0 0 31 40" version="1.1" xmlns="http://www.w3.org/2000/svg" xmlns:xlink="http://www.w3.org/1999/xlink">
    <!-- Generator: Sketch 41.2 (35397) - http://www.bohemiancoding.com/sketch -->
    <title>power_train</title>
    <desc>Created with Sketch.</desc>
    <defs></defs>
    <g id="Page-1" stroke="none" stroke-width="1" fill="none" fill-rule="evenodd">
        <g id="Dashboard_d3-Copy" transform="translate(-173.000000, -129.000000)" fill="#F24444">
            <g id="Group-7" transform="translate(39.000000, 105.000000)">
                <g id="Group-2" transform="translate(110.000000, 24.000000)">
                    <g id="Group-10">
                        <polygon id="power_train" points="54.4348438 12.9445313 54.4348438 0 44.6376563 0 44.6376563 5.16789063 33.7971875 5.16789063 33.7971875 0 24 0 24 12.9445313 33.7971875 12.9445313 33.7971875 7.77664062 37.9130469 7.77664062 37.9130469 32.2233594 33.7971875 32.2233594 33.7971875 27.0554687 24 27.0554687 24 40 33.7971875 40 33.7971875 34.8321094 44.6376563 34.8321094 44.6376563 40 54.4348438 40 54.4348438 27.0554687 44.6376563 27.0554687 44.6376563 32.2233594 40.5217969 32.2233594 40.5217969 7.77664062 44.6376563 7.77664062 44.6376563 12.9445313"></polygon>
                    </g>
                </g>
            </g>
        </g>
    </g>
</svg>