<?xml version="1.0" encoding="UTF-8"?>
<svg width="136px" height="87px" viewBox="0 0 136 87" version="1.1" xmlns="http://www.w3.org/2000/svg" xmlns:xlink="http://www.w3.org/1999/xlink">
    <!-- Generator: Sketch 41.2 (35397) - http://www.bohemiancoding.com/sketch -->
    <title>ps_cross</title>
    <desc>Created with Sketch.</desc>
    <defs>
        <path d="M42.160044,0.950822443 C35.4000349,0.950822443 29.92,6.41006028 29.92,13.144327 C29.92,14.273498 30.0747724,15.3664676 30.363112,16.4042145 C30.4785534,16.8197866 30.6150241,17.2265933 30.7722602,17.6231442 L31.1433093,18.4633169 L42.160132,38.7435164 L53.1911209,18.4344784 L53.5255666,17.677315 C53.6920415,17.2636713 53.8361673,16.8388078 53.956888,16.4042145 C54.2452276,15.3664676 54.4,14.273498 54.4,13.144327 C54.4,6.41006028 48.9199651,0.950822443 42.160044,0.950822443 Z M42.160044,19.0996042 C38.8022127,19.0996042 36.0707741,16.378444 36.0707741,13.0334435 C36.0707741,9.68844301 38.8023007,6.96728279 42.160044,6.96728279 C45.5177873,6.96728279 48.2493139,9.68844301 48.2493139,13.0334435 C48.2493139,16.378444 45.5177873,19.0996042 42.160044,19.0996042 Z" id="path-1"></path>
        <mask id="mask-2" maskContentUnits="userSpaceOnUse" maskUnits="objectBoundingBox" x="-1" y="-1" width="26.48" height="39.792694">
            <rect x="28.92" y="-0.0491775566" width="26.48" height="39.792694" fill="white"></rect>
            <use xlink:href="#path-1" fill="black"></use>
        </mask>
        <rect id="path-3" x="36.4012338" y="-7.61135662" width="4.49833717" height="104.423705"></rect>
        <mask id="mask-4" maskContentUnits="userSpaceOnUse" maskUnits="objectBoundingBox" x="-1.5" y="-1.5" width="7.49833717" height="107.423705">
            <rect x="34.9012338" y="-9.11135662" width="7.49833717" height="107.423705" fill="white"></rect>
            <use xlink:href="#path-3" fill="black"></use>
        </mask>
    </defs>
    <g id="Page-1" stroke="none" stroke-width="1" fill="none" fill-rule="evenodd">
        <g id="Dashboard_d2" transform="translate(-1026.000000, -858.000000)">
            <g id="ps_cross" transform="translate(1026.000000, 859.000000)">
                <g id="Group-25" transform="translate(0.000000, 74.516129)" fill="#F24444">
                    <rect id="Rectangle-path" x="23.1336" y="2.70967742" width="2.72" height="2.70967742"></rect>
                    <rect id="Rectangle-path" x="34.0136" y="2.70967742" width="2.72" height="2.70967742"></rect>
                    <rect id="Rectangle-path" x="39.4536" y="2.70967742" width="2.72" height="2.70967742"></rect>
                    <rect id="Rectangle-path" x="44.8936" y="2.70967742" width="2.72" height="2.70967742"></rect>
                    <rect id="Rectangle-path" x="55.7736" y="2.70967742" width="2.72" height="2.70967742"></rect>
                    <rect id="Rectangle-path" x="61.2136" y="2.70967742" width="2.72" height="2.70967742"></rect>
                    <rect id="Rectangle-path" x="6.8136" y="2.70967742" width="2.72" height="2.70967742"></rect>
                    <rect id="Rectangle-path" x="12.2536" y="2.70967742" width="2.72" height="2.70967742"></rect>
                    <rect id="Rectangle-path" x="17.6936" y="2.70967742" width="2.72" height="2.70967742"></rect>
                    <rect id="Rectangle-path" x="28.5736" y="2.70967742" width="2.72" height="2.70967742"></rect>
                    <rect id="Rectangle-path" x="50.3336" y="2.70967742" width="2.72" height="2.70967742"></rect>
                    <rect id="Rectangle-path" x="66.6536" y="2.70967742" width="2.72" height="2.70967742"></rect>
                    <rect id="Rectangle-path" x="1.3736" y="2.70967742" width="2.72" height="2.70967742"></rect>
                    <rect id="Rectangle-path" x="10.88" y="0" width="5.44" height="5.41935484"></rect>
                    <rect id="Rectangle-path" x="65.28" y="0" width="5.44" height="5.41935484"></rect>
                    <rect id="Rectangle-path" x="32.64" y="0" width="5.44" height="5.41935484"></rect>
                    <rect id="Rectangle-path" x="0" y="0" width="5.44" height="5.41935484"></rect>
                    <rect id="Rectangle-path" x="43.52" y="0" width="5.44" height="5.41935484"></rect>
                    <rect id="Rectangle-path" x="21.76" y="0" width="5.44" height="5.41935484"></rect>
                    <rect id="Rectangle-path" x="54.4" y="0" width="5.44" height="5.41935484"></rect>
                    <rect id="Rectangle-path-Copy-20" x="88.4" y="2.70967742" width="2.72" height="2.70967742"></rect>
                    <rect id="Rectangle-path-Copy-19" x="99.28" y="2.70967742" width="2.72" height="2.70967742"></rect>
                    <rect id="Rectangle-path-Copy-18" x="104.72" y="2.70967742" width="2.72" height="2.70967742"></rect>
                    <rect id="Rectangle-path-Copy-17" x="110.16" y="2.70967742" width="2.72" height="2.70967742"></rect>
                    <rect id="Rectangle-path-Copy-16" x="121.04" y="2.70967742" width="2.72" height="2.70967742"></rect>
                    <rect id="Rectangle-path-Copy-15" x="126.48" y="2.70967742" width="2.72" height="2.70967742"></rect>
                    <rect id="Rectangle-path-Copy-14" x="72.08" y="2.70967742" width="2.72" height="2.70967742"></rect>
                    <rect id="Rectangle-path-Copy-13" x="77.52" y="2.70967742" width="2.72" height="2.70967742"></rect>
                    <rect id="Rectangle-path-Copy-12" x="82.96" y="2.70967742" width="2.72" height="2.70967742"></rect>
                    <rect id="Rectangle-path-Copy-11" x="93.84" y="2.70967742" width="2.72" height="2.70967742"></rect>
                    <rect id="Rectangle-path-Copy-10" x="115.6" y="2.70967742" width="2.72" height="2.70967742"></rect>
                    <rect id="Rectangle-path-Copy-9" x="131.92" y="2.70967742" width="2.72" height="2.70967742"></rect>
                    <rect id="Rectangle-path-Copy-8" x="66.64" y="2.70967742" width="2.72" height="2.70967742"></rect>
                    <rect id="Rectangle-path-Copy-7" x="76.16" y="0" width="5.44" height="5.41935484"></rect>
                    <rect id="Rectangle-path-Copy-6" x="130.56" y="0" width="5.44" height="5.41935484"></rect>
                    <rect id="Rectangle-path-Copy-5" x="97.92" y="0" width="5.44" height="5.41935484"></rect>
                    <rect id="Rectangle-path-Copy-4" x="65.28" y="0" width="5.44" height="5.41935484"></rect>
                    <rect id="Rectangle-path-Copy-3" x="108.8" y="0" width="5.44" height="5.41935484"></rect>
                    <rect id="Rectangle-path-Copy-2" x="87.04" y="0" width="5.44" height="5.41935484"></rect>
                    <rect id="Rectangle-path-Copy" x="119.68" y="0" width="5.44" height="5.41935484"></rect>
                </g>
                <g id="Group-25-Copy" transform="translate(13.600000, 63.677419)" fill="#F24444">
                    <rect id="Rectangle-path" x="18.50688" y="2.70967742" width="2.176" height="2.70967742"></rect>
                    <rect id="Rectangle-path" x="27.21088" y="2.70967742" width="2.176" height="2.70967742"></rect>
                    <rect id="Rectangle-path" x="31.56288" y="2.70967742" width="2.176" height="2.70967742"></rect>
                    <rect id="Rectangle-path" x="35.91488" y="2.70967742" width="2.176" height="2.70967742"></rect>
                    <rect id="Rectangle-path" x="44.61888" y="2.70967742" width="2.176" height="2.70967742"></rect>
                    <rect id="Rectangle-path" x="48.97088" y="2.70967742" width="2.176" height="2.70967742"></rect>
                    <rect id="Rectangle-path" x="5.45088" y="2.70967742" width="2.176" height="2.70967742"></rect>
                    <rect id="Rectangle-path" x="9.80288" y="2.70967742" width="2.176" height="2.70967742"></rect>
                    <rect id="Rectangle-path" x="14.15488" y="2.70967742" width="2.176" height="2.70967742"></rect>
                    <rect id="Rectangle-path" x="22.85888" y="2.70967742" width="2.176" height="2.70967742"></rect>
                    <rect id="Rectangle-path" x="40.26688" y="2.70967742" width="2.176" height="2.70967742"></rect>
                    <rect id="Rectangle-path" x="53.32288" y="2.70967742" width="2.176" height="2.70967742"></rect>
                    <rect id="Rectangle-path" x="1.09888" y="2.70967742" width="2.176" height="2.70967742"></rect>
                    <rect id="Rectangle-path" x="8.704" y="0" width="4.352" height="5.41935484"></rect>
                    <rect id="Rectangle-path" x="52.224" y="0" width="4.352" height="5.41935484"></rect>
                    <rect id="Rectangle-path" x="26.112" y="0" width="4.352" height="5.41935484"></rect>
                    <rect id="Rectangle-path" x="0" y="0" width="4.352" height="5.41935484"></rect>
                    <rect id="Rectangle-path" x="34.816" y="0" width="4.352" height="5.41935484"></rect>
                    <rect id="Rectangle-path" x="17.408" y="0" width="4.352" height="5.41935484"></rect>
                    <rect id="Rectangle-path" x="43.52" y="0" width="4.352" height="5.41935484"></rect>
                    <rect id="Rectangle-path-Copy-20" x="70.72" y="2.70967742" width="2.176" height="2.70967742"></rect>
                    <rect id="Rectangle-path-Copy-19" x="79.424" y="2.70967742" width="2.176" height="2.70967742"></rect>
                    <rect id="Rectangle-path-Copy-18" x="83.776" y="2.70967742" width="2.176" height="2.70967742"></rect>
                    <rect id="Rectangle-path-Copy-17" x="88.128" y="2.70967742" width="2.176" height="2.70967742"></rect>
                    <rect id="Rectangle-path-Copy-16" x="96.832" y="2.70967742" width="2.176" height="2.70967742"></rect>
                    <rect id="Rectangle-path-Copy-15" x="101.184" y="2.70967742" width="2.176" height="2.70967742"></rect>
                    <rect id="Rectangle-path-Copy-14" x="57.664" y="2.70967742" width="2.176" height="2.70967742"></rect>
                    <rect id="Rectangle-path-Copy-13" x="62.016" y="2.70967742" width="2.176" height="2.70967742"></rect>
                    <rect id="Rectangle-path-Copy-12" x="66.368" y="2.70967742" width="2.176" height="2.70967742"></rect>
                    <rect id="Rectangle-path-Copy-11" x="75.072" y="2.70967742" width="2.176" height="2.70967742"></rect>
                    <rect id="Rectangle-path-Copy-10" x="92.48" y="2.70967742" width="2.176" height="2.70967742"></rect>
                    <rect id="Rectangle-path-Copy-9" x="105.536" y="2.70967742" width="2.176" height="2.70967742"></rect>
                    <rect id="Rectangle-path-Copy-8" x="53.312" y="2.70967742" width="2.176" height="2.70967742"></rect>
                    <rect id="Rectangle-path-Copy-7" x="60.928" y="0" width="4.352" height="5.41935484"></rect>
                    <rect id="Rectangle-path-Copy-6" x="104.448" y="0" width="4.352" height="5.41935484"></rect>
                    <rect id="Rectangle-path-Copy-5" x="78.336" y="0" width="4.352" height="5.41935484"></rect>
                    <rect id="Rectangle-path-Copy-4" x="52.224" y="0" width="4.352" height="5.41935484"></rect>
                    <rect id="Rectangle-path-Copy-3" x="87.04" y="0" width="4.352" height="5.41935484"></rect>
                    <rect id="Rectangle-path-Copy-2" x="69.632" y="0" width="4.352" height="5.41935484"></rect>
                    <rect id="Rectangle-path-Copy" x="95.744" y="0" width="4.352" height="5.41935484"></rect>
                </g>
                <g id="noun_72" transform="translate(34.000000, 23.032258)" fill="#F24444">
                    <g id="Group">
                        <path d="M61.8816204,19.4392258 L56.3029166,5.10029032 C55.2595894,2.3553871 52.9796507,0.0196451613 48.6647816,0 L40.7972916,0 L27.3510977,0 L19.3468114,0 C15.051679,0.0196451613 12.7717403,2.3553871 11.7093569,5.10029032 L6.12929198,19.4392258 C3.91400824,19.7237419 -0.00680578723,22.314871 -3.80737159e-14,27.2234516 L-3.80737159e-14,45.4805806 L5.44394921,45.4805806 L5.44394921,51.3084194 C5.43033763,58.493129 15.6451437,58.4077742 15.6424214,51.3084194 L15.6424214,45.4805806 L34.0289362,45.4805806 L52.3691716,45.4805806 L52.3691716,51.3084194 C52.3916307,58.4077742 62.6064368,58.493129 62.6132426,51.3084194 L62.6132426,45.4805806 L68.0578723,45.4805806 L68.0578723,27.2234516 C68.0408579,22.314871 64.1173215,19.7237419 61.8816204,19.4392258 Z M10.7034616,34.4630323 C8.09412276,34.4704839 5.9816064,32.3040968 5.99249566,29.6398065 C5.9816064,26.9572258 8.09412276,24.7888065 10.7034616,24.8111613 C13.3046335,24.7888065 15.4171498,26.9572258 15.4137469,29.6398065 C15.4171498,32.3040968 13.3039529,34.4698065 10.7034616,34.4630323 Z M34.0289362,19.3044194 L33.9833374,19.3044194 L11.9380314,19.3044194 L16.1453691,8.01319355 C16.6530808,6.41041935 17.4411909,5.26354839 19.3025738,5.23577419 L33.9833374,5.23577419 L34.0289362,5.23577419 L48.7566597,5.23577419 C50.5894582,5.26354839 51.3796101,6.40974194 51.9118227,8.01319355 L56.119841,19.3044194 L34.0289362,19.3044194 Z M57.3550913,34.4630323 C54.7273769,34.4704839 52.6134994,32.3040968 52.5992072,29.6398065 C52.6134994,26.9572258 54.7273769,24.7888065 57.3550913,24.8111613 C59.9378876,24.7888065 62.0497234,26.9572258 62.0660573,29.6398065 C62.0497234,32.3040968 59.9378876,34.4698065 57.3550913,34.4630323 Z" id="Shape"></path>
                    </g>
                </g>
                <g id="Group-26" transform="translate(27.200000, 0.000000)">
                    <g id="noun_605474_cc">
                        <g id="Group">
                            <g>
                                <g id="Shape">
                                    <use fill="#F24444" fill-rule="evenodd" xlink:href="#path-1"></use>
                                    <use stroke="#202634" mask="url(#mask-2)" stroke-width="2" xlink:href="#path-1"></use>
                                </g>
                                <g id="Rectangle-path" transform="translate(38.650402, 44.600496) scale(-1, 1) rotate(-45.000000) translate(-38.650402, -44.600496) ">
                                    <use fill="#F24444" fill-rule="evenodd" xlink:href="#path-3"></use>
                                    <use stroke="#202634" mask="url(#mask-4)" stroke-width="3" xlink:href="#path-3"></use>
                                </g>
                            </g>
                        </g>
                    </g>
                </g>
            </g>
        </g>
    </g>
</svg>