<?xml version="1.0" encoding="UTF-8"?>
<svg width="22px" height="22px" viewBox="0 0 22 22" version="1.1" xmlns="http://www.w3.org/2000/svg" xmlns:xlink="http://www.w3.org/1999/xlink">
    <!-- Generator: Sketch 41.2 (35397) - http://www.bohemiancoding.com/sketch -->
    <title>noun_950460_cc</title>
    <desc>Created with Sketch.</desc>
    <defs></defs>
    <g id="Page-1" stroke="none" stroke-width="1" fill="none" fill-rule="evenodd" opacity="0.5">
        <g id="Dashboard_d3-Copy" transform="translate(-1222.000000, -19.000000)" fill="#FFFFFF">
            <g id="noun_950460_cc" transform="translate(1222.000000, 19.000000)">
                <g id="Group">
                    <path d="M21.6076181,19.9845106 L17.5836641,15.9605567 C18.9700684,14.2021903 19.7139927,12.0718617 19.7139927,9.87390371 C19.7139927,4.42973077 15.2842619,0 9.84008897,0 C4.39591604,0 0,4.46354551 0,9.90771845 C0,15.3518914 4.42973077,19.7816222 9.87390371,19.7816222 C12.0718617,19.7816222 14.236005,19.0376979 15.9605567,17.6512936 L19.9845106,21.6752475 C20.2212138,21.9119507 20.4917317,22.0133949 20.7960643,22.0133949 C21.100397,22.0133949 21.3709149,21.9119507 21.6076181,21.6752475 C22.0810244,21.1680265 22.0810244,20.4579169 21.6076181,19.9845106 Z M17.346961,9.94153319 C17.346961,14.0669313 13.9993018,17.4484052 9.87390371,17.4484052 C5.74850559,17.4484052 2.36703171,14.0669313 2.36703171,9.94153319 C2.36703171,5.81613506 5.71469085,2.43466119 9.87390371,2.43466119 C14.0331166,2.43466119 17.346961,5.78232032 17.346961,9.94153319 Z" id="Shape"></path>
                </g>
            </g>
        </g>
    </g>
</svg>