<?xml version="1.0" encoding="UTF-8"?>
<svg width="68px" height="68px" viewBox="0 0 68 68" version="1.1" xmlns="http://www.w3.org/2000/svg" xmlns:xlink="http://www.w3.org/1999/xlink">
    <!-- Generator: Sketch 41.2 (35397) - http://www.bohemiancoding.com/sketch -->
    <title>seatbelt</title>
    <desc>Created with Sketch.</desc>
    <defs></defs>
    <g id="Page-1" stroke="none" stroke-width="1" fill="none" fill-rule="evenodd">
        <g id="vehicle_diagnostic" transform="translate(-708.000000, -184.000000)" fill="#F24444">
            <g id="seatbelt" transform="translate(708.000000, 184.000000)">
                <g id="Layer_1">
                    <g id="Group">
                        <path d="M19.6605,32.4524688 C18.5527109,31.3446797 16.7592109,31.3446797 15.6542109,32.4524688 L7.5395,40.5642578 C7.00971094,41.0940469 6.70928906,41.8165469 6.70928906,42.5674688 C6.70928906,43.3183906 7.00957813,44.0379688 7.5395,44.5706797 L7.8965,44.9276797 L0.855710938,51.8069688 C0.311710938,52.3367578 0.0057109375,53.0592578 7.54847705e-13,53.8186797 C-0.0027890625,54.5751797 0.294710938,55.3004688 0.830210938,55.8359688 L12.1635,67.1692578 C12.6962109,67.7019688 13.4157891,67.9994688 14.1667109,67.9994688 L14.1837109,67.9994688 C14.9402109,67.9966797 15.6655,67.6906797 16.1954219,67.1466797 L23.0747109,60.1029688 L23.4317109,60.4599688 C23.9615,60.9926797 24.684,61.2901797 25.4349219,61.2901797 C26.1858438,61.2901797 26.9054219,60.9926797 27.4381328,60.4599688 L35.5499219,52.3481797 C36.6549219,51.2403906 36.6549219,49.4496797 35.5499219,48.3418906 L19.6605,32.4524688 Z M14.144,61.1371797 L6.86521094,53.8583906 L11.9029219,48.9341016 L19.0684219,56.0968125 L14.144,61.1371797 Z" id="Shape"></path>
                        <path d="M6.25400781,21.5591875 C6.37021875,21.7121875 6.50329687,21.8509766 6.64779687,21.9756875 C7.14079687,22.4063984 7.78679687,22.6669766 8.49508594,22.6669766 L8.50079687,22.6669766 L17.0007969,22.6669766 C18.5647969,22.6669766 19.8340859,21.3976875 19.8340859,19.8336875 C19.8340859,18.2696875 18.5647969,17.0003984 17.0007969,17.0003984 L15.3405078,17.0003984 L21.8372969,10.5036094 C22.9450859,9.39860937 22.9450859,7.60510937 21.8372969,6.49732031 C20.7295078,5.38953125 18.9387969,5.38953125 17.8310078,6.49732031 L11.3342187,12.9939766 L11.3342187,11.3336875 C11.3342187,9.7696875 10.0649297,8.50039844 8.50092969,8.50039844 C6.93692969,8.50039844 5.66750781,9.7696875 5.66750781,11.3336875 L5.66750781,19.8138984 C5.66750781,19.8876094 5.66750781,19.9611875 5.67321875,20.0321094 C5.71571875,20.6071875 5.92250781,21.1312656 6.25400781,21.5591875 Z" id="Shape"></path>
                        <path d="M61.7145156,46.3992422 C61.6012266,46.2575313 61.4765156,46.1272422 61.3405156,46.0139531 C60.8475156,45.5917422 60.2100156,45.3367422 59.5130156,45.3339531 L59.5073047,45.3339531 L59.5015938,45.3339531 L51.0015938,45.3339531 C49.4375938,45.3339531 48.1683047,46.6032422 48.1683047,48.1672422 C48.1683047,49.7312422 49.4375938,51.0005313 51.0015938,51.0005313 L53.8348828,51.0005313 L48.7348828,57.8005313 C47.7941719,59.0528203 48.0491719,60.8293203 49.3015938,61.7672422 C49.8115938,62.1497422 50.4065938,62.3339531 50.9988047,62.3339531 C51.8600938,62.3339531 52.7100938,61.9429531 53.2683047,61.2006641 L56.6683047,56.667375 C56.6683047,58.231375 57.9375938,59.5006641 59.5015938,59.5006641 C61.0655938,59.5006641 62.3348828,58.231375 62.3348828,56.667375 L62.3348828,48.175875 C62.3348828,48.141875 62.3348828,48.1106641 62.3320938,48.0766641 C62.3124375,47.4419531 62.0857266,46.8610313 61.7145156,46.3992422 Z" id="Shape"></path>
                        <path d="M67.1695234,12.1637656 L55.8362344,0.830476562 C55.3007344,0.294976562 54.5159453,0.000265625 53.8189453,0.000265625 C53.0624453,0.0059765625 52.3399453,0.311976562 51.8101563,0.850265625 L45.3926563,7.40655469 C42.5139453,4.99534375 38.2243672,5.11434375 35.5241563,7.81176562 L29.7866563,13.5520547 C29.7271563,13.6115547 29.7044453,13.6908437 29.6506563,13.7560547 C29.5118672,13.9203437 29.3984453,14.0932656 29.2993672,14.2830547 C29.2341563,14.4133437 29.1718672,14.5380547 29.1293672,14.6740547 C29.0641563,14.8695547 29.0330781,15.0650547 29.0131563,15.2690547 C28.9989453,15.4107656 28.9763672,15.5495547 28.9848672,15.6912656 C28.9933672,15.8952656 29.0443672,16.0879766 29.1010781,16.2890547 C29.1378672,16.4307656 29.1605781,16.5723437 29.2228672,16.7083437 C29.2398672,16.7451328 29.2370781,16.7848437 29.2568672,16.8216328 L30.8435781,20.0006328 C31.2487891,20.8081328 31.0928672,21.7799219 30.4525781,22.4203437 L26.9902891,25.8826328 C25.0097891,27.8631328 25.0097891,31.0874219 26.9902891,33.0679219 L34.9320781,41.0126328 C35.8925781,41.9731328 37.1703672,42.5001328 38.5275781,42.5001328 C39.8847891,42.5001328 41.1597891,41.9731328 42.1173672,41.0126328 L45.5825781,37.5503437 C46.2200781,36.9100547 47.1947891,36.7541328 48.0022891,37.1565547 L51.1785,38.7460547 C51.2152891,38.7630547 51.255,38.7630547 51.2947109,38.7800547 C51.4307109,38.8395547 51.5724219,38.8622656 51.714,38.9018437 C51.9152109,38.9556328 52.1077891,39.0095547 52.3117891,39.0180547 C52.3570781,39.0208437 52.3995781,39.0435547 52.4477891,39.0435547 C52.5440781,39.0435547 52.6347891,38.9982656 52.7310781,38.9897656 C52.9350781,38.9670547 53.1333672,38.9387656 53.3288672,38.8735547 C53.4648672,38.8282656 53.5866563,38.7687656 53.7170781,38.7007656 C53.9068672,38.6044766 54.0797891,38.4882656 54.2468672,38.3494766 C54.3120781,38.2956875 54.3913672,38.2757656 54.4508672,38.2134766 L60.1883672,32.4759766 C62.8885781,29.7757656 63.0046563,25.4889766 60.5935781,22.6102656 L67.1498672,16.1927656 C67.6910781,15.6629766 67.9970781,14.9404766 67.9998672,14.1839766 C68.0025234,13.4246875 67.7050234,12.6992656 67.1695234,12.1637656 Z M56.1819453,28.4696875 L52.5666563,32.0849766 C52.4788672,31.9772656 52.3938672,31.8639766 52.3116563,31.7534766 C51.9858672,31.3227656 51.6684453,30.8722656 51.3624453,30.4047656 C51.2377344,30.2120547 51.1102344,30.0250547 50.9884453,29.8267656 C50.5747344,29.1580547 50.1724453,28.4639766 49.7899453,27.7130547 C48.8662344,25.9138437 47.4552344,24.0382656 45.7099453,22.2900547 C43.9646563,20.5447656 42.0889453,19.1365547 40.2869453,18.2128437 C39.5389453,17.8275547 38.8447344,17.4280547 38.1789453,17.0171328 C37.9777344,16.8924219 37.7879453,16.7649219 37.5952344,16.6374219 C37.1220234,16.3286328 36.6715234,16.0112109 36.2380234,15.6854219 C36.1303125,15.6032109 36.0227344,15.5182109 35.9150234,15.4361328 L39.5332344,11.8208437 C40.1792344,11.1748437 41.2332344,11.1720547 41.8820234,11.8208437 L56.1818125,26.1206328 C56.8279453,26.7667656 56.8307344,27.8207656 56.1819453,28.4696875 Z" id="Shape"></path>
                    </g>
                </g>
            </g>
        </g>
    </g>
</svg>