<?xml version="1.0" encoding="UTF-8"?>
<svg width="28px" height="28px" viewBox="0 0 28 28" version="1.1" xmlns="http://www.w3.org/2000/svg" xmlns:xlink="http://www.w3.org/1999/xlink">
    <!-- Generator: Sketch 41.2 (35397) - http://www.bohemiancoding.com/sketch -->
    <title>seat_belt</title>
    <desc>Created with Sketch.</desc>
    <defs></defs>
    <g id="Page-1" stroke="none" stroke-width="1" fill="none" fill-rule="evenodd">
        <g id="vehicle_diagnostic-copy-8" transform="translate(-100.000000, -349.000000)" fill="#F24444">
            <g id="Group-13" transform="translate(42.000000, 349.000000)">
                <g id="Layer_1" transform="translate(58.000000, 0.000000)">
                    <g id="seat_belt">
                        <path d="M8.0955,13.3627813 C7.63935156,12.9066328 6.90085156,12.9066328 6.44585156,13.3627813 L3.1045,16.7029297 C2.88635156,16.9210781 2.76264844,17.2185781 2.76264844,17.5277813 C2.76264844,17.8369844 2.88629688,18.1332813 3.1045,18.3526328 L3.2515,18.4996328 L0.352351563,21.3322813 C0.128351563,21.5504297 0.0023515625,21.8479297 2.55698754e-13,22.1606328 C-0.0011484375,22.4721328 0.121351563,22.7707813 0.341851563,22.9912813 L5.0085,27.6579297 C5.22785156,27.8772813 5.52414844,27.9997813 5.83335156,27.9997813 L5.84035156,27.9997813 C6.15185156,27.9986328 6.4505,27.8726328 6.66870313,27.6486328 L9.50135156,24.7482813 L9.64835156,24.8952813 C9.8665,25.1146328 10.164,25.2371328 10.4732031,25.2371328 C10.7824063,25.2371328 11.0787031,25.1146328 11.2980547,24.8952813 L14.6382031,21.5551328 C15.0932031,21.0989844 15.0932031,20.3616328 14.6382031,19.9054844 L8.0955,13.3627813 Z M5.824,25.1741328 L2.82685156,22.1769844 L4.90120312,20.1493359 L7.85170312,23.0986875 L5.824,25.1741328 Z" id="Shape"></path>
                        <path d="M2.57517969,8.8773125 C2.62303125,8.9403125 2.67782812,8.99746094 2.73732812,9.0488125 C2.94032812,9.22616406 3.20632812,9.33346094 3.49797656,9.33346094 L3.50032812,9.33346094 L7.00032812,9.33346094 C7.64432812,9.33346094 8.16697656,8.8108125 8.16697656,8.1668125 C8.16697656,7.5228125 7.64432812,7.00016406 7.00032812,7.00016406 L6.31667969,7.00016406 L8.99182812,4.32501562 C9.44797656,3.87001562 9.44797656,3.13151562 8.99182812,2.67536719 C8.53567969,2.21921875 7.79832812,2.21921875 7.34217969,2.67536719 L4.66703125,5.35046094 L4.66703125,4.6668125 C4.66703125,4.0228125 4.14438281,3.50016406 3.50038281,3.50016406 C2.85638281,3.50016406 2.33367969,4.0228125 2.33367969,4.6668125 L2.33367969,8.15866406 C2.33367969,8.18901562 2.33367969,8.2193125 2.33603125,8.24851562 C2.35353125,8.4853125 2.43867969,8.70110937 2.57517969,8.8773125 Z" id="Shape"></path>
                        <path d="M25.4118594,19.1055703 C25.3652109,19.0472188 25.3138594,18.9935703 25.2578594,18.9469219 C25.0548594,18.7730703 24.7923594,18.6680703 24.5053594,18.6669219 L24.5030078,18.6669219 L24.5006562,18.6669219 L21.0006562,18.6669219 C20.3566562,18.6669219 19.8340078,19.1895703 19.8340078,19.8335703 C19.8340078,20.4775703 20.3566562,21.0002188 21.0006562,21.0002188 L22.1673047,21.0002188 L20.0673047,23.8002188 C19.6799531,24.3158672 19.7849531,25.0473672 20.3006562,25.4335703 C20.5106562,25.5910703 20.7556562,25.6669219 20.9995078,25.6669219 C21.3541562,25.6669219 21.7041562,25.5059219 21.9340078,25.2002734 L23.3340078,23.333625 C23.3340078,23.977625 23.8566562,24.5002734 24.5006562,24.5002734 C25.1446562,24.5002734 25.6673047,23.977625 25.6673047,23.333625 L25.6673047,19.837125 C25.6673047,19.823125 25.6673047,19.8102734 25.6661562,19.7962734 C25.6580625,19.5349219 25.5647109,19.2957188 25.4118594,19.1055703 Z" id="Shape"></path>
                        <path d="M27.6580391,5.00860937 L22.9913906,0.341960937 C22.7708906,0.121460937 22.4477422,0.000109375 22.1607422,0.000109375 C21.8492422,0.0024609375 21.5517422,0.128460937 21.3335938,0.350109375 L18.6910938,3.04975781 C17.5057422,2.05690625 15.7394453,2.10590625 14.6275938,3.21660937 L12.2650938,5.58025781 C12.2405938,5.60475781 12.2312422,5.63740625 12.2090938,5.66425781 C12.1519453,5.73190625 12.1052422,5.80310937 12.0644453,5.88125781 C12.0375938,5.93490625 12.0119453,5.98625781 11.9944453,6.04225781 C11.9675938,6.12275781 11.9547969,6.20325781 11.9465938,6.28725781 C11.9407422,6.34560937 11.9314453,6.40275781 11.9349453,6.46110937 C11.9384453,6.54510937 11.9594453,6.62446094 11.9827969,6.70725781 C11.9979453,6.76560937 12.0072969,6.82390625 12.0329453,6.87990625 C12.0399453,6.89505469 12.0387969,6.91140625 12.0469453,6.92655469 L12.7002969,8.23555469 C12.8671484,8.56805469 12.8029453,8.96820312 12.5392969,9.23190625 L11.1136484,10.6575547 C10.2981484,11.4730547 10.2981484,12.8007031 11.1136484,13.6162031 L14.3837969,16.8875547 C14.7792969,17.2830547 15.3054453,17.5000547 15.8642969,17.5000547 C16.4231484,17.5000547 16.9481484,17.2830547 17.3424453,16.8875547 L18.7692969,15.4619062 C19.0317969,15.1982578 19.4331484,15.1340547 19.7656484,15.2997578 L21.0735,15.9542578 C21.0886484,15.9612578 21.105,15.9612578 21.1213516,15.9682578 C21.1773516,15.9927578 21.2357031,16.0021094 21.294,16.0184062 C21.3768516,16.0405547 21.4561484,16.0627578 21.5401484,16.0662578 C21.5587969,16.0674062 21.5762969,16.0767578 21.5961484,16.0767578 C21.6357969,16.0767578 21.6731484,16.0581094 21.7127969,16.0546094 C21.7967969,16.0452578 21.8784453,16.0336094 21.9589453,16.0067578 C22.0149453,15.9881094 22.0650938,15.9636094 22.1187969,15.9356094 C22.1969453,15.8959609 22.2681484,15.8481094 22.3369453,15.7909609 C22.3637969,15.7688125 22.3964453,15.7606094 22.4209453,15.7349609 L24.7834453,13.3724609 C25.8952969,12.2606094 25.9430938,10.4954609 24.9502969,9.31010937 L27.6499453,6.66760937 C27.8727969,6.44946094 27.9987969,6.15196094 27.9999453,5.84046094 C28.0010391,5.5278125 27.8785391,5.22910937 27.6580391,5.00860937 Z M23.1337422,11.7228125 L21.6450938,13.2114609 C21.6089453,13.1671094 21.5739453,13.1204609 21.5400938,13.0749609 C21.4059453,12.8976094 21.2752422,12.7121094 21.1492422,12.5196094 C21.0978906,12.4402578 21.0453906,12.3632578 20.9952422,12.2816094 C20.8248906,12.0062578 20.6592422,11.7204609 20.5017422,11.4112578 C20.1213906,10.6704063 19.5403906,9.89810938 18.8217422,9.17825781 C18.1030938,8.45960938 17.3307422,7.87975781 16.5887422,7.49940625 C16.2807422,7.34075781 15.9948906,7.17625781 15.7207422,7.00705469 C15.6378906,6.95570313 15.5597422,6.90320313 15.4803906,6.85070313 C15.2855391,6.72355469 15.1000391,6.59285156 14.9215391,6.45870313 C14.8771875,6.42485156 14.8328906,6.38985156 14.7885391,6.35605469 L16.2783906,4.86740625 C16.5443906,4.60140625 16.9783906,4.60025781 17.2455391,4.86740625 L23.1336875,10.7555547 C23.3997422,11.0216094 23.4008906,11.4556094 23.1337422,11.7228125 Z" id="Shape"></path>
                    </g>
                </g>
            </g>
        </g>
    </g>
</svg>