<?xml version="1.0" encoding="UTF-8"?>
<svg width="74px" height="22px" viewBox="0 0 74 22" version="1.1" xmlns="http://www.w3.org/2000/svg" xmlns:xlink="http://www.w3.org/1999/xlink">
    <!-- Generator: Sketch 41.2 (35397) - http://www.bohemiancoding.com/sketch -->
    <title>towing</title>
    <desc>Created with Sketch.</desc>
    <defs></defs>
    <g id="Page-1" stroke="none" stroke-width="1" fill="none" fill-rule="evenodd">
        <g id="Dashboard_d3-Copy" transform="translate(-754.000000, -417.000000)" fill="#F24444">
            <g id="towing" transform="translate(791.000000, 428.000000) scale(-1, 1) translate(-791.000000, -428.000000) translate(754.000000, 417.000000)">
                <g id="Group-7">
                    <g id="Group-10">
                        <g id="body">
                            <g id="Page-1">
                                <g>
                                    <g id="Artboard">
                                        <g id="body">
                                            <g id="Group">
                                                <g id="Group-9-Copy">
                                                    <g id="towing">
                                                        <g id="body">
                                                            <g id="Page-1">
                                                                <g id="Artboard">
                                                                    <g id="body">
                                                                        <g id="Group">
                                                                            <path d="M67.8056391,15.7439733 C67.8056391,15.7439733 66.7230643,15.6553781 66.3316402,15.4330178 C65.8212316,15.1430651 65.100141,14.2070344 65.100141,14.2070344 C64.9839604,13.3129026 65.1609983,12.405094 65.9309114,11.8952643 C66.9067282,11.2490875 68.2574673,11.5340746 68.9420935,12.5305391 C69.360984,13.1402284 69.4314103,13.8760441 69.2017654,14.5041771 L70.2400195,15.2421577 C70.3694648,15.3345918 70.4591429,15.4731148 70.4890383,15.6272612 C70.5180721,15.7815692 70.4852396,15.9389701 70.3975848,16.0648144 C70.16346,16.3999298 70.2537805,16.8727044 70.5983715,17.1182454 C70.7653778,17.2373582 70.9671247,17.2856552 71.1656614,17.2547179 C71.3638557,17.2245329 71.5368659,17.1164549 71.6487763,16.9554358 C71.7712063,16.78032 71.8094696,16.558595 71.7542497,16.3463455 C71.6720998,16.0294202 71.8613371,15.7156123 72.1768731,15.6441966 C72.4928238,15.5733836 72.8151742,15.7733913 72.8975562,16.0905718 C73.0384181,16.634326 72.9399124,17.2027396 72.6267133,17.6509453 C72.4924133,17.8432735 72.3261652,18.0052638 72.1354079,18.1315816 C71.9143981,18.2779319 71.6611859,18.3759947 71.388049,18.4183989 C70.8795603,18.4968891 70.3643706,18.3722663 69.9350285,18.0673522 C69.2213813,17.5591554 68.9334719,16.6722475 69.1646538,15.8981448 L68.5080706,15.4317672 C68.4756269,15.4565242 68.4486374,15.4865538 68.414019,15.5094781 C68.2321129,15.6299345 68.0352881,15.7074327 67.8345003,15.7645845" id="towing" transform="translate(69.014010, 14.995240) rotate(-18.000000) translate(-69.014010, -14.995240) "></path>
                                                                            <path d="M68.0761455,11.6267058 L68.0761455,7.71232029 C68.0761455,7.08259021 67.6237824,6.54919674 67.0089604,6.4521517 C65.533529,6.2183936 62.918086,5.77708667 61.7430623,5.41086567 C60.0582549,4.88526416 53.5487088,2.09716767 51.2945963,1.57369123 C49.0397836,1.05021477 38.8735191,-1.74496528 29.1365093,1.66931953 C27.4888154,2.24663118 20.0766436,5.83092186 15.7182726,7.69461137 C14.43471,7.72294567 1.73003054,10.4019551 1.0535867,12.2380186 C0.377142881,14.0747905 0.164966401,14.9659047 0.0403214718,15.4320041 C-0.0843234569,15.8981036 0.0403214718,18.1287225 0.98426172,19.6821512 C1.94640853,20.2325453 3.79857615,20.602308 5.93994799,20.8502333 C5.91543919,20.7177704 5.88882961,20.5874325 5.87202353,20.4535529 C5.83491015,20.1673763 5.81740385,19.9059923 5.81740385,19.6566503 C5.81740385,16.1538208 8.63381903,13.3033888 12.0972675,13.3033888 C15.5607159,13.3033888 18.377131,16.1531124 18.377131,19.6566503 C18.377131,19.8365732 18.3652267,20.0150794 18.3519219,20.1907521 C18.3190101,20.5838907 18.2489849,20.9656956 18.1474483,21.3333333 L18.1642543,21.3333333 L49.3366906,20.6986447 C49.3226855,20.6171835 49.304479,20.5364308 49.2939751,20.4535529 C49.2568618,20.168793 49.2393555,19.9067006 49.2393555,19.6566503 C49.2393555,16.1538208 52.0557707,13.3040972 55.5192191,13.3040972 C58.9826673,13.3040972 61.7997827,16.1531124 61.7997827,19.6566503 C61.7997827,19.6701091 61.7983826,19.6814428 61.7976819,19.6941933 L61.9307304,19.6828595 L67.2603513,18.6677827 C67.2603513,18.6677827 69.3015867,17.5684114 69.3015867,14.5437234 C69.3022874,12.5263203 68.0761455,11.6267058 68.0761455,11.6267058 L68.0761455,11.6267058 Z M37.2518775,7.72314724 L25.4934685,8.07207207 C25.7098939,6.36446564 24.6666667,5.9812653 24.6666667,5.9812653 C29.3410321,1.86888834 38.7619048,1.72972973 38.7619048,1.72972973 L37.2518775,7.72314724 L37.2518775,7.72314724 Z M50.0010554,7.14999801 L39.9365079,7.4954955 L40.8486283,1.73267851 C46.0503053,1.66344326 49.021838,2.83636996 49.021838,2.83636996 L50.5079365,5.28675504 L50.0010554,7.14999801 L50.0010554,7.14999801 Z M55.7674664,6.91891892 L52.8437043,6.91891892 L49.9206349,2.88288288 C52.1136296,3.76043343 53.8688566,4.62544754 54.9140964,5.17217545 C55.5485825,5.50369455 55.8949177,6.21200323 55.7674664,6.91891892 L55.7674664,6.91891892 Z" id="body"></path>
                                                                        </g>
                                                                    </g>
                                                                </g>
                                                            </g>
                                                        </g>
                                                    </g>
                                                </g>
                                            </g>
                                        </g>
                                    </g>
                                </g>
                            </g>
                        </g>
                    </g>
                </g>
            </g>
        </g>
    </g>
</svg>