<?xml version="1.0" encoding="UTF-8"?>
<svg width="15px" height="18px" viewBox="0 0 15 18" version="1.1" xmlns="http://www.w3.org/2000/svg" xmlns:xlink="http://www.w3.org/1999/xlink">
    <!-- Generator: Sketch 41.2 (35397) - http://www.bohemiancoding.com/sketch -->
    <title>User</title>
    <desc>Created with Sketch.</desc>
    <defs></defs>
    <g id="Page-1" stroke="none" stroke-width="1" fill="none" fill-rule="evenodd" opacity="0.600000024">
        <g id="Dashboard_d2" transform="translate(-1111.000000, -30.000000)" fill="#FFFFFF">
            <g id="header" transform="translate(2.000000, 0.000000)">
                <g id="User" transform="translate(1109.000000, 30.000000)">
                    <g id="Photo">
                        <g id="noun_854891_cc">
                            <g id="Group">
                                <path d="M8.86111111,9.08181818 C10.8055556,8.50909091 12.2222222,6.73636364 12.2222222,4.63636364 C12.2222222,2.07272727 10.1111111,0 7.5,0 C4.88888889,0 2.77777778,2.07272727 2.77777778,4.63636364 C2.77777778,6.73636364 4.19444444,8.50909091 6.13888889,9.08181818 C2.30555556,9.49090909 0,11.6727273 0,15 L0,18 L4.16666667,18 C4.22222222,18 4.25,18 4.30555556,17.9727273 C4.36111111,17.9727273 4.38888889,18 4.44444444,18 C4.75,18 5,17.7545455 5,17.4545455 L5,13.6363636 C5,13.3363636 4.75,13.0909091 4.44444444,13.0909091 C4.13888889,13.0909091 3.88888889,13.3363636 3.88888889,13.6363636 L3.88888889,16.9090909 L1.11111111,16.9090909 L1.11111111,15 C1.11111111,10.4454545 6,10.0909091 7.5,10.0909091 C9,10.0909091 13.8888889,10.4454545 13.8888889,15 L13.8888889,16.9090909 L10.8333333,16.9090909 L10.8333333,13.6363636 C10.8333333,13.3363636 10.5833333,13.0909091 10.2777778,13.0909091 C9.97222222,13.0909091 9.72222222,13.3363636 9.72222222,13.6363636 L9.72222222,17.4545455 C9.72222222,17.7545455 9.97222222,18 10.2777778,18 L15,18 L15,15 C15,11.6727273 12.6944444,9.49090909 8.86111111,9.08181818 Z M3.88888889,4.63636364 C3.88888889,2.67272727 5.5,1.09090909 7.5,1.09090909 C9.5,1.09090909 11.1111111,2.67272727 11.1111111,4.63636364 C11.1111111,6.6 9.5,8.18181818 7.5,8.18181818 C5.5,8.18181818 3.88888889,6.6 3.88888889,4.63636364 Z" id="Shape"></path>
                            </g>
                        </g>
                    </g>
                </g>
            </g>
        </g>
    </g>
</svg>