<?xml version="1.0" encoding="UTF-8"?>
<svg width="30px" height="24px" viewBox="0 0 30 24" version="1.1" xmlns="http://www.w3.org/2000/svg" xmlns:xlink="http://www.w3.org/1999/xlink">
    <!-- Generator: Sketch 41.2 (35397) - http://www.bohemiancoding.com/sketch -->
    <title>vehicle_speed</title>
    <desc>Created with Sketch.</desc>
    <defs></defs>
    <g id="Page-1" stroke="none" stroke-width="1" fill="none" fill-rule="evenodd">
        <g id="vehicle_diagnostic-copy-8" transform="translate(-550.000000, -234.000000)">
            <g id="Group-8" transform="translate(494.000000, 234.000000)">
                <g id="noun_696897_cc" transform="translate(56.000000, 0.000000)">
                    <g id="14--Dashboard--(car,-part,-vehicle)">
                        <g id="Group">
                            <g id="vehicle_speed">
                                <g>
                                    <path d="M20.555855,12.9814134 C20.298005,13.1027848 20.040155,13.2241562 19.783655,13.3481951 C19.215305,13.6220589 18.918755,14.247144 19.062305,14.8673386 C19.172105,15.3430435 19.569905,15.7360557 20.050955,15.8440897 C20.679605,15.9859119 21.311405,15.6929311 21.589055,15.1318661 C21.714605,14.8784532 21.837455,14.6237066 21.959855,14.3694046 C22.341455,13.5780451 22.736105,12.7595659 23.206355,11.9855452 L23.563205,11.3978052 L22.968755,11.7503603 C22.184855,12.214506 21.356855,12.6044061 20.555855,12.9814134" id="Shape" fill="#000000"></path>
                                    <path d="M25.325225,18.5487163 C24.828875,18.5487163 24.425225,18.9475082 24.425225,19.4378843 C24.425225,19.9282605 24.828875,20.3270523 25.325225,20.3270523 C25.821575,20.3270523 26.225225,19.9282605 26.225225,19.4378843 C26.225225,18.9475082 25.821575,18.5487163 25.325225,18.5487163" id="Shape" fill="#000000"></path>
                                    <path d="M15.425225,18.5487163 C14.928875,18.5487163 14.525225,18.9475082 14.525225,19.4378843 C14.525225,19.9282605 14.928875,20.3270523 15.425225,20.3270523 C15.921575,20.3270523 16.325225,19.9282605 16.325225,19.4378843 C16.325225,18.9475082 15.921575,18.5487163 15.425225,18.5487163" id="Shape" fill="#000000"></path>
                                    <path d="M20.5924593,22.0296094 C19.4987552,22.0296094 18.609315,21.1508741 18.609315,20.0703334 C18.609315,18.9897927 19.4987552,18.1110574 20.5924593,18.1110574 C21.6861634,18.1110574 22.5756036,18.9897927 22.5756036,20.0703334 C22.5756036,21.1508741 21.6861634,22.0296094 20.5924593,22.0296094 L20.5924593,22.0296094 Z M17.3673709,15.7560077 C16.9434738,16.6131909 16.0723777,17.1304398 15.1328631,17.1304398 C14.9439686,17.1304398 14.7525951,17.1093776 14.5612217,17.0662735 C13.6534374,16.862019 12.9330603,16.150312 12.7253259,15.2529636 C12.4645424,14.123441 13.0099071,12.9836322 14.0515536,12.4805881 C14.3371264,12.3429489 14.6241865,12.2077589 14.9117425,12.0725688 C15.7729229,11.6674885 16.6633547,11.2482035 17.4858638,10.7608336 L19.8413434,9.36435959 C20.0371789,9.24876231 20.2865593,9.27913109 20.447194,9.43783244 C20.6083244,9.5965338 20.6390632,9.84340257 20.5215619,10.0363913 L19.1080758,12.3640111 C18.6147686,13.176131 18.1903758,14.0563358 17.7798649,14.9076412 C17.6435237,15.1907566 17.5066868,15.4743618 17.3673709,15.7560077 L17.3673709,15.7560077 Z M11.66831,8.31467748 L11.66831,6.35540149 C11.66831,6.08502141 11.8904221,5.86558249 12.1640961,5.86558249 L18.1135289,5.86558249 C18.3872028,5.86558249 18.609315,6.08502141 18.609315,6.35540149 L18.609315,8.31467748 C18.609315,8.58505757 18.3872028,8.80449648 18.1135289,8.80449648 L12.1640961,8.80449648 C11.8904221,8.80449648 11.66831,8.58505757 11.66831,8.31467748 L11.66831,8.31467748 Z M9.6851657,22.0296094 C8.59146162,22.0296094 7.70202141,21.1508741 7.70202141,20.0703334 C7.70202141,18.9897927 8.59146162,18.1110574 9.6851657,18.1110574 C10.7788698,18.1110574 11.66831,18.9897927 11.66831,20.0703334 C11.66831,21.1508741 10.7788698,22.0296094 9.6851657,22.0296094 L9.6851657,22.0296094 Z M26.3559724,19.879304 C26.1070878,19.7671355 25.997519,19.4766728 26.1115498,19.2302938 C26.2255806,18.9844047 26.5200776,18.8761547 26.7684664,18.9888131 L28.9995037,19.9968606 C29.601388,18.4700948 29.9370352,16.8483041 29.9920674,15.1721434 L25.55032,15.1721434 C25.2766461,15.1721434 25.0545339,14.9527045 25.0545339,14.6823244 C25.0545339,14.4119444 25.2766461,14.1925055 25.55032,14.1925055 L30,14.1925055 C29.944472,12.532019 29.6098164,10.9405971 29.0391666,9.46232339 L26.8309354,10.5041684 C26.7620212,10.5364965 26.6891406,10.5516808 26.6177474,10.5516808 C26.4328192,10.5516808 26.254832,10.4488189 26.1700526,10.2729738 C26.0520555,10.029044 26.1566664,9.73662203 26.4040636,9.62004511 L28.6539408,8.55860734 C27.9677729,7.08621144 27.0426361,5.74508702 25.9271174,4.58274654 L24.2672256,6.35589131 C24.1695558,6.46022276 24.0361893,6.51312321 23.9028229,6.51312321 C23.7828427,6.51312321 23.6618709,6.47001914 23.5666799,6.38283136 C23.3653908,6.19914923 23.3529961,5.88958363 23.5394117,5.69071711 L25.2226054,3.89308139 C24.1006415,2.86838005 22.8190345,2.0136459 21.4194305,1.366595 L20.4005901,3.59772054 C20.3177938,3.77895357 20.1373277,3.88622393 19.9484332,3.88622393 C19.8800147,3.88622393 19.8106046,3.87250899 19.7446651,3.84311985 C19.4952847,3.73193094 19.3837328,3.44146828 19.4967721,3.19508932 L20.5071841,0.98208709 C18.987104,0.398712664 17.3475394,0.0558393657 15.6345986,0 L15.6345986,4.3961255 C15.6345986,4.66650559 15.4124864,4.8859445 15.1388125,4.8859445 C14.8651386,4.8859445 14.6430264,4.66650559 14.6430264,4.3961255 L14.6430264,0 C13.0371753,0.0524106327 11.4937933,0.353649316 10.0545263,0.872857453 L10.926614,3.17010855 C11.0227965,3.42334497 10.8929006,3.70548072 10.6360834,3.8005056 C10.579068,3.82156782 10.5200694,3.83185402 10.4620625,3.83185402 C10.2617649,3.83185402 10.0728704,3.71037891 9.99800671,3.51396149 L9.13583473,1.24218098 C7.59840212,1.91519228 6.19731068,2.83752145 4.98560952,3.95871714 L6.72482706,5.67700218 C6.91867941,5.86852141 6.91867941,6.17857683 6.72482706,6.36960624 C6.62814877,6.46561077 6.50122754,6.51312321 6.37430631,6.51312321 C6.24738507,6.51312321 6.12095962,6.46561077 6.02378555,6.36960624 L4.28456801,4.6513212 C3.21862796,5.77594562 2.32968353,7.06563904 1.66086812,8.47729739 L3.91917368,9.48387543 C4.16904986,9.59506434 4.28010594,9.88552701 4.1675625,10.131906 C4.08476622,10.313139 3.90380431,10.4204094 3.71490982,10.4204094 C3.64698712,10.4204094 3.57757707,10.4066944 3.51163753,10.3768155 L1.27167605,9.37856434 C0.68119484,10.8803494 0.33414459,12.5001808 0.277624977,14.1925055 L4.72730497,14.1925055 C5.00097889,14.1925055 5.22309105,14.4119444 5.22309105,14.6823244 C5.22309105,14.9527045 5.00097889,15.1721434 4.72730497,15.1721434 L0.285557554,15.1721434 C0.338606664,16.7831581 0.648472959,18.3447011 1.20672808,19.8190563 L3.46305049,18.8531332 C3.71391824,18.7458629 4.00593624,18.8595009 4.11500918,19.1078391 C4.22408211,19.3561773 4.10856396,19.6441909 3.85720042,19.7519511 L1.5795592,20.7271807 C2.07782421,21.8126196 2.71143881,22.8441784 3.48139458,23.8037338 C3.57559393,23.9203107 3.7188761,23.9888854 3.87009086,23.9888854 L26.4075341,23.9888854 C26.5587489,23.9888854 26.702031,23.9203107 26.7962304,23.8037338 C27.5250359,22.8956094 28.1259286,21.9203798 28.611799,20.8986173 L26.3559724,19.879304 Z" id="Shape" fill="#F8B039"></path>
                                    <polygon id="Shape" fill="#000000" points="18.125 8.32328463 22.625 8.32328463 22.625 7.43411665 18.125 7.43411665"></polygon>
                                </g>
                            </g>
                        </g>
                    </g>
                </g>
            </g>
        </g>
    </g>
</svg>